<?xml version="1.0" encoding="utf-8"?>
<!-- Generator: Adobe Illustrator 18.0.0, SVG Export Plug-In . SVG Version: 6.00 Build 0)  -->
<!DOCTYPE svg PUBLIC "-//W3C//DTD SVG 1.1//EN" "http://www.w3.org/Graphics/SVG/1.1/DTD/svg11.dtd">
<svg version="1.1" xmlns="http://www.w3.org/2000/svg" xmlns:xlink="http://www.w3.org/1999/xlink" x="0px" y="0px"
	 viewBox="0 0 170 170" style="enable-background:new 0 0 170 170;" xml:space="preserve">
<style type="text/css">
	.st0{display:none;}
	.st1{display:inline;enable-background:new    ;}
	.st2{clip-path:url(#SVGID_2_);}
	.st3{clip-path:url(#SVGID_4_);}
	.st4{clip-path:url(#SVGID_6_);}
	.st5{opacity:0;clip-path:url(#SVGID_8_);}
	.st6{opacity:0;}
	.st7{clip-path:url(#SVGID_10_);}
	.st8{clip-path:url(#SVGID_14_);}
	.st9{clip-path:url(#SVGID_16_);}
	.st10{clip-path:url(#SVGID_18_);}
	.st11{clip-path:url(#SVGID_20_);}
	.st12{clip-path:url(#SVGID_24_);}
	.st13{clip-path:url(#SVGID_26_);}
	.st14{clip-path:url(#SVGID_28_);}
	.st15{opacity:0;clip-path:url(#SVGID_30_);}
	.st16{clip-path:url(#SVGID_32_);}
	.st17{clip-path:url(#SVGID_36_);}
	.st18{clip-path:url(#SVGID_38_);}
	.st19{clip-path:url(#SVGID_40_);}
	.st20{clip-path:url(#SVGID_42_);}
	.st21{clip-path:url(#SVGID_46_);}
	.st22{clip-path:url(#SVGID_48_);}
	.st23{clip-path:url(#SVGID_50_);}
	.st24{opacity:0;clip-path:url(#SVGID_52_);}
	.st25{clip-path:url(#SVGID_54_);}
	.st26{clip-path:url(#SVGID_58_);}
	.st27{clip-path:url(#SVGID_60_);}
	.st28{clip-path:url(#SVGID_62_);}
	.st29{clip-path:url(#SVGID_64_);}
	.st30{clip-path:url(#SVGID_68_);}
	.st31{clip-path:url(#SVGID_70_);}
	.st32{clip-path:url(#SVGID_72_);}
	.st33{opacity:0;clip-path:url(#SVGID_74_);}
	.st34{clip-path:url(#SVGID_76_);}
	.st35{clip-path:url(#SVGID_80_);}
	.st36{clip-path:url(#SVGID_82_);}
	.st37{clip-path:url(#SVGID_84_);}
	.st38{clip-path:url(#SVGID_86_);}
	.st39{clip-path:url(#SVGID_90_);}
	.st40{clip-path:url(#SVGID_92_);}
	.st41{clip-path:url(#SVGID_94_);}
	.st42{opacity:0;clip-path:url(#SVGID_96_);}
	.st43{clip-path:url(#SVGID_98_);}
	.st44{clip-path:url(#SVGID_102_);}
	.st45{clip-path:url(#SVGID_104_);}
	.st46{clip-path:url(#SVGID_106_);}
	.st47{clip-path:url(#SVGID_108_);}
	.st48{clip-path:url(#SVGID_112_);}
	.st49{clip-path:url(#SVGID_114_);}
	.st50{clip-path:url(#SVGID_116_);}
	.st51{opacity:0;clip-path:url(#SVGID_118_);}
	.st52{clip-path:url(#SVGID_120_);}
	.st53{clip-path:url(#SVGID_124_);}
	.st54{clip-path:url(#SVGID_126_);}
	.st55{clip-path:url(#SVGID_128_);}
	.st56{clip-path:url(#SVGID_130_);}
	.st57{display:inline;}
	.st58{fill:#666666;stroke:#FFFFFF;stroke-width:2;stroke-linecap:round;stroke-linejoin:round;stroke-miterlimit:10;}
	.st59{fill:none;stroke:#FFFFFF;stroke-width:1.8;stroke-miterlimit:10;}
	.st60{display:inline;opacity:0.3;}
	.st61{fill:none;stroke:#F2F2F2;stroke-width:0.5;stroke-miterlimit:10;}
	.st62{fill:#FFFFFF;}
	.st63{fill:#989898;}
	.st64{fill:#CBCBCB;}
	.st65{fill:#E5E5E5;}
	.st66{fill:#666666;stroke:#FFFFFF;stroke-width:3;stroke-linecap:round;stroke-linejoin:round;stroke-miterlimit:10;}
	.st67{fill:#666666;stroke:#FFFFFF;stroke-width:2;stroke-miterlimit:10;}
	.st68{fill:none;stroke:#989898;stroke-width:2;stroke-miterlimit:10;}
	.st69{fill:#CCCCCC;}
	.st70{fill:none;stroke:#CCCCCC;stroke-miterlimit:10;}
	.st71{fill:none;stroke:#989898;stroke-width:3;stroke-linejoin:round;stroke-miterlimit:10;}
	.st72{fill:none;}
	.st73{fill:#B2B2B2;}
	.st74{fill:#4D4D4D;}
	.st75{fill:#666666;}
	.st76{fill:#F1F1F1;}
	.st77{fill:none;stroke:#CBCBCB;stroke-width:3;stroke-linecap:round;stroke-linejoin:round;stroke-miterlimit:10;}
	.st78{fill:#808080;}
	.st79{fill:url(#SVGID_133_);}
	.st80{fill:#999999;}
	.st81{fill:none;stroke:#B2B2B2;stroke-miterlimit:10;}
	.st82{fill:none;stroke:#F1F1F1;stroke-width:1.6;stroke-miterlimit:10;}
	.st83{fill:none;stroke:#CBCBCB;stroke-linecap:round;stroke-linejoin:round;stroke-miterlimit:10;}
	.st84{fill:none;stroke:#FFFFFF;stroke-miterlimit:10;}
	.st85{fill:none;stroke:#989898;stroke-width:3;stroke-linecap:round;stroke-linejoin:round;stroke-miterlimit:10;}
	.st86{opacity:0.5;fill:#666666;}
	.st87{fill:none;stroke:#E5E5E5;stroke-width:2;stroke-linecap:round;stroke-linejoin:round;stroke-miterlimit:10;}
	.st88{fill:none;stroke:#CCCCCC;stroke-width:3;stroke-miterlimit:10;}
	.st89{fill:#FFFFFF;stroke:#FFFFFF;stroke-miterlimit:10;}
	.st90{fill:none;stroke:#FFFFFF;stroke-width:3;stroke-miterlimit:10;}
	.st91{fill:none;stroke:#FFFFFF;stroke-width:2;stroke-miterlimit:10;}
	.st92{fill:none;stroke:#FFFFFF;stroke-width:3;stroke-linecap:round;stroke-linejoin:round;stroke-miterlimit:10;}
</style>
<g id="Layer_2" class="st0">
	<g class="st1">
		<g>
			<defs>
				<rect id="SVGID_1_" x="-23.5" y="-402.2" width="399.3" height="2688.7"/>
			</defs>
			<clipPath id="SVGID_2_">
				<use xlink:href="#SVGID_1_"  style="overflow:visible;"/>
			</clipPath>
			<g class="st2">
				<defs>
					<rect id="SVGID_3_" x="-23.5" y="-2201.2" width="399.3" height="4625.6"/>
				</defs>
				<clipPath id="SVGID_4_">
					<use xlink:href="#SVGID_3_"  style="overflow:visible;"/>
				</clipPath>
				<g class="st3">
					<defs>
						<rect id="SVGID_5_" x="-23.5" y="-402.2" width="399.3" height="2688.7"/>
					</defs>
					<clipPath id="SVGID_6_">
						<use xlink:href="#SVGID_5_"  style="overflow:visible;"/>
					</clipPath>
					<g class="st4">
						<defs>
							<rect id="SVGID_7_" x="-23.5" y="-402.2" width="399.3" height="2688.7"/>
						</defs>
						<clipPath id="SVGID_8_">
							<use xlink:href="#SVGID_7_"  style="overflow:visible;"/>
						</clipPath>
						<g class="st5">
							<g class="st6">
								<g>
									<defs>
										<rect id="SVGID_9_" x="-23.5" y="-402.2" width="399.3" height="2688.7"/>
									</defs>
									<clipPath id="SVGID_10_">
										<use xlink:href="#SVGID_9_"  style="overflow:visible;"/>
									</clipPath>
									<g class="st7">
										<defs>
											<rect id="SVGID_11_" x="-23.5" y="-402.2" width="399.3" height="2688.7"/>
										</defs>
										<clipPath id="SVGID_12_">
											<use xlink:href="#SVGID_11_"  style="overflow:visible;"/>
										</clipPath>
										<g style="clip-path:url(#SVGID_12_);">
											
												<image style="overflow:visible;" width="1664" height="11204" xlink:href="6C30737059933ADD.jpg"  transform="matrix(0.24 0 0 0.24 -23.5083 -402.1707)">
											</image>
										</g>
									</g>
								</g>
							</g>
						</g>
					</g>
				</g>
			</g>
			<g class="st2">
				<defs>
					<rect id="SVGID_13_" x="-23.5" y="-2201.2" width="399.3" height="4625.6"/>
				</defs>
				<clipPath id="SVGID_14_">
					<use xlink:href="#SVGID_13_"  style="overflow:visible;"/>
				</clipPath>
				<g class="st8">
					<defs>
						<rect id="SVGID_15_" x="-23.5" y="-402.2" width="399.3" height="2688.7"/>
					</defs>
					<clipPath id="SVGID_16_">
						<use xlink:href="#SVGID_15_"  style="overflow:visible;"/>
					</clipPath>
					<g class="st9">
						<defs>
							<rect id="SVGID_17_" x="-23.5" y="-402.2" width="399.3" height="2688.7"/>
						</defs>
						<clipPath id="SVGID_18_">
							<use xlink:href="#SVGID_17_"  style="overflow:visible;"/>
						</clipPath>
						<g class="st10">
							<g>
								<defs>
									<rect id="SVGID_19_" x="-23.5" y="-402.2" width="399.3" height="2688.7"/>
								</defs>
								<clipPath id="SVGID_20_">
									<use xlink:href="#SVGID_19_"  style="overflow:visible;"/>
								</clipPath>
								<g class="st11">
									<defs>
										<rect id="SVGID_21_" x="-23.5" y="-402.2" width="399.3" height="2688.7"/>
									</defs>
									<clipPath id="SVGID_22_">
										<use xlink:href="#SVGID_21_"  style="overflow:visible;"/>
									</clipPath>
									<g style="clip-path:url(#SVGID_22_);">
										
											<image style="overflow:visible;" width="1664" height="11204" xlink:href="6C30737059933ADF.jpg"  transform="matrix(0.24 0 0 0.24 -23.5083 -402.1707)">
										</image>
									</g>
								</g>
							</g>
						</g>
					</g>
				</g>
			</g>
		</g>
	</g>
</g>
<g id="GRIDS" class="st0">
	<g class="st60">
		<rect y="0" class="st61" width="170" height="170"/>
		<line class="st61" x1="0" y1="0" x2="170" y2="170"/>
		<line class="st61" x1="170" y1="0" x2="0" y2="170"/>
		<line class="st61" x1="0" y1="85" x2="170" y2="85"/>
		<line class="st61" x1="0" y1="54" x2="170" y2="54"/>
		<line class="st61" x1="0" y1="116" x2="170" y2="116"/>
		<line class="st61" x1="0" y1="11" x2="170" y2="11"/>
		<line class="st61" x1="0" y1="159" x2="170" y2="159"/>
		<line class="st61" x1="85" y1="0" x2="85" y2="170"/>
		<line class="st61" x1="159" y1="0" x2="159" y2="170"/>
		<circle class="st61" cx="85" cy="85" r="31"/>
		<circle class="st61" cx="85" cy="85" r="44"/>
		<circle class="st61" cx="85" cy="85" r="74"/>
		<line class="st61" x1="54" y1="0" x2="54" y2="170"/>
		<line class="st61" x1="11" y1="0" x2="11" y2="170"/>
		<line class="st61" x1="116" y1="0" x2="116" y2="170"/>
	</g>
</g>
<g id="MOTION_PROTECT">
	<g>
		<g>
			<rect x="16" y="48.7" class="st76" width="3.3" height="5.9"/>
			<rect x="22.1" y="48.7" class="st76" width="3.3" height="5.9"/>
			<rect x="28.2" y="48.7" class="st76" width="3.3" height="5.9"/>
			<rect x="34.3" y="48.7" class="st76" width="3.3" height="5.9"/>
			<rect x="40.4" y="48.7" class="st76" width="3.3" height="5.9"/>
			<rect x="46.5" y="48.7" class="st76" width="3.3" height="5.9"/>
			<rect x="52.7" y="48.7" class="st76" width="3.3" height="5.9"/>
			<rect x="58.8" y="48.7" class="st76" width="3.3" height="5.9"/>
			<rect x="64.9" y="48.7" class="st76" width="3.3" height="5.9"/>
			<rect x="16" y="115.2" class="st76" width="3.3" height="5.9"/>
			<rect x="22.1" y="115.2" class="st76" width="3.3" height="5.9"/>
			<rect x="28.2" y="115.2" class="st76" width="3.3" height="5.9"/>
			<rect x="34.3" y="115.2" class="st76" width="3.3" height="5.9"/>
			<rect x="40.4" y="115.2" class="st76" width="3.3" height="5.9"/>
			<rect x="46.5" y="115.2" class="st76" width="3.3" height="5.9"/>
			<rect x="52.7" y="115.2" class="st76" width="3.3" height="5.9"/>
			<rect x="58.8" y="115.2" class="st76" width="3.3" height="5.9"/>
			<rect x="64.9" y="115.2" class="st76" width="3.3" height="5.9"/>
			<rect x="72.4" y="59.5" class="st76" width="5.9" height="3.3"/>
			<rect x="72.4" y="65.6" class="st76" width="5.9" height="3.3"/>
			<rect x="72.4" y="71.7" class="st76" width="5.9" height="3.3"/>
			<rect x="72.4" y="77.8" class="st76" width="5.9" height="3.3"/>
			<rect x="72.4" y="83.9" class="st76" width="5.9" height="3.3"/>
			<rect x="72.4" y="90" class="st76" width="5.9" height="3.3"/>
			<rect x="72.4" y="96.1" class="st76" width="5.9" height="3.3"/>
			<rect x="72.4" y="102.2" class="st76" width="5.9" height="3.3"/>
			<rect x="72.4" y="108.3" class="st76" width="5.9" height="3.3"/>
			<rect x="6" y="59.5" class="st76" width="5.9" height="3.3"/>
			<rect x="6" y="65.6" class="st76" width="5.9" height="3.3"/>
			<rect x="6" y="71.7" class="st76" width="5.9" height="3.3"/>
			<rect x="6" y="77.8" class="st76" width="5.9" height="3.3"/>
			<rect x="6" y="83.9" class="st76" width="5.9" height="3.3"/>
			<rect x="6" y="90" class="st76" width="5.9" height="3.3"/>
			<rect x="6" y="96.1" class="st76" width="5.9" height="3.3"/>
			<rect x="6" y="102.2" class="st76" width="5.9" height="3.3"/>
			<rect x="6" y="108.3" class="st76" width="5.9" height="3.3"/>
		</g>
		<g>
			<path class="st75" d="M69.7,54.5H14.5c-1.5,0-2.7,1.2-2.7,2.7v55.2c0,1.5,1.2,2.7,2.7,2.7h55.2c1.5,0,2.7-1.2,2.7-2.7V57.2
				C72.4,55.8,71.2,54.5,69.7,54.5z"/>
			<path class="st62" d="M69.7,54H14.5c-1.8,0-3.2,1.4-3.2,3.2v55.2c0,1.8,1.4,3.2,3.2,3.2h55.2c1.8,0,3.2-1.4,3.2-3.2V57.2
				C72.9,55.5,71.5,54,69.7,54z M71.9,112.5c0,1.2-1,2.2-2.2,2.2H14.5c-1.2,0-2.2-1-2.2-2.2V57.2c0-1.2,1-2.2,2.2-2.2h55.2
				c1.2,0,2.2,1,2.2,2.2V112.5z"/>
		</g>
	</g>
	<polygon class="st63" points="104.6,83.4 88.6,83.4 94.6,77.4 92.5,75.3 82.9,84.9 92.5,94.4 94.6,92.3 88.6,86.4 104.6,86.4 	"/>
	<g>
		<g>
			<path class="st64" d="M125.5,84.6c-0.8,0-1.5,0.7-1.5,1.5v37.3c0,0.8,0.7,1.5,1.5,1.5s1.5-0.7,1.5-1.5V86.1
				C127,85.3,126.3,84.6,125.5,84.6z"/>
			<path class="st64" d="M141.8,84.6c-0.8,0-1.5,0.7-1.5,1.5v37.3c0,0.8,0.7,1.5,1.5,1.5s1.5-0.7,1.5-1.5V86.1
				C143.3,85.3,142.6,84.6,141.8,84.6z"/>
			<path class="st64" d="M119.6,83.1c-0.8,0-1.5,0.7-1.5,1.5V133c0,0.8,0.7,1.5,1.5,1.5s1.5-0.7,1.5-1.5V84.6
				C121.1,83.7,120.5,83.1,119.6,83.1z"/>
			<path class="st64" d="M147.6,83.1c-0.8,0-1.5,0.7-1.5,1.5V133c0,0.8,0.7,1.5,1.5,1.5s1.5-0.7,1.5-1.5V84.6
				C149.1,83.7,148.4,83.1,147.6,83.1z"/>
		</g>
		<path class="st62" d="M159.5,60.2V49.8c0-9-11.4-16-25.9-16s-25.9,7-25.9,16v10.4c-2.6,2.8-3.9,5.9-3.9,9.1
			c0,10.1,13.4,18.3,29.8,18.3c16.4,0,29.8-8.2,29.8-18.3C163.4,66.1,162.1,62.9,159.5,60.2z M133.6,36.8c12.4,0,22.9,6,22.9,13
			s-10.5,13-22.9,13s-22.9-6-22.9-13S121.2,36.8,133.6,36.8z M133.6,65.8c10.1,0,18.6-3.4,22.9-8.4v10c0,7-10.5,13-22.9,13
			s-22.9-6-22.9-13v-6.6c0,0,0,0,0-0.1v-3.3C115,62.5,123.6,65.8,133.6,65.8z M133.6,84.6c-14.8,0-26.8-6.9-26.8-15.3
			c0-1.3,0.3-2.6,0.9-3.9v3.1c0,0.2,0.1,0.4,0.1,0.6c1.3,8.1,12.2,14.3,25.8,14.3s24.4-6.2,25.8-14.3c0.1-0.2,0.1-0.4,0.1-0.6v-3.1
			c0.6,1.3,0.9,2.6,0.9,3.9C160.4,77.8,148.4,84.6,133.6,84.6z"/>
	</g>
	<g>
		<path class="st75" d="M141.4,41.1h-15.6c-2.1,0-3.7,1.7-3.7,3.7v9.4c0,2.1,1.7,3.7,3.7,3.7h15.6c2.1,0,3.7-1.7,3.7-3.7v-9.4
			C145.2,42.8,143.5,41.1,141.4,41.1z"/>
		<path class="st62" d="M141.4,40.6h-15.6c-2.3,0-4.2,1.9-4.2,4.2v9.4c0,2.3,1.9,4.2,4.2,4.2h15.6c2.3,0,4.2-1.9,4.2-4.2v-9.4
			C145.7,42.5,143.8,40.6,141.4,40.6z M144.7,54.2c0,1.8-1.5,3.2-3.2,3.2h-15.6c-1.8,0-3.2-1.5-3.2-3.2v-9.4c0-1.8,1.5-3.2,3.2-3.2
			h15.6c1.8,0,3.2,1.5,3.2,3.2V54.2z"/>
	</g>
</g>
<g id="Archive">
</g>
<g id="Archive_2">
</g>
<g id="Layer_6">
</g>
</svg>
