<?xml version="1.0" encoding="utf-8"?>
<!-- Generator: Adobe Illustrator 18.0.0, SVG Export Plug-In . SVG Version: 6.00 Build 0)  -->
<!DOCTYPE svg PUBLIC "-//W3C//DTD SVG 1.1//EN" "http://www.w3.org/Graphics/SVG/1.1/DTD/svg11.dtd">
<svg version="1.1" xmlns="http://www.w3.org/2000/svg" xmlns:xlink="http://www.w3.org/1999/xlink" x="0px" y="0px"
	 viewBox="0 0 170 170" style="enable-background:new 0 0 170 170;" xml:space="preserve">
<style type="text/css">
	.st0{display:none;}
	.st1{display:inline;enable-background:new    ;}
	.st2{clip-path:url(#SVGID_2_);}
	.st3{clip-path:url(#SVGID_4_);}
	.st4{clip-path:url(#SVGID_6_);}
	.st5{opacity:0;clip-path:url(#SVGID_8_);}
	.st6{opacity:0;}
	.st7{clip-path:url(#SVGID_10_);}
	.st8{clip-path:url(#SVGID_14_);}
	.st9{clip-path:url(#SVGID_16_);}
	.st10{clip-path:url(#SVGID_18_);}
	.st11{clip-path:url(#SVGID_20_);}
	.st12{clip-path:url(#SVGID_24_);}
	.st13{clip-path:url(#SVGID_26_);}
	.st14{clip-path:url(#SVGID_28_);}
	.st15{opacity:0;clip-path:url(#SVGID_30_);}
	.st16{clip-path:url(#SVGID_32_);}
	.st17{clip-path:url(#SVGID_36_);}
	.st18{clip-path:url(#SVGID_38_);}
	.st19{clip-path:url(#SVGID_40_);}
	.st20{clip-path:url(#SVGID_42_);}
	.st21{clip-path:url(#SVGID_46_);}
	.st22{clip-path:url(#SVGID_48_);}
	.st23{clip-path:url(#SVGID_50_);}
	.st24{opacity:0;clip-path:url(#SVGID_52_);}
	.st25{clip-path:url(#SVGID_54_);}
	.st26{clip-path:url(#SVGID_58_);}
	.st27{clip-path:url(#SVGID_60_);}
	.st28{clip-path:url(#SVGID_62_);}
	.st29{clip-path:url(#SVGID_64_);}
	.st30{clip-path:url(#SVGID_68_);}
	.st31{clip-path:url(#SVGID_70_);}
	.st32{clip-path:url(#SVGID_72_);}
	.st33{opacity:0;clip-path:url(#SVGID_74_);}
	.st34{clip-path:url(#SVGID_76_);}
	.st35{clip-path:url(#SVGID_80_);}
	.st36{clip-path:url(#SVGID_82_);}
	.st37{clip-path:url(#SVGID_84_);}
	.st38{clip-path:url(#SVGID_86_);}
	.st39{clip-path:url(#SVGID_90_);}
	.st40{clip-path:url(#SVGID_92_);}
	.st41{clip-path:url(#SVGID_94_);}
	.st42{opacity:0;clip-path:url(#SVGID_96_);}
	.st43{clip-path:url(#SVGID_98_);}
	.st44{clip-path:url(#SVGID_102_);}
	.st45{clip-path:url(#SVGID_104_);}
	.st46{clip-path:url(#SVGID_106_);}
	.st47{clip-path:url(#SVGID_108_);}
	.st48{clip-path:url(#SVGID_112_);}
	.st49{clip-path:url(#SVGID_114_);}
	.st50{clip-path:url(#SVGID_116_);}
	.st51{opacity:0;clip-path:url(#SVGID_118_);}
	.st52{clip-path:url(#SVGID_120_);}
	.st53{clip-path:url(#SVGID_124_);}
	.st54{clip-path:url(#SVGID_126_);}
	.st55{clip-path:url(#SVGID_128_);}
	.st56{clip-path:url(#SVGID_130_);}
	.st57{display:inline;}
	.st58{fill:#666666;stroke:#FFFFFF;stroke-width:2;stroke-linecap:round;stroke-linejoin:round;stroke-miterlimit:10;}
	.st59{fill:none;stroke:#FFFFFF;stroke-width:1.8;stroke-miterlimit:10;}
	.st60{display:inline;opacity:0.3;}
	.st61{fill:none;stroke:#F2F2F2;stroke-width:0.5;stroke-miterlimit:10;}
	.st62{fill:#FFFFFF;}
	.st63{fill:#989898;}
	.st64{fill:#CBCBCB;}
	.st65{fill:#E5E5E5;}
	.st66{fill:#666666;stroke:#FFFFFF;stroke-width:3;stroke-linecap:round;stroke-linejoin:round;stroke-miterlimit:10;}
	.st67{fill:#666666;stroke:#FFFFFF;stroke-width:2;stroke-miterlimit:10;}
	.st68{fill:none;stroke:#989898;stroke-width:2;stroke-miterlimit:10;}
	.st69{fill:#CCCCCC;}
	.st70{fill:none;stroke:#CCCCCC;stroke-miterlimit:10;}
	.st71{fill:none;stroke:#989898;stroke-width:3;stroke-linejoin:round;stroke-miterlimit:10;}
	.st72{fill:none;}
	.st73{fill:#B2B2B2;}
	.st74{fill:#4D4D4D;}
	.st75{fill:#666666;}
	.st76{fill:#F1F1F1;}
	.st77{fill:none;stroke:#CBCBCB;stroke-width:3;stroke-linecap:round;stroke-linejoin:round;stroke-miterlimit:10;}
	.st78{fill:#808080;}
	.st79{fill:url(#SVGID_133_);}
	.st80{fill:#999999;}
	.st81{fill:none;stroke:#B2B2B2;stroke-miterlimit:10;}
	.st82{fill:none;stroke:#F1F1F1;stroke-width:1.6;stroke-miterlimit:10;}
	.st83{fill:none;stroke:#CBCBCB;stroke-linecap:round;stroke-linejoin:round;stroke-miterlimit:10;}
	.st84{fill:none;stroke:#FFFFFF;stroke-miterlimit:10;}
	.st85{fill:none;stroke:#989898;stroke-width:3;stroke-linecap:round;stroke-linejoin:round;stroke-miterlimit:10;}
	.st86{opacity:0.5;fill:#666666;}
	.st87{fill:none;stroke:#E5E5E5;stroke-width:2;stroke-linecap:round;stroke-linejoin:round;stroke-miterlimit:10;}
	.st88{fill:none;stroke:#CCCCCC;stroke-width:3;stroke-miterlimit:10;}
	.st89{fill:#FFFFFF;stroke:#FFFFFF;stroke-miterlimit:10;}
	.st90{fill:none;stroke:#FFFFFF;stroke-width:3;stroke-miterlimit:10;}
	.st91{fill:none;stroke:#FFFFFF;stroke-width:2;stroke-miterlimit:10;}
	.st92{fill:none;stroke:#FFFFFF;stroke-width:3;stroke-linecap:round;stroke-linejoin:round;stroke-miterlimit:10;}
</style>
<g id="Layer_2" class="st0">
	<g class="st1">
		<g>
			<defs>
				<rect id="SVGID_1_" x="-23.5" y="-2112.2" width="399.3" height="2688.7"/>
			</defs>
			<clipPath id="SVGID_2_">
				<use xlink:href="#SVGID_1_"  style="overflow:visible;"/>
			</clipPath>
			<g class="st2">
				<defs>
					<rect id="SVGID_3_" x="-23.5" y="-3911.2" width="399.3" height="4625.6"/>
				</defs>
				<clipPath id="SVGID_4_">
					<use xlink:href="#SVGID_3_"  style="overflow:visible;"/>
				</clipPath>
				<g class="st3">
					<defs>
						<rect id="SVGID_5_" x="-23.5" y="-2112.2" width="399.3" height="2688.7"/>
					</defs>
					<clipPath id="SVGID_6_">
						<use xlink:href="#SVGID_5_"  style="overflow:visible;"/>
					</clipPath>
					<g class="st4">
						<defs>
							<rect id="SVGID_7_" x="-23.5" y="-2112.2" width="399.3" height="2688.7"/>
						</defs>
						<clipPath id="SVGID_8_">
							<use xlink:href="#SVGID_7_"  style="overflow:visible;"/>
						</clipPath>
						<g class="st5">
							<g class="st6">
								<g>
									<defs>
										<rect id="SVGID_9_" x="-23.5" y="-2112.2" width="399.3" height="2688.7"/>
									</defs>
									<clipPath id="SVGID_10_">
										<use xlink:href="#SVGID_9_"  style="overflow:visible;"/>
									</clipPath>
									<g class="st7">
										<defs>
											<rect id="SVGID_11_" x="-23.5" y="-2112.2" width="399.3" height="2688.7"/>
										</defs>
										<clipPath id="SVGID_12_">
											<use xlink:href="#SVGID_11_"  style="overflow:visible;"/>
										</clipPath>
										<g style="clip-path:url(#SVGID_12_);">
											
												<image style="overflow:visible;" width="1664" height="11204" xlink:href="16E66BE667C521D7.jpg"  transform="matrix(0.24 0 0 0.24 -23.5083 -2112.1707)">
											</image>
										</g>
									</g>
								</g>
							</g>
						</g>
					</g>
				</g>
			</g>
			<g class="st2">
				<defs>
					<rect id="SVGID_13_" x="-23.5" y="-3911.2" width="399.3" height="4625.6"/>
				</defs>
				<clipPath id="SVGID_14_">
					<use xlink:href="#SVGID_13_"  style="overflow:visible;"/>
				</clipPath>
				<g class="st8">
					<defs>
						<rect id="SVGID_15_" x="-23.5" y="-2112.2" width="399.3" height="2688.7"/>
					</defs>
					<clipPath id="SVGID_16_">
						<use xlink:href="#SVGID_15_"  style="overflow:visible;"/>
					</clipPath>
					<g class="st9">
						<defs>
							<rect id="SVGID_17_" x="-23.5" y="-2112.2" width="399.3" height="2688.7"/>
						</defs>
						<clipPath id="SVGID_18_">
							<use xlink:href="#SVGID_17_"  style="overflow:visible;"/>
						</clipPath>
						<g class="st10">
							<g>
								<defs>
									<rect id="SVGID_19_" x="-23.5" y="-2112.2" width="399.3" height="2688.7"/>
								</defs>
								<clipPath id="SVGID_20_">
									<use xlink:href="#SVGID_19_"  style="overflow:visible;"/>
								</clipPath>
								<g class="st11">
									<defs>
										<rect id="SVGID_21_" x="-23.5" y="-2112.2" width="399.3" height="2688.7"/>
									</defs>
									<clipPath id="SVGID_22_">
										<use xlink:href="#SVGID_21_"  style="overflow:visible;"/>
									</clipPath>
									<g style="clip-path:url(#SVGID_22_);">
										
											<image style="overflow:visible;" width="1664" height="11204" xlink:href="16E66BE667C521D5.jpg"  transform="matrix(0.24 0 0 0.24 -23.5083 -2112.1707)">
										</image>
									</g>
								</g>
							</g>
						</g>
					</g>
				</g>
			</g>
		</g>
	</g>
</g>
<g id="GRIDS" class="st0">
	<g class="st60">
		<rect class="st61" width="170" height="170"/>
		<line class="st61" x1="0" y1="0" x2="170" y2="170"/>
		<line class="st61" x1="170" y1="0" x2="0" y2="170"/>
		<line class="st61" x1="0" y1="85" x2="170" y2="85"/>
		<line class="st61" x1="0" y1="54" x2="170" y2="54"/>
		<line class="st61" x1="0" y1="116" x2="170" y2="116"/>
		<line class="st61" x1="0" y1="11" x2="170" y2="11"/>
		<line class="st61" x1="0" y1="159" x2="170" y2="159"/>
		<line class="st61" x1="85" y1="0" x2="85" y2="170"/>
		<line class="st61" x1="159" y1="0" x2="159" y2="170"/>
		<circle class="st61" cx="85" cy="85" r="31"/>
		<circle class="st61" cx="85" cy="85" r="44"/>
		<circle class="st61" cx="85" cy="85" r="74"/>
		<line class="st61" x1="54" y1="0" x2="54" y2="170"/>
		<line class="st61" x1="11" y1="0" x2="11" y2="170"/>
		<line class="st61" x1="116" y1="0" x2="116" y2="170"/>
	</g>
</g>
<g id="MOTION_PROTECT">
	<g>
		<path class="st62" d="M16.1,84.6c1.6-0.8,2.8-1.7,3.5-2.8s1.1-2.2,1.1-3.5c0-1.9-0.8-3.4-2.3-4.5s-3.5-1.7-6-1.7
			c-2.4,0-4.4,0.6-6,1.7s-2.3,2.6-2.3,4.5c0,1.3,0.3,2.4,1,3.5s1.7,2,3.2,3c-1.7,0.9-3,1.9-3.8,3s-1.2,2.4-1.2,3.9
			c0,2.2,0.8,3.9,2.4,5.1s3.8,1.8,6.6,1.8c2.7,0,4.9-0.6,6.5-1.9s2.5-3,2.5-5.1c0-1.3-0.4-2.6-1.3-3.7S18,85.6,16.1,84.6z
			 M10.2,76.8c0.6-0.5,1.3-0.7,2.2-0.7c0.9,0,1.7,0.2,2.2,0.7s0.9,1.1,0.9,1.9c0,0.7-0.2,1.4-0.7,2s-1.3,1.1-2.4,1.7
			c-1.2-0.6-2-1.2-2.5-1.7s-0.7-1.2-0.7-1.9C9.3,77.9,9.6,77.3,10.2,76.8z M15.4,93.6c-0.7,0.6-1.7,0.9-3,0.9
			c-1.2,0-2.2-0.3-2.9-0.8s-1.1-1.3-1.1-2.4c0-1.8,1.2-3.2,3.7-4.4c1.5,0.8,2.6,1.5,3.2,2.2s1,1.4,1,2.2
			C16.4,92.3,16.1,93.1,15.4,93.6z"/>
		<path class="st62" d="M34.8,81.5c-2.6,0-4.4,1-5.6,3H29c0.1-2,0.5-3.6,1-4.7s1.5-1.9,2.6-2.5s2.7-0.8,4.6-0.8c1,0,2.1,0.1,3.1,0.4
			v-4.3c-0.8-0.2-2-0.3-3.4-0.3c-4.3,0-7.5,1.2-9.7,3.7S24,82.1,24,87.2c0,2.4,0.4,4.4,1.2,6.1s1.9,3,3.3,3.8s3.1,1.3,5,1.3
			c2.7,0,4.9-0.8,6.4-2.4s2.3-3.8,2.3-6.5c0-2.5-0.7-4.5-2-6S37.1,81.5,34.8,81.5z M35.9,93c-0.6,0.8-1.5,1.2-2.7,1.2
			c-1.1,0-2.1-0.5-2.8-1.4s-1.1-2.1-1.1-3.5c0-0.9,0.4-1.8,1.2-2.5s1.7-1.1,2.8-1.1c1.2,0,2,0.4,2.6,1.1s0.9,1.7,0.9,3
			C36.9,91.1,36.5,92.2,35.9,93z"/>
		<path class="st62" d="M57.2,84.6c1.6-0.8,2.8-1.7,3.5-2.8s1.1-2.2,1.1-3.5c0-1.9-0.8-3.4-2.3-4.5s-3.5-1.7-6-1.7
			c-2.4,0-4.4,0.6-6,1.7s-2.3,2.6-2.3,4.5c0,1.3,0.3,2.4,1,3.5s1.7,2,3.2,3c-1.7,0.9-3,1.9-3.8,3s-1.2,2.4-1.2,3.9
			c0,2.2,0.8,3.9,2.4,5.1s3.8,1.8,6.6,1.8c2.7,0,4.9-0.6,6.5-1.9s2.5-3,2.5-5.1c0-1.3-0.4-2.6-1.3-3.7S59.1,85.6,57.2,84.6z
			 M51.3,76.8c0.6-0.5,1.3-0.7,2.2-0.7c0.9,0,1.7,0.2,2.2,0.7s0.9,1.1,0.9,1.9c0,0.7-0.2,1.4-0.7,2s-1.3,1.1-2.4,1.7
			c-1.2-0.6-2-1.2-2.5-1.7s-0.7-1.2-0.7-1.9C50.4,77.9,50.7,77.3,51.3,76.8z M56.5,93.6c-0.7,0.6-1.7,0.9-3,0.9
			c-1.2,0-2.2-0.3-2.9-0.8s-1.1-1.3-1.1-2.4c0-1.8,1.2-3.2,3.7-4.4c1.5,0.8,2.6,1.5,3.2,2.2s1,1.4,1,2.2
			C57.5,92.3,57.2,93.1,56.5,93.6z"/>
		<rect x="64.9" y="86.3" class="st62" width="9.4" height="4.4"/>
		<path class="st62" d="M89.3,84.6c1.6-0.8,2.8-1.7,3.5-2.8s1.1-2.2,1.1-3.5c0-1.9-0.8-3.4-2.3-4.5s-3.5-1.7-6-1.7
			c-2.4,0-4.4,0.6-6,1.7s-2.3,2.6-2.3,4.5c0,1.3,0.3,2.4,1,3.5s1.7,2,3.2,3c-1.7,0.9-3,1.9-3.8,3s-1.2,2.4-1.2,3.9
			c0,2.2,0.8,3.9,2.4,5.1s3.8,1.8,6.6,1.8c2.7,0,4.9-0.6,6.5-1.9s2.5-3,2.5-5.1c0-1.3-0.4-2.6-1.3-3.7S91.2,85.6,89.3,84.6z
			 M83.4,76.8c0.6-0.5,1.3-0.7,2.2-0.7c0.9,0,1.7,0.2,2.2,0.7s0.9,1.1,0.9,1.9c0,0.7-0.2,1.4-0.7,2s-1.3,1.1-2.4,1.7
			c-1.2-0.6-2-1.2-2.5-1.7s-0.7-1.2-0.7-1.9C82.6,77.9,82.8,77.3,83.4,76.8z M88.6,93.6c-0.7,0.6-1.7,0.9-3,0.9
			c-1.2,0-2.2-0.3-2.9-0.8s-1.1-1.3-1.1-2.4c0-1.8,1.2-3.2,3.7-4.4c1.5,0.8,2.6,1.5,3.2,2.2s1,1.4,1,2.2
			C89.6,92.3,89.3,93.1,88.6,93.6z"/>
		<path class="st62" d="M108,81.5c-2.6,0-4.4,1-5.6,3h-0.2c0.1-2,0.5-3.6,1-4.7s1.5-1.9,2.6-2.5s2.7-0.8,4.6-0.8
			c1,0,2.1,0.1,3.1,0.4v-4.3c-0.8-0.2-2-0.3-3.4-0.3c-4.3,0-7.5,1.2-9.7,3.7s-3.2,6.3-3.2,11.4c0,2.4,0.4,4.4,1.2,6.1s1.9,3,3.3,3.8
			s3.1,1.3,5,1.3c2.7,0,4.9-0.8,6.4-2.4s2.3-3.8,2.3-6.5c0-2.5-0.7-4.5-2-6S110.3,81.5,108,81.5z M109.2,93
			c-0.6,0.8-1.5,1.2-2.7,1.2c-1.1,0-2.1-0.5-2.8-1.4s-1.1-2.1-1.1-3.5c0-0.9,0.4-1.8,1.2-2.5s1.7-1.1,2.8-1.1c1.2,0,2,0.4,2.6,1.1
			s0.9,1.7,0.9,3C110.1,91.1,109.8,92.2,109.2,93z"/>
		<path class="st62" d="M130.4,84.6c1.6-0.8,2.8-1.7,3.5-2.8s1.1-2.2,1.1-3.5c0-1.9-0.8-3.4-2.3-4.5s-3.5-1.7-6-1.7
			c-2.4,0-4.4,0.6-6,1.7s-2.3,2.6-2.3,4.5c0,1.3,0.3,2.4,1,3.5s1.7,2,3.2,3c-1.7,0.9-3,1.9-3.8,3s-1.2,2.4-1.2,3.9
			c0,2.2,0.8,3.9,2.4,5.1s3.8,1.8,6.6,1.8c2.7,0,4.9-0.6,6.5-1.9s2.5-3,2.5-5.1c0-1.3-0.4-2.6-1.3-3.7S132.3,85.6,130.4,84.6z
			 M124.5,76.8c0.6-0.5,1.3-0.7,2.2-0.7c0.9,0,1.7,0.2,2.2,0.7s0.9,1.1,0.9,1.9c0,0.7-0.2,1.4-0.7,2s-1.3,1.1-2.4,1.7
			c-1.2-0.6-2-1.2-2.5-1.7s-0.7-1.2-0.7-1.9C123.7,77.9,123.9,77.3,124.5,76.8z M129.7,93.6c-0.7,0.6-1.7,0.9-3,0.9
			c-1.2,0-2.2-0.3-2.9-0.8s-1.1-1.3-1.1-2.4c0-1.8,1.2-3.2,3.7-4.4c1.5,0.8,2.6,1.5,3.2,2.2s1,1.4,1,2.2
			C130.7,92.3,130.4,93.1,129.7,93.6z"/>
		<path class="st62" d="M142.2,92.6c-1,0-1.8,0.3-2.3,0.8s-0.8,1.2-0.8,2.2c0,0.9,0.3,1.7,0.8,2.2s1.3,0.8,2.3,0.8
			c1,0,1.7-0.3,2.2-0.8s0.8-1.3,0.8-2.2c0-1-0.3-1.7-0.8-2.2S143.2,92.6,142.2,92.6z"/>
		<path class="st62" d="M164.8,83.6c-1.3-1.4-3.1-2.2-5.4-2.2c-2.6,0-4.4,1-5.6,3h-0.2c0.1-2,0.5-3.6,1-4.7s1.5-1.9,2.6-2.5
			s2.7-0.8,4.6-0.8c1,0,2.1,0.1,3.1,0.4v-4.3c-0.8-0.2-2-0.3-3.4-0.3c-4.3,0-7.5,1.2-9.7,3.7s-3.2,6.3-3.2,11.4
			c0,2.4,0.4,4.4,1.2,6.1s1.9,3,3.3,3.8s3.1,1.3,5,1.3c2.7,0,4.9-0.8,6.4-2.4s2.3-3.8,2.3-6.5C166.7,87,166.1,85.1,164.8,83.6z
			 M160.5,93c-0.6,0.8-1.5,1.2-2.7,1.2c-1.1,0-2.1-0.5-2.8-1.4s-1.1-2.1-1.1-3.5c0-0.9,0.4-1.8,1.2-2.5s1.7-1.1,2.8-1.1
			c1.2,0,2,0.4,2.6,1.1s0.9,1.7,0.9,3C161.4,91.1,161.1,92.2,160.5,93z"/>
	</g>
</g>
<g id="Archive">
</g>
<g id="Archive_2">
</g>
<g id="Layer_6">
</g>
</svg>
