<?xml version="1.0" encoding="utf-8"?>
<!-- Generator: Adobe Illustrator 18.0.0, SVG Export Plug-In . SVG Version: 6.00 Build 0)  -->
<!DOCTYPE svg PUBLIC "-//W3C//DTD SVG 1.1//EN" "http://www.w3.org/Graphics/SVG/1.1/DTD/svg11.dtd">
<svg version="1.1" xmlns="http://www.w3.org/2000/svg" xmlns:xlink="http://www.w3.org/1999/xlink" x="0px" y="0px"
	 viewBox="0 0 170 170" style="enable-background:new 0 0 170 170;" xml:space="preserve">
<style type="text/css">
	.st0{display:none;}
	.st1{display:inline;enable-background:new    ;}
	.st2{clip-path:url(#SVGID_2_);}
	.st3{clip-path:url(#SVGID_4_);}
	.st4{clip-path:url(#SVGID_6_);}
	.st5{opacity:0;clip-path:url(#SVGID_8_);}
	.st6{opacity:0;}
	.st7{clip-path:url(#SVGID_10_);}
	.st8{clip-path:url(#SVGID_14_);}
	.st9{clip-path:url(#SVGID_16_);}
	.st10{clip-path:url(#SVGID_18_);}
	.st11{clip-path:url(#SVGID_20_);}
	.st12{clip-path:url(#SVGID_24_);}
	.st13{clip-path:url(#SVGID_26_);}
	.st14{clip-path:url(#SVGID_28_);}
	.st15{opacity:0;clip-path:url(#SVGID_30_);}
	.st16{clip-path:url(#SVGID_32_);}
	.st17{clip-path:url(#SVGID_36_);}
	.st18{clip-path:url(#SVGID_38_);}
	.st19{clip-path:url(#SVGID_40_);}
	.st20{clip-path:url(#SVGID_42_);}
	.st21{clip-path:url(#SVGID_46_);}
	.st22{clip-path:url(#SVGID_48_);}
	.st23{clip-path:url(#SVGID_50_);}
	.st24{opacity:0;clip-path:url(#SVGID_52_);}
	.st25{clip-path:url(#SVGID_54_);}
	.st26{clip-path:url(#SVGID_58_);}
	.st27{clip-path:url(#SVGID_60_);}
	.st28{clip-path:url(#SVGID_62_);}
	.st29{clip-path:url(#SVGID_64_);}
	.st30{clip-path:url(#SVGID_68_);}
	.st31{clip-path:url(#SVGID_70_);}
	.st32{clip-path:url(#SVGID_72_);}
	.st33{opacity:0;clip-path:url(#SVGID_74_);}
	.st34{clip-path:url(#SVGID_76_);}
	.st35{clip-path:url(#SVGID_80_);}
	.st36{clip-path:url(#SVGID_82_);}
	.st37{clip-path:url(#SVGID_84_);}
	.st38{clip-path:url(#SVGID_86_);}
	.st39{clip-path:url(#SVGID_90_);}
	.st40{clip-path:url(#SVGID_92_);}
	.st41{clip-path:url(#SVGID_94_);}
	.st42{opacity:0;clip-path:url(#SVGID_96_);}
	.st43{clip-path:url(#SVGID_98_);}
	.st44{clip-path:url(#SVGID_102_);}
	.st45{clip-path:url(#SVGID_104_);}
	.st46{clip-path:url(#SVGID_106_);}
	.st47{clip-path:url(#SVGID_108_);}
	.st48{clip-path:url(#SVGID_112_);}
	.st49{clip-path:url(#SVGID_114_);}
	.st50{clip-path:url(#SVGID_116_);}
	.st51{opacity:0;clip-path:url(#SVGID_118_);}
	.st52{clip-path:url(#SVGID_120_);}
	.st53{clip-path:url(#SVGID_124_);}
	.st54{clip-path:url(#SVGID_126_);}
	.st55{clip-path:url(#SVGID_128_);}
	.st56{clip-path:url(#SVGID_130_);}
	.st57{display:inline;}
	.st58{fill:#666666;stroke:#FFFFFF;stroke-width:2;stroke-linecap:round;stroke-linejoin:round;stroke-miterlimit:10;}
	.st59{fill:none;stroke:#FFFFFF;stroke-width:1.8;stroke-miterlimit:10;}
	.st60{display:inline;opacity:0.3;}
	.st61{fill:none;stroke:#F2F2F2;stroke-width:0.5;stroke-miterlimit:10;}
	.st62{fill:#FFFFFF;}
	.st63{fill:#989898;}
	.st64{fill:#CBCBCB;}
	.st65{fill:#E5E5E5;}
	.st66{fill:#666666;stroke:#FFFFFF;stroke-width:3;stroke-linecap:round;stroke-linejoin:round;stroke-miterlimit:10;}
	.st67{fill:#666666;stroke:#FFFFFF;stroke-width:2;stroke-miterlimit:10;}
	.st68{fill:none;stroke:#989898;stroke-width:2;stroke-miterlimit:10;}
	.st69{fill:#CCCCCC;}
	.st70{fill:none;stroke:#CCCCCC;stroke-miterlimit:10;}
	.st71{fill:none;stroke:#989898;stroke-width:3;stroke-linejoin:round;stroke-miterlimit:10;}
	.st72{fill:none;}
	.st73{fill:#B2B2B2;}
	.st74{fill:#4D4D4D;}
	.st75{fill:#666666;}
	.st76{fill:#F1F1F1;}
	.st77{fill:none;stroke:#CBCBCB;stroke-width:3;stroke-linecap:round;stroke-linejoin:round;stroke-miterlimit:10;}
	.st78{fill:#808080;}
	.st79{fill:url(#SVGID_133_);}
	.st80{fill:#999999;}
	.st81{fill:none;stroke:#B2B2B2;stroke-miterlimit:10;}
	.st82{fill:none;stroke:#F1F1F1;stroke-width:1.6;stroke-miterlimit:10;}
	.st83{fill:none;stroke:#CBCBCB;stroke-linecap:round;stroke-linejoin:round;stroke-miterlimit:10;}
	.st84{fill:none;stroke:#FFFFFF;stroke-miterlimit:10;}
	.st85{fill:none;stroke:#989898;stroke-width:3;stroke-linecap:round;stroke-linejoin:round;stroke-miterlimit:10;}
	.st86{opacity:0.5;fill:#666666;}
	.st87{fill:none;stroke:#E5E5E5;stroke-width:2;stroke-linecap:round;stroke-linejoin:round;stroke-miterlimit:10;}
	.st88{fill:none;stroke:#CCCCCC;stroke-width:3;stroke-miterlimit:10;}
	.st89{fill:#FFFFFF;stroke:#FFFFFF;stroke-miterlimit:10;}
	.st90{fill:none;stroke:#FFFFFF;stroke-width:3;stroke-miterlimit:10;}
	.st91{fill:none;stroke:#FFFFFF;stroke-width:2;stroke-miterlimit:10;}
	.st92{fill:none;stroke:#FFFFFF;stroke-width:3;stroke-linecap:round;stroke-linejoin:round;stroke-miterlimit:10;}
</style>
<g id="Layer_2" class="st0">
	<g class="st1">
		<g>
			<defs>
				<rect id="SVGID_1_" x="-213.5" y="-1162.2" width="399.3" height="2688.7"/>
			</defs>
			<clipPath id="SVGID_2_">
				<use xlink:href="#SVGID_1_"  style="overflow:visible;"/>
			</clipPath>
			<g class="st2">
				<defs>
					<rect id="SVGID_3_" x="-213.5" y="-2961.2" width="399.3" height="4625.6"/>
				</defs>
				<clipPath id="SVGID_4_">
					<use xlink:href="#SVGID_3_"  style="overflow:visible;"/>
				</clipPath>
				<g class="st3">
					<defs>
						<rect id="SVGID_5_" x="-213.5" y="-1162.2" width="399.3" height="2688.7"/>
					</defs>
					<clipPath id="SVGID_6_">
						<use xlink:href="#SVGID_5_"  style="overflow:visible;"/>
					</clipPath>
					<g class="st4">
						<defs>
							<rect id="SVGID_7_" x="-213.5" y="-1162.2" width="399.3" height="2688.7"/>
						</defs>
						<clipPath id="SVGID_8_">
							<use xlink:href="#SVGID_7_"  style="overflow:visible;"/>
						</clipPath>
						<g class="st5">
							<g class="st6">
								<g>
									<defs>
										<rect id="SVGID_9_" x="-213.5" y="-1162.2" width="399.3" height="2688.7"/>
									</defs>
									<clipPath id="SVGID_10_">
										<use xlink:href="#SVGID_9_"  style="overflow:visible;"/>
									</clipPath>
									<g class="st7">
										<defs>
											<rect id="SVGID_11_" x="-213.5" y="-1162.2" width="399.3" height="2688.7"/>
										</defs>
										<clipPath id="SVGID_12_">
											<use xlink:href="#SVGID_11_"  style="overflow:visible;"/>
										</clipPath>
										<g style="clip-path:url(#SVGID_12_);">
											
												<image style="overflow:visible;" width="1664" height="11204" xlink:href="15E9E0689A174149.jpg"  transform="matrix(0.24 0 0 0.24 -213.5083 -1162.1707)">
											</image>
										</g>
									</g>
								</g>
							</g>
						</g>
					</g>
				</g>
			</g>
			<g class="st2">
				<defs>
					<rect id="SVGID_13_" x="-213.5" y="-2961.2" width="399.3" height="4625.6"/>
				</defs>
				<clipPath id="SVGID_14_">
					<use xlink:href="#SVGID_13_"  style="overflow:visible;"/>
				</clipPath>
				<g class="st8">
					<defs>
						<rect id="SVGID_15_" x="-213.5" y="-1162.2" width="399.3" height="2688.7"/>
					</defs>
					<clipPath id="SVGID_16_">
						<use xlink:href="#SVGID_15_"  style="overflow:visible;"/>
					</clipPath>
					<g class="st9">
						<defs>
							<rect id="SVGID_17_" x="-213.5" y="-1162.2" width="399.3" height="2688.7"/>
						</defs>
						<clipPath id="SVGID_18_">
							<use xlink:href="#SVGID_17_"  style="overflow:visible;"/>
						</clipPath>
						<g class="st10">
							<g>
								<defs>
									<rect id="SVGID_19_" x="-213.5" y="-1162.2" width="399.3" height="2688.7"/>
								</defs>
								<clipPath id="SVGID_20_">
									<use xlink:href="#SVGID_19_"  style="overflow:visible;"/>
								</clipPath>
								<g class="st11">
									<defs>
										<rect id="SVGID_21_" x="-213.5" y="-1162.2" width="399.3" height="2688.7"/>
									</defs>
									<clipPath id="SVGID_22_">
										<use xlink:href="#SVGID_21_"  style="overflow:visible;"/>
									</clipPath>
									<g style="clip-path:url(#SVGID_22_);">
										
											<image style="overflow:visible;" width="1664" height="11204" xlink:href="15E9E0689A17414B.jpg"  transform="matrix(0.24 0 0 0.24 -213.5083 -1162.1707)">
										</image>
									</g>
								</g>
							</g>
						</g>
					</g>
				</g>
			</g>
		</g>
	</g>
</g>
<g id="GRIDS" class="st0">
	<g class="st60">
		<rect y="0" class="st61" width="170" height="170"/>
		<line class="st61" x1="0" y1="0" x2="170" y2="170"/>
		<line class="st61" x1="170" y1="0" x2="0" y2="170"/>
		<line class="st61" x1="0" y1="85" x2="170" y2="85"/>
		<line class="st61" x1="0" y1="54" x2="170" y2="54"/>
		<line class="st61" x1="0" y1="116" x2="170" y2="116"/>
		<line class="st61" x1="0" y1="11" x2="170" y2="11"/>
		<line class="st61" x1="0" y1="159" x2="170" y2="159"/>
		<line class="st61" x1="85" y1="0" x2="85" y2="170"/>
		<line class="st61" x1="159" y1="0" x2="159" y2="170"/>
		<circle class="st61" cx="85" cy="85" r="31"/>
		<circle class="st61" cx="85" cy="85" r="44"/>
		<circle class="st61" cx="85" cy="85" r="74"/>
		<line class="st61" x1="54" y1="0" x2="54" y2="170"/>
		<line class="st61" x1="11" y1="0" x2="11" y2="170"/>
		<line class="st61" x1="116" y1="0" x2="116" y2="170"/>
	</g>
</g>
<g id="MOTION_PROTECT">
	<polygon class="st63" points="65.3,83.6 51.2,83.6 57.1,77.7 55,75.5 45.4,85.1 55,94.7 57.1,92.6 51.2,86.6 65.3,86.6 	"/>
	<path class="st76" d="M166.8,115.9V53.5c0-1.9-1.6-3.5-3.5-3.5H68.8c-1.9,0-3.5,1.6-3.5,3.5v62.3"/>
	<rect x="63.6" y="116.5" class="st65" width="105" height="3.5"/>
	<rect x="68.5" y="53.8" class="st74" width="95.1" height="58.4"/>
	<g>
		<rect x="85.9" y="72.3" class="st73" width="60.3" height="2"/>
		<rect x="85.9" y="76.8" class="st73" width="60.3" height="2"/>
		<rect x="85.9" y="81.2" class="st73" width="60.3" height="2"/>
		<rect x="85.9" y="85.7" class="st73" width="60.3" height="2"/>
		<rect x="107.8" y="96.6" class="st73" width="16.4" height="4.2"/>
	</g>
	<g>
		<path class="st76" d="M34.1,75.1h-22c-0.8,0-1.5,0.7-1.5,1.5v17c0,0.8,0.7,1.5,1.5,1.5h22c0.8,0,1.5-0.7,1.5-1.5v-17
			C35.7,75.8,35,75.1,34.1,75.1z M34.1,93.6H12.2V76.7h21.9V93.6z"/>
		<path class="st76" d="M16.5,65.4l6.5,1.3c0,0,0.1,0,0.1,0s0.1,0,0.1,0l6.6-1.3c0.2,0,0.3-0.2,0.3-0.4c0-0.2-0.2-0.4-0.4-0.4H16.5
			c-0.2,0-0.4,0.2-0.4,0.4C16.1,65.2,16.2,65.4,16.5,65.4z M25.4,65.4l-2.3,0.4l-2.3-0.4H25.4z"/>
		<path class="st76" d="M35.4,73.3c-1.8,0.4-12.2,0.5-12.3,0.5c0,0,0,0-0.1,0c-0.1,0-10.5-0.1-12.3-0.5c-0.9-0.2-1.4-0.1-1.8,0.2
			c-0.5,0.4-0.6,1.1-0.6,1.9l0,0.1C8.2,76.8,9,93.8,9,94.5c0,0,0,2.2,2.7,2.7c2.3,0.4,8.6,0.9,11.4,0.9c2.7,0,9.1-0.5,11.4-0.9
			c2.7-0.5,2.7-2.6,2.7-2.6c0-0.7,0.8-17.8,0.7-19.1l0-0.1c-0.1-0.8-0.1-1.5-0.6-1.9C36.9,73.2,36.3,73.1,35.4,73.3z M36.8,74.1
			c0.2,0.2,0.3,0.7,0.3,1.3l0,0.1c0.1,1-0.4,12.9-0.7,19.1c0,0.1,0,1.5-2,1.8c-2.1,0.4-8.3,0.9-11.2,0.9c-2.9,0-9.1-0.5-11.2-0.9
			c-2.1-0.4-2.1-1.8-2-1.9c-0.3-6.1-0.8-18-0.7-19l0-0.1c0-0.6,0.1-1.1,0.3-1.3C9.5,74,9.7,74,9.9,74c0.2,0,0.4,0,0.7,0.1
			c1.9,0.4,12,0.5,12.5,0.5c0,0,0,0,0,0c0,0,0,0,0,0c0.4,0,10.6-0.1,12.5-0.5C36.2,74,36.6,74,36.8,74.1z"/>
		<polygon class="st76" points="26.3,105.8 27.1,105.8 28.1,104.9 27.3,104.9 		"/>
		<polygon class="st76" points="29.4,103.1 28.5,103.9 29.3,103.9 30.2,103.1 		"/>
		<polygon class="st76" points="21.9,105.8 22.5,105.8 23.8,104.1 23.1,104.1 		"/>
		<polygon class="st76" points="23.5,103.5 25.1,105.8 25.8,105.8 23.8,103.1 		"/>
		<polygon class="st76" points="26.3,103.1 29.4,105.8 29.4,105.8 30.2,105.8 27.1,103.1 		"/>
		<polygon class="st76" points="16,105.8 16.6,105.8 17.8,104.1 17.2,104.1 		"/>
		<polygon class="st76" points="17.6,103.5 19.2,105.8 19.9,105.8 17.9,103.1 		"/>
		<path class="st76" d="M21.1,104.8c0,0.2-0.1,0.6-0.6,0.6h-0.2v0.4c0,0,0.6,0,0.9-0.3c0.3-0.3,0.3-0.7,0.3-0.8v-1.7h-0.5
			L21.1,104.8z"/>
		<path class="st76" d="M33.6,57.7c-2.4-1-6.3-1.6-10.5-1.6c-4.2,0-8.1,0.6-10.5,1.6C5.5,60.1,6,67.6,6.1,68.3
			c0,1.1,0.3,25.2,0.9,33.3c0.5,7.6,6.7,10.6,7,10.7c2.9,1.4,6,2,9.2,2c0,0,0.1,0,0.1,0c3.2,0,6.2-0.7,9.1-2c0.3-0.1,6.4-3.2,7-10.7
			c0.6-8.1,0.9-32.3,0.9-33.3C40.2,67.6,40.8,60.1,33.6,57.7z M38.5,68.2C38.5,68.2,38.5,68.2,38.5,68.2c0,0.3-0.3,25.2-0.9,33.4
			c-0.5,6.6-5.8,9.3-6.1,9.4c-2.7,1.3-5.5,1.9-8.5,1.9c0,0-0.1,0-0.1,0c-2.9,0-5.7-0.7-8.4-1.9c-0.1,0-5.6-2.8-6.1-9.4
			c-0.6-8.2-0.9-33-0.9-33.3c0,0,0-0.1,0-0.1c0-0.3-0.8-6.9,5.5-9c2.2-0.9,5.9-1.5,9.9-1.5c4,0,7.7,0.6,10,1.5
			C39.3,61.3,38.6,67.9,38.5,68.2z"/>
	</g>
</g>
<g id="Archive">
</g>
<g id="Archive_2">
</g>
<g id="Layer_6">
</g>
</svg>
