<?xml version="1.0" encoding="utf-8"?>
<!-- Generator: Adobe Illustrator 18.0.0, SVG Export Plug-In . SVG Version: 6.00 Build 0)  -->
<!DOCTYPE svg PUBLIC "-//W3C//DTD SVG 1.1//EN" "http://www.w3.org/Graphics/SVG/1.1/DTD/svg11.dtd">
<svg version="1.1" xmlns="http://www.w3.org/2000/svg" xmlns:xlink="http://www.w3.org/1999/xlink" x="0px" y="0px"
	 viewBox="0 0 170 170" style="enable-background:new 0 0 170 170;" xml:space="preserve">
<style type="text/css">
	.st0{display:none;}
	.st1{display:inline;enable-background:new    ;}
	.st2{clip-path:url(#SVGID_2_);}
	.st3{clip-path:url(#SVGID_4_);}
	.st4{clip-path:url(#SVGID_6_);}
	.st5{opacity:0;clip-path:url(#SVGID_8_);}
	.st6{opacity:0;}
	.st7{clip-path:url(#SVGID_10_);}
	.st8{clip-path:url(#SVGID_14_);}
	.st9{clip-path:url(#SVGID_16_);}
	.st10{clip-path:url(#SVGID_18_);}
	.st11{clip-path:url(#SVGID_20_);}
	.st12{clip-path:url(#SVGID_24_);}
	.st13{clip-path:url(#SVGID_26_);}
	.st14{clip-path:url(#SVGID_28_);}
	.st15{opacity:0;clip-path:url(#SVGID_30_);}
	.st16{clip-path:url(#SVGID_32_);}
	.st17{clip-path:url(#SVGID_36_);}
	.st18{clip-path:url(#SVGID_38_);}
	.st19{clip-path:url(#SVGID_40_);}
	.st20{clip-path:url(#SVGID_42_);}
	.st21{clip-path:url(#SVGID_46_);}
	.st22{clip-path:url(#SVGID_48_);}
	.st23{clip-path:url(#SVGID_50_);}
	.st24{opacity:0;clip-path:url(#SVGID_52_);}
	.st25{clip-path:url(#SVGID_54_);}
	.st26{clip-path:url(#SVGID_58_);}
	.st27{clip-path:url(#SVGID_60_);}
	.st28{clip-path:url(#SVGID_62_);}
	.st29{clip-path:url(#SVGID_64_);}
	.st30{clip-path:url(#SVGID_68_);}
	.st31{clip-path:url(#SVGID_70_);}
	.st32{clip-path:url(#SVGID_72_);}
	.st33{opacity:0;clip-path:url(#SVGID_74_);}
	.st34{clip-path:url(#SVGID_76_);}
	.st35{clip-path:url(#SVGID_80_);}
	.st36{clip-path:url(#SVGID_82_);}
	.st37{clip-path:url(#SVGID_84_);}
	.st38{clip-path:url(#SVGID_86_);}
	.st39{clip-path:url(#SVGID_90_);}
	.st40{clip-path:url(#SVGID_92_);}
	.st41{clip-path:url(#SVGID_94_);}
	.st42{opacity:0;clip-path:url(#SVGID_96_);}
	.st43{clip-path:url(#SVGID_98_);}
	.st44{clip-path:url(#SVGID_102_);}
	.st45{clip-path:url(#SVGID_104_);}
	.st46{clip-path:url(#SVGID_106_);}
	.st47{clip-path:url(#SVGID_108_);}
	.st48{clip-path:url(#SVGID_112_);}
	.st49{clip-path:url(#SVGID_114_);}
	.st50{clip-path:url(#SVGID_116_);}
	.st51{opacity:0;clip-path:url(#SVGID_118_);}
	.st52{clip-path:url(#SVGID_120_);}
	.st53{clip-path:url(#SVGID_124_);}
	.st54{clip-path:url(#SVGID_126_);}
	.st55{clip-path:url(#SVGID_128_);}
	.st56{clip-path:url(#SVGID_130_);}
	.st57{clip-path:url(#SVGID_134_);}
	.st58{clip-path:url(#SVGID_136_);}
	.st59{clip-path:url(#SVGID_138_);}
	.st60{opacity:0;clip-path:url(#SVGID_140_);}
	.st61{clip-path:url(#SVGID_142_);}
	.st62{clip-path:url(#SVGID_146_);}
	.st63{clip-path:url(#SVGID_148_);}
	.st64{clip-path:url(#SVGID_150_);}
	.st65{clip-path:url(#SVGID_152_);}
	.st66{display:inline;fill:#FFFFFF;}
	.st67{display:inline;opacity:0.3;}
	.st68{fill:none;stroke:#F2F2F2;stroke-width:0.5;stroke-miterlimit:10;}
	.st69{fill:#FFFFFF;}
	.st70{fill:#B2B2B2;}
	.st71{fill:#989898;}
	.st72{fill:#CBCBCB;}
	.st73{fill:#E5E5E5;}
	.st74{fill:#666666;stroke:#FFFFFF;stroke-width:3;stroke-linecap:round;stroke-linejoin:round;stroke-miterlimit:10;}
	.st75{fill:#666666;stroke:#FFFFFF;stroke-width:2;stroke-miterlimit:10;}
	.st76{fill:none;stroke:#989898;stroke-width:2;stroke-miterlimit:10;}
	.st77{fill:#CCCCCC;}
	.st78{fill:none;stroke:#CCCCCC;stroke-miterlimit:10;}
	.st79{fill:none;stroke:#989898;stroke-width:3;stroke-linejoin:round;stroke-miterlimit:10;}
	.st80{fill:none;}
	.st81{fill:#4D4D4D;}
	.st82{fill:#666666;}
	.st83{fill:#F1F1F1;}
	.st84{fill:none;stroke:#CBCBCB;stroke-width:3;stroke-linecap:round;stroke-linejoin:round;stroke-miterlimit:10;}
	.st85{fill:#808080;}
	.st86{fill:url(#SVGID_155_);}
	.st87{fill:#999999;}
	.st88{fill:none;stroke:#B2B2B2;stroke-miterlimit:10;}
	.st89{fill:none;stroke:#F1F1F1;stroke-width:1.6;stroke-miterlimit:10;}
	.st90{fill:none;stroke:#CBCBCB;stroke-linecap:round;stroke-linejoin:round;stroke-miterlimit:10;}
	.st91{fill:none;stroke:#FFFFFF;stroke-miterlimit:10;}
	.st92{fill:none;stroke:#989898;stroke-width:3;stroke-linecap:round;stroke-linejoin:round;stroke-miterlimit:10;}
	.st93{opacity:0.5;fill:#D1D1D1;}
	.st94{fill:none;stroke:#FFFFFF;stroke-width:1.8;stroke-miterlimit:10;}
	.st95{fill:none;stroke:#E5E5E5;stroke-width:2;stroke-linecap:round;stroke-linejoin:round;stroke-miterlimit:10;}
	.st96{fill:none;stroke:#CCCCCC;stroke-width:3;stroke-miterlimit:10;}
	.st97{fill:#FFFFFF;stroke:#FFFFFF;stroke-miterlimit:10;}
	.st98{fill:none;stroke:#FFFFFF;stroke-width:3;stroke-miterlimit:10;}
	.st99{fill:none;stroke:#FFFFFF;stroke-width:2;stroke-miterlimit:10;}
	.st100{fill:none;stroke:#FFFFFF;stroke-width:3;stroke-linecap:round;stroke-linejoin:round;stroke-miterlimit:10;}
</style>
<g id="Layer_2" class="st0">
	<g class="st1">
		<g>
			<defs>
				<rect id="SVGID_23_" x="-15.4" y="-20" width="201.2" height="207"/>
			</defs>
			<clipPath id="SVGID_2_">
				<use xlink:href="#SVGID_23_"  style="overflow:visible;"/>
			</clipPath>
			<g class="st2">
				<defs>
					<rect id="SVGID_25_" x="-15.4" y="-158.5" width="201.2" height="356.1"/>
				</defs>
				<clipPath id="SVGID_4_">
					<use xlink:href="#SVGID_25_"  style="overflow:visible;"/>
				</clipPath>
				<g class="st3">
					<defs>
						<rect id="SVGID_27_" x="-15.4" y="-20" width="201.2" height="207"/>
					</defs>
					<clipPath id="SVGID_6_">
						<use xlink:href="#SVGID_27_"  style="overflow:visible;"/>
					</clipPath>
					<g class="st4">
						<defs>
							<rect id="SVGID_29_" x="-15.4" y="-20" width="201.2" height="207"/>
						</defs>
						<clipPath id="SVGID_8_">
							<use xlink:href="#SVGID_29_"  style="overflow:visible;"/>
						</clipPath>
						<g class="st5">
							<g class="st6">
								<g>
									<defs>
										<rect id="SVGID_31_" x="-15.4" y="-20" width="201.2" height="207"/>
									</defs>
									<clipPath id="SVGID_10_">
										<use xlink:href="#SVGID_31_"  style="overflow:visible;"/>
									</clipPath>
									<g class="st7">
										<defs>
											<rect id="SVGID_33_" x="-15.4" y="-20" width="201.2" height="207"/>
										</defs>
										<clipPath id="SVGID_12_">
											<use xlink:href="#SVGID_33_"  style="overflow:visible;"/>
										</clipPath>
										<g style="clip-path:url(#SVGID_12_);">
											
												<image style="overflow:visible;" width="839" height="863" xlink:href="C70CE3D37ABDE09C.jpg"  transform="matrix(0.24 0 0 0.24 -15.4141 -19.9999)">
											</image>
										</g>
									</g>
								</g>
							</g>
						</g>
					</g>
				</g>
			</g>
			<g class="st2">
				<defs>
					<rect id="SVGID_35_" x="-15.4" y="-158.5" width="201.2" height="356.1"/>
				</defs>
				<clipPath id="SVGID_14_">
					<use xlink:href="#SVGID_35_"  style="overflow:visible;"/>
				</clipPath>
				<g class="st8">
					<defs>
						<rect id="SVGID_37_" x="-15.4" y="-20" width="201.2" height="207"/>
					</defs>
					<clipPath id="SVGID_16_">
						<use xlink:href="#SVGID_37_"  style="overflow:visible;"/>
					</clipPath>
					<g class="st9">
						<defs>
							<rect id="SVGID_39_" x="-15.4" y="-20" width="201.2" height="207"/>
						</defs>
						<clipPath id="SVGID_18_">
							<use xlink:href="#SVGID_39_"  style="overflow:visible;"/>
						</clipPath>
						<g class="st10">
							<g>
								<defs>
									<rect id="SVGID_41_" x="-15.4" y="-20" width="201.2" height="207"/>
								</defs>
								<clipPath id="SVGID_20_">
									<use xlink:href="#SVGID_41_"  style="overflow:visible;"/>
								</clipPath>
								<g class="st11">
									<defs>
										<rect id="SVGID_43_" x="-15.4" y="-20" width="201.2" height="207"/>
									</defs>
									<clipPath id="SVGID_22_">
										<use xlink:href="#SVGID_43_"  style="overflow:visible;"/>
									</clipPath>
									<g style="clip-path:url(#SVGID_22_);">
										
											<image style="overflow:visible;" width="839" height="863" xlink:href="C70CE3D37ABDE09D.jpg"  transform="matrix(0.24 0 0 0.24 -15.4141 -19.9999)">
										</image>
									</g>
								</g>
							</g>
						</g>
					</g>
				</g>
			</g>
		</g>
	</g>
</g>
<g id="GRIDS" class="st0">
	<g class="st67">
		<rect x="0" y="0" class="st68" width="170" height="170"/>
		<line class="st68" x1="0" y1="0" x2="170" y2="170"/>
		<line class="st68" x1="170" y1="0" x2="0" y2="170"/>
		<line class="st68" x1="0" y1="85" x2="170" y2="85"/>
		<line class="st68" x1="0" y1="54" x2="170" y2="54"/>
		<line class="st68" x1="0" y1="116" x2="170" y2="116"/>
		<line class="st68" x1="0" y1="11" x2="170" y2="11"/>
		<line class="st68" x1="0" y1="159" x2="170" y2="159"/>
		<line class="st68" x1="85" y1="0" x2="85" y2="170"/>
		<line class="st68" x1="159" y1="0" x2="159" y2="170"/>
		<circle class="st68" cx="85" cy="85" r="31"/>
		<circle class="st68" cx="85" cy="85" r="44"/>
		<circle class="st68" cx="85" cy="85" r="74"/>
		<line class="st68" x1="54" y1="0" x2="54" y2="170"/>
		<line class="st68" x1="11" y1="0" x2="11" y2="170"/>
		<line class="st68" x1="116" y1="0" x2="116" y2="170"/>
	</g>
</g>
<g id="MOTION_PROTECT">
	<g>
		<path class="st69" d="M44.3,97.2h-18v-3.8l6.5-6.5c1.9-2,3.2-3.3,3.7-4.1s1-1.5,1.3-2.1s0.4-1.3,0.4-2c0-1-0.3-1.8-0.9-2.3
			S36,75.6,35,75.6c-1,0-2,0.2-2.9,0.7c-0.9,0.5-1.9,1.1-2.9,2l-3-3.5c1.3-1.1,2.3-1.8,3.1-2.3s1.7-0.8,2.7-1c1-0.2,2.1-0.4,3.3-0.4
			c1.6,0,3,0.3,4.3,0.9s2.2,1.4,2.9,2.5s1,2.3,1,3.6c0,1.2-0.2,2.3-0.6,3.3s-1.1,2.1-1.9,3.2s-2.4,2.6-4.6,4.7l-3.3,3.1v0.2h11.2
			V97.2z"/>
		<path class="st69" d="M56.2,80.7c2.5,0,4.5,0.7,5.9,2.1s2.2,3.3,2.2,5.7c0,2.9-0.9,5.1-2.7,6.6s-4.3,2.3-7.6,2.3
			c-2.9,0-5.2-0.5-6.9-1.4v-4.7c0.9,0.5,2,0.9,3.2,1.2s2.4,0.5,3.5,0.5c3.3,0,5-1.4,5-4.1c0-2.6-1.7-3.9-5.2-3.9
			c-0.6,0-1.3,0.1-2.1,0.2s-1.4,0.3-1.8,0.4l-2.2-1.2l1-13.1h13.9v4.6h-9.2l-0.5,5l0.6-0.1C54.3,80.8,55.2,80.7,56.2,80.7z"/>
		<path class="st69" d="M85.2,84.3c0,4.5-0.7,7.8-2.2,10s-3.7,3.2-6.8,3.2c-3,0-5.2-1.1-6.7-3.3s-2.3-5.5-2.3-9.9
			c0-4.5,0.7-7.9,2.2-10s3.7-3.2,6.8-3.2c3,0,5.2,1.1,6.7,3.4S85.2,80,85.2,84.3z M72.7,84.3c0,3.2,0.3,5.4,0.8,6.8s1.5,2,2.8,2
			c1.3,0,2.2-0.7,2.7-2.1s0.8-3.6,0.8-6.8c0-3.2-0.3-5.4-0.9-6.8s-1.5-2.1-2.7-2.1c-1.3,0-2.2,0.7-2.7,2.1S72.7,81.1,72.7,84.3z"/>
		<path class="st70" d="M113.9,97.2v-8.4c0-1.2-0.2-2.1-0.7-2.7s-1.2-0.9-2.2-0.9c-1.3,0-2.3,0.4-2.9,1.1s-0.9,1.8-0.9,3.4v7.5H106
			v-8.7c0-2.1-1-3.2-3-3.2c-1.3,0-2.3,0.4-2.9,1.2s-0.9,2-0.9,3.7v7H98V84.4h1l0.2,1.7h0.1c0.4-0.6,0.9-1.1,1.5-1.5s1.4-0.5,2.1-0.5
			c2,0,3.3,0.8,3.9,2.3h0c0.4-0.7,1-1.3,1.7-1.7s1.5-0.6,2.4-0.6c1.4,0,2.4,0.4,3.1,1.1s1,1.9,1,3.5v8.3H113.9z"/>
		<path class="st70" d="M127.7,91.1h-7l-2.4,6h-1.3l6.9-17.2h0.8l6.7,17.2h-1.3L127.7,91.1z M121.2,90h6.1l-2.3-6.2
			c-0.2-0.5-0.4-1.2-0.7-2c-0.2,0.8-0.4,1.4-0.7,2L121.2,90z"/>
		<path class="st70" d="M142.5,97.2v-8.3c0-1.3-0.3-2.2-0.8-2.8s-1.4-0.9-2.5-0.9c-1.5,0-2.6,0.4-3.3,1.2s-1.1,2-1.1,3.7v7h-1.2
			V78.9h1.2v5.8l-0.1,1.6h0.1c0.5-0.8,1.1-1.3,1.8-1.7s1.6-0.5,2.7-0.5c2.9,0,4.3,1.6,4.3,4.7v8.3H142.5z"/>
	</g>
</g>
<g id="Archive">
</g>
<g id="Archive_2">
</g>
<g id="Layer_6">
</g>
</svg>
