<?xml version="1.0" encoding="utf-8"?>
<!-- Generator: Adobe Illustrator 18.0.0, SVG Export Plug-In . SVG Version: 6.00 Build 0)  -->
<!DOCTYPE svg PUBLIC "-//W3C//DTD SVG 1.1//EN" "http://www.w3.org/Graphics/SVG/1.1/DTD/svg11.dtd">
<svg version="1.1" xmlns="http://www.w3.org/2000/svg" xmlns:xlink="http://www.w3.org/1999/xlink" x="0px" y="0px"
	 viewBox="0 0 170 170" style="enable-background:new 0 0 170 170;" xml:space="preserve">
<style type="text/css">
	.st0{display:none;}
	.st1{display:inline;enable-background:new    ;}
	.st2{clip-path:url(#SVGID_2_);}
	.st3{clip-path:url(#SVGID_4_);}
	.st4{clip-path:url(#SVGID_6_);}
	.st5{opacity:0;clip-path:url(#SVGID_8_);}
	.st6{opacity:0;}
	.st7{clip-path:url(#SVGID_10_);}
	.st8{clip-path:url(#SVGID_14_);}
	.st9{clip-path:url(#SVGID_16_);}
	.st10{clip-path:url(#SVGID_18_);}
	.st11{clip-path:url(#SVGID_20_);}
	.st12{clip-path:url(#SVGID_24_);}
	.st13{clip-path:url(#SVGID_26_);}
	.st14{clip-path:url(#SVGID_28_);}
	.st15{opacity:0;clip-path:url(#SVGID_30_);}
	.st16{clip-path:url(#SVGID_32_);}
	.st17{clip-path:url(#SVGID_36_);}
	.st18{clip-path:url(#SVGID_38_);}
	.st19{clip-path:url(#SVGID_40_);}
	.st20{clip-path:url(#SVGID_42_);}
	.st21{clip-path:url(#SVGID_46_);}
	.st22{clip-path:url(#SVGID_48_);}
	.st23{clip-path:url(#SVGID_50_);}
	.st24{opacity:0;clip-path:url(#SVGID_52_);}
	.st25{clip-path:url(#SVGID_54_);}
	.st26{clip-path:url(#SVGID_58_);}
	.st27{clip-path:url(#SVGID_60_);}
	.st28{clip-path:url(#SVGID_62_);}
	.st29{clip-path:url(#SVGID_64_);}
	.st30{clip-path:url(#SVGID_68_);}
	.st31{clip-path:url(#SVGID_70_);}
	.st32{clip-path:url(#SVGID_72_);}
	.st33{opacity:0;clip-path:url(#SVGID_74_);}
	.st34{clip-path:url(#SVGID_76_);}
	.st35{clip-path:url(#SVGID_80_);}
	.st36{clip-path:url(#SVGID_82_);}
	.st37{clip-path:url(#SVGID_84_);}
	.st38{clip-path:url(#SVGID_86_);}
	.st39{clip-path:url(#SVGID_90_);}
	.st40{clip-path:url(#SVGID_92_);}
	.st41{clip-path:url(#SVGID_94_);}
	.st42{opacity:0;clip-path:url(#SVGID_96_);}
	.st43{clip-path:url(#SVGID_98_);}
	.st44{clip-path:url(#SVGID_102_);}
	.st45{clip-path:url(#SVGID_104_);}
	.st46{clip-path:url(#SVGID_106_);}
	.st47{clip-path:url(#SVGID_108_);}
	.st48{clip-path:url(#SVGID_112_);}
	.st49{clip-path:url(#SVGID_114_);}
	.st50{clip-path:url(#SVGID_116_);}
	.st51{opacity:0;clip-path:url(#SVGID_118_);}
	.st52{clip-path:url(#SVGID_120_);}
	.st53{clip-path:url(#SVGID_124_);}
	.st54{clip-path:url(#SVGID_126_);}
	.st55{clip-path:url(#SVGID_128_);}
	.st56{clip-path:url(#SVGID_130_);}
	.st57{display:inline;}
	.st58{fill:#666666;stroke:#FFFFFF;stroke-width:2;stroke-linecap:round;stroke-linejoin:round;stroke-miterlimit:10;}
	.st59{fill:none;stroke:#FFFFFF;stroke-width:1.8;stroke-miterlimit:10;}
	.st60{display:inline;opacity:0.3;}
	.st61{fill:none;stroke:#F2F2F2;stroke-width:0.5;stroke-miterlimit:10;}
	.st62{fill:#FFFFFF;}
	.st63{fill:#989898;}
	.st64{fill:#CBCBCB;}
	.st65{fill:#E5E5E5;}
	.st66{fill:#666666;stroke:#FFFFFF;stroke-width:3;stroke-linecap:round;stroke-linejoin:round;stroke-miterlimit:10;}
	.st67{fill:#666666;stroke:#FFFFFF;stroke-width:2;stroke-miterlimit:10;}
	.st68{fill:none;stroke:#989898;stroke-width:2;stroke-miterlimit:10;}
	.st69{fill:#CCCCCC;}
	.st70{fill:none;stroke:#CCCCCC;stroke-miterlimit:10;}
	.st71{fill:none;stroke:#989898;stroke-width:3;stroke-linejoin:round;stroke-miterlimit:10;}
	.st72{fill:none;}
	.st73{fill:#B2B2B2;}
	.st74{fill:#4D4D4D;}
	.st75{fill:#666666;}
	.st76{fill:#F1F1F1;}
	.st77{fill:none;stroke:#CBCBCB;stroke-width:3;stroke-linecap:round;stroke-linejoin:round;stroke-miterlimit:10;}
	.st78{fill:#808080;}
	.st79{fill:url(#SVGID_133_);}
	.st80{fill:#999999;}
	.st81{fill:none;stroke:#B2B2B2;stroke-miterlimit:10;}
	.st82{fill:none;stroke:#F1F1F1;stroke-width:1.6;stroke-miterlimit:10;}
	.st83{fill:none;stroke:#CBCBCB;stroke-linecap:round;stroke-linejoin:round;stroke-miterlimit:10;}
	.st84{fill:none;stroke:#FFFFFF;stroke-miterlimit:10;}
	.st85{fill:none;stroke:#989898;stroke-width:3;stroke-linecap:round;stroke-linejoin:round;stroke-miterlimit:10;}
	.st86{opacity:0.5;fill:#666666;}
	.st87{fill:none;stroke:#E5E5E5;stroke-width:2;stroke-linecap:round;stroke-linejoin:round;stroke-miterlimit:10;}
	.st88{fill:none;stroke:#CCCCCC;stroke-width:3;stroke-miterlimit:10;}
	.st89{fill:#FFFFFF;stroke:#FFFFFF;stroke-miterlimit:10;}
	.st90{fill:none;stroke:#FFFFFF;stroke-width:3;stroke-miterlimit:10;}
	.st91{fill:none;stroke:#FFFFFF;stroke-width:2;stroke-miterlimit:10;}
	.st92{fill:none;stroke:#FFFFFF;stroke-width:3;stroke-linecap:round;stroke-linejoin:round;stroke-miterlimit:10;}
</style>
<g id="Layer_2" class="st0">
	<g class="st1">
		<g>
			<defs>
				<rect id="SVGID_45_" x="-209.2" y="-212.2" width="399.3" height="601.2"/>
			</defs>
			<clipPath id="SVGID_2_">
				<use xlink:href="#SVGID_45_"  style="overflow:visible;"/>
			</clipPath>
			<g class="st2">
				<defs>
					<rect id="SVGID_47_" x="-209.2" y="-614.4" width="399.3" height="1034.2"/>
				</defs>
				<clipPath id="SVGID_4_">
					<use xlink:href="#SVGID_47_"  style="overflow:visible;"/>
				</clipPath>
				<g class="st3">
					<defs>
						<rect id="SVGID_49_" x="-209.2" y="-212.2" width="399.3" height="601.2"/>
					</defs>
					<clipPath id="SVGID_6_">
						<use xlink:href="#SVGID_49_"  style="overflow:visible;"/>
					</clipPath>
					<g class="st4">
						<defs>
							<rect id="SVGID_51_" x="-209.2" y="-212.2" width="399.3" height="601.2"/>
						</defs>
						<clipPath id="SVGID_8_">
							<use xlink:href="#SVGID_51_"  style="overflow:visible;"/>
						</clipPath>
						<g class="st5">
							<g class="st6">
								<g>
									<defs>
										<rect id="SVGID_53_" x="-209.2" y="-212.2" width="399.3" height="601.2"/>
									</defs>
									<clipPath id="SVGID_10_">
										<use xlink:href="#SVGID_53_"  style="overflow:visible;"/>
									</clipPath>
									<g class="st7">
										<defs>
											<rect id="SVGID_55_" x="-209.2" y="-212.2" width="399.3" height="601.2"/>
										</defs>
										<clipPath id="SVGID_12_">
											<use xlink:href="#SVGID_55_"  style="overflow:visible;"/>
										</clipPath>
										<g style="clip-path:url(#SVGID_12_);">
											
												<image style="overflow:visible;" width="1664" height="2505" xlink:href="34E6027FD0693E19.jpg"  transform="matrix(0.24 0 0 0.24 -209.166 -212.171)">
											</image>
										</g>
									</g>
								</g>
							</g>
						</g>
					</g>
				</g>
			</g>
			<g class="st2">
				<defs>
					<rect id="SVGID_57_" x="-209.2" y="-614.4" width="399.3" height="1034.2"/>
				</defs>
				<clipPath id="SVGID_14_">
					<use xlink:href="#SVGID_57_"  style="overflow:visible;"/>
				</clipPath>
				<g class="st8">
					<defs>
						<rect id="SVGID_59_" x="-209.2" y="-212.2" width="399.3" height="601.2"/>
					</defs>
					<clipPath id="SVGID_16_">
						<use xlink:href="#SVGID_59_"  style="overflow:visible;"/>
					</clipPath>
					<g class="st9">
						<defs>
							<rect id="SVGID_61_" x="-209.2" y="-212.2" width="399.3" height="601.2"/>
						</defs>
						<clipPath id="SVGID_18_">
							<use xlink:href="#SVGID_61_"  style="overflow:visible;"/>
						</clipPath>
						<g class="st10">
							<g>
								<defs>
									<rect id="SVGID_63_" x="-209.2" y="-212.8" width="399.3" height="601.2"/>
								</defs>
								<clipPath id="SVGID_20_">
									<use xlink:href="#SVGID_63_"  style="overflow:visible;"/>
								</clipPath>
								<g class="st11">
									<defs>
										<rect id="SVGID_65_" x="-209.2" y="-212.8" width="399.3" height="601.2"/>
									</defs>
									<clipPath id="SVGID_22_">
										<use xlink:href="#SVGID_65_"  style="overflow:visible;"/>
									</clipPath>
									<g style="clip-path:url(#SVGID_22_);">
										
											<image style="overflow:visible;" width="1664" height="2505" xlink:href="34E6027FD0693E1B.jpg"  transform="matrix(0.24 0 0 0.24 -209.166 -212.8419)">
										</image>
									</g>
								</g>
							</g>
						</g>
					</g>
				</g>
			</g>
		</g>
	</g>
</g>
<g id="GRIDS" class="st0">
	<g class="st60">
		<rect x="0" class="st61" width="170" height="170"/>
		<line class="st61" x1="0" y1="0" x2="170" y2="170"/>
		<line class="st61" x1="170" y1="0" x2="0" y2="170"/>
		<line class="st61" x1="0" y1="85" x2="170" y2="85"/>
		<line class="st61" x1="0" y1="54" x2="170" y2="54"/>
		<line class="st61" x1="0" y1="116" x2="170" y2="116"/>
		<line class="st61" x1="0" y1="11" x2="170" y2="11"/>
		<line class="st61" x1="0" y1="159" x2="170" y2="159"/>
		<line class="st61" x1="85" y1="0" x2="85" y2="170"/>
		<line class="st61" x1="159" y1="0" x2="159" y2="170"/>
		<circle class="st61" cx="85" cy="85" r="31"/>
		<circle class="st61" cx="85" cy="85" r="44"/>
		<circle class="st61" cx="85" cy="85" r="74"/>
		<line class="st61" x1="54" y1="0" x2="54" y2="170"/>
		<line class="st61" x1="11" y1="0" x2="11" y2="170"/>
		<line class="st61" x1="116" y1="0" x2="116" y2="170"/>
	</g>
</g>
<g id="MOTION_PROTECT">
	<g>
		<path class="st62" d="M82.8,79.9l3.3-3.1c2.2-2,3.7-3.6,4.6-4.7s1.5-2.2,1.9-3.2s0.6-2.1,0.6-3.3c0-1.4-0.3-2.6-1-3.6
			s-1.6-1.9-2.9-2.5s-2.6-0.9-4.3-0.9c-1.2,0-2.3,0.1-3.3,0.4s-1.9,0.6-2.7,1s-1.9,1.2-3.1,2.3l3,3.5c1-0.8,2-1.5,2.9-2
			s1.9-0.7,2.9-0.7c0.9,0,1.7,0.3,2.3,0.8s0.9,1.3,0.9,2.3c0,0.7-0.1,1.4-0.4,2s-0.7,1.3-1.3,2.1s-1.8,2.1-3.7,4.1L76,80.9v3.8h18
			v-4.6H82.8V79.9z"/>
		<path class="st62" d="M40.9,65.8l2.6,3.3l3-2.4c0.4-0.3,1-0.9,1.9-1.8l-0.1,2.7L48.2,70v14.9h5.4V59.2h-4.5L40.9,65.8z"/>
		<path class="st62" d="M128.3,73.4c-1.1-1-2.6-1.6-4.7-1.9v-0.1c1.8-0.4,3.1-1.2,4.1-2.3s1.5-2.5,1.5-4.1c0-1.9-0.8-3.4-2.3-4.5
			s-3.6-1.6-6.3-1.6c-3.2,0-6,0.8-8.4,2.5l2.5,3.7c1.1-0.7,2-1.2,2.9-1.5s1.7-0.4,2.6-0.4c2.4,0,3.7,1,3.7,2.9
			c0,1.3-0.5,2.2-1.4,2.7s-2.4,0.8-4.4,0.8h-2v4.2h2c2.2,0,3.7,0.3,4.7,0.8s1.5,1.4,1.5,2.6c0,1.3-0.4,2.3-1.3,2.9s-2.2,0.9-4,0.9
			c-1.2,0-2.4-0.2-3.6-0.5s-2.3-0.7-3.3-1.2v4.6c2.2,0.9,4.6,1.4,7.4,1.4c3.3,0,5.9-0.7,7.7-2.1s2.7-3.3,2.7-5.8
			C129.9,75.7,129.4,74.4,128.3,73.4z"/>
	</g>
	<path class="st63" d="M58.1,109.6H39.9c-2.5,0-4.5-2-4.5-4.5v0c0-2.5,2-4.5,4.5-4.5h18.3c2.5,0,4.5,2,4.5,4.5v0
		C62.6,107.6,60.6,109.6,58.1,109.6z"/>
	<path class="st64" d="M94.1,109.6H75.9c-2.5,0-4.5-2-4.5-4.5v0c0-2.5,2-4.5,4.5-4.5h18.3c2.5,0,4.5,2,4.5,4.5v0
		C98.6,107.6,96.6,109.6,94.1,109.6z"/>
	<path class="st65" d="M130.1,109.6h-18.3c-2.5,0-4.5-2-4.5-4.5v0c0-2.5,2-4.5,4.5-4.5h18.3c2.5,0,4.5,2,4.5,4.5v0
		C134.6,107.6,132.6,109.6,130.1,109.6z"/>
</g>
<g id="Archive">
</g>
<g id="Archive_2">
</g>
<g id="Layer_6">
</g>
</svg>
