<?xml version="1.0" encoding="utf-8"?>
<!-- Generator: Adobe Illustrator 18.0.0, SVG Export Plug-In . SVG Version: 6.00 Build 0)  -->
<!DOCTYPE svg PUBLIC "-//W3C//DTD SVG 1.1//EN" "http://www.w3.org/Graphics/SVG/1.1/DTD/svg11.dtd">
<svg version="1.1" xmlns="http://www.w3.org/2000/svg" xmlns:xlink="http://www.w3.org/1999/xlink" x="0px" y="0px"
	 viewBox="0 0 170 170" style="enable-background:new 0 0 170 170;" xml:space="preserve">
<style type="text/css">
	.st0{display:none;}
	.st1{display:inline;enable-background:new    ;}
	.st2{clip-path:url(#SVGID_2_);}
	.st3{clip-path:url(#SVGID_4_);}
	.st4{clip-path:url(#SVGID_6_);}
	.st5{opacity:0;clip-path:url(#SVGID_8_);}
	.st6{opacity:0;}
	.st7{clip-path:url(#SVGID_10_);}
	.st8{clip-path:url(#SVGID_14_);}
	.st9{clip-path:url(#SVGID_16_);}
	.st10{clip-path:url(#SVGID_18_);}
	.st11{clip-path:url(#SVGID_20_);}
	.st12{clip-path:url(#SVGID_24_);}
	.st13{clip-path:url(#SVGID_26_);}
	.st14{clip-path:url(#SVGID_28_);}
	.st15{opacity:0;clip-path:url(#SVGID_30_);}
	.st16{clip-path:url(#SVGID_32_);}
	.st17{clip-path:url(#SVGID_36_);}
	.st18{clip-path:url(#SVGID_38_);}
	.st19{clip-path:url(#SVGID_40_);}
	.st20{clip-path:url(#SVGID_42_);}
	.st21{clip-path:url(#SVGID_46_);}
	.st22{clip-path:url(#SVGID_48_);}
	.st23{clip-path:url(#SVGID_50_);}
	.st24{opacity:0;clip-path:url(#SVGID_52_);}
	.st25{clip-path:url(#SVGID_54_);}
	.st26{clip-path:url(#SVGID_58_);}
	.st27{clip-path:url(#SVGID_60_);}
	.st28{clip-path:url(#SVGID_62_);}
	.st29{clip-path:url(#SVGID_64_);}
	.st30{clip-path:url(#SVGID_68_);}
	.st31{clip-path:url(#SVGID_70_);}
	.st32{clip-path:url(#SVGID_72_);}
	.st33{opacity:0;clip-path:url(#SVGID_74_);}
	.st34{clip-path:url(#SVGID_76_);}
	.st35{clip-path:url(#SVGID_80_);}
	.st36{clip-path:url(#SVGID_82_);}
	.st37{clip-path:url(#SVGID_84_);}
	.st38{clip-path:url(#SVGID_86_);}
	.st39{clip-path:url(#SVGID_90_);}
	.st40{clip-path:url(#SVGID_92_);}
	.st41{clip-path:url(#SVGID_94_);}
	.st42{opacity:0;clip-path:url(#SVGID_96_);}
	.st43{clip-path:url(#SVGID_98_);}
	.st44{clip-path:url(#SVGID_102_);}
	.st45{clip-path:url(#SVGID_104_);}
	.st46{clip-path:url(#SVGID_106_);}
	.st47{clip-path:url(#SVGID_108_);}
	.st48{clip-path:url(#SVGID_112_);}
	.st49{clip-path:url(#SVGID_114_);}
	.st50{clip-path:url(#SVGID_116_);}
	.st51{opacity:0;clip-path:url(#SVGID_118_);}
	.st52{clip-path:url(#SVGID_120_);}
	.st53{clip-path:url(#SVGID_124_);}
	.st54{clip-path:url(#SVGID_126_);}
	.st55{clip-path:url(#SVGID_128_);}
	.st56{clip-path:url(#SVGID_130_);}
	.st57{display:inline;}
	.st58{fill:#666666;stroke:#FFFFFF;stroke-width:2;stroke-linecap:round;stroke-linejoin:round;stroke-miterlimit:10;}
	.st59{fill:none;stroke:#FFFFFF;stroke-width:1.8;stroke-miterlimit:10;}
	.st60{display:inline;opacity:0.3;}
	.st61{fill:none;stroke:#F2F2F2;stroke-width:0.5;stroke-miterlimit:10;}
	.st62{fill:#FFFFFF;}
	.st63{fill:#989898;}
	.st64{fill:#CBCBCB;}
	.st65{fill:#E5E5E5;}
	.st66{fill:#666666;stroke:#FFFFFF;stroke-width:3;stroke-linecap:round;stroke-linejoin:round;stroke-miterlimit:10;}
	.st67{fill:#666666;stroke:#FFFFFF;stroke-width:2;stroke-miterlimit:10;}
	.st68{fill:none;stroke:#989898;stroke-width:2;stroke-miterlimit:10;}
	.st69{fill:#CCCCCC;}
	.st70{fill:none;stroke:#CCCCCC;stroke-miterlimit:10;}
	.st71{fill:none;stroke:#989898;stroke-width:3;stroke-linejoin:round;stroke-miterlimit:10;}
	.st72{fill:none;}
	.st73{fill:#B2B2B2;}
	.st74{fill:#4D4D4D;}
	.st75{fill:#666666;}
	.st76{fill:#F1F1F1;}
	.st77{fill:none;stroke:#CBCBCB;stroke-width:3;stroke-linecap:round;stroke-linejoin:round;stroke-miterlimit:10;}
	.st78{fill:#808080;}
	.st79{fill:url(#SVGID_133_);}
	.st80{fill:#999999;}
	.st81{fill:none;stroke:#B2B2B2;stroke-miterlimit:10;}
	.st82{fill:none;stroke:#F1F1F1;stroke-width:1.6;stroke-miterlimit:10;}
	.st83{fill:none;stroke:#CBCBCB;stroke-linecap:round;stroke-linejoin:round;stroke-miterlimit:10;}
	.st84{fill:none;stroke:#FFFFFF;stroke-miterlimit:10;}
	.st85{fill:none;stroke:#989898;stroke-width:3;stroke-linecap:round;stroke-linejoin:round;stroke-miterlimit:10;}
	.st86{opacity:0.5;fill:#666666;}
	.st87{fill:none;stroke:#E5E5E5;stroke-width:2;stroke-linecap:round;stroke-linejoin:round;stroke-miterlimit:10;}
	.st88{fill:none;stroke:#CCCCCC;stroke-width:3;stroke-miterlimit:10;}
	.st89{fill:#FFFFFF;stroke:#FFFFFF;stroke-miterlimit:10;}
	.st90{fill:none;stroke:#FFFFFF;stroke-width:3;stroke-miterlimit:10;}
	.st91{fill:none;stroke:#FFFFFF;stroke-width:2;stroke-miterlimit:10;}
	.st92{fill:none;stroke:#FFFFFF;stroke-width:3;stroke-linecap:round;stroke-linejoin:round;stroke-miterlimit:10;}
</style>
<g id="Layer_2" class="st0">
	<g class="st1">
		<g>
			<defs>
				<rect id="SVGID_1_" x="-23.5" y="-782.2" width="399.3" height="2688.7"/>
			</defs>
			<clipPath id="SVGID_2_">
				<use xlink:href="#SVGID_1_"  style="overflow:visible;"/>
			</clipPath>
			<g class="st2">
				<defs>
					<rect id="SVGID_3_" x="-23.5" y="-2581.2" width="399.3" height="4625.6"/>
				</defs>
				<clipPath id="SVGID_4_">
					<use xlink:href="#SVGID_3_"  style="overflow:visible;"/>
				</clipPath>
				<g class="st3">
					<defs>
						<rect id="SVGID_5_" x="-23.5" y="-782.2" width="399.3" height="2688.7"/>
					</defs>
					<clipPath id="SVGID_6_">
						<use xlink:href="#SVGID_5_"  style="overflow:visible;"/>
					</clipPath>
					<g class="st4">
						<defs>
							<rect id="SVGID_7_" x="-23.5" y="-782.2" width="399.3" height="2688.7"/>
						</defs>
						<clipPath id="SVGID_8_">
							<use xlink:href="#SVGID_7_"  style="overflow:visible;"/>
						</clipPath>
						<g class="st5">
							<g class="st6">
								<g>
									<defs>
										<rect id="SVGID_9_" x="-23.5" y="-782.2" width="399.3" height="2688.7"/>
									</defs>
									<clipPath id="SVGID_10_">
										<use xlink:href="#SVGID_9_"  style="overflow:visible;"/>
									</clipPath>
									<g class="st7">
										<defs>
											<rect id="SVGID_11_" x="-23.5" y="-782.2" width="399.3" height="2688.7"/>
										</defs>
										<clipPath id="SVGID_12_">
											<use xlink:href="#SVGID_11_"  style="overflow:visible;"/>
										</clipPath>
										<g style="clip-path:url(#SVGID_12_);">
											
												<image style="overflow:visible;" width="1664" height="11204" xlink:href="6C521FA341CC8C01.jpg"  transform="matrix(0.24 0 0 0.24 -23.5083 -782.1707)">
											</image>
										</g>
									</g>
								</g>
							</g>
						</g>
					</g>
				</g>
			</g>
			<g class="st2">
				<defs>
					<rect id="SVGID_13_" x="-23.5" y="-2581.2" width="399.3" height="4625.6"/>
				</defs>
				<clipPath id="SVGID_14_">
					<use xlink:href="#SVGID_13_"  style="overflow:visible;"/>
				</clipPath>
				<g class="st8">
					<defs>
						<rect id="SVGID_15_" x="-23.5" y="-782.2" width="399.3" height="2688.7"/>
					</defs>
					<clipPath id="SVGID_16_">
						<use xlink:href="#SVGID_15_"  style="overflow:visible;"/>
					</clipPath>
					<g class="st9">
						<defs>
							<rect id="SVGID_17_" x="-23.5" y="-782.2" width="399.3" height="2688.7"/>
						</defs>
						<clipPath id="SVGID_18_">
							<use xlink:href="#SVGID_17_"  style="overflow:visible;"/>
						</clipPath>
						<g class="st10">
							<g>
								<defs>
									<rect id="SVGID_19_" x="-23.5" y="-782.2" width="399.3" height="2688.7"/>
								</defs>
								<clipPath id="SVGID_20_">
									<use xlink:href="#SVGID_19_"  style="overflow:visible;"/>
								</clipPath>
								<g class="st11">
									<defs>
										<rect id="SVGID_21_" x="-23.5" y="-782.2" width="399.3" height="2688.7"/>
									</defs>
									<clipPath id="SVGID_22_">
										<use xlink:href="#SVGID_21_"  style="overflow:visible;"/>
									</clipPath>
									<g style="clip-path:url(#SVGID_22_);">
										
											<image style="overflow:visible;" width="1664" height="11204" xlink:href="6C521FA341CC8C03.jpg"  transform="matrix(0.24 0 0 0.24 -23.5083 -782.1707)">
										</image>
									</g>
								</g>
							</g>
						</g>
					</g>
				</g>
			</g>
		</g>
	</g>
</g>
<g id="GRIDS" class="st0">
	<g class="st60">
		<rect y="0" class="st61" width="170" height="170"/>
		<line class="st61" x1="0" y1="0" x2="170" y2="170"/>
		<line class="st61" x1="170" y1="0" x2="0" y2="170"/>
		<line class="st61" x1="0" y1="85" x2="170" y2="85"/>
		<line class="st61" x1="0" y1="54" x2="170" y2="54"/>
		<line class="st61" x1="0" y1="116" x2="170" y2="116"/>
		<line class="st61" x1="0" y1="11" x2="170" y2="11"/>
		<line class="st61" x1="0" y1="159" x2="170" y2="159"/>
		<line class="st61" x1="85" y1="0" x2="85" y2="170"/>
		<line class="st61" x1="159" y1="0" x2="159" y2="170"/>
		<circle class="st61" cx="85" cy="85" r="31"/>
		<circle class="st61" cx="85" cy="85" r="44"/>
		<circle class="st61" cx="85" cy="85" r="74"/>
		<line class="st61" x1="54" y1="0" x2="54" y2="170"/>
		<line class="st61" x1="11" y1="0" x2="11" y2="170"/>
		<line class="st61" x1="116" y1="0" x2="116" y2="170"/>
	</g>
</g>
<g id="MOTION_PROTECT">
	<g>
		<path class="st73" d="M76.6,101.4c-0.3,0-0.5-0.1-0.7-0.3c-4.3-4.3-6.7-10-6.7-16.1c0-6.1,2.4-11.8,6.7-16.1c0.4-0.4,1-0.4,1.4,0
			s0.4,1,0,1.4c-3.9,3.9-6.1,9.2-6.1,14.7c0,5.6,2.2,10.8,6.1,14.7c0.4,0.4,0.4,1,0,1.4C77.1,101.3,76.9,101.4,76.6,101.4z"/>
	</g>
	<g>
		<path class="st73" d="M68.8,110.5c-0.2,0-0.5-0.1-0.7-0.3c-7.2-6.6-11.3-15.9-11.3-25.7c0-9.3,3.6-18.1,10.2-24.7
			c0.4-0.4,1-0.4,1.4,0s0.4,1,0,1.4c-6.2,6.2-9.6,14.5-9.6,23.3c0,9.2,3.9,18,10.6,24.2c0.4,0.4,0.4,1,0.1,1.4
			C69.3,110.3,69,110.5,68.8,110.5z"/>
	</g>
	<g>
		<g>
			<path class="st73" d="M60.1,118.8c-0.2,0-0.5-0.1-0.7-0.3c-9.5-9-14.7-21.2-14.7-34.2c0-12.4,4.8-24.2,13.5-33
				c0.4-0.4,1-0.4,1.4,0c0.4,0.4,0.4,1,0,1.4c-8.3,8.5-12.9,19.7-12.9,31.6c0,12.5,5,24.1,14.1,32.8c0.4,0.4,0.4,1,0,1.4
				C60.6,118.7,60.3,118.8,60.1,118.8z"/>
		</g>
		<g>
			<path class="st73" d="M50,129.2c-0.2,0-0.5-0.1-0.7-0.3C37,117.1,30.2,101.3,30.2,84.3c0-16.3,6.3-31.6,17.7-43.2
				c0.4-0.4,1-0.4,1.4,0c0.4,0.4,0.4,1,0,1.4C38.3,53.8,32.2,68.6,32.2,84.3c0,16.4,6.6,31.8,18.5,43.1c0.4,0.4,0.4,1,0,1.4
				C50.6,129.1,50.3,129.2,50,129.2z"/>
		</g>
		<g>
			<path class="st73" d="M83.9,94.2c-0.3,0-0.5-0.1-0.7-0.3c-2.4-2.4-3.7-5.5-3.7-8.9s1.3-6.5,3.7-8.9c0.4-0.4,1-0.4,1.4,0
				s0.4,1,0,1.4c-2,2-3.1,4.6-3.1,7.5s1.1,5.5,3.1,7.5c0.4,0.4,0.4,1,0,1.4C84.4,94.1,84.1,94.2,83.9,94.2z"/>
		</g>
		<g>
			<path class="st73" d="M60.1,118.8c-0.2,0-0.5-0.1-0.7-0.3c-9.5-9-14.7-21.2-14.7-34.2c0-12.4,4.8-24.2,13.5-33
				c0.4-0.4,1-0.4,1.4,0c0.4,0.4,0.4,1,0,1.4c-8.3,8.5-12.9,19.7-12.9,31.6c0,12.5,5,24.1,14.1,32.8c0.4,0.4,0.4,1,0,1.4
				C60.6,118.7,60.3,118.8,60.1,118.8z"/>
		</g>
	</g>
	<g>
		<path class="st76" d="M138.3,72.9H111c-1.1,0-1.9,0.9-1.9,1.9V96c0,1.1,0.9,1.9,1.9,1.9h27.4c1.1,0,1.9-0.9,1.9-1.9V74.9
			C140.3,73.8,139.4,72.9,138.3,72.9z M138.3,95.9H111v-21h27.2V95.9z"/>
		<path class="st76" d="M116.4,60.9l8.1,1.6c0,0,0.1,0,0.1,0s0.1,0,0.1,0l8.2-1.6c0.3,0,0.4-0.3,0.4-0.5c0-0.3-0.2-0.5-0.5-0.5
			h-16.4c-0.3,0-0.5,0.2-0.5,0.5S116.1,60.9,116.4,60.9z M127.5,60.9l-2.9,0.5l-2.9-0.5H127.5z"/>
		<path class="st76" d="M140,70.7c-2.3,0.5-15.2,0.6-15.3,0.6c0,0-0.1,0-0.1,0c-0.1,0-13-0.1-15.3-0.6c-1.1-0.2-1.8-0.1-2.3,0.2
			c-0.6,0.5-0.7,1.3-0.8,2.3l0,0.1c-0.1,1.6,0.9,22.9,0.9,23.7c0,0-0.1,2.7,3.4,3.3c2.9,0.5,10.7,1.1,14.1,1.1
			c3.4,0,11.3-0.6,14.1-1.1c3.4-0.6,3.4-3.3,3.4-3.3c0-0.9,1-22.1,0.9-23.8l0-0.1c-0.1-1-0.1-1.8-0.8-2.3
			C141.8,70.6,141.1,70.5,140,70.7z M142,73.3l0,0.1c0.1,1.3-0.6,16-0.9,23.7c0,0.1,0,1.8-2.5,2.3c-2.6,0.5-10.3,1.1-13.9,1.1
			c-3.6,0-11.3-0.6-13.9-1.1c-2.6-0.5-2.5-2.2-2.5-2.3c-0.4-7.6-1-22.4-0.9-23.7l0-0.1c0.1-0.7,0.1-1.4,0.4-1.6
			c0.1-0.1,0.3-0.1,0.6-0.1c0.2,0,0.5,0,0.9,0.1c2.4,0.5,14.9,0.6,15.5,0.6c0,0,0,0,0.1,0c0,0,0,0,0.1,0c0.5,0,13.1-0.1,15.5-0.6
			c0.7-0.1,1.2-0.1,1.5,0C141.9,71.9,142,72.6,142,73.3z"/>
		<polygon class="st76" points="128.6,111.2 129.6,111.2 130.8,110.1 129.8,110.1 		"/>
		<polygon class="st76" points="132.5,107.7 131.3,108.8 132.3,108.8 133.5,107.7 		"/>
		<polygon class="st76" points="123.1,111.2 123.9,111.2 125.5,109 124.7,109 		"/>
		<polygon class="st76" points="125.2,108.3 127.2,111.2 128,111.2 125.6,107.7 		"/>
		<polygon class="st76" points="128.6,107.7 132.5,111.2 132.5,111.2 133.5,111.2 129.6,107.7 		"/>
		<polygon class="st76" points="115.8,111.2 116.6,111.2 118.1,109 117.3,109 		"/>
		<polygon class="st76" points="117.8,108.3 119.8,111.2 120.6,111.2 118.2,107.7 		"/>
		<path class="st76" d="M122.2,109.9c0,0.3-0.2,0.7-0.7,0.8h-0.2v0.5c0,0,0.8,0,1.2-0.4c0.3-0.4,0.4-0.8,0.4-1v-2.1h-0.6
			L122.2,109.9z"/>
		<path class="st76" d="M137.7,51.3c-3-1.3-7.9-2-13.1-2c-5.2,0-10.1,0.7-13,2c-8.9,3-8.3,12.3-8.2,13.2c0,1.3,0.4,31.4,1.1,41.5
			c0.7,9.4,8.4,13.2,8.7,13.4c3.6,1.7,7.4,2.5,11.4,2.5c0,0,0.1,0,0.1,0c3.9,0,7.7-0.9,11.3-2.5c0.3-0.2,8-4,8.7-13.4
			c0.7-10.1,1.1-40.1,1.1-41.5C145.9,63.6,146.6,54.3,137.7,51.3z M143.8,64.4c0,0,0,0.1,0,0.1c0,0.3-0.4,31.2-1.1,41.4
			c-0.6,8.2-7.3,11.6-7.5,11.7c-3.3,1.6-6.9,2.4-10.6,2.4c0,0-0.1,0-0.1,0c-3.6,0-7.1-0.8-10.4-2.3c-0.1,0-7-3.4-7.6-11.7
			c-0.7-10.2-1.1-41.1-1.1-41.4c0,0,0-0.1,0-0.1c0-0.3-0.9-8.5,6.9-11.2c2.7-1.2,7.3-1.8,12.3-1.8c5,0,9.6,0.7,12.4,1.9
			C144.8,55.8,143.9,64,143.8,64.4z"/>
	</g>
</g>
<g id="Archive">
</g>
<g id="Archive_2">
</g>
<g id="Layer_6">
</g>
</svg>
