<?xml version="1.0" encoding="utf-8"?>
<!-- Generator: Adobe Illustrator 18.0.0, SVG Export Plug-In . SVG Version: 6.00 Build 0)  -->
<!DOCTYPE svg PUBLIC "-//W3C//DTD SVG 1.1//EN" "http://www.w3.org/Graphics/SVG/1.1/DTD/svg11.dtd">
<svg version="1.1" xmlns="http://www.w3.org/2000/svg" xmlns:xlink="http://www.w3.org/1999/xlink" x="0px" y="0px"
	 viewBox="0 0 170 170" style="enable-background:new 0 0 170 170;" xml:space="preserve">
<style type="text/css">
	.st0{display:none;}
	.st1{display:inline;enable-background:new    ;}
	.st2{clip-path:url(#SVGID_2_);}
	.st3{clip-path:url(#SVGID_4_);}
	.st4{clip-path:url(#SVGID_6_);}
	.st5{opacity:0;clip-path:url(#SVGID_8_);}
	.st6{opacity:0;}
	.st7{clip-path:url(#SVGID_10_);}
	.st8{clip-path:url(#SVGID_14_);}
	.st9{clip-path:url(#SVGID_16_);}
	.st10{clip-path:url(#SVGID_18_);}
	.st11{clip-path:url(#SVGID_20_);}
	.st12{clip-path:url(#SVGID_24_);}
	.st13{clip-path:url(#SVGID_26_);}
	.st14{clip-path:url(#SVGID_28_);}
	.st15{opacity:0;clip-path:url(#SVGID_30_);}
	.st16{clip-path:url(#SVGID_32_);}
	.st17{clip-path:url(#SVGID_36_);}
	.st18{clip-path:url(#SVGID_38_);}
	.st19{clip-path:url(#SVGID_40_);}
	.st20{clip-path:url(#SVGID_42_);}
	.st21{clip-path:url(#SVGID_46_);}
	.st22{clip-path:url(#SVGID_48_);}
	.st23{clip-path:url(#SVGID_50_);}
	.st24{opacity:0;clip-path:url(#SVGID_52_);}
	.st25{clip-path:url(#SVGID_54_);}
	.st26{clip-path:url(#SVGID_58_);}
	.st27{clip-path:url(#SVGID_60_);}
	.st28{clip-path:url(#SVGID_62_);}
	.st29{clip-path:url(#SVGID_64_);}
	.st30{clip-path:url(#SVGID_68_);}
	.st31{clip-path:url(#SVGID_70_);}
	.st32{clip-path:url(#SVGID_72_);}
	.st33{opacity:0;clip-path:url(#SVGID_74_);}
	.st34{clip-path:url(#SVGID_76_);}
	.st35{clip-path:url(#SVGID_80_);}
	.st36{clip-path:url(#SVGID_82_);}
	.st37{clip-path:url(#SVGID_84_);}
	.st38{clip-path:url(#SVGID_86_);}
	.st39{clip-path:url(#SVGID_90_);}
	.st40{clip-path:url(#SVGID_92_);}
	.st41{clip-path:url(#SVGID_94_);}
	.st42{opacity:0;clip-path:url(#SVGID_96_);}
	.st43{clip-path:url(#SVGID_98_);}
	.st44{clip-path:url(#SVGID_102_);}
	.st45{clip-path:url(#SVGID_104_);}
	.st46{clip-path:url(#SVGID_106_);}
	.st47{clip-path:url(#SVGID_108_);}
	.st48{clip-path:url(#SVGID_112_);}
	.st49{clip-path:url(#SVGID_114_);}
	.st50{clip-path:url(#SVGID_116_);}
	.st51{opacity:0;clip-path:url(#SVGID_118_);}
	.st52{clip-path:url(#SVGID_120_);}
	.st53{clip-path:url(#SVGID_124_);}
	.st54{clip-path:url(#SVGID_126_);}
	.st55{clip-path:url(#SVGID_128_);}
	.st56{clip-path:url(#SVGID_130_);}
	.st57{clip-path:url(#SVGID_134_);}
	.st58{clip-path:url(#SVGID_136_);}
	.st59{clip-path:url(#SVGID_138_);}
	.st60{opacity:0;clip-path:url(#SVGID_140_);}
	.st61{clip-path:url(#SVGID_142_);}
	.st62{clip-path:url(#SVGID_146_);}
	.st63{clip-path:url(#SVGID_148_);}
	.st64{clip-path:url(#SVGID_150_);}
	.st65{clip-path:url(#SVGID_152_);}
	.st66{display:inline;opacity:0.3;}
	.st67{fill:none;stroke:#F2F2F2;stroke-width:0.5;stroke-miterlimit:10;}
	.st68{fill:#FFFFFF;}
	.st69{fill:#B2B2B2;}
	.st70{fill:#989898;}
	.st71{fill:#CBCBCB;}
	.st72{fill:#E5E5E5;}
	.st73{fill:#666666;stroke:#FFFFFF;stroke-width:3;stroke-linecap:round;stroke-linejoin:round;stroke-miterlimit:10;}
	.st74{fill:#666666;stroke:#FFFFFF;stroke-width:2;stroke-miterlimit:10;}
	.st75{fill:none;stroke:#989898;stroke-width:2;stroke-miterlimit:10;}
	.st76{fill:#CCCCCC;}
	.st77{fill:none;stroke:#989898;stroke-width:3;stroke-linejoin:round;stroke-miterlimit:10;}
	.st78{fill:none;}
	.st79{fill:#4D4D4D;}
	.st80{fill:#666666;}
	.st81{fill:#F1F1F1;}
	.st82{fill:none;stroke:#CBCBCB;stroke-width:3;stroke-linecap:round;stroke-linejoin:round;stroke-miterlimit:10;}
	.st83{fill:#808080;}
	.st84{fill:url(#SVGID_155_);}
	.st85{fill:#999999;}
	.st86{fill:none;stroke:#B2B2B2;stroke-miterlimit:10;}
	.st87{fill:none;stroke:#F1F1F1;stroke-width:1.6;stroke-miterlimit:10;}
	.st88{fill:none;stroke:#CBCBCB;stroke-linecap:round;stroke-linejoin:round;stroke-miterlimit:10;}
	.st89{fill:none;stroke:#FFFFFF;stroke-miterlimit:10;}
	.st90{opacity:0.5;fill:#D1D1D1;}
	.st91{fill:none;stroke:#E5E5E5;stroke-width:2;stroke-linecap:round;stroke-linejoin:round;stroke-miterlimit:10;}
	.st92{fill:none;stroke:#CCCCCC;stroke-width:3;stroke-miterlimit:10;}
	.st93{fill:#FFFFFF;stroke:#FFFFFF;stroke-miterlimit:10;}
	.st94{fill:none;stroke:#FFFFFF;stroke-width:3;stroke-miterlimit:10;}
	.st95{fill:none;stroke:#CCCCCC;stroke-miterlimit:10;}
	.st96{fill:none;stroke:#989898;stroke-width:3;stroke-linecap:round;stroke-linejoin:round;stroke-miterlimit:10;}
	.st97{fill:none;stroke:#FFFFFF;stroke-width:2;stroke-miterlimit:10;}
	.st98{fill:#139EEB;}
	.st99{fill:none;stroke:#FFFFFF;stroke-width:3;stroke-linecap:round;stroke-linejoin:round;stroke-miterlimit:10;}
</style>
<g id="Layer_2" class="st0">
	<g class="st1">
		<g>
			<defs>
				<rect id="SVGID_1_" x="-213.5" y="-2492.2" width="399.3" height="2688.7"/>
			</defs>
			<clipPath id="SVGID_2_">
				<use xlink:href="#SVGID_1_"  style="overflow:visible;"/>
			</clipPath>
			<g class="st2">
				<defs>
					<rect id="SVGID_3_" x="-213.5" y="-4291.2" width="399.3" height="4625.6"/>
				</defs>
				<clipPath id="SVGID_4_">
					<use xlink:href="#SVGID_3_"  style="overflow:visible;"/>
				</clipPath>
				<g class="st3">
					<defs>
						<rect id="SVGID_5_" x="-213.5" y="-2492.2" width="399.3" height="2688.7"/>
					</defs>
					<clipPath id="SVGID_6_">
						<use xlink:href="#SVGID_5_"  style="overflow:visible;"/>
					</clipPath>
					<g class="st4">
						<defs>
							<rect id="SVGID_7_" x="-213.5" y="-2492.2" width="399.3" height="2688.7"/>
						</defs>
						<clipPath id="SVGID_8_">
							<use xlink:href="#SVGID_7_"  style="overflow:visible;"/>
						</clipPath>
						<g class="st5">
							<g class="st6">
								<g>
									<defs>
										<rect id="SVGID_9_" x="-213.5" y="-2492.2" width="399.3" height="2688.7"/>
									</defs>
									<clipPath id="SVGID_10_">
										<use xlink:href="#SVGID_9_"  style="overflow:visible;"/>
									</clipPath>
									<g class="st7">
										<defs>
											<rect id="SVGID_11_" x="-213.5" y="-2492.2" width="399.3" height="2688.7"/>
										</defs>
										<clipPath id="SVGID_12_">
											<use xlink:href="#SVGID_11_"  style="overflow:visible;"/>
										</clipPath>
										<g style="clip-path:url(#SVGID_12_);">
											
												<image style="overflow:visible;" width="1664" height="11204" xlink:href="E4A7D790F9DB067.jpg"  transform="matrix(0.24 0 0 0.24 -213.5083 -2492.1707)">
											</image>
										</g>
									</g>
								</g>
							</g>
						</g>
					</g>
				</g>
			</g>
			<g class="st2">
				<defs>
					<rect id="SVGID_13_" x="-213.5" y="-4291.2" width="399.3" height="4625.6"/>
				</defs>
				<clipPath id="SVGID_14_">
					<use xlink:href="#SVGID_13_"  style="overflow:visible;"/>
				</clipPath>
				<g class="st8">
					<defs>
						<rect id="SVGID_15_" x="-213.5" y="-2492.2" width="399.3" height="2688.7"/>
					</defs>
					<clipPath id="SVGID_16_">
						<use xlink:href="#SVGID_15_"  style="overflow:visible;"/>
					</clipPath>
					<g class="st9">
						<defs>
							<rect id="SVGID_17_" x="-213.5" y="-2492.2" width="399.3" height="2688.7"/>
						</defs>
						<clipPath id="SVGID_18_">
							<use xlink:href="#SVGID_17_"  style="overflow:visible;"/>
						</clipPath>
						<g class="st10">
							<g>
								<defs>
									<rect id="SVGID_19_" x="-213.5" y="-2492.2" width="399.3" height="2688.7"/>
								</defs>
								<clipPath id="SVGID_20_">
									<use xlink:href="#SVGID_19_"  style="overflow:visible;"/>
								</clipPath>
								<g class="st11">
									<defs>
										<rect id="SVGID_21_" x="-213.5" y="-2492.2" width="399.3" height="2688.7"/>
									</defs>
									<clipPath id="SVGID_22_">
										<use xlink:href="#SVGID_21_"  style="overflow:visible;"/>
									</clipPath>
									<g style="clip-path:url(#SVGID_22_);">
										
											<image style="overflow:visible;" width="1664" height="11204" xlink:href="E4A7D790F9DB062.jpg"  transform="matrix(0.24 0 0 0.24 -213.5083 -2492.1707)">
										</image>
									</g>
								</g>
							</g>
						</g>
					</g>
				</g>
			</g>
		</g>
	</g>
</g>
<g id="GRIDS" class="st0">
</g>
<g id="MOTION_PROTECT">
	<g>
		<g>
			<g>
				<path class="st68" d="M59,77.4l2.6,3.2l3-2.4c0.4-0.3,1-0.9,1.9-1.8L66.2,79L66,81.5V96h6V71h-4.7L59,77.4z"/>
			</g>
		</g>
		<g>
			<g>
				<path class="st69" d="M32,83h-6.2c0,3-0.3,4.7-0.9,6.6S23.5,94,22.5,95H22v5h1v-4h10v4h1v-5h-2V83z M31,95h-7.2
					c1.9-3,2.9-6,3.1-11H31V95z"/>
				<path class="st69" d="M45.4,84.9c-1-1.2-2.4-1.8-4.1-1.8c-1.8,0-3.1,0.6-4.1,1.7s-1.5,2.8-1.5,4.9c0,1.3,0.2,2.5,0.7,3.5
					s1.1,1.8,2,2.3s1.8,0.8,3,0.8c1.8,0,3.2-0.6,4.2-1.8s1.5-2.8,1.5-4.9C46.9,87.7,46.4,86.1,45.4,84.9z M44.5,93.9
					c-0.8,1-1.9,1.5-3.3,1.5s-2.5-0.5-3.3-1.5s-1.2-2.3-1.2-4.1c0-1.8,0.4-3.1,1.1-4.1s1.8-1.4,3.3-1.4s2.5,0.5,3.3,1.5
					s1.2,2.3,1.2,4.1C45.7,91.5,45.3,92.9,44.5,93.9z"/>
			</g>
			<g>
				<path class="st68" d="M98.3,70c-3,0-5.3,1.1-6.8,3.2s-2.2,5.5-2.2,10c0,4.3,0.8,7.6,2.3,9.9s3.7,3.3,6.7,3.3
					c3.1,0,5.3-1.1,6.8-3.2s2.2-5.5,2.2-10c0-4.3-0.8-7.6-2.3-9.9S101.3,70,98.3,70z M101,90.1c-0.6,1.4-1.5,2.1-2.7,2.1
					c-1.3,0-2.2-0.7-2.8-2s-0.8-3.6-0.8-6.8s0.3-5.4,0.8-6.8s1.5-2.1,2.7-2.1c1.3,0,2.2,0.7,2.7,2.1s0.9,3.6,0.9,6.8
					C101.9,86.4,101.6,88.7,101,90.1z"/>
				<path class="st68" d="M118.8,70c-3,0-5.3,1.1-6.8,3.2s-2.2,5.5-2.2,10c0,4.3,0.8,7.6,2.3,9.9s3.7,3.3,6.7,3.3
					c3.1,0,5.3-1.1,6.8-3.2s2.2-5.5,2.2-10c0-4.3-0.8-7.6-2.3-9.9S121.8,70,118.8,70z M121.6,90.1c-0.6,1.4-1.5,2.1-2.7,2.1
					c-1.3,0-2.2-0.7-2.8-2s-0.8-3.6-0.8-6.8s0.3-5.4,0.8-6.8s1.5-2.1,2.7-2.1c1.3,0,2.2,0.7,2.7,2.1s0.9,3.6,0.9,6.8
					C122.4,86.4,122.1,88.7,121.6,90.1z"/>
				<path class="st68" d="M146.1,73.4c-1.5-2.2-3.8-3.4-6.7-3.4c-3,0-5.3,1.1-6.8,3.2s-2.2,5.5-2.2,10c0,4.3,0.8,7.6,2.3,9.9
					s3.7,3.3,6.7,3.3c3.1,0,5.3-1.1,6.8-3.2s2.2-5.5,2.2-10C148.4,79,147.6,75.7,146.1,73.4z M142.1,90.1c-0.6,1.4-1.5,2.1-2.7,2.1
					c-1.3,0-2.2-0.7-2.8-2s-0.8-3.6-0.8-6.8s0.3-5.4,0.8-6.8s1.5-2.1,2.7-2.1c1.3,0,2.2,0.7,2.7,2.1s0.9,3.6,0.9,6.8
					C143,86.4,142.7,88.7,142.1,90.1z"/>
			</g>
		</g>
	</g>
</g>
<g id="Archive">
</g>
<g id="Archive_2">
</g>
<g id="Layer_6">
</g>
</svg>
