<?xml version="1.0" encoding="utf-8"?>
<!-- Generator: Adobe Illustrator 18.0.0, SVG Export Plug-In . SVG Version: 6.00 Build 0)  -->
<!DOCTYPE svg PUBLIC "-//W3C//DTD SVG 1.1//EN" "http://www.w3.org/Graphics/SVG/1.1/DTD/svg11.dtd">
<svg version="1.1" xmlns="http://www.w3.org/2000/svg" xmlns:xlink="http://www.w3.org/1999/xlink" x="0px" y="0px"
	 viewBox="0 0 170 170" style="enable-background:new 0 0 170 170;" xml:space="preserve">
<style type="text/css">
	.st0{display:none;}
	.st1{display:inline;enable-background:new    ;}
	.st2{clip-path:url(#SVGID_2_);}
	.st3{clip-path:url(#SVGID_4_);}
	.st4{clip-path:url(#SVGID_6_);}
	.st5{opacity:0;clip-path:url(#SVGID_8_);}
	.st6{opacity:0;}
	.st7{clip-path:url(#SVGID_10_);}
	.st8{clip-path:url(#SVGID_14_);}
	.st9{clip-path:url(#SVGID_16_);}
	.st10{clip-path:url(#SVGID_18_);}
	.st11{clip-path:url(#SVGID_20_);}
	.st12{clip-path:url(#SVGID_24_);}
	.st13{clip-path:url(#SVGID_26_);}
	.st14{clip-path:url(#SVGID_28_);}
	.st15{opacity:0;clip-path:url(#SVGID_30_);}
	.st16{clip-path:url(#SVGID_32_);}
	.st17{clip-path:url(#SVGID_36_);}
	.st18{clip-path:url(#SVGID_38_);}
	.st19{clip-path:url(#SVGID_40_);}
	.st20{clip-path:url(#SVGID_42_);}
	.st21{clip-path:url(#SVGID_46_);}
	.st22{clip-path:url(#SVGID_48_);}
	.st23{clip-path:url(#SVGID_50_);}
	.st24{opacity:0;clip-path:url(#SVGID_52_);}
	.st25{clip-path:url(#SVGID_54_);}
	.st26{clip-path:url(#SVGID_58_);}
	.st27{clip-path:url(#SVGID_60_);}
	.st28{clip-path:url(#SVGID_62_);}
	.st29{clip-path:url(#SVGID_64_);}
	.st30{clip-path:url(#SVGID_68_);}
	.st31{clip-path:url(#SVGID_70_);}
	.st32{clip-path:url(#SVGID_72_);}
	.st33{opacity:0;clip-path:url(#SVGID_74_);}
	.st34{clip-path:url(#SVGID_76_);}
	.st35{clip-path:url(#SVGID_80_);}
	.st36{clip-path:url(#SVGID_82_);}
	.st37{clip-path:url(#SVGID_84_);}
	.st38{clip-path:url(#SVGID_86_);}
	.st39{clip-path:url(#SVGID_90_);}
	.st40{clip-path:url(#SVGID_92_);}
	.st41{clip-path:url(#SVGID_94_);}
	.st42{opacity:0;clip-path:url(#SVGID_96_);}
	.st43{clip-path:url(#SVGID_98_);}
	.st44{clip-path:url(#SVGID_102_);}
	.st45{clip-path:url(#SVGID_104_);}
	.st46{clip-path:url(#SVGID_106_);}
	.st47{clip-path:url(#SVGID_108_);}
	.st48{clip-path:url(#SVGID_112_);}
	.st49{clip-path:url(#SVGID_114_);}
	.st50{clip-path:url(#SVGID_116_);}
	.st51{opacity:0;clip-path:url(#SVGID_118_);}
	.st52{clip-path:url(#SVGID_120_);}
	.st53{clip-path:url(#SVGID_124_);}
	.st54{clip-path:url(#SVGID_126_);}
	.st55{clip-path:url(#SVGID_128_);}
	.st56{clip-path:url(#SVGID_130_);}
	.st57{display:inline;}
	.st58{fill:#666666;stroke:#FFFFFF;stroke-width:2;stroke-linecap:round;stroke-linejoin:round;stroke-miterlimit:10;}
	.st59{fill:none;stroke:#FFFFFF;stroke-width:1.8;stroke-miterlimit:10;}
	.st60{display:inline;opacity:0.3;}
	.st61{fill:none;stroke:#F2F2F2;stroke-width:0.5;stroke-miterlimit:10;}
	.st62{fill:#FFFFFF;}
	.st63{fill:#989898;}
	.st64{fill:#CBCBCB;}
	.st65{fill:#E5E5E5;}
	.st66{fill:#666666;stroke:#FFFFFF;stroke-width:3;stroke-linecap:round;stroke-linejoin:round;stroke-miterlimit:10;}
	.st67{fill:#666666;stroke:#FFFFFF;stroke-width:2;stroke-miterlimit:10;}
	.st68{fill:none;stroke:#989898;stroke-width:2;stroke-miterlimit:10;}
	.st69{fill:#CCCCCC;}
	.st70{fill:none;stroke:#CCCCCC;stroke-miterlimit:10;}
	.st71{fill:none;stroke:#989898;stroke-width:3;stroke-linejoin:round;stroke-miterlimit:10;}
	.st72{fill:none;}
	.st73{fill:#B2B2B2;}
	.st74{fill:#4D4D4D;}
	.st75{fill:#666666;}
	.st76{fill:#F1F1F1;}
	.st77{fill:none;stroke:#CBCBCB;stroke-width:3;stroke-linecap:round;stroke-linejoin:round;stroke-miterlimit:10;}
	.st78{fill:#808080;}
	.st79{fill:url(#SVGID_133_);}
	.st80{fill:#999999;}
	.st81{fill:none;stroke:#B2B2B2;stroke-miterlimit:10;}
	.st82{fill:none;stroke:#F1F1F1;stroke-width:1.6;stroke-miterlimit:10;}
	.st83{fill:none;stroke:#CBCBCB;stroke-linecap:round;stroke-linejoin:round;stroke-miterlimit:10;}
	.st84{fill:none;stroke:#FFFFFF;stroke-miterlimit:10;}
	.st85{fill:none;stroke:#989898;stroke-width:3;stroke-linecap:round;stroke-linejoin:round;stroke-miterlimit:10;}
	.st86{opacity:0.5;fill:#666666;}
	.st87{fill:none;stroke:#E5E5E5;stroke-width:2;stroke-linecap:round;stroke-linejoin:round;stroke-miterlimit:10;}
	.st88{fill:none;stroke:#CCCCCC;stroke-width:3;stroke-miterlimit:10;}
	.st89{fill:#FFFFFF;stroke:#FFFFFF;stroke-miterlimit:10;}
	.st90{fill:none;stroke:#FFFFFF;stroke-width:3;stroke-miterlimit:10;}
	.st91{fill:none;stroke:#FFFFFF;stroke-width:2;stroke-miterlimit:10;}
	.st92{fill:none;stroke:#FFFFFF;stroke-width:3;stroke-linecap:round;stroke-linejoin:round;stroke-miterlimit:10;}
</style>
<g id="Layer_2" class="st0">
	<g class="st1">
		<g>
			<defs>
				<rect id="SVGID_1_" x="-213.5" y="-1352.2" width="399.3" height="2688.7"/>
			</defs>
			<clipPath id="SVGID_2_">
				<use xlink:href="#SVGID_1_"  style="overflow:visible;"/>
			</clipPath>
			<g class="st2">
				<defs>
					<rect id="SVGID_3_" x="-213.5" y="-3151.2" width="399.3" height="4625.6"/>
				</defs>
				<clipPath id="SVGID_4_">
					<use xlink:href="#SVGID_3_"  style="overflow:visible;"/>
				</clipPath>
				<g class="st3">
					<defs>
						<rect id="SVGID_5_" x="-213.5" y="-1352.2" width="399.3" height="2688.7"/>
					</defs>
					<clipPath id="SVGID_6_">
						<use xlink:href="#SVGID_5_"  style="overflow:visible;"/>
					</clipPath>
					<g class="st4">
						<defs>
							<rect id="SVGID_7_" x="-213.5" y="-1352.2" width="399.3" height="2688.7"/>
						</defs>
						<clipPath id="SVGID_8_">
							<use xlink:href="#SVGID_7_"  style="overflow:visible;"/>
						</clipPath>
						<g class="st5">
							<g class="st6">
								<g>
									<defs>
										<rect id="SVGID_9_" x="-213.5" y="-1352.2" width="399.3" height="2688.7"/>
									</defs>
									<clipPath id="SVGID_10_">
										<use xlink:href="#SVGID_9_"  style="overflow:visible;"/>
									</clipPath>
									<g class="st7">
										<defs>
											<rect id="SVGID_11_" x="-213.5" y="-1352.2" width="399.3" height="2688.7"/>
										</defs>
										<clipPath id="SVGID_12_">
											<use xlink:href="#SVGID_11_"  style="overflow:visible;"/>
										</clipPath>
										<g style="clip-path:url(#SVGID_12_);">
											
												<image style="overflow:visible;" width="1664" height="11204" xlink:href="15FAB6820E33E9DB.jpg"  transform="matrix(0.24 0 0 0.24 -213.5083 -1352.1707)">
											</image>
										</g>
									</g>
								</g>
							</g>
						</g>
					</g>
				</g>
			</g>
			<g class="st2">
				<defs>
					<rect id="SVGID_13_" x="-213.5" y="-3151.2" width="399.3" height="4625.6"/>
				</defs>
				<clipPath id="SVGID_14_">
					<use xlink:href="#SVGID_13_"  style="overflow:visible;"/>
				</clipPath>
				<g class="st8">
					<defs>
						<rect id="SVGID_15_" x="-213.5" y="-1352.2" width="399.3" height="2688.7"/>
					</defs>
					<clipPath id="SVGID_16_">
						<use xlink:href="#SVGID_15_"  style="overflow:visible;"/>
					</clipPath>
					<g class="st9">
						<defs>
							<rect id="SVGID_17_" x="-213.5" y="-1352.2" width="399.3" height="2688.7"/>
						</defs>
						<clipPath id="SVGID_18_">
							<use xlink:href="#SVGID_17_"  style="overflow:visible;"/>
						</clipPath>
						<g class="st10">
							<g>
								<defs>
									<rect id="SVGID_19_" x="-213.5" y="-1352.2" width="399.3" height="2688.7"/>
								</defs>
								<clipPath id="SVGID_20_">
									<use xlink:href="#SVGID_19_"  style="overflow:visible;"/>
								</clipPath>
								<g class="st11">
									<defs>
										<rect id="SVGID_21_" x="-213.5" y="-1352.2" width="399.3" height="2688.7"/>
									</defs>
									<clipPath id="SVGID_22_">
										<use xlink:href="#SVGID_21_"  style="overflow:visible;"/>
									</clipPath>
									<g style="clip-path:url(#SVGID_22_);">
										
											<image style="overflow:visible;" width="1664" height="11204" xlink:href="15FAB6820E33E9D9.jpg"  transform="matrix(0.24 0 0 0.24 -213.5083 -1352.1707)">
										</image>
									</g>
								</g>
							</g>
						</g>
					</g>
				</g>
			</g>
		</g>
	</g>
</g>
<g id="GRIDS" class="st0">
	<g class="st60">
		<rect y="0" class="st61" width="170" height="170"/>
		<line class="st61" x1="0" y1="0" x2="170" y2="170"/>
		<line class="st61" x1="170" y1="0" x2="0" y2="170"/>
		<line class="st61" x1="0" y1="85" x2="170" y2="85"/>
		<line class="st61" x1="0" y1="54" x2="170" y2="54"/>
		<line class="st61" x1="0" y1="116" x2="170" y2="116"/>
		<line class="st61" x1="0" y1="11" x2="170" y2="11"/>
		<line class="st61" x1="0" y1="159" x2="170" y2="159"/>
		<line class="st61" x1="85" y1="0" x2="85" y2="170"/>
		<line class="st61" x1="159" y1="0" x2="159" y2="170"/>
		<circle class="st61" cx="85" cy="85" r="31"/>
		<circle class="st61" cx="85" cy="85" r="44"/>
		<circle class="st61" cx="85" cy="85" r="74"/>
		<line class="st61" x1="54" y1="0" x2="54" y2="170"/>
		<line class="st61" x1="11" y1="0" x2="11" y2="170"/>
		<line class="st61" x1="116" y1="0" x2="116" y2="170"/>
	</g>
</g>
<g id="MOTION_PROTECT">
	<g>
		<path class="st73" d="M70.3,67.5c-0.4-0.4-1-0.4-1.4,0s-0.4,1,0,1.4c4.3,4.3,6.7,10,6.7,16.1s-2.4,11.8-6.7,16.1
			c-0.4,0.4-0.4,1,0,1.4c0.2,0.2,0.5,0.3,0.7,0.3s0.5-0.1,0.7-0.3c4.7-4.7,7.3-10.9,7.3-17.5C77.5,78.4,74.9,72.2,70.3,67.5z"/>
		<path class="st73" d="M79.1,57.4c-0.4-0.4-1-0.4-1.4,0s-0.4,1,0,1.4c7,7,10.8,16.3,10.8,26.2c0,9.9-3.9,19.2-10.8,26.2
			c-0.4,0.4-0.4,1,0,1.4c0.2,0.2,0.5,0.3,0.7,0.3s0.5-0.1,0.7-0.3c7.4-7.4,11.4-17.2,11.4-27.6C90.6,74.6,86.5,64.8,79.1,57.4z"/>
		<path class="st73" d="M60.9,75.4c-0.4,0.4-0.4,1,0,1.4c2.2,2.2,3.4,5.1,3.4,8.2c0,3.1-1.2,6-3.4,8.2c-0.4,0.4-0.4,1,0,1.4
			c0.2,0.2,0.5,0.3,0.7,0.3s0.5-0.1,0.7-0.3c2.6-2.6,4-6,4-9.6c0-3.6-1.4-7-4-9.6C61.9,75,61.3,75,60.9,75.4z"/>
	</g>
	<g>
		<path class="st76" d="M16,91.7c-0.4-0.3-0.6-0.8-0.6-1.5v-8.5h4.9V78h-4.9v-3.8h-3.1L11,78l-2.7,1.6v2h2.3v8.5
			c0,2,0.4,3.4,1.3,4.4c0.9,1,2.3,1.5,4.2,1.5c1.8,0,3.2-0.3,4.4-0.8v-3.6c-1.2,0.4-2.2,0.6-3,0.6C16.9,92.2,16.4,92,16,91.7z"/>
		<path class="st76" d="M31.3,73c-0.8-0.5-1.8-0.7-2.7-0.7c-1,0-1.9,0.2-2.8,0.7c-0.8,0.5-1.5,1.2-2,2c-0.5,0.8-0.7,1.8-0.7,2.7
			c0,1.5,0.5,2.8,1.6,3.9c1.1,1,2.4,1.6,3.9,1.6c1,0,1.9-0.2,2.7-0.7s1.5-1.1,2-2s0.7-1.8,0.7-2.7c0-1-0.2-1.9-0.7-2.7
			C32.8,74.1,32.1,73.5,31.3,73z M30.3,79.4c-0.5,0.5-1.1,0.7-1.8,0.7c-0.7,0-1.3-0.2-1.7-0.7c-0.5-0.5-0.7-1-0.7-1.7
			c0-0.7,0.2-1.3,0.7-1.8c0.5-0.5,1.1-0.7,1.7-0.7c0.7,0,1.3,0.2,1.7,0.7c0.5,0.5,0.7,1.1,0.7,1.7C31,78.4,30.8,79,30.3,79.4z"/>
		<path class="st76" d="M42.4,84.2c0-2.5,0.5-4.4,1.5-5.8c1-1.4,2.4-2.1,4.3-2.1c0.8,0,1.7,0.2,2.6,0.5c0.9,0.3,1.7,0.7,2.6,1.1
			l1.6-4c-2.3-1.1-4.5-1.6-6.8-1.6c-2.2,0-4.1,0.5-5.8,1.4s-2.9,2.4-3.8,4.2c-0.9,1.8-1.3,3.9-1.3,6.3c0,3.8,0.9,6.7,2.7,8.8
			c1.8,2,4.4,3.1,7.7,3.1c2.3,0,4.5-0.4,6.4-1.2v-4.1c-2.3,0.8-4.3,1.2-5.9,1.2C44.3,91.9,42.4,89.4,42.4,84.2z"/>
	</g>
	<g>
		<path class="st74" d="M159.5,74.5c-0.1-2-0.3-4.1-0.4-6.1c-0.2-1.8-0.5-3.6-1.2-5.4c-0.9-2.5-2.4-4.5-4.7-5.9
			c-2.1-1.2-4.4-1.8-6.7-2.1c-1.6-0.2-3.2-0.3-4.8-0.4c-1.6-0.1-3.3-0.2-4.9-0.3c-1.7-0.1-3.4-0.1-5-0.1c-3.7,0-7.4,0-11,0.2
			c-1.6,0.1-3.2,0.1-4.8,0.3c-1.6,0.1-3.2,0.3-4.7,0.5c-1.4,0.2-2.8,0.5-4.1,1c-2.2,0.8-4,2-5.4,3.8c-1.3,1.7-2,3.7-2.4,5.8
			c-0.4,1.9-0.5,3.8-0.7,5.7c-0.1,1.5-0.2,3-0.3,4.5c-0.1,1.9-0.2,3.8-0.2,5.7c0,3.4,0,6.7,0.1,10.1c0.1,2.2,0.2,4.4,0.3,6.6
			c0.1,1.4,0.2,2.8,0.4,4.2c0.2,1.7,0.6,3.4,1.2,5.1c1.2,3,3.2,5.1,6.2,6.3c2.2,0.9,4.6,1.3,6.9,1.5c1.5,0.1,3,0.2,4.4,0.3
			c2.1,0.1,4.2,0.2,6.4,0.3c3.6,0,7.2,0,10.8-0.1c2.3,0,4.5-0.2,6.8-0.3c1.7-0.1,3.3-0.3,5-0.5c1.8-0.2,3.5-0.6,5.2-1.3
			c2.1-0.9,3.8-2.3,5-4.3c1.3-2.2,1.9-4.6,2.2-7c0.2-1.2,0.2-2.5,0.3-3.7c0.1-1.3,0.2-2.5,0.2-3.8c0.1-1.4,0.1-2.8,0.1-4.2
			c0.1-2.2,0.1-4.4,0.1-6.9C159.8,80.9,159.7,77.7,159.5,74.5z"/>
		<path class="st62" d="M127.3,116.8c-1.1,0-2.1,0-3.2,0c-1.9,0-3.7-0.1-5.5-0.2l-0.9,0c-1.7-0.1-3.1-0.2-4.5-0.3
			c-2.2-0.2-4.8-0.6-7.2-1.6c-3.2-1.3-5.5-3.6-6.7-6.9c-0.6-1.6-1.1-3.4-1.3-5.3c-0.2-1.7-0.3-3-0.4-4.3c-0.1-1.9-0.3-4.3-0.3-6.6
			c-0.1-3.2-0.1-6.5-0.1-10.1c0-1.7,0.1-3.3,0.1-5l0-0.8c0.1-1.7,0.2-3.1,0.3-4.5c0.2-2,0.3-3.9,0.7-5.8c0.5-2.6,1.4-4.6,2.6-6.2
			c1.4-1.9,3.3-3.3,5.8-4.2c1.4-0.5,2.9-0.8,4.3-1c1.7-0.2,3.3-0.3,4.8-0.5c1.1-0.1,2.2-0.1,3.3-0.2l1.5-0.1c2.4-0.1,5-0.2,8.2-0.2
			c1,0,2,0,2.9,0c1.5,0,3.1,0.1,5.1,0.1c1.9,0.1,3.5,0.2,5,0.3c1.5,0.1,3.2,0.2,4.8,0.4c2.9,0.4,5.2,1.1,7.1,2.2
			c2.4,1.4,4.1,3.6,5.2,6.4c0.6,1.7,1,3.6,1.2,5.6c0.2,1.9,0.3,4,0.5,6.2c0.1,2.3,0.2,4.5,0.3,6.7l0.1,2.6l0,2.2
			c0,1.6-0.1,3.2-0.1,4.7c0,1.4-0.1,2.8-0.1,4.2c-0.1,1.3-0.1,2.5-0.2,3.8l0,0.3c-0.1,1.1-0.2,2.3-0.3,3.5c-0.3,2.1-0.8,4.9-2.3,7.4
			c-1.3,2.1-3.1,3.7-5.5,4.7c-1.7,0.7-3.5,1.2-5.5,1.4c-1.9,0.2-3.5,0.4-5,0.5c-2.2,0.1-4.5,0.3-6.9,0.3
			C132.4,116.8,129.8,116.8,127.3,116.8z M128.8,55.2c-3.2,0-5.7,0.1-8.1,0.2l-1.5,0.1c-1.1,0.1-2.2,0.1-3.3,0.2
			c-1.5,0.1-3.1,0.3-4.7,0.4c-1.3,0.1-2.6,0.5-3.9,0.9c-2.1,0.8-3.7,1.9-4.9,3.5c-1,1.4-1.7,3.1-2.2,5.4c-0.4,1.8-0.5,3.6-0.7,5.5
			c-0.1,1.3-0.2,2.7-0.3,4.4l0,0.8c-0.1,1.6-0.1,3.3-0.1,4.9c0,3.5,0,6.8,0.1,10c0.1,2.3,0.2,4.6,0.3,6.5c0.1,1.2,0.2,2.5,0.4,4.2
			c0.2,1.8,0.6,3.3,1.2,4.8c1.1,2.7,2.9,4.6,5.6,5.7c2.2,0.9,4.6,1.2,6.6,1.4c1.3,0.1,2.7,0.2,4.4,0.3l0.9,0
			c1.8,0.1,3.6,0.2,5.5,0.2c3.6,0,7.2,0,10.8-0.1c2.3,0,4.6-0.2,6.8-0.3c1.5-0.1,3-0.2,4.9-0.4c1.8-0.2,3.4-0.6,4.9-1.3
			c2-0.9,3.5-2.1,4.5-3.9c1-1.7,1.7-3.8,2-6.7c0.1-1.1,0.2-2.3,0.3-3.4l0-0.3c0.1-1.2,0.2-2.5,0.2-3.7c0.1-1.4,0.1-2.8,0.1-4.1
			c0-1.5,0.1-3.1,0.1-4.7l0-2.2l-0.1-2.6c-0.1-2.2-0.2-4.4-0.3-6.7c-0.1-2.1-0.3-4.2-0.4-6.1c-0.2-1.8-0.5-3.6-1.1-5.1
			c-0.9-2.4-2.3-4.2-4.3-5.4c-1.7-1-3.7-1.6-6.3-1.9c-1.6-0.2-3.2-0.3-4.7-0.4c-1.5-0.1-3-0.2-4.9-0.3c-1.9-0.1-3.5-0.1-5-0.1
			C130.8,55.2,129.8,55.2,128.8,55.2z"/>
	</g>
	<g>
		<polygon class="st62" points="133.1,87.1 134.3,87.1 135.7,85.7 134.5,85.7 		"/>
		<polygon class="st62" points="138.9,82.9 137.8,82.9 136.4,84.2 137.6,84.2 		"/>
		<polygon class="st62" points="126.6,87.1 127.5,87.1 129.3,84.5 128.4,84.5 		"/>
		<polygon class="st62" points="129,83.6 131.4,87.1 132.3,87.1 129.5,82.9 		"/>
		<polygon class="st62" points="134.3,82.9 133.1,82.9 137.7,87.1 137.7,87.1 138.9,87.1 		"/>
		<polygon class="st62" points="117.8,87.1 118.7,87.1 120.5,84.5 119.6,84.5 		"/>
		<polygon class="st62" points="120.2,83.6 122.6,87.1 123.5,87.1 120.7,82.9 		"/>
		<path class="st62" d="M125.4,85.5c0,0.3-0.2,0.9-0.8,0.9h-0.2v0.7c0,0,0.9,0,1.4-0.5c0.4-0.4,0.4-1,0.4-1.2v-2.5h-0.8L125.4,85.5z
			"/>
	</g>
</g>
<g id="Archive">
</g>
<g id="Archive_2">
</g>
<g id="Layer_6">
</g>
</svg>
