<?xml version="1.0" encoding="utf-8"?>
<!-- Generator: Adobe Illustrator 18.0.0, SVG Export Plug-In . SVG Version: 6.00 Build 0)  -->
<!DOCTYPE svg PUBLIC "-//W3C//DTD SVG 1.1//EN" "http://www.w3.org/Graphics/SVG/1.1/DTD/svg11.dtd">
<svg version="1.1" xmlns="http://www.w3.org/2000/svg" xmlns:xlink="http://www.w3.org/1999/xlink" x="0px" y="0px"
	 viewBox="0 0 170 170" style="enable-background:new 0 0 170 170;" xml:space="preserve">
<style type="text/css">
	.st0{display:none;}
	.st1{display:inline;enable-background:new    ;}
	.st2{clip-path:url(#SVGID_2_);}
	.st3{clip-path:url(#SVGID_4_);}
	.st4{clip-path:url(#SVGID_6_);}
	.st5{opacity:0;clip-path:url(#SVGID_8_);}
	.st6{opacity:0;}
	.st7{clip-path:url(#SVGID_10_);}
	.st8{clip-path:url(#SVGID_14_);}
	.st9{clip-path:url(#SVGID_16_);}
	.st10{clip-path:url(#SVGID_18_);}
	.st11{clip-path:url(#SVGID_20_);}
	.st12{clip-path:url(#SVGID_24_);}
	.st13{clip-path:url(#SVGID_26_);}
	.st14{clip-path:url(#SVGID_28_);}
	.st15{opacity:0;clip-path:url(#SVGID_30_);}
	.st16{clip-path:url(#SVGID_32_);}
	.st17{clip-path:url(#SVGID_36_);}
	.st18{clip-path:url(#SVGID_38_);}
	.st19{clip-path:url(#SVGID_40_);}
	.st20{clip-path:url(#SVGID_42_);}
	.st21{clip-path:url(#SVGID_46_);}
	.st22{clip-path:url(#SVGID_48_);}
	.st23{clip-path:url(#SVGID_50_);}
	.st24{opacity:0;clip-path:url(#SVGID_52_);}
	.st25{clip-path:url(#SVGID_54_);}
	.st26{clip-path:url(#SVGID_58_);}
	.st27{clip-path:url(#SVGID_60_);}
	.st28{clip-path:url(#SVGID_62_);}
	.st29{clip-path:url(#SVGID_64_);}
	.st30{clip-path:url(#SVGID_68_);}
	.st31{clip-path:url(#SVGID_70_);}
	.st32{clip-path:url(#SVGID_72_);}
	.st33{opacity:0;clip-path:url(#SVGID_74_);}
	.st34{clip-path:url(#SVGID_76_);}
	.st35{clip-path:url(#SVGID_80_);}
	.st36{clip-path:url(#SVGID_82_);}
	.st37{clip-path:url(#SVGID_84_);}
	.st38{clip-path:url(#SVGID_86_);}
	.st39{clip-path:url(#SVGID_90_);}
	.st40{clip-path:url(#SVGID_92_);}
	.st41{clip-path:url(#SVGID_94_);}
	.st42{opacity:0;clip-path:url(#SVGID_96_);}
	.st43{clip-path:url(#SVGID_98_);}
	.st44{clip-path:url(#SVGID_102_);}
	.st45{clip-path:url(#SVGID_104_);}
	.st46{clip-path:url(#SVGID_106_);}
	.st47{clip-path:url(#SVGID_108_);}
	.st48{clip-path:url(#SVGID_112_);}
	.st49{clip-path:url(#SVGID_114_);}
	.st50{clip-path:url(#SVGID_116_);}
	.st51{opacity:0;clip-path:url(#SVGID_118_);}
	.st52{clip-path:url(#SVGID_120_);}
	.st53{clip-path:url(#SVGID_124_);}
	.st54{clip-path:url(#SVGID_126_);}
	.st55{clip-path:url(#SVGID_128_);}
	.st56{clip-path:url(#SVGID_130_);}
	.st57{display:inline;}
	.st58{fill:#666666;stroke:#FFFFFF;stroke-width:2;stroke-linecap:round;stroke-linejoin:round;stroke-miterlimit:10;}
	.st59{fill:none;stroke:#FFFFFF;stroke-width:1.8;stroke-miterlimit:10;}
	.st60{display:inline;opacity:0.3;}
	.st61{fill:none;stroke:#F2F2F2;stroke-width:0.5;stroke-miterlimit:10;}
	.st62{fill:#FFFFFF;}
	.st63{fill:#989898;}
	.st64{fill:#CBCBCB;}
	.st65{fill:#E5E5E5;}
	.st66{fill:#666666;stroke:#FFFFFF;stroke-width:3;stroke-linecap:round;stroke-linejoin:round;stroke-miterlimit:10;}
	.st67{fill:#666666;stroke:#FFFFFF;stroke-width:2;stroke-miterlimit:10;}
	.st68{fill:none;stroke:#989898;stroke-width:2;stroke-miterlimit:10;}
	.st69{fill:#CCCCCC;}
	.st70{fill:none;stroke:#CCCCCC;stroke-miterlimit:10;}
	.st71{fill:none;stroke:#989898;stroke-width:3;stroke-linejoin:round;stroke-miterlimit:10;}
	.st72{fill:none;}
	.st73{fill:#B2B2B2;}
	.st74{fill:#4D4D4D;}
	.st75{fill:#666666;}
	.st76{fill:#F1F1F1;}
	.st77{fill:none;stroke:#CBCBCB;stroke-width:3;stroke-linecap:round;stroke-linejoin:round;stroke-miterlimit:10;}
	.st78{fill:#808080;}
	.st79{fill:url(#SVGID_133_);}
	.st80{fill:#999999;}
	.st81{fill:none;stroke:#B2B2B2;stroke-miterlimit:10;}
	.st82{fill:none;stroke:#F1F1F1;stroke-width:1.6;stroke-miterlimit:10;}
	.st83{fill:none;stroke:#CBCBCB;stroke-linecap:round;stroke-linejoin:round;stroke-miterlimit:10;}
	.st84{fill:none;stroke:#FFFFFF;stroke-miterlimit:10;}
	.st85{fill:none;stroke:#989898;stroke-width:3;stroke-linecap:round;stroke-linejoin:round;stroke-miterlimit:10;}
	.st86{opacity:0.5;fill:#666666;}
	.st87{fill:none;stroke:#E5E5E5;stroke-width:2;stroke-linecap:round;stroke-linejoin:round;stroke-miterlimit:10;}
	.st88{fill:none;stroke:#CCCCCC;stroke-width:3;stroke-miterlimit:10;}
	.st89{fill:#FFFFFF;stroke:#FFFFFF;stroke-miterlimit:10;}
	.st90{fill:none;stroke:#FFFFFF;stroke-width:3;stroke-miterlimit:10;}
	.st91{fill:none;stroke:#FFFFFF;stroke-width:2;stroke-miterlimit:10;}
	.st92{fill:none;stroke:#FFFFFF;stroke-width:3;stroke-linecap:round;stroke-linejoin:round;stroke-miterlimit:10;}
</style>
<g id="Layer_2" class="st0">
	<g class="st1">
		<g>
			<defs>
				<rect id="SVGID_67_" x="-20.7" y="-22.2" width="399.3" height="211.8"/>
			</defs>
			<clipPath id="SVGID_2_">
				<use xlink:href="#SVGID_67_"  style="overflow:visible;"/>
			</clipPath>
			<g class="st2">
				<defs>
					<rect id="SVGID_69_" x="-20.7" y="-163.9" width="399.3" height="364.4"/>
				</defs>
				<clipPath id="SVGID_4_">
					<use xlink:href="#SVGID_69_"  style="overflow:visible;"/>
				</clipPath>
				<g class="st3">
					<defs>
						<rect id="SVGID_71_" x="-20.7" y="-22.2" width="399.3" height="211.8"/>
					</defs>
					<clipPath id="SVGID_6_">
						<use xlink:href="#SVGID_71_"  style="overflow:visible;"/>
					</clipPath>
					<g class="st4">
						<defs>
							<rect id="SVGID_73_" x="-20.7" y="-22.2" width="399.3" height="211.8"/>
						</defs>
						<clipPath id="SVGID_8_">
							<use xlink:href="#SVGID_73_"  style="overflow:visible;"/>
						</clipPath>
						<g class="st5">
							<g class="st6">
								<g>
									<defs>
										<rect id="SVGID_75_" x="-20.7" y="-22.2" width="399.3" height="211.8"/>
									</defs>
									<clipPath id="SVGID_10_">
										<use xlink:href="#SVGID_75_"  style="overflow:visible;"/>
									</clipPath>
									<g class="st7">
										<defs>
											<rect id="SVGID_77_" x="-20.7" y="-22.2" width="399.3" height="211.8"/>
										</defs>
										<clipPath id="SVGID_12_">
											<use xlink:href="#SVGID_77_"  style="overflow:visible;"/>
										</clipPath>
										<g style="clip-path:url(#SVGID_12_);">
											
												<image style="overflow:visible;" width="1664" height="883" xlink:href="139850B49614AB9D.jpg"  transform="matrix(0.24 0 0 0.24 -20.6542 -22.1712)">
											</image>
										</g>
									</g>
								</g>
							</g>
						</g>
					</g>
				</g>
			</g>
			<g class="st2">
				<defs>
					<rect id="SVGID_79_" x="-20.7" y="-163.9" width="399.3" height="364.4"/>
				</defs>
				<clipPath id="SVGID_14_">
					<use xlink:href="#SVGID_79_"  style="overflow:visible;"/>
				</clipPath>
				<g class="st8">
					<defs>
						<rect id="SVGID_81_" x="-20.7" y="-22.2" width="399.3" height="211.8"/>
					</defs>
					<clipPath id="SVGID_16_">
						<use xlink:href="#SVGID_81_"  style="overflow:visible;"/>
					</clipPath>
					<g class="st9">
						<defs>
							<rect id="SVGID_83_" x="-20.7" y="-22.2" width="399.3" height="211.8"/>
						</defs>
						<clipPath id="SVGID_18_">
							<use xlink:href="#SVGID_83_"  style="overflow:visible;"/>
						</clipPath>
						<g class="st10">
							<g>
								<defs>
									<rect id="SVGID_85_" x="-20.7" y="-22.4" width="399.3" height="211.8"/>
								</defs>
								<clipPath id="SVGID_20_">
									<use xlink:href="#SVGID_85_"  style="overflow:visible;"/>
								</clipPath>
								<g class="st11">
									<defs>
										<rect id="SVGID_87_" x="-20.7" y="-22.4" width="399.3" height="211.8"/>
									</defs>
									<clipPath id="SVGID_22_">
										<use xlink:href="#SVGID_87_"  style="overflow:visible;"/>
									</clipPath>
									<g style="clip-path:url(#SVGID_22_);">
										
											<image style="overflow:visible;" width="1664" height="883" xlink:href="139850B49614AB9F.jpg"  transform="matrix(0.24 0 0 0.24 -20.6542 -22.4075)">
										</image>
									</g>
								</g>
							</g>
						</g>
					</g>
				</g>
			</g>
		</g>
	</g>
</g>
<g id="GRIDS" class="st0">
	<g class="st60">
		<rect x="-0.1" class="st61" width="170" height="170"/>
		<line class="st61" x1="-0.1" y1="0" x2="169.9" y2="170"/>
		<line class="st61" x1="169.9" y1="0" x2="-0.1" y2="170"/>
		<line class="st61" x1="-0.1" y1="85" x2="169.9" y2="85"/>
		<line class="st61" x1="-0.1" y1="54" x2="169.9" y2="54"/>
		<line class="st61" x1="-0.1" y1="116" x2="169.9" y2="116"/>
		<line class="st61" x1="-0.1" y1="11" x2="169.9" y2="11"/>
		<line class="st61" x1="-0.1" y1="159" x2="169.9" y2="159"/>
		<line class="st61" x1="84.9" y1="0" x2="84.9" y2="170"/>
		<line class="st61" x1="158.9" y1="0" x2="158.9" y2="170"/>
		<circle class="st61" cx="84.9" cy="85" r="31"/>
		<circle class="st61" cx="84.9" cy="85" r="44"/>
		<circle class="st61" cx="84.9" cy="85" r="74"/>
		<line class="st61" x1="53.9" y1="0" x2="53.9" y2="170"/>
		<line class="st61" x1="10.9" y1="0" x2="10.9" y2="170"/>
		<line class="st61" x1="115.9" y1="0" x2="115.9" y2="170"/>
	</g>
</g>
<g id="MOTION_PROTECT">
	<g>
		<g>
			<path class="st63" d="M112.7,85c-10.9,0-19.8-8.9-19.8-19.8c0-10.9,8.9-19.8,19.8-19.8c10.9,0,19.8,8.9,19.8,19.8
				C132.6,76.1,123.7,85,112.7,85z M112.7,49.6c-8.6,0-15.6,7-15.6,15.6c0,8.6,7,15.6,15.6,15.6c8.6,0,15.6-7,15.6-15.6
				C128.4,56.6,121.4,49.6,112.7,49.6z"/>
		</g>
		<g>
			<path class="st63" d="M85,133c-10.9,0-19.8-8.9-19.8-19.8c0-10.9,8.9-19.8,19.8-19.8c10.9,0,19.8,8.9,19.8,19.8
				C104.8,124.1,95.9,133,85,133z M85,97.6c-8.6,0-15.6,7-15.6,15.6c0,8.6,7,15.6,15.6,15.6c8.6,0,15.6-7,15.6-15.6
				C100.6,104.6,93.6,97.6,85,97.6z"/>
		</g>
		<g>
			<path class="st76" d="M56.6,45.3c-7.9,0-14.6,4.6-17.8,11.2h4.8c2.8-4.2,7.6-7,13-7c8.6,0,15.6,7,15.6,15.6s-7,15.6-15.6,15.6
				c-5.4,0-10.2-2.8-13-7h-4.8c3.2,6.6,10,11.2,17.8,11.2c10.9,0,19.8-8.9,19.8-19.8S67.5,45.3,56.6,45.3z"/>
		</g>
	</g>
	<circle class="st63" cx="85" cy="113.2" r="7.9"/>
</g>
<g id="Archive">
</g>
<g id="Archive_2">
</g>
<g id="Layer_6">
</g>
</svg>
