<?xml version="1.0" encoding="utf-8"?>
<!-- Generator: Adobe Illustrator 18.0.0, SVG Export Plug-In . SVG Version: 6.00 Build 0)  -->
<!DOCTYPE svg PUBLIC "-//W3C//DTD SVG 1.1//EN" "http://www.w3.org/Graphics/SVG/1.1/DTD/svg11.dtd">
<svg version="1.1" xmlns="http://www.w3.org/2000/svg" xmlns:xlink="http://www.w3.org/1999/xlink" x="0px" y="0px"
	 viewBox="0 0 170 170" style="enable-background:new 0 0 170 170;" xml:space="preserve">
<style type="text/css">
	.st0{display:none;}
	.st1{display:inline;enable-background:new    ;}
	.st2{clip-path:url(#SVGID_2_);}
	.st3{clip-path:url(#SVGID_4_);}
	.st4{clip-path:url(#SVGID_6_);}
	.st5{opacity:0;clip-path:url(#SVGID_8_);}
	.st6{opacity:0;}
	.st7{clip-path:url(#SVGID_10_);}
	.st8{clip-path:url(#SVGID_14_);}
	.st9{clip-path:url(#SVGID_16_);}
	.st10{clip-path:url(#SVGID_18_);}
	.st11{clip-path:url(#SVGID_20_);}
	.st12{clip-path:url(#SVGID_24_);}
	.st13{clip-path:url(#SVGID_26_);}
	.st14{clip-path:url(#SVGID_28_);}
	.st15{opacity:0;clip-path:url(#SVGID_30_);}
	.st16{clip-path:url(#SVGID_32_);}
	.st17{clip-path:url(#SVGID_36_);}
	.st18{clip-path:url(#SVGID_38_);}
	.st19{clip-path:url(#SVGID_40_);}
	.st20{clip-path:url(#SVGID_42_);}
	.st21{clip-path:url(#SVGID_46_);}
	.st22{clip-path:url(#SVGID_48_);}
	.st23{clip-path:url(#SVGID_50_);}
	.st24{opacity:0;clip-path:url(#SVGID_52_);}
	.st25{clip-path:url(#SVGID_54_);}
	.st26{clip-path:url(#SVGID_58_);}
	.st27{clip-path:url(#SVGID_60_);}
	.st28{clip-path:url(#SVGID_62_);}
	.st29{clip-path:url(#SVGID_64_);}
	.st30{clip-path:url(#SVGID_68_);}
	.st31{clip-path:url(#SVGID_70_);}
	.st32{clip-path:url(#SVGID_72_);}
	.st33{opacity:0;clip-path:url(#SVGID_74_);}
	.st34{clip-path:url(#SVGID_76_);}
	.st35{clip-path:url(#SVGID_80_);}
	.st36{clip-path:url(#SVGID_82_);}
	.st37{clip-path:url(#SVGID_84_);}
	.st38{clip-path:url(#SVGID_86_);}
	.st39{clip-path:url(#SVGID_90_);}
	.st40{clip-path:url(#SVGID_92_);}
	.st41{clip-path:url(#SVGID_94_);}
	.st42{opacity:0;clip-path:url(#SVGID_96_);}
	.st43{clip-path:url(#SVGID_98_);}
	.st44{clip-path:url(#SVGID_102_);}
	.st45{clip-path:url(#SVGID_104_);}
	.st46{clip-path:url(#SVGID_106_);}
	.st47{clip-path:url(#SVGID_108_);}
	.st48{clip-path:url(#SVGID_112_);}
	.st49{clip-path:url(#SVGID_114_);}
	.st50{clip-path:url(#SVGID_116_);}
	.st51{opacity:0;clip-path:url(#SVGID_118_);}
	.st52{clip-path:url(#SVGID_120_);}
	.st53{clip-path:url(#SVGID_124_);}
	.st54{clip-path:url(#SVGID_126_);}
	.st55{clip-path:url(#SVGID_128_);}
	.st56{clip-path:url(#SVGID_130_);}
	.st57{clip-path:url(#SVGID_134_);}
	.st58{clip-path:url(#SVGID_136_);}
	.st59{clip-path:url(#SVGID_138_);}
	.st60{opacity:0;clip-path:url(#SVGID_140_);}
	.st61{clip-path:url(#SVGID_142_);}
	.st62{clip-path:url(#SVGID_146_);}
	.st63{clip-path:url(#SVGID_148_);}
	.st64{clip-path:url(#SVGID_150_);}
	.st65{clip-path:url(#SVGID_152_);}
	.st66{display:inline;opacity:0.3;}
	.st67{fill:none;stroke:#F2F2F2;stroke-width:0.5;stroke-miterlimit:10;}
	.st68{fill:#FFFFFF;}
	.st69{fill:#B2B2B2;}
	.st70{fill:#989898;}
	.st71{fill:#CBCBCB;}
	.st72{fill:#E5E5E5;}
	.st73{fill:#666666;stroke:#FFFFFF;stroke-width:3;stroke-linecap:round;stroke-linejoin:round;stroke-miterlimit:10;}
	.st74{fill:#666666;stroke:#FFFFFF;stroke-width:2;stroke-miterlimit:10;}
	.st75{fill:none;stroke:#989898;stroke-width:2;stroke-miterlimit:10;}
	.st76{fill:#CCCCCC;}
	.st77{fill:none;stroke:#CCCCCC;stroke-miterlimit:10;}
	.st78{fill:none;stroke:#989898;stroke-width:3;stroke-linejoin:round;stroke-miterlimit:10;}
	.st79{fill:none;}
	.st80{fill:#4D4D4D;}
	.st81{fill:#666666;}
	.st82{fill:#F1F1F1;}
	.st83{fill:none;stroke:#CBCBCB;stroke-width:3;stroke-linecap:round;stroke-linejoin:round;stroke-miterlimit:10;}
	.st84{fill:#808080;}
	.st85{fill:url(#SVGID_155_);}
	.st86{fill:#999999;}
	.st87{fill:none;stroke:#B2B2B2;stroke-miterlimit:10;}
	.st88{fill:none;stroke:#F1F1F1;stroke-width:1.6;stroke-miterlimit:10;}
	.st89{fill:none;stroke:#CBCBCB;stroke-linecap:round;stroke-linejoin:round;stroke-miterlimit:10;}
	.st90{fill:none;stroke:#FFFFFF;stroke-miterlimit:10;}
	.st91{opacity:0.5;fill:#D1D1D1;}
	.st92{fill:none;stroke:#E5E5E5;stroke-width:2;stroke-linecap:round;stroke-linejoin:round;stroke-miterlimit:10;}
	.st93{fill:none;stroke:#CCCCCC;stroke-width:3;stroke-miterlimit:10;}
	.st94{fill:#FFFFFF;stroke:#FFFFFF;stroke-miterlimit:10;}
	.st95{fill:none;stroke:#FFFFFF;stroke-width:3;stroke-miterlimit:10;}
	.st96{fill:none;stroke:#989898;stroke-width:3;stroke-linecap:round;stroke-linejoin:round;stroke-miterlimit:10;}
	.st97{fill:none;stroke:#FFFFFF;stroke-width:2;stroke-miterlimit:10;}
	.st98{fill:none;stroke:#FFFFFF;stroke-width:3;stroke-linecap:round;stroke-linejoin:round;stroke-miterlimit:10;}
</style>
<g id="Layer_2" class="st0">
	<g class="st1">
		<g>
			<defs>
				<rect id="SVGID_133_" x="-215.6" y="-22.2" width="399.3" height="776.5"/>
			</defs>
			<clipPath id="SVGID_2_">
				<use xlink:href="#SVGID_133_"  style="overflow:visible;"/>
			</clipPath>
			<g class="st2">
				<defs>
					<rect id="SVGID_135_" x="-215.6" y="-541.7" width="399.3" height="1335.9"/>
				</defs>
				<clipPath id="SVGID_4_">
					<use xlink:href="#SVGID_135_"  style="overflow:visible;"/>
				</clipPath>
				<g class="st3">
					<defs>
						<rect id="SVGID_137_" x="-215.6" y="-22.2" width="399.3" height="776.5"/>
					</defs>
					<clipPath id="SVGID_6_">
						<use xlink:href="#SVGID_137_"  style="overflow:visible;"/>
					</clipPath>
					<g class="st4">
						<defs>
							<rect id="SVGID_139_" x="-215.6" y="-22.2" width="399.3" height="776.5"/>
						</defs>
						<clipPath id="SVGID_8_">
							<use xlink:href="#SVGID_139_"  style="overflow:visible;"/>
						</clipPath>
						<g class="st5">
							<g class="st6">
								<g>
									<defs>
										<rect id="SVGID_141_" x="-215.6" y="-22.2" width="399.3" height="776.5"/>
									</defs>
									<clipPath id="SVGID_10_">
										<use xlink:href="#SVGID_141_"  style="overflow:visible;"/>
									</clipPath>
									<g class="st7">
										<defs>
											<rect id="SVGID_143_" x="-215.6" y="-22.2" width="399.3" height="776.5"/>
										</defs>
										<clipPath id="SVGID_12_">
											<use xlink:href="#SVGID_143_"  style="overflow:visible;"/>
										</clipPath>
										<g style="clip-path:url(#SVGID_12_);">
											
												<image style="overflow:visible;" width="1664" height="3236" xlink:href="A7D576E88ED58F28.jpg"  transform="matrix(0.24 0 0 0.24 -215.58 -22.1709)">
											</image>
										</g>
									</g>
								</g>
							</g>
						</g>
					</g>
				</g>
			</g>
			<g class="st2">
				<defs>
					<rect id="SVGID_145_" x="-215.6" y="-541.7" width="399.3" height="1335.9"/>
				</defs>
				<clipPath id="SVGID_14_">
					<use xlink:href="#SVGID_145_"  style="overflow:visible;"/>
				</clipPath>
				<g class="st8">
					<defs>
						<rect id="SVGID_147_" x="-215.6" y="-22.2" width="399.3" height="776.5"/>
					</defs>
					<clipPath id="SVGID_16_">
						<use xlink:href="#SVGID_147_"  style="overflow:visible;"/>
					</clipPath>
					<g class="st9">
						<defs>
							<rect id="SVGID_149_" x="-215.6" y="-22.2" width="399.3" height="776.5"/>
						</defs>
						<clipPath id="SVGID_18_">
							<use xlink:href="#SVGID_149_"  style="overflow:visible;"/>
						</clipPath>
						<g class="st10">
							<g>
								<defs>
									<rect id="SVGID_151_" x="-215.6" y="-23" width="399.3" height="776.5"/>
								</defs>
								<clipPath id="SVGID_20_">
									<use xlink:href="#SVGID_151_"  style="overflow:visible;"/>
								</clipPath>
								<g class="st11">
									<defs>
										<rect id="SVGID_153_" x="-215.6" y="-23" width="399.3" height="776.5"/>
									</defs>
									<clipPath id="SVGID_22_">
										<use xlink:href="#SVGID_153_"  style="overflow:visible;"/>
									</clipPath>
									<g style="clip-path:url(#SVGID_22_);">
										
											<image style="overflow:visible;" width="1664" height="3236" xlink:href="A7D576E88ED58F29.jpg"  transform="matrix(0.24 0 0 0.24 -215.58 -23.0376)">
										</image>
									</g>
								</g>
							</g>
						</g>
					</g>
				</g>
			</g>
		</g>
	</g>
	<g class="st66">
		<rect x="0" class="st67" width="170" height="170"/>
		<line class="st67" x1="0" y1="0" x2="170" y2="170"/>
		<line class="st67" x1="170" y1="0" x2="0" y2="170"/>
		<line class="st67" x1="0" y1="85" x2="170" y2="85"/>
		<line class="st67" x1="0" y1="54" x2="170" y2="54"/>
		<line class="st67" x1="0" y1="116" x2="170" y2="116"/>
		<line class="st67" x1="0" y1="11" x2="170" y2="11"/>
		<line class="st67" x1="0" y1="159" x2="170" y2="159"/>
		<line class="st67" x1="85" y1="0" x2="85" y2="170"/>
		<line class="st67" x1="159" y1="0" x2="159" y2="170"/>
		<circle class="st67" cx="85" cy="85" r="31"/>
		<circle class="st67" cx="85" cy="85" r="44"/>
		<circle class="st67" cx="85" cy="85" r="74"/>
		<line class="st67" x1="54" y1="0" x2="54" y2="170"/>
		<line class="st67" x1="11" y1="0" x2="11" y2="170"/>
		<line class="st67" x1="116" y1="0" x2="116" y2="170"/>
	</g>
</g>
<g id="GRIDS" class="st0">
</g>
<g id="MOTION_PROTECT">
	<path class="st68" d="M112.9,80.9v-5.1c0-0.5-0.4-1-1-1c-0.5,0-1,0.4-1,1v4.9h-0.4v-4.9c0-0.5-0.4-1-1-1s-1,0.4-1,1v4.9h-0.4v-4.9
		c0-0.5-0.4-1-1-1s-1,0.4-1,1v4.9h-0.4v-4.9c0-0.5-0.4-1-1-1c-0.5,0-1,0.4-1,1v4.9h-0.4v-4.9c0-0.5-0.4-1-1-1s-1,0.4-1,1v5.1
		c-1.2,0.4-2.1,1.5-2.1,2.8v5.1c0,1.7,1.3,3,3,3h9.6c1.7,0,3-1.3,3-3v-5.1C114.9,82.4,114.1,81.3,112.9,80.9z M113.2,88.8
		c0,0.7-0.6,1.2-1.2,1.2h-9.6c-0.7,0-1.2-0.6-1.2-1.2v-5.1c0-0.7,0.6-1.2,1.2-1.2h9.6c0.7,0,1.2,0.6,1.2,1.2V88.8z"/>
	<path class="st89" d="M120.7,58.5c2.7,3.6,4.8,7.6,6.3,12"/>
	<path class="st89" d="M74.3,41.8c3.4-0.8,7-1.3,10.7-1.3c3.5,0,7,0.4,10.3,1.2"/>
	<path class="st89" d="M43,70.3c1.5-4.2,3.5-8,6.1-11.5"/>
	<g>
		<path class="st70" d="M85,130.7c-25.2,0-45.7-20.5-45.7-45.7S59.8,39.3,85,39.3s45.7,20.5,45.7,45.7S110.2,130.7,85,130.7z
			 M85,42.3c-23.6,0-42.7,19.2-42.7,42.7s19.2,42.7,42.7,42.7s42.7-19.2,42.7-42.7S108.6,42.3,85,42.3z"/>
	</g>
	<g>
		<g>
			<polygon class="st68" points="86.6,67.3 88.2,67.3 88.2,58.1 76.5,58.1 76.5,59.7 86.6,59.7 			"/>
			<polygon class="st68" points="83.4,70.7 83.4,63.1 81.8,63.1 81.8,72.3 93.5,72.3 93.5,70.7 			"/>
		</g>
		<rect x="78.6" y="105.3" class="st91" width="3.2" height="6"/>
		<path class="st68" d="M92.3,106.3H92v-1c0-0.9-0.7-1.6-1.6-1.6H78.5c-0.9,0-1.6,0.7-1.6,1.6v6.1c0,0.9,0.7,1.6,1.6,1.6h11.9
			c0.9,0,1.6-0.7,1.6-1.6v-1.2h0.3c0.5,0,0.8-0.4,0.8-0.8v-2.2C93.1,106.7,92.8,106.3,92.3,106.3z M90.3,111.3H78.6v-6h11.8v1.8v2.2
			V111.3z"/>
	</g>
	<polygon class="st68" points="69.1,80.4 67.7,79 63.3,83.3 59,79 57.6,80.4 61.9,84.7 57.6,89.1 59,90.5 63.3,86.1 67.7,90.5 
		69.1,89.1 64.7,84.7 	"/>
	<circle class="st71" cx="41" cy="85" r="5"/>
	<circle class="st71" cx="85" cy="41" r="5"/>
	<circle class="st71" cx="54" cy="54" r="4.5"/>
	<circle class="st71" cx="116" cy="54" r="4.5"/>
	<circle class="st71" cx="129" cy="85" r="5"/>
	<circle class="st71" cx="54" cy="115.9" r="4.5"/>
	<circle class="st71" cx="84.8" cy="129.2" r="5"/>
	<circle class="st71" cx="116" cy="116.3" r="4.5"/>
</g>
<g id="Archive">
</g>
<g id="Archive_2">
</g>
<g id="Layer_6">
</g>
</svg>
