<?xml version="1.0" encoding="utf-8"?>
<!-- Generator: Adobe Illustrator 18.0.0, SVG Export Plug-In . SVG Version: 6.00 Build 0)  -->
<!DOCTYPE svg PUBLIC "-//W3C//DTD SVG 1.1//EN" "http://www.w3.org/Graphics/SVG/1.1/DTD/svg11.dtd">
<svg version="1.1" xmlns="http://www.w3.org/2000/svg" xmlns:xlink="http://www.w3.org/1999/xlink" x="0px" y="0px"
	 viewBox="0 0 170 170" style="enable-background:new 0 0 170 170;" xml:space="preserve">
<style type="text/css">
	.st0{display:none;}
	.st1{display:inline;enable-background:new    ;}
	.st2{clip-path:url(#SVGID_2_);}
	.st3{clip-path:url(#SVGID_4_);}
	.st4{clip-path:url(#SVGID_6_);}
	.st5{opacity:0;clip-path:url(#SVGID_8_);}
	.st6{opacity:0;}
	.st7{clip-path:url(#SVGID_10_);}
	.st8{clip-path:url(#SVGID_14_);}
	.st9{clip-path:url(#SVGID_16_);}
	.st10{clip-path:url(#SVGID_18_);}
	.st11{clip-path:url(#SVGID_20_);}
	.st12{clip-path:url(#SVGID_24_);}
	.st13{clip-path:url(#SVGID_26_);}
	.st14{clip-path:url(#SVGID_28_);}
	.st15{opacity:0;clip-path:url(#SVGID_30_);}
	.st16{clip-path:url(#SVGID_32_);}
	.st17{clip-path:url(#SVGID_36_);}
	.st18{clip-path:url(#SVGID_38_);}
	.st19{clip-path:url(#SVGID_40_);}
	.st20{clip-path:url(#SVGID_42_);}
	.st21{clip-path:url(#SVGID_46_);}
	.st22{clip-path:url(#SVGID_48_);}
	.st23{clip-path:url(#SVGID_50_);}
	.st24{opacity:0;clip-path:url(#SVGID_52_);}
	.st25{clip-path:url(#SVGID_54_);}
	.st26{clip-path:url(#SVGID_58_);}
	.st27{clip-path:url(#SVGID_60_);}
	.st28{clip-path:url(#SVGID_62_);}
	.st29{clip-path:url(#SVGID_64_);}
	.st30{clip-path:url(#SVGID_68_);}
	.st31{clip-path:url(#SVGID_70_);}
	.st32{clip-path:url(#SVGID_72_);}
	.st33{opacity:0;clip-path:url(#SVGID_74_);}
	.st34{clip-path:url(#SVGID_76_);}
	.st35{clip-path:url(#SVGID_80_);}
	.st36{clip-path:url(#SVGID_82_);}
	.st37{clip-path:url(#SVGID_84_);}
	.st38{clip-path:url(#SVGID_86_);}
	.st39{clip-path:url(#SVGID_90_);}
	.st40{clip-path:url(#SVGID_92_);}
	.st41{clip-path:url(#SVGID_94_);}
	.st42{opacity:0;clip-path:url(#SVGID_96_);}
	.st43{clip-path:url(#SVGID_98_);}
	.st44{clip-path:url(#SVGID_102_);}
	.st45{clip-path:url(#SVGID_104_);}
	.st46{clip-path:url(#SVGID_106_);}
	.st47{clip-path:url(#SVGID_108_);}
	.st48{clip-path:url(#SVGID_112_);}
	.st49{clip-path:url(#SVGID_114_);}
	.st50{clip-path:url(#SVGID_116_);}
	.st51{opacity:0;clip-path:url(#SVGID_118_);}
	.st52{clip-path:url(#SVGID_120_);}
	.st53{clip-path:url(#SVGID_124_);}
	.st54{clip-path:url(#SVGID_126_);}
	.st55{clip-path:url(#SVGID_128_);}
	.st56{clip-path:url(#SVGID_130_);}
	.st57{display:inline;}
	.st58{fill:#666666;stroke:#FFFFFF;stroke-width:2;stroke-linecap:round;stroke-linejoin:round;stroke-miterlimit:10;}
	.st59{fill:none;stroke:#FFFFFF;stroke-width:1.8;stroke-miterlimit:10;}
	.st60{display:inline;opacity:0.3;}
	.st61{fill:none;stroke:#F2F2F2;stroke-width:0.5;stroke-miterlimit:10;}
	.st62{fill:#FFFFFF;}
	.st63{fill:#989898;}
	.st64{fill:#CBCBCB;}
	.st65{fill:#E5E5E5;}
	.st66{fill:#666666;stroke:#FFFFFF;stroke-width:3;stroke-linecap:round;stroke-linejoin:round;stroke-miterlimit:10;}
	.st67{fill:#666666;stroke:#FFFFFF;stroke-width:2;stroke-miterlimit:10;}
	.st68{fill:none;stroke:#989898;stroke-width:2;stroke-miterlimit:10;}
	.st69{fill:#CCCCCC;}
	.st70{fill:none;stroke:#CCCCCC;stroke-miterlimit:10;}
	.st71{fill:none;stroke:#989898;stroke-width:3;stroke-linejoin:round;stroke-miterlimit:10;}
	.st72{fill:none;}
	.st73{fill:#B2B2B2;}
	.st74{fill:#4D4D4D;}
	.st75{fill:#666666;}
	.st76{fill:#F1F1F1;}
	.st77{fill:none;stroke:#CBCBCB;stroke-width:3;stroke-linecap:round;stroke-linejoin:round;stroke-miterlimit:10;}
	.st78{fill:#808080;}
	.st79{fill:url(#SVGID_133_);}
	.st80{fill:#999999;}
	.st81{fill:none;stroke:#B2B2B2;stroke-miterlimit:10;}
	.st82{fill:none;stroke:#F1F1F1;stroke-width:1.6;stroke-miterlimit:10;}
	.st83{fill:none;stroke:#CBCBCB;stroke-linecap:round;stroke-linejoin:round;stroke-miterlimit:10;}
	.st84{fill:none;stroke:#FFFFFF;stroke-miterlimit:10;}
	.st85{fill:none;stroke:#989898;stroke-width:3;stroke-linecap:round;stroke-linejoin:round;stroke-miterlimit:10;}
	.st86{opacity:0.5;fill:#666666;}
	.st87{fill:none;stroke:#E5E5E5;stroke-width:2;stroke-linecap:round;stroke-linejoin:round;stroke-miterlimit:10;}
	.st88{fill:none;stroke:#CCCCCC;stroke-width:3;stroke-miterlimit:10;}
	.st89{fill:#FFFFFF;stroke:#FFFFFF;stroke-miterlimit:10;}
	.st90{fill:none;stroke:#FFFFFF;stroke-width:3;stroke-miterlimit:10;}
	.st91{fill:none;stroke:#FFFFFF;stroke-width:2;stroke-miterlimit:10;}
	.st92{fill:none;stroke:#FFFFFF;stroke-width:3;stroke-linecap:round;stroke-linejoin:round;stroke-miterlimit:10;}
</style>
<g id="Layer_2" class="st0">
	<g class="st1">
		<g>
			<defs>
				<rect id="SVGID_1_" x="-213.5" y="-212.2" width="399.3" height="2688.7"/>
			</defs>
			<clipPath id="SVGID_2_">
				<use xlink:href="#SVGID_1_"  style="overflow:visible;"/>
			</clipPath>
			<g class="st2">
				<defs>
					<rect id="SVGID_3_" x="-213.5" y="-2011.2" width="399.3" height="4625.6"/>
				</defs>
				<clipPath id="SVGID_4_">
					<use xlink:href="#SVGID_3_"  style="overflow:visible;"/>
				</clipPath>
				<g class="st3">
					<defs>
						<rect id="SVGID_5_" x="-213.5" y="-212.2" width="399.3" height="2688.7"/>
					</defs>
					<clipPath id="SVGID_6_">
						<use xlink:href="#SVGID_5_"  style="overflow:visible;"/>
					</clipPath>
					<g class="st4">
						<defs>
							<rect id="SVGID_7_" x="-213.5" y="-212.2" width="399.3" height="2688.7"/>
						</defs>
						<clipPath id="SVGID_8_">
							<use xlink:href="#SVGID_7_"  style="overflow:visible;"/>
						</clipPath>
						<g class="st5">
							<g class="st6">
								<g>
									<defs>
										<rect id="SVGID_9_" x="-213.5" y="-212.2" width="399.3" height="2688.7"/>
									</defs>
									<clipPath id="SVGID_10_">
										<use xlink:href="#SVGID_9_"  style="overflow:visible;"/>
									</clipPath>
									<g class="st7">
										<defs>
											<rect id="SVGID_11_" x="-213.5" y="-212.2" width="399.3" height="2688.7"/>
										</defs>
										<clipPath id="SVGID_12_">
											<use xlink:href="#SVGID_11_"  style="overflow:visible;"/>
										</clipPath>
										<g style="clip-path:url(#SVGID_12_);">
											
												<image style="overflow:visible;" width="1664" height="11204" xlink:href="6C2808639F84E692.jpg"  transform="matrix(0.24 0 0 0.24 -213.5083 -212.1707)">
											</image>
										</g>
									</g>
								</g>
							</g>
						</g>
					</g>
				</g>
			</g>
			<g class="st2">
				<defs>
					<rect id="SVGID_13_" x="-213.5" y="-2011.2" width="399.3" height="4625.6"/>
				</defs>
				<clipPath id="SVGID_14_">
					<use xlink:href="#SVGID_13_"  style="overflow:visible;"/>
				</clipPath>
				<g class="st8">
					<defs>
						<rect id="SVGID_15_" x="-213.5" y="-212.2" width="399.3" height="2688.7"/>
					</defs>
					<clipPath id="SVGID_16_">
						<use xlink:href="#SVGID_15_"  style="overflow:visible;"/>
					</clipPath>
					<g class="st9">
						<defs>
							<rect id="SVGID_17_" x="-213.5" y="-212.2" width="399.3" height="2688.7"/>
						</defs>
						<clipPath id="SVGID_18_">
							<use xlink:href="#SVGID_17_"  style="overflow:visible;"/>
						</clipPath>
						<g class="st10">
							<g>
								<defs>
									<rect id="SVGID_19_" x="-213.5" y="-212.2" width="399.3" height="2688.7"/>
								</defs>
								<clipPath id="SVGID_20_">
									<use xlink:href="#SVGID_19_"  style="overflow:visible;"/>
								</clipPath>
								<g class="st11">
									<defs>
										<rect id="SVGID_21_" x="-213.5" y="-212.2" width="399.3" height="2688.7"/>
									</defs>
									<clipPath id="SVGID_22_">
										<use xlink:href="#SVGID_21_"  style="overflow:visible;"/>
									</clipPath>
									<g style="clip-path:url(#SVGID_22_);">
										
											<image style="overflow:visible;" width="1664" height="11204" xlink:href="6C2808639F84E696.jpg"  transform="matrix(0.24 0 0 0.24 -213.5083 -212.1707)">
										</image>
									</g>
								</g>
							</g>
						</g>
					</g>
				</g>
			</g>
		</g>
	</g>
</g>
<g id="GRIDS" class="st0">
	<g class="st60">
		<rect y="0" class="st61" width="170" height="170"/>
		<line class="st61" x1="0" y1="0" x2="170" y2="170"/>
		<line class="st61" x1="170" y1="0" x2="0" y2="170"/>
		<line class="st61" x1="0" y1="85" x2="170" y2="85"/>
		<line class="st61" x1="0" y1="54" x2="170" y2="54"/>
		<line class="st61" x1="0" y1="116" x2="170" y2="116"/>
		<line class="st61" x1="0" y1="11" x2="170" y2="11"/>
		<line class="st61" x1="0" y1="159" x2="170" y2="159"/>
		<line class="st61" x1="85" y1="0" x2="85" y2="170"/>
		<line class="st61" x1="159" y1="0" x2="159" y2="170"/>
		<circle class="st61" cx="85" cy="85" r="31"/>
		<circle class="st61" cx="85" cy="85" r="44"/>
		<circle class="st61" cx="85" cy="85" r="74"/>
		<line class="st61" x1="54" y1="0" x2="54" y2="170"/>
		<line class="st61" x1="11" y1="0" x2="11" y2="170"/>
		<line class="st61" x1="116" y1="0" x2="116" y2="170"/>
	</g>
</g>
<g id="MOTION_PROTECT">
	<g>
		<circle class="st74" cx="85" cy="85" r="40.6"/>
		<linearGradient id="SVGID_24_" gradientUnits="userSpaceOnUse" x1="50.5454" y1="85" x2="119.4546" y2="85">
			<stop  offset="0" style="stop-color:#666666"/>
			<stop  offset="1" style="stop-color:#CBCBCB"/>
		</linearGradient>
		<path style="fill:url(#SVGID_24_);" d="M103.1,121.6c0-0.2,0-0.4,0-0.7c0-2.5-0.4-4.3-1.2-5.6c-0.8-1.3-1.9-1.9-3.5-1.9
			s-2.7,0.6-3.5,1.9c-0.8,1.3-1.2,3.1-1.2,5.6c0,1.5,0.2,2.8,0.5,3.8c1-0.2,1.9-0.5,2.9-0.8l3.8-5.9c0.1,0.9,0.2,1.8,0.2,2.9
			c0,0.6,0,1.1-0.1,1.6C101.8,122.2,102.4,121.9,103.1,121.6z M95.9,123.5c-0.1-0.8-0.2-1.6-0.2-2.5c0-2,0.2-3.5,0.7-4.4
			s1.1-1.5,2-1.5c0.8,0,1.5,0.4,2,1.3L95.9,123.5z M98.1,102.8V91.9l-3.6,1.7v-1.9l3.6-1.7h1.9v12.7h3v1.6h-7.9v-1.6H98.1z
			 M110.9,56.4l1.4-0.7c0.4,0.4,0.9,0.8,1.3,1.2l-2.7,1.3V56.4z M116.4,60.1v7.3h3V69h-7.9v-1.6h3v-9.5
			C115.2,58.6,115.8,59.3,116.4,60.1z M79.2,45.6c0.6-0.1,1.3-0.2,1.9-0.2c0,0.6,0.1,1.3,0.2,1.9l1.2-2c0.5,0,1.1-0.1,1.6-0.1
			L81.8,49c0.5,1.1,1.2,1.6,2.1,1.6c0.9,0,1.6-0.5,2-1.5c0.4-0.9,0.6-2.2,0.7-3.9c0.7,0,1.3,0.1,1.9,0.1c-0.1,2.1-0.4,3.8-1.2,4.9
			c-0.8,1.3-1.9,1.9-3.5,1.9c-1.5,0-2.7-0.6-3.5-1.9C79.7,49.2,79.3,47.6,79.2,45.6z M114.8,78.1c-1.5,0-2.7,0.6-3.5,1.9
			c-0.8,1.3-1.2,3.1-1.2,5.6c0,2.5,0.4,4.3,1.2,5.6c0.8,1.3,1.9,1.9,3.5,1.9c1.5,0,2.7-0.6,3.5-1.9c0.8-1.3,1.2-3.1,1.2-5.6
			c0-2.5-0.4-4.3-1.2-5.6C117.5,78.7,116.3,78.1,114.8,78.1z M112.1,85.5c0-2,0.2-3.5,0.7-4.4c0.4-1,1.1-1.5,2-1.5
			c0.8,0,1.5,0.4,2,1.3l-4.5,7.2C112.2,87.3,112.1,86.5,112.1,85.5z M116.8,90c-0.4,1-1.1,1.5-2,1.5c-0.9,0-1.6-0.5-2.1-1.6l4.6-7.2
			c0.1,0.9,0.2,1.8,0.2,2.9C117.5,87.5,117.3,89,116.8,90z M57.3,114.6c0.4-1,0.6-2.3,0.6-4.1c0-1.1-0.1-2-0.2-2.9l-2.8,4.4
			c-0.3-0.4-0.6-0.7-0.9-1.1l3.2-5.1c-0.5-0.9-1.1-1.3-2-1.3c-0.9,0-1.6,0.5-2,1.5c-0.3,0.7-0.5,1.7-0.6,3c-0.5-0.8-1.1-1.5-1.6-2.3
			c0.2-0.7,0.4-1.3,0.7-1.8c0.8-1.3,1.9-1.9,3.5-1.9c1.5,0,2.7,0.6,3.5,1.9c0.8,1.3,1.2,3.1,1.2,5.6c0,2.4-0.4,4.2-1.1,5.4
			C58.2,115.5,57.7,115,57.3,114.6z M72,123.6c0.1-0.7,0.2-1.6,0.2-2.6c0-1.1-0.1-2-0.2-2.9l-2.8,4.4c-0.4-0.2-0.8-0.4-1.2-0.6
			l3.5-5.6c-0.5-0.9-1.1-1.3-2-1.3c-0.9,0-1.6,0.5-2,1.5c-0.4,1-0.7,2.5-0.7,4.4c0,0.1,0,0.3,0,0.4c-0.7-0.3-1.3-0.7-1.9-1.1
			c0.1-2.1,0.4-3.8,1.1-4.9c0.8-1.3,1.9-1.9,3.5-1.9c1.5,0,2.7,0.6,3.5,1.9c0.8,1.3,1.2,3.1,1.2,5.6c0,1.2-0.1,2.3-0.3,3.2
			C73.2,124,72.6,123.8,72,123.6z M83.5,121.3v-10.9l-3.6,1.7v-1.9l3.6-1.7h1.9v12.7h3v1.6h-7.9v-1.6H83.5z M51.6,68.7
			c0.8,1.3,1.9,1.9,3.5,1.9c1.5,0,2.7-0.6,3.5-1.9c0.8-1.3,1.2-3.1,1.2-5.6c0-2.5-0.4-4.3-1.2-5.6c-0.3-0.5-0.7-0.9-1.2-1.2
			c-0.4,0.4-0.8,0.8-1.2,1.2c0.3,0.2,0.7,0.5,0.9,1l-4.5,7.2c-0.1-0.8-0.2-1.6-0.2-2.5c0-0.4,0-0.8,0-1.1c-0.7,0.9-1.3,1.9-1.9,2.9
			C50.7,66.5,51.1,67.7,51.6,68.7z M57.6,60.2c0.1,0.9,0.2,1.8,0.2,2.9c0,2-0.2,3.5-0.7,4.4c-0.4,1-1.1,1.5-2,1.5
			c-0.9,0-1.6-0.5-2.1-1.6L57.6,60.2z M69.2,55.5v-7c0.6-0.3,1.3-0.5,1.9-0.8v7.7h3v1.6h-7.9v-1.6H69.2z M54.8,81.5l-3.6,1.7v-1.9
			l3.6-1.7h1.9v12.7h3V94h-7.9v-1.6h3V81.5z M111.5,114.8h1.4c-0.5,0.4-0.9,0.9-1.4,1.3V114.8z M116.4,102v8.9
			c-0.6,0.8-1.3,1.5-1.9,2.2v-9.3l-3.6,1.7v-1.9l3.6-1.7H116.4z M98.1,55.4v-8.1c0.6,0.2,1.3,0.5,1.9,0.7v7.3h3V57h-7.9v-1.6H98.1z
			 M101.9,68c-0.8-1.3-1.9-1.9-3.5-1.9S95.8,66.8,95,68c-0.8,1.3-1.2,3.1-1.2,5.6s0.4,4.3,1.2,5.6c0.8,1.3,1.9,1.9,3.5,1.9
			s2.7-0.6,3.5-1.9c0.8-1.3,1.2-3.1,1.2-5.6S102.7,69.3,101.9,68z M95.8,73.6c0-2,0.2-3.5,0.7-4.4c0.4-1,1.1-1.5,2-1.5
			c0.8,0,1.5,0.4,2,1.3l-4.5,7.2C95.8,75.3,95.8,74.5,95.8,73.6z M100.5,78c-0.4,1-1.1,1.5-2,1.5c-0.9,0-1.6-0.5-2.1-1.6l4.6-7.2
			c0.1,0.9,0.2,1.8,0.2,2.9C101.2,75.6,100.9,77,100.5,78z M87.3,86.5c-0.8-1.3-1.9-1.9-3.5-1.9c-1.5,0-2.7,0.6-3.5,1.9
			c-0.8,1.3-1.2,3.1-1.2,5.6s0.4,4.3,1.2,5.6c0.8,1.3,1.9,1.9,3.5,1.9c1.5,0,2.7-0.6,3.5-1.9c0.8-1.3,1.2-3.1,1.2-5.6
			S88.1,87.8,87.3,86.5z M81.2,92.1c0-2,0.2-3.5,0.7-4.4c0.4-1,1.1-1.5,2-1.5c0.8,0,1.5,0.4,2,1.3l-4.5,7.2
			C81.2,93.8,81.2,93,81.2,92.1z M85.9,96.5c-0.4,1-1.1,1.5-2,1.5c-0.9,0-1.6-0.5-2.1-1.6l4.6-7.2c0.1,0.9,0.2,1.8,0.2,2.9
			C86.6,94.1,86.3,95.5,85.9,96.5z M73,68.1c-0.8-1.3-1.9-1.9-3.5-1.9c-1.5,0-2.7,0.6-3.5,1.9c-0.8,1.3-1.2,3.1-1.2,5.6
			c0,2.5,0.4,4.3,1.2,5.6c0.8,1.3,1.9,1.9,3.5,1.9c1.5,0,2.7-0.6,3.5-1.9c0.8-1.3,1.2-3.1,1.2-5.6C74.1,71.2,73.7,69.3,73,68.1z
			 M66.8,73.6c0-2,0.2-3.5,0.7-4.4c0.4-1,1.1-1.5,2-1.5c0.8,0,1.5,0.4,2,1.3L67,76.2C66.8,75.4,66.8,74.5,66.8,73.6z M71.5,78.1
			c-0.4,1-1.1,1.5-2,1.5c-0.9,0-1.6-0.5-2.1-1.6l4.6-7.2c0.1,0.9,0.2,1.8,0.2,2.9C72.2,75.6,72,77.1,71.5,78.1z M85.5,61.2v12.7h3
			v1.6h-7.9v-1.6h3V63.1l-3.6,1.7v-1.9l3.6-1.7H85.5z M69.2,102.8V92l-3.6,1.7v-1.9l3.6-1.7h1.9v12.7h3v1.6h-7.9v-1.6H69.2z"/>
		<g>
			<g>
				<path class="st76" d="M85,44.5c22.4,0,40.5,18.1,40.5,40.5c0,22.4-18.1,40.5-40.5,40.5c-22.4,0-40.5-18.1-40.5-40.5
					C44.5,62.6,62.6,44.5,85,44.5 M85,41c-24.3,0-44,19.7-44,44c0,24.3,19.7,44,44,44c24.3,0,44-19.7,44-44C129,60.7,109.3,41,85,41
					L85,41z"/>
			</g>
		</g>
	</g>
</g>
<g id="Archive">
</g>
<g id="Archive_2">
</g>
<g id="Layer_6">
</g>
</svg>
