<?xml version="1.0" encoding="utf-8"?>
<!-- Generator: Adobe Illustrator 18.0.0, SVG Export Plug-In . SVG Version: 6.00 Build 0)  -->
<!DOCTYPE svg PUBLIC "-//W3C//DTD SVG 1.1//EN" "http://www.w3.org/Graphics/SVG/1.1/DTD/svg11.dtd">
<svg version="1.1" xmlns="http://www.w3.org/2000/svg" xmlns:xlink="http://www.w3.org/1999/xlink" x="0px" y="0px"
	 viewBox="0 0 170 170" style="enable-background:new 0 0 170 170;" xml:space="preserve">
<style type="text/css">
	.st0{display:none;}
	.st1{display:inline;enable-background:new    ;}
	.st2{clip-path:url(#SVGID_2_);}
	.st3{clip-path:url(#SVGID_4_);}
	.st4{clip-path:url(#SVGID_6_);}
	.st5{opacity:0;clip-path:url(#SVGID_8_);}
	.st6{opacity:0;}
	.st7{clip-path:url(#SVGID_10_);}
	.st8{clip-path:url(#SVGID_14_);}
	.st9{clip-path:url(#SVGID_16_);}
	.st10{clip-path:url(#SVGID_18_);}
	.st11{clip-path:url(#SVGID_20_);}
	.st12{clip-path:url(#SVGID_24_);}
	.st13{clip-path:url(#SVGID_26_);}
	.st14{clip-path:url(#SVGID_28_);}
	.st15{opacity:0;clip-path:url(#SVGID_30_);}
	.st16{clip-path:url(#SVGID_32_);}
	.st17{clip-path:url(#SVGID_36_);}
	.st18{clip-path:url(#SVGID_38_);}
	.st19{clip-path:url(#SVGID_40_);}
	.st20{clip-path:url(#SVGID_42_);}
	.st21{clip-path:url(#SVGID_46_);}
	.st22{clip-path:url(#SVGID_48_);}
	.st23{clip-path:url(#SVGID_50_);}
	.st24{opacity:0;clip-path:url(#SVGID_52_);}
	.st25{clip-path:url(#SVGID_54_);}
	.st26{clip-path:url(#SVGID_58_);}
	.st27{clip-path:url(#SVGID_60_);}
	.st28{clip-path:url(#SVGID_62_);}
	.st29{clip-path:url(#SVGID_64_);}
	.st30{clip-path:url(#SVGID_68_);}
	.st31{clip-path:url(#SVGID_70_);}
	.st32{clip-path:url(#SVGID_72_);}
	.st33{opacity:0;clip-path:url(#SVGID_74_);}
	.st34{clip-path:url(#SVGID_76_);}
	.st35{clip-path:url(#SVGID_80_);}
	.st36{clip-path:url(#SVGID_82_);}
	.st37{clip-path:url(#SVGID_84_);}
	.st38{clip-path:url(#SVGID_86_);}
	.st39{clip-path:url(#SVGID_90_);}
	.st40{clip-path:url(#SVGID_92_);}
	.st41{clip-path:url(#SVGID_94_);}
	.st42{opacity:0;clip-path:url(#SVGID_96_);}
	.st43{clip-path:url(#SVGID_98_);}
	.st44{clip-path:url(#SVGID_102_);}
	.st45{clip-path:url(#SVGID_104_);}
	.st46{clip-path:url(#SVGID_106_);}
	.st47{clip-path:url(#SVGID_108_);}
	.st48{clip-path:url(#SVGID_112_);}
	.st49{clip-path:url(#SVGID_114_);}
	.st50{clip-path:url(#SVGID_116_);}
	.st51{opacity:0;clip-path:url(#SVGID_118_);}
	.st52{clip-path:url(#SVGID_120_);}
	.st53{clip-path:url(#SVGID_124_);}
	.st54{clip-path:url(#SVGID_126_);}
	.st55{clip-path:url(#SVGID_128_);}
	.st56{clip-path:url(#SVGID_130_);}
	.st57{display:inline;}
	.st58{fill:#666666;stroke:#FFFFFF;stroke-width:2;stroke-linecap:round;stroke-linejoin:round;stroke-miterlimit:10;}
	.st59{fill:none;stroke:#FFFFFF;stroke-width:1.8;stroke-miterlimit:10;}
	.st60{display:inline;opacity:0.3;}
	.st61{fill:none;stroke:#F2F2F2;stroke-width:0.5;stroke-miterlimit:10;}
	.st62{fill:#FFFFFF;}
	.st63{fill:#989898;}
	.st64{fill:#CBCBCB;}
	.st65{fill:#E5E5E5;}
	.st66{fill:#666666;stroke:#FFFFFF;stroke-width:3;stroke-linecap:round;stroke-linejoin:round;stroke-miterlimit:10;}
	.st67{fill:#666666;stroke:#FFFFFF;stroke-width:2;stroke-miterlimit:10;}
	.st68{fill:none;stroke:#989898;stroke-width:2;stroke-miterlimit:10;}
	.st69{fill:#CCCCCC;}
	.st70{fill:none;stroke:#CCCCCC;stroke-miterlimit:10;}
	.st71{fill:none;stroke:#989898;stroke-width:3;stroke-linejoin:round;stroke-miterlimit:10;}
	.st72{fill:none;}
	.st73{fill:#B2B2B2;}
	.st74{fill:#4D4D4D;}
	.st75{fill:#666666;}
	.st76{fill:#F1F1F1;}
	.st77{fill:none;stroke:#CBCBCB;stroke-width:3;stroke-linecap:round;stroke-linejoin:round;stroke-miterlimit:10;}
	.st78{fill:#808080;}
	.st79{fill:url(#SVGID_133_);}
	.st80{fill:#999999;}
	.st81{fill:none;stroke:#B2B2B2;stroke-miterlimit:10;}
	.st82{fill:none;stroke:#F1F1F1;stroke-width:1.6;stroke-miterlimit:10;}
	.st83{fill:none;stroke:#CBCBCB;stroke-linecap:round;stroke-linejoin:round;stroke-miterlimit:10;}
	.st84{fill:none;stroke:#FFFFFF;stroke-miterlimit:10;}
	.st85{fill:none;stroke:#989898;stroke-width:3;stroke-linecap:round;stroke-linejoin:round;stroke-miterlimit:10;}
	.st86{opacity:0.5;fill:#666666;}
	.st87{fill:none;stroke:#E5E5E5;stroke-width:2;stroke-linecap:round;stroke-linejoin:round;stroke-miterlimit:10;}
	.st88{fill:none;stroke:#CCCCCC;stroke-width:3;stroke-miterlimit:10;}
	.st89{fill:#FFFFFF;stroke:#FFFFFF;stroke-miterlimit:10;}
	.st90{fill:none;stroke:#FFFFFF;stroke-width:3;stroke-miterlimit:10;}
	.st91{fill:none;stroke:#FFFFFF;stroke-width:2;stroke-miterlimit:10;}
	.st92{fill:none;stroke:#FFFFFF;stroke-width:3;stroke-linecap:round;stroke-linejoin:round;stroke-miterlimit:10;}
</style>
<g id="Layer_2" class="st0">
	<g class="st1">
		<g>
			<defs>
				<rect id="SVGID_45_" x="-20.6" y="-402.2" width="399.3" height="601.2"/>
			</defs>
			<clipPath id="SVGID_2_">
				<use xlink:href="#SVGID_45_"  style="overflow:visible;"/>
			</clipPath>
			<g class="st2">
				<defs>
					<rect id="SVGID_47_" x="-20.6" y="-804.4" width="399.3" height="1034.2"/>
				</defs>
				<clipPath id="SVGID_4_">
					<use xlink:href="#SVGID_47_"  style="overflow:visible;"/>
				</clipPath>
				<g class="st3">
					<defs>
						<rect id="SVGID_49_" x="-20.6" y="-402.2" width="399.3" height="601.2"/>
					</defs>
					<clipPath id="SVGID_6_">
						<use xlink:href="#SVGID_49_"  style="overflow:visible;"/>
					</clipPath>
					<g class="st4">
						<defs>
							<rect id="SVGID_51_" x="-20.6" y="-402.2" width="399.3" height="601.2"/>
						</defs>
						<clipPath id="SVGID_8_">
							<use xlink:href="#SVGID_51_"  style="overflow:visible;"/>
						</clipPath>
						<g class="st5">
							<g class="st6">
								<g>
									<defs>
										<rect id="SVGID_53_" x="-20.6" y="-402.2" width="399.3" height="601.2"/>
									</defs>
									<clipPath id="SVGID_10_">
										<use xlink:href="#SVGID_53_"  style="overflow:visible;"/>
									</clipPath>
									<g class="st7">
										<defs>
											<rect id="SVGID_55_" x="-20.6" y="-402.2" width="399.3" height="601.2"/>
										</defs>
										<clipPath id="SVGID_12_">
											<use xlink:href="#SVGID_55_"  style="overflow:visible;"/>
										</clipPath>
										<g style="clip-path:url(#SVGID_12_);">
											
												<image style="overflow:visible;" width="1664" height="2505" xlink:href="4002B6C7CC8A35AE.jpg"  transform="matrix(0.24 0 0 0.24 -20.5818 -402.171)">
											</image>
										</g>
									</g>
								</g>
							</g>
						</g>
					</g>
				</g>
			</g>
			<g class="st2">
				<defs>
					<rect id="SVGID_57_" x="-20.6" y="-804.4" width="399.3" height="1034.2"/>
				</defs>
				<clipPath id="SVGID_14_">
					<use xlink:href="#SVGID_57_"  style="overflow:visible;"/>
				</clipPath>
				<g class="st8">
					<defs>
						<rect id="SVGID_59_" x="-20.6" y="-402.2" width="399.3" height="601.2"/>
					</defs>
					<clipPath id="SVGID_16_">
						<use xlink:href="#SVGID_59_"  style="overflow:visible;"/>
					</clipPath>
					<g class="st9">
						<defs>
							<rect id="SVGID_61_" x="-20.6" y="-402.2" width="399.3" height="601.2"/>
						</defs>
						<clipPath id="SVGID_18_">
							<use xlink:href="#SVGID_61_"  style="overflow:visible;"/>
						</clipPath>
						<g class="st10">
							<g>
								<defs>
									<rect id="SVGID_63_" x="-20.6" y="-402.8" width="399.3" height="601.2"/>
								</defs>
								<clipPath id="SVGID_20_">
									<use xlink:href="#SVGID_63_"  style="overflow:visible;"/>
								</clipPath>
								<g class="st11">
									<defs>
										<rect id="SVGID_65_" x="-20.6" y="-402.8" width="399.3" height="601.2"/>
									</defs>
									<clipPath id="SVGID_22_">
										<use xlink:href="#SVGID_65_"  style="overflow:visible;"/>
									</clipPath>
									<g style="clip-path:url(#SVGID_22_);">
										
											<image style="overflow:visible;" width="1664" height="2505" xlink:href="4002B6C7CC8A35B2.jpg"  transform="matrix(0.24 0 0 0.24 -20.5818 -402.8419)">
										</image>
									</g>
								</g>
							</g>
						</g>
					</g>
				</g>
			</g>
		</g>
	</g>
</g>
<g id="GRIDS" class="st0">
	<g class="st60">
		<rect x="0" class="st61" width="170" height="170"/>
		<line class="st61" x1="0" y1="0" x2="170" y2="170"/>
		<line class="st61" x1="170" y1="0" x2="0" y2="170"/>
		<line class="st61" x1="0" y1="85" x2="170" y2="85"/>
		<line class="st61" x1="0" y1="54" x2="170" y2="54"/>
		<line class="st61" x1="0" y1="116" x2="170" y2="116"/>
		<line class="st61" x1="0" y1="11" x2="170" y2="11"/>
		<line class="st61" x1="0" y1="159" x2="170" y2="159"/>
		<line class="st61" x1="85" y1="0" x2="85" y2="170"/>
		<line class="st61" x1="159" y1="0" x2="159" y2="170"/>
		<circle class="st61" cx="85" cy="85" r="31"/>
		<circle class="st61" cx="85" cy="85" r="44"/>
		<circle class="st61" cx="85" cy="85" r="74"/>
		<line class="st61" x1="54" y1="0" x2="54" y2="170"/>
		<line class="st61" x1="11" y1="0" x2="11" y2="170"/>
		<line class="st61" x1="116" y1="0" x2="116" y2="170"/>
	</g>
</g>
<g id="MOTION_PROTECT">
	<g>
		<g>
			<path class="st76" d="M78.8,57.7h-5.6c-3.5,0-6.4,2.9-6.4,6.4V130c0,3.5,2.9,6.4,6.4,6.4h5.6c3.5,0,6.4-2.9,6.4-6.4V64.1
				C85.2,60.6,82.3,57.7,78.8,57.7z M83.2,130c0,2.4-2,4.4-4.4,4.4h-5.6c-2.4,0-4.4-2-4.4-4.4V64.1c0-2.4,2-4.4,4.4-4.4h5.6
				c2.4,0,4.4,2,4.4,4.4V130z"/>
			<path class="st76" d="M70.1,67.7l-1.3,2l7.6,2.8l6.7-2.7l-1.3-2H70.1z M76.4,71.5l-6-2.2l0.3-0.5h10.6l0.4,0.6L76.4,71.5z"/>
			<polygon class="st76" points="78.6,126.2 79.2,126.2 80,125.5 79.3,125.5 			"/>
			<polygon class="st76" points="81.1,124 80.3,124.6 81,124.6 81.7,124 			"/>
			<polygon class="st76" points="75,126.2 75.5,126.2 76.5,124.8 76,124.8 			"/>
			<polygon class="st76" points="76.3,124.3 77.6,126.2 78.2,126.2 76.6,124 			"/>
			<polygon class="st76" points="78.6,124 81.1,126.2 81.1,126.2 81.7,126.2 79.2,124 			"/>
			<polygon class="st76" points="70.3,126.2 70.8,126.2 71.8,124.8 71.2,124.8 			"/>
			<polygon class="st76" points="71.6,124.3 72.9,126.2 73.4,126.2 71.8,124 			"/>
			<path class="st76" d="M74.4,125.4c0,0.2-0.1,0.5-0.5,0.5h-0.1v0.4c0,0,0.5,0,0.8-0.2c0.2-0.2,0.2-0.5,0.2-0.7V124h-0.4
				L74.4,125.4z"/>
		</g>
		<line class="st81" x1="121.2" y1="136.4" x2="87.2" y2="136.4"/>
		<line class="st81" x1="87.2" y1="57.7" x2="121.2" y2="57.7"/>
		<line class="st81" x1="115.4" y1="57.7" x2="115.4" y2="136.4"/>
		<line class="st81" x1="85.2" y1="30.6" x2="85.2" y2="54.3"/>
		<line class="st81" x1="66.8" y1="54.3" x2="66.8" y2="30.6"/>
		<line class="st81" x1="66.8" y1="36" x2="85.2" y2="36"/>
		<g>
			<path class="st62" d="M71.7,24.7h-2.1v-5.8l0-1l0-1c-0.4,0.4-0.6,0.6-0.7,0.7l-1.1,0.9l-1-1.3l3.2-2.6h1.7V24.7z"/>
			<path class="st62" d="M81.4,18.9c0,2-0.4,3.4-1.2,4.4s-2.1,1.5-3.8,1.5c-0.6,0-1,0-1.3-0.1V23c0.4,0.1,0.8,0.1,1.2,0.1
				c0.7,0,1.3-0.1,1.7-0.3s0.8-0.5,1-1s0.4-1.1,0.4-1.8h-0.1c-0.3,0.4-0.6,0.7-0.9,0.9s-0.8,0.3-1.3,0.3c-0.9,0-1.6-0.3-2.1-0.8
				S74.4,19,74.4,18c0-1.1,0.3-1.9,0.9-2.5c0.6-0.6,1.4-0.9,2.5-0.9c0.7,0,1.4,0.2,1.9,0.5c0.6,0.3,1,0.8,1.3,1.5S81.4,18,81.4,18.9
				z M77.8,16.3c-0.4,0-0.8,0.2-1,0.5s-0.4,0.7-0.4,1.3c0,0.5,0.1,0.9,0.3,1.1s0.6,0.4,1,0.4c0.4,0,0.8-0.1,1.1-0.4s0.5-0.6,0.5-1
				c0-0.5-0.1-1-0.4-1.4C78.6,16.4,78.2,16.3,77.8,16.3z"/>
		</g>
		<g>
			<path class="st62" d="M127.5,87.3c0,2-0.4,3.4-1.2,4.4s-2.1,1.5-3.8,1.5c-0.6,0-1,0-1.3-0.1v-1.7c0.4,0.1,0.8,0.1,1.2,0.1
				c0.7,0,1.3-0.1,1.7-0.3s0.8-0.5,1-1s0.4-1.1,0.4-1.8h-0.1c-0.3,0.4-0.6,0.7-0.9,0.9s-0.8,0.3-1.3,0.3c-0.9,0-1.6-0.3-2.1-0.8
				s-0.8-1.3-0.8-2.3c0-1.1,0.3-1.9,0.9-2.5c0.6-0.6,1.4-0.9,2.5-0.9c0.7,0,1.4,0.2,1.9,0.5c0.6,0.3,1,0.8,1.3,1.5
				S127.5,86.4,127.5,87.3z M123.9,84.6c-0.4,0-0.8,0.2-1,0.5s-0.4,0.7-0.4,1.3c0,0.5,0.1,0.9,0.3,1.1s0.6,0.4,1,0.4
				c0.4,0,0.8-0.1,1.1-0.4s0.5-0.6,0.5-1c0-0.5-0.1-1-0.4-1.4C124.7,84.8,124.3,84.6,123.9,84.6z"/>
			<path class="st62" d="M135.5,88c0,1.7-0.3,3-0.9,3.9c-0.6,0.8-1.5,1.3-2.6,1.3c-1.2,0-2-0.4-2.6-1.3c-0.6-0.9-0.9-2.1-0.9-3.8
				c0-1.8,0.3-3.1,0.9-3.9s1.4-1.3,2.6-1.3c1.2,0,2,0.4,2.6,1.3C135.2,85,135.5,86.3,135.5,88z M130.6,88c0,1.2,0.1,2.1,0.3,2.6
				c0.2,0.5,0.6,0.8,1.1,0.8c0.5,0,0.8-0.3,1.1-0.8s0.3-1.4,0.3-2.6c0-1.2-0.1-2.1-0.3-2.6c-0.2-0.5-0.6-0.8-1.1-0.8
				c-0.5,0-0.9,0.3-1.1,0.8S130.6,86.8,130.6,88z"/>
		</g>
	</g>
	<g>
		<path class="st80" d="M127.5,106.6h-1.6v-4.7c0-0.6-0.1-1-0.3-1.3s-0.6-0.4-1-0.4c-0.6,0-1.1,0.2-1.4,0.6c-0.3,0.4-0.4,1.1-0.4,2
			v3.8h-1.6V99h1.3l0.2,1h0.1c0.2-0.4,0.5-0.6,0.9-0.8c0.4-0.2,0.8-0.3,1.3-0.3c1.2,0,1.9,0.4,2.3,1.2h0.1c0.2-0.4,0.5-0.7,0.9-0.9
			s0.9-0.3,1.4-0.3c0.9,0,1.6,0.2,2,0.7c0.4,0.5,0.6,1.2,0.6,2.1v4.9h-1.6v-4.7c0-0.6-0.1-1-0.3-1.3c-0.2-0.3-0.6-0.4-1-0.4
			c-0.6,0-1.1,0.2-1.4,0.6c-0.3,0.4-0.4,1-0.4,1.8V106.6z"/>
		<path class="st80" d="M140.9,106.6h-1.6v-4.7c0-0.6-0.1-1-0.3-1.3s-0.6-0.4-1-0.4c-0.6,0-1.1,0.2-1.4,0.6c-0.3,0.4-0.4,1.1-0.4,2
			v3.8h-1.6V99h1.3l0.2,1h0.1c0.2-0.4,0.5-0.6,0.9-0.8c0.4-0.2,0.8-0.3,1.3-0.3c1.2,0,1.9,0.4,2.3,1.2h0.1c0.2-0.4,0.5-0.7,0.9-0.9
			s0.9-0.3,1.4-0.3c0.9,0,1.6,0.2,2,0.7c0.4,0.5,0.6,1.2,0.6,2.1v4.9h-1.6v-4.7c0-0.6-0.1-1-0.3-1.3c-0.2-0.3-0.6-0.4-1-0.4
			c-0.6,0-1.1,0.2-1.4,0.6c-0.3,0.4-0.4,1-0.4,1.8V106.6z"/>
	</g>
	<g>
		<path class="st80" d="M92.5,24.7h-1.6V20c0-0.6-0.1-1-0.3-1.3s-0.6-0.4-1-0.4c-0.6,0-1.1,0.2-1.4,0.6c-0.3,0.4-0.4,1.1-0.4,2v3.8
			h-1.6v-7.6h1.3l0.2,1h0.1c0.2-0.4,0.5-0.6,0.9-0.8c0.4-0.2,0.8-0.3,1.3-0.3c1.2,0,1.9,0.4,2.3,1.2h0.1c0.2-0.4,0.5-0.7,0.9-0.9
			s0.9-0.3,1.4-0.3c0.9,0,1.6,0.2,2,0.7c0.4,0.5,0.6,1.2,0.6,2.1v4.9h-1.6V20c0-0.6-0.1-1-0.3-1.3c-0.2-0.3-0.6-0.4-1-0.4
			c-0.6,0-1.1,0.2-1.4,0.6c-0.3,0.4-0.4,1-0.4,1.8V24.7z"/>
		<path class="st80" d="M105.9,24.7h-1.6V20c0-0.6-0.1-1-0.3-1.3s-0.6-0.4-1-0.4c-0.6,0-1.1,0.2-1.4,0.6c-0.3,0.4-0.4,1.1-0.4,2v3.8
			h-1.6v-7.6h1.3l0.2,1h0.1c0.2-0.4,0.5-0.6,0.9-0.8c0.4-0.2,0.8-0.3,1.3-0.3c1.2,0,1.9,0.4,2.3,1.2h0.1c0.2-0.4,0.5-0.7,0.9-0.9
			s0.9-0.3,1.4-0.3c0.9,0,1.6,0.2,2,0.7c0.4,0.5,0.6,1.2,0.6,2.1v4.9h-1.6V20c0-0.6-0.1-1-0.3-1.3c-0.2-0.3-0.6-0.4-1-0.4
			c-0.6,0-1.1,0.2-1.4,0.6c-0.3,0.4-0.4,1-0.4,1.8V24.7z"/>
	</g>
</g>
<g id="Archive">
</g>
<g id="Archive_2">
</g>
<g id="Layer_6">
</g>
</svg>
