<?xml version="1.0" encoding="utf-8"?>
<!-- Generator: Adobe Illustrator 18.0.0, SVG Export Plug-In . SVG Version: 6.00 Build 0)  -->
<!DOCTYPE svg PUBLIC "-//W3C//DTD SVG 1.1//EN" "http://www.w3.org/Graphics/SVG/1.1/DTD/svg11.dtd">
<svg version="1.1" xmlns="http://www.w3.org/2000/svg" xmlns:xlink="http://www.w3.org/1999/xlink" x="0px" y="0px"
	 viewBox="0 0 170 170" style="enable-background:new 0 0 170 170;" xml:space="preserve">
<style type="text/css">
	.st0{display:none;}
	.st1{display:inline;enable-background:new    ;}
	.st2{clip-path:url(#SVGID_2_);}
	.st3{clip-path:url(#SVGID_4_);}
	.st4{clip-path:url(#SVGID_6_);}
	.st5{opacity:0;clip-path:url(#SVGID_8_);}
	.st6{opacity:0;}
	.st7{clip-path:url(#SVGID_10_);}
	.st8{clip-path:url(#SVGID_14_);}
	.st9{clip-path:url(#SVGID_16_);}
	.st10{clip-path:url(#SVGID_18_);}
	.st11{clip-path:url(#SVGID_20_);}
	.st12{clip-path:url(#SVGID_24_);}
	.st13{clip-path:url(#SVGID_26_);}
	.st14{clip-path:url(#SVGID_28_);}
	.st15{opacity:0;clip-path:url(#SVGID_30_);}
	.st16{clip-path:url(#SVGID_32_);}
	.st17{clip-path:url(#SVGID_36_);}
	.st18{clip-path:url(#SVGID_38_);}
	.st19{clip-path:url(#SVGID_40_);}
	.st20{clip-path:url(#SVGID_42_);}
	.st21{clip-path:url(#SVGID_46_);}
	.st22{clip-path:url(#SVGID_48_);}
	.st23{clip-path:url(#SVGID_50_);}
	.st24{opacity:0;clip-path:url(#SVGID_52_);}
	.st25{clip-path:url(#SVGID_54_);}
	.st26{clip-path:url(#SVGID_58_);}
	.st27{clip-path:url(#SVGID_60_);}
	.st28{clip-path:url(#SVGID_62_);}
	.st29{clip-path:url(#SVGID_64_);}
	.st30{clip-path:url(#SVGID_68_);}
	.st31{clip-path:url(#SVGID_70_);}
	.st32{clip-path:url(#SVGID_72_);}
	.st33{opacity:0;clip-path:url(#SVGID_74_);}
	.st34{clip-path:url(#SVGID_76_);}
	.st35{clip-path:url(#SVGID_80_);}
	.st36{clip-path:url(#SVGID_82_);}
	.st37{clip-path:url(#SVGID_84_);}
	.st38{clip-path:url(#SVGID_86_);}
	.st39{clip-path:url(#SVGID_90_);}
	.st40{clip-path:url(#SVGID_92_);}
	.st41{clip-path:url(#SVGID_94_);}
	.st42{opacity:0;clip-path:url(#SVGID_96_);}
	.st43{clip-path:url(#SVGID_98_);}
	.st44{clip-path:url(#SVGID_102_);}
	.st45{clip-path:url(#SVGID_104_);}
	.st46{clip-path:url(#SVGID_106_);}
	.st47{clip-path:url(#SVGID_108_);}
	.st48{clip-path:url(#SVGID_112_);}
	.st49{clip-path:url(#SVGID_114_);}
	.st50{clip-path:url(#SVGID_116_);}
	.st51{opacity:0;clip-path:url(#SVGID_118_);}
	.st52{clip-path:url(#SVGID_120_);}
	.st53{clip-path:url(#SVGID_124_);}
	.st54{clip-path:url(#SVGID_126_);}
	.st55{clip-path:url(#SVGID_128_);}
	.st56{clip-path:url(#SVGID_130_);}
	.st57{display:inline;}
	.st58{fill:#666666;stroke:#FFFFFF;stroke-width:2;stroke-linecap:round;stroke-linejoin:round;stroke-miterlimit:10;}
	.st59{fill:none;stroke:#FFFFFF;stroke-width:1.8;stroke-miterlimit:10;}
	.st60{display:inline;opacity:0.3;}
	.st61{fill:none;stroke:#F2F2F2;stroke-width:0.5;stroke-miterlimit:10;}
	.st62{fill:#FFFFFF;}
	.st63{fill:#989898;}
	.st64{fill:#CBCBCB;}
	.st65{fill:#E5E5E5;}
	.st66{fill:#666666;stroke:#FFFFFF;stroke-width:3;stroke-linecap:round;stroke-linejoin:round;stroke-miterlimit:10;}
	.st67{fill:#666666;stroke:#FFFFFF;stroke-width:2;stroke-miterlimit:10;}
	.st68{fill:none;stroke:#989898;stroke-width:2;stroke-miterlimit:10;}
	.st69{fill:#CCCCCC;}
	.st70{fill:none;stroke:#CCCCCC;stroke-miterlimit:10;}
	.st71{fill:none;stroke:#989898;stroke-width:3;stroke-linejoin:round;stroke-miterlimit:10;}
	.st72{fill:none;}
	.st73{fill:#B2B2B2;}
	.st74{fill:#4D4D4D;}
	.st75{fill:#666666;}
	.st76{fill:#F1F1F1;}
	.st77{fill:none;stroke:#CBCBCB;stroke-width:3;stroke-linecap:round;stroke-linejoin:round;stroke-miterlimit:10;}
	.st78{fill:#808080;}
	.st79{fill:url(#SVGID_133_);}
	.st80{fill:#999999;}
	.st81{fill:none;stroke:#B2B2B2;stroke-miterlimit:10;}
	.st82{fill:none;stroke:#F1F1F1;stroke-width:1.6;stroke-miterlimit:10;}
	.st83{fill:none;stroke:#CBCBCB;stroke-linecap:round;stroke-linejoin:round;stroke-miterlimit:10;}
	.st84{fill:none;stroke:#FFFFFF;stroke-miterlimit:10;}
	.st85{fill:none;stroke:#989898;stroke-width:3;stroke-linecap:round;stroke-linejoin:round;stroke-miterlimit:10;}
	.st86{opacity:0.5;fill:#666666;}
	.st87{fill:none;stroke:#E5E5E5;stroke-width:2;stroke-linecap:round;stroke-linejoin:round;stroke-miterlimit:10;}
	.st88{fill:none;stroke:#CCCCCC;stroke-width:3;stroke-miterlimit:10;}
	.st89{fill:#FFFFFF;stroke:#FFFFFF;stroke-miterlimit:10;}
	.st90{fill:none;stroke:#FFFFFF;stroke-width:3;stroke-miterlimit:10;}
	.st91{fill:none;stroke:#FFFFFF;stroke-width:2;stroke-miterlimit:10;}
	.st92{fill:none;stroke:#FFFFFF;stroke-width:3;stroke-linecap:round;stroke-linejoin:round;stroke-miterlimit:10;}
</style>
<g id="Layer_2" class="st0">
	<g class="st1">
		<g>
			<defs>
				<rect id="SVGID_45_" x="-20.6" y="-212.2" width="399.3" height="601.2"/>
			</defs>
			<clipPath id="SVGID_2_">
				<use xlink:href="#SVGID_45_"  style="overflow:visible;"/>
			</clipPath>
			<g class="st2">
				<defs>
					<rect id="SVGID_47_" x="-20.6" y="-614.4" width="399.3" height="1034.2"/>
				</defs>
				<clipPath id="SVGID_4_">
					<use xlink:href="#SVGID_47_"  style="overflow:visible;"/>
				</clipPath>
				<g class="st3">
					<defs>
						<rect id="SVGID_49_" x="-20.6" y="-212.2" width="399.3" height="601.2"/>
					</defs>
					<clipPath id="SVGID_6_">
						<use xlink:href="#SVGID_49_"  style="overflow:visible;"/>
					</clipPath>
					<g class="st4">
						<defs>
							<rect id="SVGID_51_" x="-20.6" y="-212.2" width="399.3" height="601.2"/>
						</defs>
						<clipPath id="SVGID_8_">
							<use xlink:href="#SVGID_51_"  style="overflow:visible;"/>
						</clipPath>
						<g class="st5">
							<g class="st6">
								<g>
									<defs>
										<rect id="SVGID_53_" x="-20.6" y="-212.2" width="399.3" height="601.2"/>
									</defs>
									<clipPath id="SVGID_10_">
										<use xlink:href="#SVGID_53_"  style="overflow:visible;"/>
									</clipPath>
									<g class="st7">
										<defs>
											<rect id="SVGID_55_" x="-20.6" y="-212.2" width="399.3" height="601.2"/>
										</defs>
										<clipPath id="SVGID_12_">
											<use xlink:href="#SVGID_55_"  style="overflow:visible;"/>
										</clipPath>
										<g style="clip-path:url(#SVGID_12_);">
											
												<image style="overflow:visible;" width="1664" height="2505" xlink:href="29C94E37D4484680.jpg"  transform="matrix(0.24 0 0 0.24 -20.5818 -212.171)">
											</image>
										</g>
									</g>
								</g>
							</g>
						</g>
					</g>
				</g>
			</g>
			<g class="st2">
				<defs>
					<rect id="SVGID_57_" x="-20.6" y="-614.4" width="399.3" height="1034.2"/>
				</defs>
				<clipPath id="SVGID_14_">
					<use xlink:href="#SVGID_57_"  style="overflow:visible;"/>
				</clipPath>
				<g class="st8">
					<defs>
						<rect id="SVGID_59_" x="-20.6" y="-212.2" width="399.3" height="601.2"/>
					</defs>
					<clipPath id="SVGID_16_">
						<use xlink:href="#SVGID_59_"  style="overflow:visible;"/>
					</clipPath>
					<g class="st9">
						<defs>
							<rect id="SVGID_61_" x="-20.6" y="-212.2" width="399.3" height="601.2"/>
						</defs>
						<clipPath id="SVGID_18_">
							<use xlink:href="#SVGID_61_"  style="overflow:visible;"/>
						</clipPath>
						<g class="st10">
							<g>
								<defs>
									<rect id="SVGID_63_" x="-20.6" y="-212.8" width="399.3" height="601.2"/>
								</defs>
								<clipPath id="SVGID_20_">
									<use xlink:href="#SVGID_63_"  style="overflow:visible;"/>
								</clipPath>
								<g class="st11">
									<defs>
										<rect id="SVGID_65_" x="-20.6" y="-212.8" width="399.3" height="601.2"/>
									</defs>
									<clipPath id="SVGID_22_">
										<use xlink:href="#SVGID_65_"  style="overflow:visible;"/>
									</clipPath>
									<g style="clip-path:url(#SVGID_22_);">
										
											<image style="overflow:visible;" width="1664" height="2505" xlink:href="29C94E37D4484681.jpg"  transform="matrix(0.24 0 0 0.24 -20.5818 -212.8419)">
										</image>
									</g>
								</g>
							</g>
						</g>
					</g>
				</g>
			</g>
		</g>
	</g>
</g>
<g id="GRIDS" class="st0">
	<g class="st60">
		<rect x="0" class="st61" width="170" height="170"/>
		<line class="st61" x1="0" y1="0" x2="170" y2="170"/>
		<line class="st61" x1="170" y1="0" x2="0" y2="170"/>
		<line class="st61" x1="0" y1="85" x2="170" y2="85"/>
		<line class="st61" x1="0" y1="54" x2="170" y2="54"/>
		<line class="st61" x1="0" y1="116" x2="170" y2="116"/>
		<line class="st61" x1="0" y1="11" x2="170" y2="11"/>
		<line class="st61" x1="0" y1="159" x2="170" y2="159"/>
		<line class="st61" x1="85" y1="0" x2="85" y2="170"/>
		<line class="st61" x1="159" y1="0" x2="159" y2="170"/>
		<circle class="st61" cx="85" cy="85" r="31"/>
		<circle class="st61" cx="85" cy="85" r="44"/>
		<circle class="st61" cx="85" cy="85" r="74"/>
		<line class="st61" x1="54" y1="0" x2="54" y2="170"/>
		<line class="st61" x1="11" y1="0" x2="11" y2="170"/>
		<line class="st61" x1="116" y1="0" x2="116" y2="170"/>
	</g>
</g>
<g id="MOTION_PROTECT">
	<g>
		<path class="st89" d="M101.9,86c-0.1,0.2-3.3,5-7.9,5.1c-2.8,0.1-5.5-1.6-8-5.1c-2.3-3.2-4.8-4.8-7.3-4.7
			c-4.1,0.1-7.2,4.7-7.2,4.7c-0.1,0.2-0.4,0.2-0.6,0.1c-0.2-0.1-0.2-0.4-0.1-0.6c0.1-0.2,3.3-5,7.9-5.1c0.1,0,0.1,0,0.2,0
			c2.7,0,5.4,1.7,7.8,5.1c2.3,3.2,4.7,4.8,7.3,4.7c4.1-0.1,7.2-4.7,7.2-4.7c0.1-0.2,0.4-0.2,0.6-0.1C101.9,85.5,102,85.8,101.9,86z"
			/>
		<g>
			<path class="st76" d="M108.6,60.4h-3.5c-2.2,0-4,1.8-4,4V106c0,2.2,1.8,4,4,4h3.5c2.2,0,4-1.8,4-4V64.5
				C112.7,62.2,110.9,60.4,108.6,60.4z M111.4,106c0,1.5-1.2,2.8-2.8,2.8h-3.5c-1.5,0-2.8-1.2-2.8-2.8V64.5c0-1.5,1.2-2.8,2.8-2.8
				h3.5c1.5,0,2.8,1.2,2.8,2.8V106z"/>
		</g>
		<g>
			<path class="st76" d="M124.3,60.4h-3.5c-2.2,0-4,1.8-4,4V106c0,2.2,1.8,4,4,4h3.5c2.2,0,4-1.8,4-4V64.5
				C128.3,62.2,126.5,60.4,124.3,60.4z M127.1,106c0,1.5-1.2,2.8-2.8,2.8h-3.5c-1.5,0-2.8-1.2-2.8-2.8V64.5c0-1.5,1.2-2.8,2.8-2.8
				h3.5c1.5,0,2.8,1.2,2.8,2.8V106z"/>
		</g>
		<g>
			<path class="st76" d="M65.8,45.6h-5.6c-3.5,0-6.4,2.9-6.4,6.4v65.9c0,3.5,2.9,6.4,6.4,6.4h5.6c3.5,0,6.4-2.9,6.4-6.4V52
				C72.2,48.5,69.4,45.6,65.8,45.6z M70.2,117.9c0,2.4-2,4.4-4.4,4.4h-5.6c-2.4,0-4.4-2-4.4-4.4V52c0-2.4,2-4.4,4.4-4.4h5.6
				c2.4,0,4.4,2,4.4,4.4V117.9z"/>
			<path class="st76" d="M57.2,55.6l-1.3,2l7.6,2.8l6.7-2.7l-1.3-2H57.2z M63.4,59.3l-6-2.2l0.3-0.5h10.6l0.4,0.6L63.4,59.3z"/>
			<polygon class="st76" points="65.6,114.1 66.3,114.1 67,113.4 66.4,113.4 			"/>
			<polygon class="st76" points="68.1,111.8 67.4,112.5 68,112.5 68.8,111.8 			"/>
			<polygon class="st76" points="62.1,114.1 62.6,114.1 63.6,112.7 63.1,112.7 			"/>
			<polygon class="st76" points="63.4,112.2 64.7,114.1 65.2,114.1 63.6,111.9 			"/>
			<polygon class="st76" points="65.6,111.8 68.1,114.1 68.1,114.1 68.8,114.1 66.3,111.8 			"/>
			<polygon class="st76" points="57.3,114.1 57.8,114.1 58.8,112.7 58.3,112.7 			"/>
			<polygon class="st76" points="58.6,112.2 59.9,114.1 60.4,114.1 58.9,111.9 			"/>
			<path class="st76" d="M61.5,113.2c0,0.2-0.1,0.5-0.5,0.5h-0.1v0.4c0,0,0.5,0,0.8-0.2c0.2-0.2,0.2-0.5,0.2-0.7v-1.3h-0.4
				L61.5,113.2z"/>
		</g>
	</g>
</g>
<g id="Archive">
</g>
<g id="Archive_2">
</g>
<g id="Layer_6">
</g>
</svg>
