<?xml version="1.0" encoding="utf-8"?>
<!-- Generator: Adobe Illustrator 18.0.0, SVG Export Plug-In . SVG Version: 6.00 Build 0)  -->
<!DOCTYPE svg PUBLIC "-//W3C//DTD SVG 1.1//EN" "http://www.w3.org/Graphics/SVG/1.1/DTD/svg11.dtd">
<svg version="1.1" xmlns="http://www.w3.org/2000/svg" xmlns:xlink="http://www.w3.org/1999/xlink" x="0px" y="0px"
	 viewBox="0 0 170 170" style="enable-background:new 0 0 170 170;" xml:space="preserve">
<style type="text/css">
	.st0{display:none;}
	.st1{display:inline;enable-background:new    ;}
	.st2{clip-path:url(#SVGID_2_);}
	.st3{clip-path:url(#SVGID_4_);}
	.st4{clip-path:url(#SVGID_6_);}
	.st5{opacity:0;clip-path:url(#SVGID_8_);}
	.st6{opacity:0;}
	.st7{clip-path:url(#SVGID_10_);}
	.st8{clip-path:url(#SVGID_14_);}
	.st9{clip-path:url(#SVGID_16_);}
	.st10{clip-path:url(#SVGID_18_);}
	.st11{clip-path:url(#SVGID_20_);}
	.st12{clip-path:url(#SVGID_24_);}
	.st13{clip-path:url(#SVGID_26_);}
	.st14{clip-path:url(#SVGID_28_);}
	.st15{opacity:0;clip-path:url(#SVGID_30_);}
	.st16{clip-path:url(#SVGID_32_);}
	.st17{clip-path:url(#SVGID_36_);}
	.st18{clip-path:url(#SVGID_38_);}
	.st19{clip-path:url(#SVGID_40_);}
	.st20{clip-path:url(#SVGID_42_);}
	.st21{clip-path:url(#SVGID_46_);}
	.st22{clip-path:url(#SVGID_48_);}
	.st23{clip-path:url(#SVGID_50_);}
	.st24{opacity:0;clip-path:url(#SVGID_52_);}
	.st25{clip-path:url(#SVGID_54_);}
	.st26{clip-path:url(#SVGID_58_);}
	.st27{clip-path:url(#SVGID_60_);}
	.st28{clip-path:url(#SVGID_62_);}
	.st29{clip-path:url(#SVGID_64_);}
	.st30{clip-path:url(#SVGID_68_);}
	.st31{clip-path:url(#SVGID_70_);}
	.st32{clip-path:url(#SVGID_72_);}
	.st33{opacity:0;clip-path:url(#SVGID_74_);}
	.st34{clip-path:url(#SVGID_76_);}
	.st35{clip-path:url(#SVGID_80_);}
	.st36{clip-path:url(#SVGID_82_);}
	.st37{clip-path:url(#SVGID_84_);}
	.st38{clip-path:url(#SVGID_86_);}
	.st39{clip-path:url(#SVGID_90_);}
	.st40{clip-path:url(#SVGID_92_);}
	.st41{clip-path:url(#SVGID_94_);}
	.st42{opacity:0;clip-path:url(#SVGID_96_);}
	.st43{clip-path:url(#SVGID_98_);}
	.st44{clip-path:url(#SVGID_102_);}
	.st45{clip-path:url(#SVGID_104_);}
	.st46{clip-path:url(#SVGID_106_);}
	.st47{clip-path:url(#SVGID_108_);}
	.st48{clip-path:url(#SVGID_112_);}
	.st49{clip-path:url(#SVGID_114_);}
	.st50{clip-path:url(#SVGID_116_);}
	.st51{opacity:0;clip-path:url(#SVGID_118_);}
	.st52{clip-path:url(#SVGID_120_);}
	.st53{clip-path:url(#SVGID_124_);}
	.st54{clip-path:url(#SVGID_126_);}
	.st55{clip-path:url(#SVGID_128_);}
	.st56{clip-path:url(#SVGID_130_);}
	.st57{display:inline;}
	.st58{fill:#666666;stroke:#FFFFFF;stroke-width:2;stroke-linecap:round;stroke-linejoin:round;stroke-miterlimit:10;}
	.st59{fill:none;stroke:#FFFFFF;stroke-width:1.8;stroke-miterlimit:10;}
	.st60{display:inline;opacity:0.3;}
	.st61{fill:none;stroke:#F2F2F2;stroke-width:0.5;stroke-miterlimit:10;}
	.st62{fill:#FFFFFF;}
	.st63{fill:#989898;}
	.st64{fill:#CBCBCB;}
	.st65{fill:#E5E5E5;}
	.st66{fill:#666666;stroke:#FFFFFF;stroke-width:3;stroke-linecap:round;stroke-linejoin:round;stroke-miterlimit:10;}
	.st67{fill:#666666;stroke:#FFFFFF;stroke-width:2;stroke-miterlimit:10;}
	.st68{fill:none;stroke:#989898;stroke-width:2;stroke-miterlimit:10;}
	.st69{fill:#CCCCCC;}
	.st70{fill:none;stroke:#CCCCCC;stroke-miterlimit:10;}
	.st71{fill:none;stroke:#989898;stroke-width:3;stroke-linejoin:round;stroke-miterlimit:10;}
	.st72{fill:none;}
	.st73{fill:#B2B2B2;}
	.st74{fill:#4D4D4D;}
	.st75{fill:#666666;}
	.st76{fill:#F1F1F1;}
	.st77{fill:none;stroke:#CBCBCB;stroke-width:3;stroke-linecap:round;stroke-linejoin:round;stroke-miterlimit:10;}
	.st78{fill:#808080;}
	.st79{fill:url(#SVGID_133_);}
	.st80{fill:#999999;}
	.st81{fill:none;stroke:#B2B2B2;stroke-miterlimit:10;}
	.st82{fill:none;stroke:#F1F1F1;stroke-width:1.6;stroke-miterlimit:10;}
	.st83{fill:none;stroke:#CBCBCB;stroke-linecap:round;stroke-linejoin:round;stroke-miterlimit:10;}
	.st84{fill:none;stroke:#FFFFFF;stroke-miterlimit:10;}
	.st85{fill:none;stroke:#989898;stroke-width:3;stroke-linecap:round;stroke-linejoin:round;stroke-miterlimit:10;}
	.st86{opacity:0.5;fill:#666666;}
	.st87{fill:none;stroke:#E5E5E5;stroke-width:2;stroke-linecap:round;stroke-linejoin:round;stroke-miterlimit:10;}
	.st88{fill:none;stroke:#CCCCCC;stroke-width:3;stroke-miterlimit:10;}
	.st89{fill:#FFFFFF;stroke:#FFFFFF;stroke-miterlimit:10;}
	.st90{fill:none;stroke:#FFFFFF;stroke-width:3;stroke-miterlimit:10;}
	.st91{fill:none;stroke:#FFFFFF;stroke-width:2;stroke-miterlimit:10;}
	.st92{fill:none;stroke:#FFFFFF;stroke-width:3;stroke-linecap:round;stroke-linejoin:round;stroke-miterlimit:10;}
</style>
<g id="Layer_2" class="st0">
	<g class="st1">
		<g>
			<defs>
				<rect id="SVGID_89_" x="-23.3" y="-22.2" width="399.3" height="404.9"/>
			</defs>
			<clipPath id="SVGID_2_">
				<use xlink:href="#SVGID_89_"  style="overflow:visible;"/>
			</clipPath>
			<g class="st2">
				<defs>
					<rect id="SVGID_91_" x="-23.3" y="-293.1" width="399.3" height="696.5"/>
				</defs>
				<clipPath id="SVGID_4_">
					<use xlink:href="#SVGID_91_"  style="overflow:visible;"/>
				</clipPath>
				<g class="st3">
					<defs>
						<rect id="SVGID_93_" x="-23.3" y="-22.2" width="399.3" height="404.9"/>
					</defs>
					<clipPath id="SVGID_6_">
						<use xlink:href="#SVGID_93_"  style="overflow:visible;"/>
					</clipPath>
					<g class="st4">
						<defs>
							<rect id="SVGID_95_" x="-23.3" y="-22.2" width="399.3" height="404.9"/>
						</defs>
						<clipPath id="SVGID_8_">
							<use xlink:href="#SVGID_95_"  style="overflow:visible;"/>
						</clipPath>
						<g class="st5">
							<g class="st6">
								<g>
									<defs>
										<rect id="SVGID_97_" x="-23.3" y="-22.2" width="399.3" height="404.9"/>
									</defs>
									<clipPath id="SVGID_10_">
										<use xlink:href="#SVGID_97_"  style="overflow:visible;"/>
									</clipPath>
									<g class="st7">
										<defs>
											<rect id="SVGID_99_" x="-23.3" y="-22.2" width="399.3" height="404.9"/>
										</defs>
										<clipPath id="SVGID_12_">
											<use xlink:href="#SVGID_99_"  style="overflow:visible;"/>
										</clipPath>
										<g style="clip-path:url(#SVGID_12_);">
											
												<image style="overflow:visible;" width="1664" height="1687" xlink:href="13A926CE0A31542F.jpg"  transform="matrix(0.24 0 0 0.24 -23.2843 -22.1709)">
											</image>
										</g>
									</g>
								</g>
							</g>
						</g>
					</g>
				</g>
			</g>
			<g class="st2">
				<defs>
					<rect id="SVGID_101_" x="-23.3" y="-293.1" width="399.3" height="696.5"/>
				</defs>
				<clipPath id="SVGID_14_">
					<use xlink:href="#SVGID_101_"  style="overflow:visible;"/>
				</clipPath>
				<g class="st8">
					<defs>
						<rect id="SVGID_103_" x="-23.3" y="-22.2" width="399.3" height="404.9"/>
					</defs>
					<clipPath id="SVGID_16_">
						<use xlink:href="#SVGID_103_"  style="overflow:visible;"/>
					</clipPath>
					<g class="st9">
						<defs>
							<rect id="SVGID_105_" x="-23.3" y="-22.2" width="399.3" height="404.9"/>
						</defs>
						<clipPath id="SVGID_18_">
							<use xlink:href="#SVGID_105_"  style="overflow:visible;"/>
						</clipPath>
						<g class="st10">
							<g>
								<defs>
									<rect id="SVGID_107_" x="-23.3" y="-22.6" width="399.3" height="404.9"/>
								</defs>
								<clipPath id="SVGID_20_">
									<use xlink:href="#SVGID_107_"  style="overflow:visible;"/>
								</clipPath>
								<g class="st11">
									<defs>
										<rect id="SVGID_109_" x="-23.3" y="-22.6" width="399.3" height="404.9"/>
									</defs>
									<clipPath id="SVGID_22_">
										<use xlink:href="#SVGID_109_"  style="overflow:visible;"/>
									</clipPath>
									<g style="clip-path:url(#SVGID_22_);">
										
											<image style="overflow:visible;" width="1664" height="1687" xlink:href="13A926CE0A31542D.jpg"  transform="matrix(0.24 0 0 0.24 -23.2843 -22.6226)">
										</image>
									</g>
								</g>
							</g>
						</g>
					</g>
				</g>
			</g>
		</g>
	</g>
</g>
<g id="GRIDS" class="st0">
	<g class="st60">
		<rect x="-0.1" class="st61" width="170" height="170"/>
		<line class="st61" x1="-0.1" y1="0" x2="169.9" y2="170"/>
		<line class="st61" x1="169.9" y1="0" x2="-0.1" y2="170"/>
		<line class="st61" x1="-0.1" y1="85" x2="169.9" y2="85"/>
		<line class="st61" x1="-0.1" y1="54" x2="169.9" y2="54"/>
		<line class="st61" x1="-0.1" y1="116" x2="169.9" y2="116"/>
		<line class="st61" x1="-0.1" y1="11" x2="169.9" y2="11"/>
		<line class="st61" x1="-0.1" y1="159" x2="169.9" y2="159"/>
		<line class="st61" x1="84.9" y1="0" x2="84.9" y2="170"/>
		<line class="st61" x1="158.9" y1="0" x2="158.9" y2="170"/>
		<circle class="st61" cx="84.9" cy="85" r="31"/>
		<circle class="st61" cx="84.9" cy="85" r="44"/>
		<circle class="st61" cx="84.9" cy="85" r="74"/>
		<line class="st61" x1="53.9" y1="0" x2="53.9" y2="170"/>
		<line class="st61" x1="10.9" y1="0" x2="10.9" y2="170"/>
		<line class="st61" x1="115.9" y1="0" x2="115.9" y2="170"/>
	</g>
</g>
<g id="MOTION_PROTECT">
	<g>
		<g>
			<path class="st65" d="M49.9,54.6v21.5c0,4.7-1.3,8.3-4,10.9c-2.6,2.6-6.5,3.8-11.4,3.8c-4.9,0-8.6-1.2-11.2-3.7
				c-2.6-2.5-3.9-6.1-3.9-10.7V54.6h9.7v20.9c0,2.5,0.5,4.4,1.4,5.5c0.9,1.1,2.3,1.7,4.2,1.7c2,0,3.4-0.6,4.3-1.7
				c0.9-1.1,1.3-3,1.3-5.6V54.6H49.9z"/>
			<path class="st65" d="M79.3,90.3l-1.8-6.7H65.9l-1.8,6.7H53.5l11.6-35.8h12.9l11.8,35.8H79.3z M75.5,75.7L74,69.9
				c-0.4-1.3-0.8-3-1.3-5.1s-0.9-3.5-1-4.4c-0.1,0.8-0.4,2.2-0.9,4.1c-0.4,1.9-1.4,5.7-2.9,11.3H75.5z"/>
			<path class="st65" d="M103.3,77.3v13h-9.6V54.6h11.7c9.7,0,14.5,3.5,14.5,10.5c0,4.1-2,7.3-6.1,9.6l10.4,15.6h-10.9l-7.6-13
				H103.3z M103.3,70.1h1.8c3.4,0,5.1-1.5,5.1-4.5c0-2.5-1.7-3.7-5-3.7h-1.9V70.1z"/>
			<path class="st65" d="M143.3,90.3h-9.6V62.5h-8.7v-7.9h27v7.9h-8.7V90.3z"/>
		</g>
		<g>
			<path class="st65" d="M20.3,115.9V98.7H25v17.3H20.3z"/>
			<path class="st65" d="M45.2,115.9H39l-6.3-12.2h-0.1c0.1,1.9,0.2,3.4,0.2,4.4v7.8h-4.1V98.7h6.1l6.3,12h0.1
				c-0.1-1.7-0.2-3.1-0.2-4.2v-7.8h4.2V115.9z"/>
			<path class="st65" d="M56.5,115.9h-4.7v-13.4h-4.2v-3.8h13.1v3.8h-4.2V115.9z"/>
			<path class="st65" d="M73.4,115.9H63.2V98.7h10.2v3.7h-5.6v2.7H73v3.7h-5.2v3.3h5.6V115.9z"/>
			<path class="st65" d="M81.1,109.7v6.3h-4.7V98.7h5.7c4.7,0,7,1.7,7,5.1c0,2-1,3.5-2.9,4.6l5,7.5h-5.3l-3.7-6.3H81.1z M81.1,106.2
				H82c1.6,0,2.4-0.7,2.4-2.2c0-1.2-0.8-1.8-2.4-1.8h-0.9V106.2z"/>
			<path class="st65" d="M97.4,115.9h-4.6V98.7H103v3.7h-5.6v3.3h5.2v3.7h-5.2V115.9z"/>
			<path class="st65" d="M116.4,115.9l-0.8-3.2H110l-0.9,3.2H104l5.6-17.3h6.2l5.7,17.3H116.4z M114.6,108.9l-0.7-2.8
				c-0.2-0.6-0.4-1.4-0.6-2.4s-0.4-1.7-0.5-2.1c-0.1,0.4-0.2,1.1-0.4,2c-0.2,0.9-0.7,2.7-1.4,5.4H114.6z"/>
			<path class="st65" d="M131.1,102.3c-1.1,0-2,0.5-2.6,1.4c-0.6,0.9-0.9,2.2-0.9,3.8c0,3.3,1.3,5,3.8,5c0.8,0,1.5-0.1,2.2-0.3
				c0.7-0.2,1.4-0.5,2.2-0.8v3.9c-1.4,0.6-3.1,1-4.9,1c-2.6,0-4.6-0.8-6-2.3c-1.4-1.5-2.1-3.7-2.1-6.6c0-1.8,0.3-3.4,1-4.7
				c0.7-1.4,1.6-2.4,2.9-3.1c1.3-0.7,2.7-1.1,4.5-1.1c1.9,0,3.6,0.4,5.3,1.2l-1.4,3.7c-0.6-0.3-1.3-0.6-1.9-0.8
				C132.5,102.4,131.8,102.3,131.1,102.3z"/>
			<path class="st65" d="M149.3,115.9h-10.2V98.7h10.2v3.7h-5.6v2.7h5.2v3.7h-5.2v3.3h5.6V115.9z"/>
		</g>
	</g>
</g>
<g id="Archive">
</g>
<g id="Archive_2">
</g>
<g id="Layer_6">
</g>
</svg>
