<?xml version="1.0" encoding="utf-8"?>
<!-- Generator: Adobe Illustrator 18.0.0, SVG Export Plug-In . SVG Version: 6.00 Build 0)  -->
<!DOCTYPE svg PUBLIC "-//W3C//DTD SVG 1.1//EN" "http://www.w3.org/Graphics/SVG/1.1/DTD/svg11.dtd">
<svg version="1.1" xmlns="http://www.w3.org/2000/svg" xmlns:xlink="http://www.w3.org/1999/xlink" x="0px" y="0px"
	 viewBox="0 0 170 170" style="enable-background:new 0 0 170 170;" xml:space="preserve">
<style type="text/css">
	.st0{display:none;}
	.st1{display:inline;enable-background:new    ;}
	.st2{clip-path:url(#SVGID_2_);}
	.st3{clip-path:url(#SVGID_4_);}
	.st4{clip-path:url(#SVGID_6_);}
	.st5{opacity:0;clip-path:url(#SVGID_8_);}
	.st6{opacity:0;}
	.st7{clip-path:url(#SVGID_10_);}
	.st8{clip-path:url(#SVGID_14_);}
	.st9{clip-path:url(#SVGID_16_);}
	.st10{clip-path:url(#SVGID_18_);}
	.st11{clip-path:url(#SVGID_20_);}
	.st12{clip-path:url(#SVGID_24_);}
	.st13{clip-path:url(#SVGID_26_);}
	.st14{clip-path:url(#SVGID_28_);}
	.st15{opacity:0;clip-path:url(#SVGID_30_);}
	.st16{clip-path:url(#SVGID_32_);}
	.st17{clip-path:url(#SVGID_36_);}
	.st18{clip-path:url(#SVGID_38_);}
	.st19{clip-path:url(#SVGID_40_);}
	.st20{clip-path:url(#SVGID_42_);}
	.st21{clip-path:url(#SVGID_46_);}
	.st22{clip-path:url(#SVGID_48_);}
	.st23{clip-path:url(#SVGID_50_);}
	.st24{opacity:0;clip-path:url(#SVGID_52_);}
	.st25{clip-path:url(#SVGID_54_);}
	.st26{clip-path:url(#SVGID_58_);}
	.st27{clip-path:url(#SVGID_60_);}
	.st28{clip-path:url(#SVGID_62_);}
	.st29{clip-path:url(#SVGID_64_);}
	.st30{clip-path:url(#SVGID_68_);}
	.st31{clip-path:url(#SVGID_70_);}
	.st32{clip-path:url(#SVGID_72_);}
	.st33{opacity:0;clip-path:url(#SVGID_74_);}
	.st34{clip-path:url(#SVGID_76_);}
	.st35{clip-path:url(#SVGID_80_);}
	.st36{clip-path:url(#SVGID_82_);}
	.st37{clip-path:url(#SVGID_84_);}
	.st38{clip-path:url(#SVGID_86_);}
	.st39{clip-path:url(#SVGID_90_);}
	.st40{clip-path:url(#SVGID_92_);}
	.st41{clip-path:url(#SVGID_94_);}
	.st42{opacity:0;clip-path:url(#SVGID_96_);}
	.st43{clip-path:url(#SVGID_98_);}
	.st44{clip-path:url(#SVGID_102_);}
	.st45{clip-path:url(#SVGID_104_);}
	.st46{clip-path:url(#SVGID_106_);}
	.st47{clip-path:url(#SVGID_108_);}
	.st48{clip-path:url(#SVGID_112_);}
	.st49{clip-path:url(#SVGID_114_);}
	.st50{clip-path:url(#SVGID_116_);}
	.st51{opacity:0;clip-path:url(#SVGID_118_);}
	.st52{clip-path:url(#SVGID_120_);}
	.st53{clip-path:url(#SVGID_124_);}
	.st54{clip-path:url(#SVGID_126_);}
	.st55{clip-path:url(#SVGID_128_);}
	.st56{clip-path:url(#SVGID_130_);}
	.st57{display:inline;}
	.st58{fill:#666666;stroke:#FFFFFF;stroke-width:2;stroke-linecap:round;stroke-linejoin:round;stroke-miterlimit:10;}
	.st59{fill:none;stroke:#FFFFFF;stroke-width:1.8;stroke-miterlimit:10;}
	.st60{display:inline;opacity:0.3;}
	.st61{fill:none;stroke:#F2F2F2;stroke-width:0.5;stroke-miterlimit:10;}
	.st62{fill:#FFFFFF;}
	.st63{fill:#989898;}
	.st64{fill:#CBCBCB;}
	.st65{fill:#E5E5E5;}
	.st66{fill:#666666;stroke:#FFFFFF;stroke-width:3;stroke-linecap:round;stroke-linejoin:round;stroke-miterlimit:10;}
	.st67{fill:#666666;stroke:#FFFFFF;stroke-width:2;stroke-miterlimit:10;}
	.st68{fill:none;stroke:#989898;stroke-width:2;stroke-miterlimit:10;}
	.st69{fill:#CCCCCC;}
	.st70{fill:none;stroke:#CCCCCC;stroke-miterlimit:10;}
	.st71{fill:none;stroke:#989898;stroke-width:3;stroke-linejoin:round;stroke-miterlimit:10;}
	.st72{fill:none;}
	.st73{fill:#B2B2B2;}
	.st74{fill:#4D4D4D;}
	.st75{fill:#666666;}
	.st76{fill:#F1F1F1;}
	.st77{fill:none;stroke:#CBCBCB;stroke-width:3;stroke-linecap:round;stroke-linejoin:round;stroke-miterlimit:10;}
	.st78{fill:#808080;}
	.st79{fill:url(#SVGID_133_);}
	.st80{fill:#999999;}
	.st81{fill:none;stroke:#B2B2B2;stroke-miterlimit:10;}
	.st82{fill:none;stroke:#F1F1F1;stroke-width:1.6;stroke-miterlimit:10;}
	.st83{fill:none;stroke:#CBCBCB;stroke-linecap:round;stroke-linejoin:round;stroke-miterlimit:10;}
	.st84{fill:none;stroke:#FFFFFF;stroke-miterlimit:10;}
	.st85{fill:none;stroke:#989898;stroke-width:3;stroke-linecap:round;stroke-linejoin:round;stroke-miterlimit:10;}
	.st86{opacity:0.5;fill:#666666;}
	.st87{fill:none;stroke:#E5E5E5;stroke-width:2;stroke-linecap:round;stroke-linejoin:round;stroke-miterlimit:10;}
	.st88{fill:none;stroke:#CCCCCC;stroke-width:3;stroke-miterlimit:10;}
	.st89{fill:#FFFFFF;stroke:#FFFFFF;stroke-miterlimit:10;}
	.st90{fill:none;stroke:#FFFFFF;stroke-width:3;stroke-miterlimit:10;}
	.st91{fill:none;stroke:#FFFFFF;stroke-width:2;stroke-miterlimit:10;}
	.st92{fill:none;stroke:#FFFFFF;stroke-width:3;stroke-linecap:round;stroke-linejoin:round;stroke-miterlimit:10;}
</style>
<g id="Layer_2" class="st0">
	<g class="st1">
		<g>
			<defs>
				<rect id="SVGID_111_" x="-215.6" y="-401" width="399.3" height="776.5"/>
			</defs>
			<clipPath id="SVGID_2_">
				<use xlink:href="#SVGID_111_"  style="overflow:visible;"/>
			</clipPath>
			<g class="st2">
				<defs>
					<rect id="SVGID_113_" x="-215.6" y="-920.6" width="399.3" height="1335.9"/>
				</defs>
				<clipPath id="SVGID_4_">
					<use xlink:href="#SVGID_113_"  style="overflow:visible;"/>
				</clipPath>
				<g class="st3">
					<defs>
						<rect id="SVGID_115_" x="-215.6" y="-401" width="399.3" height="776.5"/>
					</defs>
					<clipPath id="SVGID_6_">
						<use xlink:href="#SVGID_115_"  style="overflow:visible;"/>
					</clipPath>
					<g class="st4">
						<defs>
							<rect id="SVGID_117_" x="-215.6" y="-401" width="399.3" height="776.5"/>
						</defs>
						<clipPath id="SVGID_8_">
							<use xlink:href="#SVGID_117_"  style="overflow:visible;"/>
						</clipPath>
						<g class="st5">
							<g class="st6">
								<g>
									<defs>
										<rect id="SVGID_119_" x="-215.6" y="-401" width="399.3" height="776.5"/>
									</defs>
									<clipPath id="SVGID_10_">
										<use xlink:href="#SVGID_119_"  style="overflow:visible;"/>
									</clipPath>
									<g class="st7">
										<defs>
											<rect id="SVGID_121_" x="-215.6" y="-401" width="399.3" height="776.5"/>
										</defs>
										<clipPath id="SVGID_12_">
											<use xlink:href="#SVGID_121_"  style="overflow:visible;"/>
										</clipPath>
										<g style="clip-path:url(#SVGID_12_);">
											
												<image style="overflow:visible;" width="1664" height="3236" xlink:href="5D8798C0FD3C5237.jpg"  transform="matrix(0.24 0 0 0.24 -215.58 -401.0125)">
											</image>
										</g>
									</g>
								</g>
							</g>
						</g>
					</g>
				</g>
			</g>
			<g class="st2">
				<defs>
					<rect id="SVGID_123_" x="-215.6" y="-920.6" width="399.3" height="1335.9"/>
				</defs>
				<clipPath id="SVGID_14_">
					<use xlink:href="#SVGID_123_"  style="overflow:visible;"/>
				</clipPath>
				<g class="st8">
					<defs>
						<rect id="SVGID_125_" x="-215.6" y="-401" width="399.3" height="776.5"/>
					</defs>
					<clipPath id="SVGID_16_">
						<use xlink:href="#SVGID_125_"  style="overflow:visible;"/>
					</clipPath>
					<g class="st9">
						<defs>
							<rect id="SVGID_127_" x="-215.6" y="-401" width="399.3" height="776.5"/>
						</defs>
						<clipPath id="SVGID_18_">
							<use xlink:href="#SVGID_127_"  style="overflow:visible;"/>
						</clipPath>
						<g class="st10">
							<g>
								<defs>
									<rect id="SVGID_129_" x="-215.6" y="-401.9" width="399.3" height="776.5"/>
								</defs>
								<clipPath id="SVGID_20_">
									<use xlink:href="#SVGID_129_"  style="overflow:visible;"/>
								</clipPath>
								<g class="st11">
									<defs>
										<rect id="SVGID_131_" x="-215.6" y="-401.9" width="399.3" height="776.5"/>
									</defs>
									<clipPath id="SVGID_22_">
										<use xlink:href="#SVGID_131_"  style="overflow:visible;"/>
									</clipPath>
									<g style="clip-path:url(#SVGID_22_);">
										
											<image style="overflow:visible;" width="1664" height="3236" xlink:href="5D8798C0FD3C5235.jpg"  transform="matrix(0.24 0 0 0.24 -215.58 -401.8792)">
										</image>
									</g>
								</g>
							</g>
						</g>
					</g>
				</g>
			</g>
		</g>
	</g>
	<g class="st60">
		<rect x="0" y="0" class="st61" width="170" height="170"/>
		<line class="st61" x1="0" y1="0" x2="170" y2="170"/>
		<line class="st61" x1="170" y1="0" x2="0" y2="170"/>
		<line class="st61" x1="0" y1="85" x2="170" y2="85"/>
		<line class="st61" x1="0" y1="54" x2="170" y2="54"/>
		<line class="st61" x1="0" y1="116" x2="170" y2="116"/>
		<line class="st61" x1="0" y1="11" x2="170" y2="11"/>
		<line class="st61" x1="0" y1="159" x2="170" y2="159"/>
		<line class="st61" x1="85" y1="0" x2="85" y2="170"/>
		<line class="st61" x1="159" y1="0" x2="159" y2="170"/>
		<circle class="st61" cx="85" cy="85" r="31"/>
		<circle class="st61" cx="85" cy="85" r="44"/>
		<circle class="st61" cx="85" cy="85" r="74"/>
		<line class="st61" x1="54" y1="0" x2="54" y2="170"/>
		<line class="st61" x1="11" y1="0" x2="11" y2="170"/>
		<line class="st61" x1="116" y1="0" x2="116" y2="170"/>
	</g>
</g>
<g id="GRIDS" class="st0">
</g>
<g id="MOTION_PROTECT">
	<g>
		<g>
			<path class="st62" d="M48.1,53.3c-17.5,0-31.7,14.2-31.7,31.7c0,17.5,14.2,31.7,31.7,31.7c17.5,0,31.7-14.2,31.7-31.7
				C79.8,67.5,65.6,53.3,48.1,53.3z M48.1,114.6c-16.3,0-29.6-13.3-29.6-29.6s13.3-29.6,29.6-29.6c16.3,0,29.6,13.3,29.6,29.6
				S64.4,114.6,48.1,114.6z"/>
			<g>
				<path class="st64" d="M48.1,76.8c-3.4,0-6.5,2.1-7.7,5.3c-0.2,0.5,0.1,1.2,0.6,1.4c0.5,0.2,1.2-0.1,1.4-0.6
					c0.9-2.4,3.2-3.9,5.7-3.9c3.3,0,6,2.7,6,6c0,2.1-1,4-2.8,5.1c-0.5,0.3-0.6,1-0.3,1.5c0.2,0.3,0.5,0.5,0.9,0.5
					c0.2,0,0.4-0.1,0.6-0.2c2.4-1.5,3.8-4.1,3.8-6.9C56.2,80.5,52.6,76.8,48.1,76.8z"/>
				<path class="st64" d="M62.4,85c0-7.9-6.4-14.3-14.3-14.3c-5.8,0-11,3.5-13.2,8.9c-0.2,0.5,0,1.2,0.6,1.4c0.5,0.2,1.2,0,1.4-0.6
					c1.9-4.6,6.3-7.6,11.3-7.6c6.7,0,12.2,5.5,12.2,12.2c0,4-2,7.8-5.4,10.1c-0.5,0.3-0.6,1-0.3,1.5c0.2,0.3,0.5,0.5,0.9,0.5
					c0.2,0,0.4-0.1,0.6-0.2C60,94.2,62.4,89.8,62.4,85z"/>
				<path class="st64" d="M48.1,64.5c-8.3,0-15.7,4.9-18.9,12.5c-0.2,0.5,0,1.2,0.6,1.4c0.5,0.2,1.2,0,1.4-0.6
					c2.9-6.8,9.6-11.3,17-11.3c10.2,0,18.4,8.3,18.4,18.4c0,6.3-3.2,12.1-8.5,15.5c-0.5,0.3-0.6,1-0.3,1.5c0.2,0.3,0.5,0.5,0.9,0.5
					c0.2,0,0.4-0.1,0.6-0.2c5.9-3.8,9.5-10.3,9.5-17.3C68.6,73.7,59.4,64.5,48.1,64.5z"/>
				<circle class="st64" cx="48.1" cy="85" r="1.9"/>
			</g>
		</g>
		<g>
			<path class="st62" d="M121.9,53.3c-17.5,0-31.7,14.2-31.7,31.7c0,17.5,14.2,31.7,31.7,31.7c17.5,0,31.7-14.2,31.7-31.7
				C153.7,67.5,139.4,53.3,121.9,53.3z M121.9,114.6c-16.3,0-29.6-13.3-29.6-29.6s13.3-29.6,29.6-29.6c16.3,0,29.6,13.3,29.6,29.6
				S138.3,114.6,121.9,114.6z"/>
		</g>
	</g>
	<g>
		<g>
			<g>
				<g>
					<g>
						<rect x="112.8" y="82.3" class="st64" width="2.4" height="9.4"/>
					</g>
					<g>
						<rect x="120.7" y="79.1" class="st64" width="2.4" height="12.7"/>
					</g>
					<g>
						<rect x="128.7" y="75.8" class="st64" width="2.4" height="15.9"/>
					</g>
				</g>
			</g>
		</g>
	</g>
</g>
<g id="Archive">
</g>
<g id="Archive_2">
</g>
<g id="Layer_6">
</g>
</svg>
