<?xml version="1.0" encoding="utf-8"?>
<!-- Generator: Adobe Illustrator 18.0.0, SVG Export Plug-In . SVG Version: 6.00 Build 0)  -->
<!DOCTYPE svg PUBLIC "-//W3C//DTD SVG 1.1//EN" "http://www.w3.org/Graphics/SVG/1.1/DTD/svg11.dtd">
<svg version="1.1" xmlns="http://www.w3.org/2000/svg" xmlns:xlink="http://www.w3.org/1999/xlink" x="0px" y="0px"
	 viewBox="0 0 170 170" style="enable-background:new 0 0 170 170;" xml:space="preserve">
<style type="text/css">
	.st0{display:none;}
	.st1{display:inline;enable-background:new    ;}
	.st2{clip-path:url(#SVGID_2_);}
	.st3{clip-path:url(#SVGID_4_);}
	.st4{clip-path:url(#SVGID_6_);}
	.st5{opacity:0;clip-path:url(#SVGID_8_);}
	.st6{opacity:0;}
	.st7{clip-path:url(#SVGID_10_);}
	.st8{clip-path:url(#SVGID_14_);}
	.st9{clip-path:url(#SVGID_16_);}
	.st10{clip-path:url(#SVGID_18_);}
	.st11{clip-path:url(#SVGID_20_);}
	.st12{clip-path:url(#SVGID_24_);}
	.st13{clip-path:url(#SVGID_26_);}
	.st14{clip-path:url(#SVGID_28_);}
	.st15{opacity:0;clip-path:url(#SVGID_30_);}
	.st16{clip-path:url(#SVGID_32_);}
	.st17{clip-path:url(#SVGID_36_);}
	.st18{clip-path:url(#SVGID_38_);}
	.st19{clip-path:url(#SVGID_40_);}
	.st20{clip-path:url(#SVGID_42_);}
	.st21{clip-path:url(#SVGID_46_);}
	.st22{clip-path:url(#SVGID_48_);}
	.st23{clip-path:url(#SVGID_50_);}
	.st24{opacity:0;clip-path:url(#SVGID_52_);}
	.st25{clip-path:url(#SVGID_54_);}
	.st26{clip-path:url(#SVGID_58_);}
	.st27{clip-path:url(#SVGID_60_);}
	.st28{clip-path:url(#SVGID_62_);}
	.st29{clip-path:url(#SVGID_64_);}
	.st30{clip-path:url(#SVGID_68_);}
	.st31{clip-path:url(#SVGID_70_);}
	.st32{clip-path:url(#SVGID_72_);}
	.st33{opacity:0;clip-path:url(#SVGID_74_);}
	.st34{clip-path:url(#SVGID_76_);}
	.st35{clip-path:url(#SVGID_80_);}
	.st36{clip-path:url(#SVGID_82_);}
	.st37{clip-path:url(#SVGID_84_);}
	.st38{clip-path:url(#SVGID_86_);}
	.st39{clip-path:url(#SVGID_90_);}
	.st40{clip-path:url(#SVGID_92_);}
	.st41{clip-path:url(#SVGID_94_);}
	.st42{opacity:0;clip-path:url(#SVGID_96_);}
	.st43{clip-path:url(#SVGID_98_);}
	.st44{clip-path:url(#SVGID_102_);}
	.st45{clip-path:url(#SVGID_104_);}
	.st46{clip-path:url(#SVGID_106_);}
	.st47{clip-path:url(#SVGID_108_);}
	.st48{clip-path:url(#SVGID_112_);}
	.st49{clip-path:url(#SVGID_114_);}
	.st50{clip-path:url(#SVGID_116_);}
	.st51{opacity:0;clip-path:url(#SVGID_118_);}
	.st52{clip-path:url(#SVGID_120_);}
	.st53{clip-path:url(#SVGID_124_);}
	.st54{clip-path:url(#SVGID_126_);}
	.st55{clip-path:url(#SVGID_128_);}
	.st56{clip-path:url(#SVGID_130_);}
	.st57{display:inline;}
	.st58{fill:#666666;stroke:#FFFFFF;stroke-width:2;stroke-linecap:round;stroke-linejoin:round;stroke-miterlimit:10;}
	.st59{fill:none;stroke:#FFFFFF;stroke-width:1.8;stroke-miterlimit:10;}
	.st60{display:inline;opacity:0.3;}
	.st61{fill:none;stroke:#F2F2F2;stroke-width:0.5;stroke-miterlimit:10;}
	.st62{fill:#FFFFFF;}
	.st63{fill:#989898;}
	.st64{fill:#CBCBCB;}
	.st65{fill:#E5E5E5;}
	.st66{fill:#666666;stroke:#FFFFFF;stroke-width:3;stroke-linecap:round;stroke-linejoin:round;stroke-miterlimit:10;}
	.st67{fill:#666666;stroke:#FFFFFF;stroke-width:2;stroke-miterlimit:10;}
	.st68{fill:none;stroke:#989898;stroke-width:2;stroke-miterlimit:10;}
	.st69{fill:#CCCCCC;}
	.st70{fill:none;stroke:#CCCCCC;stroke-miterlimit:10;}
	.st71{fill:none;stroke:#989898;stroke-width:3;stroke-linejoin:round;stroke-miterlimit:10;}
	.st72{fill:none;}
	.st73{fill:#B2B2B2;}
	.st74{fill:#4D4D4D;}
	.st75{fill:#666666;}
	.st76{fill:#F1F1F1;}
	.st77{fill:none;stroke:#CBCBCB;stroke-width:3;stroke-linecap:round;stroke-linejoin:round;stroke-miterlimit:10;}
	.st78{fill:#808080;}
	.st79{fill:url(#SVGID_133_);}
	.st80{fill:#999999;}
	.st81{fill:none;stroke:#B2B2B2;stroke-miterlimit:10;}
	.st82{fill:none;stroke:#F1F1F1;stroke-width:1.6;stroke-miterlimit:10;}
	.st83{fill:none;stroke:#CBCBCB;stroke-linecap:round;stroke-linejoin:round;stroke-miterlimit:10;}
	.st84{fill:none;stroke:#FFFFFF;stroke-miterlimit:10;}
	.st85{fill:none;stroke:#989898;stroke-width:3;stroke-linecap:round;stroke-linejoin:round;stroke-miterlimit:10;}
	.st86{opacity:0.5;fill:#666666;}
	.st87{fill:none;stroke:#E5E5E5;stroke-width:2;stroke-linecap:round;stroke-linejoin:round;stroke-miterlimit:10;}
	.st88{fill:none;stroke:#CCCCCC;stroke-width:3;stroke-miterlimit:10;}
	.st89{fill:#FFFFFF;stroke:#FFFFFF;stroke-miterlimit:10;}
	.st90{fill:none;stroke:#FFFFFF;stroke-width:3;stroke-miterlimit:10;}
	.st91{fill:none;stroke:#FFFFFF;stroke-width:2;stroke-miterlimit:10;}
	.st92{fill:none;stroke:#FFFFFF;stroke-width:3;stroke-linecap:round;stroke-linejoin:round;stroke-miterlimit:10;}
</style>
<g id="Layer_2" class="st0">
	<g class="st1">
		<g>
			<defs>
				<rect id="SVGID_1_" x="-23.5" y="-592.2" width="399.3" height="2688.7"/>
			</defs>
			<clipPath id="SVGID_2_">
				<use xlink:href="#SVGID_1_"  style="overflow:visible;"/>
			</clipPath>
			<g class="st2">
				<defs>
					<rect id="SVGID_3_" x="-23.5" y="-2391.2" width="399.3" height="4625.6"/>
				</defs>
				<clipPath id="SVGID_4_">
					<use xlink:href="#SVGID_3_"  style="overflow:visible;"/>
				</clipPath>
				<g class="st3">
					<defs>
						<rect id="SVGID_5_" x="-23.5" y="-592.2" width="399.3" height="2688.7"/>
					</defs>
					<clipPath id="SVGID_6_">
						<use xlink:href="#SVGID_5_"  style="overflow:visible;"/>
					</clipPath>
					<g class="st4">
						<defs>
							<rect id="SVGID_7_" x="-23.5" y="-592.2" width="399.3" height="2688.7"/>
						</defs>
						<clipPath id="SVGID_8_">
							<use xlink:href="#SVGID_7_"  style="overflow:visible;"/>
						</clipPath>
						<g class="st5">
							<g class="st6">
								<g>
									<defs>
										<rect id="SVGID_9_" x="-23.5" y="-592.2" width="399.3" height="2688.7"/>
									</defs>
									<clipPath id="SVGID_10_">
										<use xlink:href="#SVGID_9_"  style="overflow:visible;"/>
									</clipPath>
									<g class="st7">
										<defs>
											<rect id="SVGID_11_" x="-23.5" y="-592.2" width="399.3" height="2688.7"/>
										</defs>
										<clipPath id="SVGID_12_">
											<use xlink:href="#SVGID_11_"  style="overflow:visible;"/>
										</clipPath>
										<g style="clip-path:url(#SVGID_12_);">
											
												<image style="overflow:visible;" width="1664" height="11204" xlink:href="6C414989CDAFE36F.jpg"  transform="matrix(0.24 0 0 0.24 -23.5083 -592.1707)">
											</image>
										</g>
									</g>
								</g>
							</g>
						</g>
					</g>
				</g>
			</g>
			<g class="st2">
				<defs>
					<rect id="SVGID_13_" x="-23.5" y="-2391.2" width="399.3" height="4625.6"/>
				</defs>
				<clipPath id="SVGID_14_">
					<use xlink:href="#SVGID_13_"  style="overflow:visible;"/>
				</clipPath>
				<g class="st8">
					<defs>
						<rect id="SVGID_15_" x="-23.5" y="-592.2" width="399.3" height="2688.7"/>
					</defs>
					<clipPath id="SVGID_16_">
						<use xlink:href="#SVGID_15_"  style="overflow:visible;"/>
					</clipPath>
					<g class="st9">
						<defs>
							<rect id="SVGID_17_" x="-23.5" y="-592.2" width="399.3" height="2688.7"/>
						</defs>
						<clipPath id="SVGID_18_">
							<use xlink:href="#SVGID_17_"  style="overflow:visible;"/>
						</clipPath>
						<g class="st10">
							<g>
								<defs>
									<rect id="SVGID_19_" x="-23.5" y="-592.2" width="399.3" height="2688.7"/>
								</defs>
								<clipPath id="SVGID_20_">
									<use xlink:href="#SVGID_19_"  style="overflow:visible;"/>
								</clipPath>
								<g class="st11">
									<defs>
										<rect id="SVGID_21_" x="-23.5" y="-592.2" width="399.3" height="2688.7"/>
									</defs>
									<clipPath id="SVGID_22_">
										<use xlink:href="#SVGID_21_"  style="overflow:visible;"/>
									</clipPath>
									<g style="clip-path:url(#SVGID_22_);">
										
											<image style="overflow:visible;" width="1664" height="11204" xlink:href="6C414989CDAFE36D.jpg"  transform="matrix(0.24 0 0 0.24 -23.5083 -592.1707)">
										</image>
									</g>
								</g>
							</g>
						</g>
					</g>
				</g>
			</g>
		</g>
	</g>
</g>
<g id="GRIDS" class="st0">
	<g class="st60">
		<rect class="st61" width="170" height="170"/>
		<line class="st61" x1="0" y1="0" x2="170" y2="170"/>
		<line class="st61" x1="170" y1="0" x2="0" y2="170"/>
		<line class="st61" x1="0" y1="85" x2="170" y2="85"/>
		<line class="st61" x1="0" y1="54" x2="170" y2="54"/>
		<line class="st61" x1="0" y1="116" x2="170" y2="116"/>
		<line class="st61" x1="0" y1="11" x2="170" y2="11"/>
		<line class="st61" x1="0" y1="159" x2="170" y2="159"/>
		<line class="st61" x1="85" y1="0" x2="85" y2="170"/>
		<line class="st61" x1="159" y1="0" x2="159" y2="170"/>
		<circle class="st61" cx="85" cy="85" r="31"/>
		<circle class="st61" cx="85" cy="85" r="44"/>
		<circle class="st61" cx="85" cy="85" r="74"/>
		<line class="st61" x1="54" y1="0" x2="54" y2="170"/>
		<line class="st61" x1="11" y1="0" x2="11" y2="170"/>
		<line class="st61" x1="116" y1="0" x2="116" y2="170"/>
	</g>
</g>
<g id="MOTION_PROTECT">
	<g>
		<path class="st65" d="M46.2,76c1.7-1.3,2.5-3.2,2.5-5.5c0-1.7-0.4-3.1-1.3-4.2s-2.5-2.3-4.9-3.5c-1.8-0.9-3-1.5-3.5-1.8
			s-0.8-0.7-1.1-1s-0.3-0.8-0.3-1.3c0-0.8,0.3-1.4,0.8-1.9s1.3-0.7,2.4-0.7c0.9,0,1.7,0.1,2.6,0.3s2,0.6,3.4,1.2l1.8-4.2
			c-1.3-0.6-2.6-1-3.8-1.3s-2.5-0.5-3.8-0.5c-2.7,0-4.8,0.7-6.4,2s-2.3,3.1-2.3,5.4c0,1.2,0.2,2.3,0.7,3.2s1.1,1.7,1.9,2.4
			s2,1.4,3.5,2.1c1.7,0.8,2.8,1.4,3.3,1.7s1,0.7,1.2,1.1s0.4,0.8,0.4,1.3c0,0.9-0.3,1.6-1,2s-1.6,0.7-2.8,0.7c-1,0-2.1-0.2-3.3-0.5
			s-2.7-0.9-4.4-1.6v5.1c2.1,1,4.5,1.5,7.3,1.5C42.2,78,44.5,77.3,46.2,76z"/>
		<path class="st65" d="M77.4,77.7h5.4V64.8c0-2.5-0.6-4.4-1.7-5.5s-2.8-1.7-5.1-1.7c-1.3,0-2.4,0.3-3.5,0.8s-1.8,1.2-2.3,2.1h-0.5
			c-1-1.9-3-2.9-6-2.9c-1.3,0-2.4,0.3-3.4,0.8s-1.8,1.2-2.3,2.1h-0.3L57,58h-4.1v19.7h5.4v-9.2c0-2.3,0.3-4,0.9-5s1.6-1.5,3-1.5
			c1,0,1.8,0.4,2.2,1.1c0.5,0.7,0.7,1.8,0.7,3.2v11.5h5.4v-9.9c0-2,0.3-3.5,1-4.5s1.6-1.4,2.9-1.4c1,0,1.8,0.4,2.2,1.1
			s0.7,1.8,0.7,3.2V77.7z"/>
		<path class="st65" d="M102.4,59.3c-1.4-1.1-3.4-1.7-6.1-1.7c-2.8,0-5.3,0.6-7.5,1.8l1.8,3.6c2.1-0.9,4-1.4,5.5-1.4
			c2,0,3.1,1,3.1,3v0.9l-3.4,0.1c-2.9,0.1-5.1,0.7-6.6,1.6S87,69.7,87,71.8c0,2,0.5,3.5,1.6,4.6s2.6,1.6,4.5,1.6
			c1.5,0,2.8-0.2,3.7-0.7s1.9-1.2,2.8-2.4h0.1l1,2.7h3.7V64.6C104.5,62.2,103.8,60.5,102.4,59.3z M99.2,70.2c0,1.2-0.4,2.1-1.1,2.8
			s-1.7,1.1-3,1.1c-1.7,0-2.6-0.8-2.6-2.3c0-1.1,0.4-1.8,1.1-2.4s1.9-0.8,3.5-0.8l2.1-0.1V70.2z"/>
		<path class="st65" d="M115.4,67.6c0-1.6,0.5-2.8,1.4-3.7s2.3-1.3,4-1.3c0.6,0,1.1,0.1,1.6,0.2l0.4-5c-0.5-0.1-1.1-0.2-1.8-0.2
			c-1.2,0-2.3,0.3-3.4,1s-1.9,1.6-2.5,2.7h-0.3l-0.8-3.3H110v19.7h5.4V67.6z"/>
		<path class="st65" d="M128.4,76.4c1,1.1,2.5,1.6,4.7,1.6c1.9,0,3.6-0.3,4.9-0.9v-4c-1.3,0.4-2.4,0.6-3.4,0.6
			c-0.7,0-1.3-0.2-1.7-0.5s-0.6-0.9-0.6-1.7V62h5.5v-4h-5.5v-4.2h-3.4l-1.5,4.1l-3,1.8V62h2.6v9.5C127,73.7,127.4,75.3,128.4,76.4z"
			/>
		<path class="st65" d="M37.2,106.6h-0.1L31,87h-7.4v25.7h4.9v-12c0-1.4-0.1-4.1-0.3-8.2h0.2l6.2,20.2h5l6.6-20.1h0.2
			c-0.1,3.2-0.2,5.2-0.2,6s0,1.4,0,2v12.2H51V87h-7.4L37.2,106.6z"/>
		<path class="st65" d="M70.5,93.9c-1.4-0.8-3.1-1.2-5-1.2c-3,0-5.4,0.9-7.1,2.7s-2.5,4.3-2.5,7.5c0,2.1,0.4,3.9,1.2,5.4
			s1.9,2.7,3.3,3.6s3.1,1.2,5,1.2c3,0,5.4-0.9,7-2.7s2.5-4.3,2.5-7.5c0-2.1-0.4-3.9-1.2-5.4S71.9,94.7,70.5,93.9z M68.5,107.2
			c-0.6,1-1.7,1.5-3.1,1.5c-1.4,0-2.5-0.5-3.1-1.5s-1-2.5-1-4.4c0-2,0.3-3.4,0.9-4.4S64,97,65.4,97c1.4,0,2.5,0.5,3.1,1.5
			s0.9,2.4,0.9,4.4C69.5,104.7,69.2,106.2,68.5,107.2z"/>
		<path class="st65" d="M86,108.2c-0.4-0.4-0.6-0.9-0.6-1.7V97h5.5v-4h-5.5v-4.2h-3.4L80.4,93l-3,1.8V97H80v9.5
			c0,2.2,0.5,3.8,1.5,4.9s2.5,1.6,4.7,1.6c1.9,0,3.6-0.3,4.9-0.9v-4c-1.3,0.4-2.4,0.6-3.4,0.6C87,108.7,86.4,108.5,86,108.2z"/>
		<path class="st65" d="M97.7,85.3c-1.9,0-2.9,0.9-2.9,2.6c0,1.8,1,2.6,2.9,2.6c1,0,1.7-0.2,2.2-0.7s0.7-1.1,0.7-1.9
			C100.6,86.2,99.6,85.3,97.7,85.3z"/>
		<rect x="95" y="93" class="st65" width="5.4" height="19.7"/>
		<path class="st65" d="M119.4,93.9c-1.4-0.8-3.1-1.2-5-1.2c-3,0-5.4,0.9-7.1,2.7s-2.5,4.3-2.5,7.5c0,2.1,0.4,3.9,1.2,5.4
			s1.9,2.7,3.3,3.6s3.1,1.2,5,1.2c3,0,5.4-0.9,7-2.7s2.5-4.3,2.5-7.5c0-2.1-0.4-3.9-1.2-5.4S120.8,94.7,119.4,93.9z M117.4,107.2
			c-0.6,1-1.7,1.5-3.1,1.5c-1.4,0-2.5-0.5-3.1-1.5s-1-2.5-1-4.4c0-2,0.3-3.4,0.9-4.4s1.7-1.5,3.1-1.5c1.4,0,2.5,0.5,3.1,1.5
			s0.9,2.4,0.9,4.4C118.4,104.7,118.1,106.2,117.4,107.2z"/>
		<path class="st65" d="M144.7,94.5c-1.2-1.2-2.9-1.9-5.2-1.9c-1.3,0-2.5,0.2-3.6,0.7s-1.9,1.2-2.5,2.2h-0.3l-0.7-2.5h-4.1v19.7h5.4
			v-9.2c0-2.3,0.3-4,1-5s1.8-1.5,3.3-1.5c1.1,0,1.9,0.4,2.4,1.1s0.8,1.8,0.8,3.2v11.5h5.4V99.8C146.4,97.5,145.8,95.7,144.7,94.5z"
			/>
	</g>
</g>
<g id="Archive">
</g>
<g id="Archive_2">
</g>
<g id="Layer_6">
</g>
</svg>
