<?xml version="1.0" encoding="utf-8"?>
<!-- Generator: Adobe Illustrator 18.0.0, SVG Export Plug-In . SVG Version: 6.00 Build 0)  -->
<!DOCTYPE svg PUBLIC "-//W3C//DTD SVG 1.1//EN" "http://www.w3.org/Graphics/SVG/1.1/DTD/svg11.dtd">
<svg version="1.1" xmlns="http://www.w3.org/2000/svg" xmlns:xlink="http://www.w3.org/1999/xlink" x="0px" y="0px"
	 viewBox="0 0 170 170" style="enable-background:new 0 0 170 170;" xml:space="preserve">
<style type="text/css">
	.st0{display:none;}
	.st1{display:inline;enable-background:new    ;}
	.st2{clip-path:url(#SVGID_2_);}
	.st3{clip-path:url(#SVGID_4_);}
	.st4{clip-path:url(#SVGID_6_);}
	.st5{opacity:0;clip-path:url(#SVGID_8_);}
	.st6{opacity:0;}
	.st7{clip-path:url(#SVGID_10_);}
	.st8{clip-path:url(#SVGID_14_);}
	.st9{clip-path:url(#SVGID_16_);}
	.st10{clip-path:url(#SVGID_18_);}
	.st11{clip-path:url(#SVGID_20_);}
	.st12{clip-path:url(#SVGID_24_);}
	.st13{clip-path:url(#SVGID_26_);}
	.st14{clip-path:url(#SVGID_28_);}
	.st15{opacity:0;clip-path:url(#SVGID_30_);}
	.st16{clip-path:url(#SVGID_32_);}
	.st17{clip-path:url(#SVGID_36_);}
	.st18{clip-path:url(#SVGID_38_);}
	.st19{clip-path:url(#SVGID_40_);}
	.st20{clip-path:url(#SVGID_42_);}
	.st21{clip-path:url(#SVGID_46_);}
	.st22{clip-path:url(#SVGID_48_);}
	.st23{clip-path:url(#SVGID_50_);}
	.st24{opacity:0;clip-path:url(#SVGID_52_);}
	.st25{clip-path:url(#SVGID_54_);}
	.st26{clip-path:url(#SVGID_58_);}
	.st27{clip-path:url(#SVGID_60_);}
	.st28{clip-path:url(#SVGID_62_);}
	.st29{clip-path:url(#SVGID_64_);}
	.st30{clip-path:url(#SVGID_68_);}
	.st31{clip-path:url(#SVGID_70_);}
	.st32{clip-path:url(#SVGID_72_);}
	.st33{opacity:0;clip-path:url(#SVGID_74_);}
	.st34{clip-path:url(#SVGID_76_);}
	.st35{clip-path:url(#SVGID_80_);}
	.st36{clip-path:url(#SVGID_82_);}
	.st37{clip-path:url(#SVGID_84_);}
	.st38{clip-path:url(#SVGID_86_);}
	.st39{clip-path:url(#SVGID_90_);}
	.st40{clip-path:url(#SVGID_92_);}
	.st41{clip-path:url(#SVGID_94_);}
	.st42{opacity:0;clip-path:url(#SVGID_96_);}
	.st43{clip-path:url(#SVGID_98_);}
	.st44{clip-path:url(#SVGID_102_);}
	.st45{clip-path:url(#SVGID_104_);}
	.st46{clip-path:url(#SVGID_106_);}
	.st47{clip-path:url(#SVGID_108_);}
	.st48{clip-path:url(#SVGID_112_);}
	.st49{clip-path:url(#SVGID_114_);}
	.st50{clip-path:url(#SVGID_116_);}
	.st51{opacity:0;clip-path:url(#SVGID_118_);}
	.st52{clip-path:url(#SVGID_120_);}
	.st53{clip-path:url(#SVGID_124_);}
	.st54{clip-path:url(#SVGID_126_);}
	.st55{clip-path:url(#SVGID_128_);}
	.st56{clip-path:url(#SVGID_130_);}
	.st57{display:inline;}
	.st58{fill:#666666;stroke:#FFFFFF;stroke-width:2;stroke-linecap:round;stroke-linejoin:round;stroke-miterlimit:10;}
	.st59{fill:none;stroke:#FFFFFF;stroke-width:1.8;stroke-miterlimit:10;}
	.st60{display:inline;opacity:0.3;}
	.st61{fill:none;stroke:#F2F2F2;stroke-width:0.5;stroke-miterlimit:10;}
	.st62{fill:#FFFFFF;}
	.st63{fill:#989898;}
	.st64{fill:#CBCBCB;}
	.st65{fill:#E5E5E5;}
	.st66{fill:#666666;stroke:#FFFFFF;stroke-width:3;stroke-linecap:round;stroke-linejoin:round;stroke-miterlimit:10;}
	.st67{fill:#666666;stroke:#FFFFFF;stroke-width:2;stroke-miterlimit:10;}
	.st68{fill:none;stroke:#989898;stroke-width:2;stroke-miterlimit:10;}
	.st69{fill:#CCCCCC;}
	.st70{fill:none;stroke:#CCCCCC;stroke-miterlimit:10;}
	.st71{fill:none;stroke:#989898;stroke-width:3;stroke-linejoin:round;stroke-miterlimit:10;}
	.st72{fill:none;}
	.st73{fill:#B2B2B2;}
	.st74{fill:#4D4D4D;}
	.st75{fill:#666666;}
	.st76{fill:#F1F1F1;}
	.st77{fill:none;stroke:#CBCBCB;stroke-width:3;stroke-linecap:round;stroke-linejoin:round;stroke-miterlimit:10;}
	.st78{fill:#808080;}
	.st79{fill:url(#SVGID_133_);}
	.st80{fill:#999999;}
	.st81{fill:none;stroke:#B2B2B2;stroke-miterlimit:10;}
	.st82{fill:none;stroke:#F1F1F1;stroke-width:1.6;stroke-miterlimit:10;}
	.st83{fill:none;stroke:#CBCBCB;stroke-linecap:round;stroke-linejoin:round;stroke-miterlimit:10;}
	.st84{fill:none;stroke:#FFFFFF;stroke-miterlimit:10;}
	.st85{fill:none;stroke:#989898;stroke-width:3;stroke-linecap:round;stroke-linejoin:round;stroke-miterlimit:10;}
	.st86{opacity:0.5;fill:#666666;}
	.st87{fill:none;stroke:#E5E5E5;stroke-width:2;stroke-linecap:round;stroke-linejoin:round;stroke-miterlimit:10;}
	.st88{fill:none;stroke:#CCCCCC;stroke-width:3;stroke-miterlimit:10;}
	.st89{fill:#FFFFFF;stroke:#FFFFFF;stroke-miterlimit:10;}
	.st90{fill:none;stroke:#FFFFFF;stroke-width:3;stroke-miterlimit:10;}
	.st91{fill:none;stroke:#FFFFFF;stroke-width:2;stroke-miterlimit:10;}
	.st92{fill:none;stroke:#FFFFFF;stroke-width:3;stroke-linecap:round;stroke-linejoin:round;stroke-miterlimit:10;}
</style>
<g id="Layer_2" class="st0">
	<g class="st1">
		<g>
			<defs>
				<rect id="SVGID_89_" x="-23.3" y="-214.6" width="399.3" height="404.9"/>
			</defs>
			<clipPath id="SVGID_2_">
				<use xlink:href="#SVGID_89_"  style="overflow:visible;"/>
			</clipPath>
			<g class="st2">
				<defs>
					<rect id="SVGID_91_" x="-23.3" y="-485.5" width="399.3" height="696.5"/>
				</defs>
				<clipPath id="SVGID_4_">
					<use xlink:href="#SVGID_91_"  style="overflow:visible;"/>
				</clipPath>
				<g class="st3">
					<defs>
						<rect id="SVGID_93_" x="-23.3" y="-214.6" width="399.3" height="404.9"/>
					</defs>
					<clipPath id="SVGID_6_">
						<use xlink:href="#SVGID_93_"  style="overflow:visible;"/>
					</clipPath>
					<g class="st4">
						<defs>
							<rect id="SVGID_95_" x="-23.3" y="-214.6" width="399.3" height="404.9"/>
						</defs>
						<clipPath id="SVGID_8_">
							<use xlink:href="#SVGID_95_"  style="overflow:visible;"/>
						</clipPath>
						<g class="st5">
							<g class="st6">
								<g>
									<defs>
										<rect id="SVGID_97_" x="-23.3" y="-214.6" width="399.3" height="404.9"/>
									</defs>
									<clipPath id="SVGID_10_">
										<use xlink:href="#SVGID_97_"  style="overflow:visible;"/>
									</clipPath>
									<g class="st7">
										<defs>
											<rect id="SVGID_99_" x="-23.3" y="-214.6" width="399.3" height="404.9"/>
										</defs>
										<clipPath id="SVGID_12_">
											<use xlink:href="#SVGID_99_"  style="overflow:visible;"/>
										</clipPath>
										<g style="clip-path:url(#SVGID_12_);">
											
												<image style="overflow:visible;" width="1664" height="1687" xlink:href="13B9FCE77E4DFCC1.jpg"  transform="matrix(0.24 0 0 0.24 -23.2843 -214.5901)">
											</image>
										</g>
									</g>
								</g>
							</g>
						</g>
					</g>
				</g>
			</g>
			<g class="st2">
				<defs>
					<rect id="SVGID_101_" x="-23.3" y="-485.5" width="399.3" height="696.5"/>
				</defs>
				<clipPath id="SVGID_14_">
					<use xlink:href="#SVGID_101_"  style="overflow:visible;"/>
				</clipPath>
				<g class="st8">
					<defs>
						<rect id="SVGID_103_" x="-23.3" y="-214.6" width="399.3" height="404.9"/>
					</defs>
					<clipPath id="SVGID_16_">
						<use xlink:href="#SVGID_103_"  style="overflow:visible;"/>
					</clipPath>
					<g class="st9">
						<defs>
							<rect id="SVGID_105_" x="-23.3" y="-214.6" width="399.3" height="404.9"/>
						</defs>
						<clipPath id="SVGID_18_">
							<use xlink:href="#SVGID_105_"  style="overflow:visible;"/>
						</clipPath>
						<g class="st10">
							<g>
								<defs>
									<rect id="SVGID_107_" x="-23.3" y="-215" width="399.3" height="404.9"/>
								</defs>
								<clipPath id="SVGID_20_">
									<use xlink:href="#SVGID_107_"  style="overflow:visible;"/>
								</clipPath>
								<g class="st11">
									<defs>
										<rect id="SVGID_109_" x="-23.3" y="-215" width="399.3" height="404.9"/>
									</defs>
									<clipPath id="SVGID_22_">
										<use xlink:href="#SVGID_109_"  style="overflow:visible;"/>
									</clipPath>
									<g style="clip-path:url(#SVGID_22_);">
										
											<image style="overflow:visible;" width="1664" height="1687" xlink:href="13B9FCE77E4DFCC3.jpg"  transform="matrix(0.24 0 0 0.24 -23.2843 -215.0417)">
										</image>
									</g>
								</g>
							</g>
						</g>
					</g>
				</g>
			</g>
		</g>
	</g>
</g>
<g id="GRIDS" class="st0">
	<g class="st60">
		<rect x="-0.1" class="st61" width="170" height="170"/>
		<line class="st61" x1="-0.1" y1="0" x2="169.9" y2="170"/>
		<line class="st61" x1="169.9" y1="0" x2="-0.1" y2="170"/>
		<line class="st61" x1="-0.1" y1="85" x2="169.9" y2="85"/>
		<line class="st61" x1="-0.1" y1="54" x2="169.9" y2="54"/>
		<line class="st61" x1="-0.1" y1="116" x2="169.9" y2="116"/>
		<line class="st61" x1="-0.1" y1="11" x2="169.9" y2="11"/>
		<line class="st61" x1="-0.1" y1="159" x2="169.9" y2="159"/>
		<line class="st61" x1="84.9" y1="0" x2="84.9" y2="170"/>
		<line class="st61" x1="158.9" y1="0" x2="158.9" y2="170"/>
		<circle class="st61" cx="84.9" cy="85" r="31"/>
		<circle class="st61" cx="84.9" cy="85" r="44"/>
		<circle class="st61" cx="84.9" cy="85" r="74"/>
		<line class="st61" x1="53.9" y1="0" x2="53.9" y2="170"/>
		<line class="st61" x1="10.9" y1="0" x2="10.9" y2="170"/>
		<line class="st61" x1="115.9" y1="0" x2="115.9" y2="170"/>
	</g>
</g>
<g id="MOTION_PROTECT">
	<g>
		<g>
			<g>
				<path class="st62" d="M77.2,77.9C77.2,77.9,77.2,77.9,77.2,77.9H41.9c-0.6,0-1.1-0.3-1.3-0.8c-0.3-0.5-0.2-1.1,0.1-1.6
					l17.6-27.5c0.3-0.4,0.8-0.7,1.3-0.7s1,0.3,1.3,0.7l17.6,27.4c0.2,0.3,0.3,0.6,0.3,0.9C78.8,77.2,78.1,77.9,77.2,77.9z
					 M44.7,74.8h29.7L59.6,51.7L44.7,74.8z"/>
			</g>
			<g>
				<g>
					<path class="st62" d="M58,70.8c0-1.8,3.2-1.8,3.2,0v0.4c0,2.1-3.2,2.1-3.2,0V70.8z M58.1,59.1c0-2.1,2.9-1.9,2.9,0v7.4
						c0,1.6-2.9,1.8-2.9,0V59.1z"/>
				</g>
			</g>
		</g>
		<path class="st62" d="M126.5,60.3c-0.2-0.6-0.8-1-1.5-1l-7.1,0l3-10.6c0.2-0.7-0.1-1.4-0.7-1.8c-0.6-0.4-1.4-0.3-1.9,0.2l-16,15.9
			c-0.5,0.5-0.6,1.1-0.4,1.7c0.2,0.6,0.8,1,1.5,1l7.3,0l-3.4,10.6c-0.2,0.7,0.1,1.5,0.7,1.8c0.3,0.2,0.5,0.2,0.8,0.2
			c0.4,0,0.8-0.2,1.1-0.5l16.2-16C126.6,61.6,126.8,60.9,126.5,60.3z M112.3,71.3l2.1-6.6c0.2-0.5,0.1-1-0.2-1.4
			c-0.3-0.4-0.8-0.7-1.3-0.7l-5.7,0l9-8.9l-1.9,6.8c-0.1,0.5,0,1,0.3,1.4c0.3,0.4,0.8,0.6,1.3,0.6l5.3,0L112.3,71.3z"/>
		<g>
			<g>
				<path class="st62" d="M59.5,123.3c-4.2,0-7.6-3.4-7.6-7.6c0-4.2,3.4-7.6,7.6-7.6s7.6,3.4,7.6,7.6
					C67.1,119.9,63.7,123.3,59.5,123.3z M59.5,111.4c-2.3,0-4.2,1.9-4.2,4.2c0,2.3,1.9,4.2,4.2,4.2c2.3,0,4.2-1.9,4.2-4.2
					C63.8,113.3,61.9,111.4,59.5,111.4z"/>
			</g>
			<g>
				<path class="st62" d="M72.2,104.7c-0.4,0-0.9-0.2-1.2-0.5c-3.1-3.1-7.1-4.8-11.5-4.8c-4.3,0-8.4,1.7-11.5,4.8
					c-0.7,0.7-1.7,0.7-2.4,0s-0.7-1.7,0-2.4c3.7-3.7,8.6-5.7,13.9-5.7c5.2,0,10.2,2,13.9,5.7c0.7,0.7,0.7,1.7,0,2.4
					C73.1,104.5,72.6,104.7,72.2,104.7z"/>
			</g>
			<g>
				<path class="st62" d="M68,108.9c-0.4,0-0.9-0.2-1.2-0.5c-1.9-1.9-4.5-3-7.2-3c-2.7,0-5.3,1.1-7.2,3c-0.7,0.7-1.7,0.7-2.4,0
					s-0.7-1.7,0-2.4c2.6-2.6,6-4,9.6-4c3.6,0,7,1.4,9.6,4c0.7,0.7,0.7,1.7,0,2.4C68.8,108.8,68.4,108.9,68,108.9z"/>
			</g>
		</g>
		<rect x="101" y="103.8" class="st75" width="17.3" height="11.7"/>
		<path class="st62" d="M127.9,105.7h-0.5v-2c0-1.8-1.5-3.2-3.2-3.2h-23.3c-1.8,0-3.2,1.5-3.2,3.2v11.9c0,1.8,1.5,3.2,3.2,3.2h23.3
			c1.8,0,3.2-1.5,3.2-3.2v-2.3h0.5c0.9,0,1.7-0.7,1.7-1.7v-4.3C129.6,106.5,128.9,105.7,127.9,105.7z M124.1,115.5H101v-11.7h23.1
			v3.6v4.3V115.5z"/>
	</g>
</g>
<g id="Archive">
</g>
<g id="Archive_2">
</g>
<g id="Layer_6">
</g>
</svg>
