<?xml version="1.0" encoding="utf-8"?>
<!-- Generator: Adobe Illustrator 18.0.0, SVG Export Plug-In . SVG Version: 6.00 Build 0)  -->
<!DOCTYPE svg PUBLIC "-//W3C//DTD SVG 1.1//EN" "http://www.w3.org/Graphics/SVG/1.1/DTD/svg11.dtd">
<svg version="1.1" xmlns="http://www.w3.org/2000/svg" xmlns:xlink="http://www.w3.org/1999/xlink" x="0px" y="0px"
	 viewBox="0 0 170 170" style="enable-background:new 0 0 170 170;" xml:space="preserve">
<style type="text/css">
	.st0{display:none;}
	.st1{display:inline;enable-background:new    ;}
	.st2{clip-path:url(#SVGID_2_);}
	.st3{clip-path:url(#SVGID_4_);}
	.st4{clip-path:url(#SVGID_6_);}
	.st5{opacity:0;clip-path:url(#SVGID_8_);}
	.st6{opacity:0;}
	.st7{clip-path:url(#SVGID_10_);}
	.st8{clip-path:url(#SVGID_14_);}
	.st9{clip-path:url(#SVGID_16_);}
	.st10{clip-path:url(#SVGID_18_);}
	.st11{clip-path:url(#SVGID_20_);}
	.st12{clip-path:url(#SVGID_24_);}
	.st13{clip-path:url(#SVGID_26_);}
	.st14{clip-path:url(#SVGID_28_);}
	.st15{opacity:0;clip-path:url(#SVGID_30_);}
	.st16{clip-path:url(#SVGID_32_);}
	.st17{clip-path:url(#SVGID_36_);}
	.st18{clip-path:url(#SVGID_38_);}
	.st19{clip-path:url(#SVGID_40_);}
	.st20{clip-path:url(#SVGID_42_);}
	.st21{clip-path:url(#SVGID_46_);}
	.st22{clip-path:url(#SVGID_48_);}
	.st23{clip-path:url(#SVGID_50_);}
	.st24{opacity:0;clip-path:url(#SVGID_52_);}
	.st25{clip-path:url(#SVGID_54_);}
	.st26{clip-path:url(#SVGID_58_);}
	.st27{clip-path:url(#SVGID_60_);}
	.st28{clip-path:url(#SVGID_62_);}
	.st29{clip-path:url(#SVGID_64_);}
	.st30{clip-path:url(#SVGID_68_);}
	.st31{clip-path:url(#SVGID_70_);}
	.st32{clip-path:url(#SVGID_72_);}
	.st33{opacity:0;clip-path:url(#SVGID_74_);}
	.st34{clip-path:url(#SVGID_76_);}
	.st35{clip-path:url(#SVGID_80_);}
	.st36{clip-path:url(#SVGID_82_);}
	.st37{clip-path:url(#SVGID_84_);}
	.st38{clip-path:url(#SVGID_86_);}
	.st39{clip-path:url(#SVGID_90_);}
	.st40{clip-path:url(#SVGID_92_);}
	.st41{clip-path:url(#SVGID_94_);}
	.st42{opacity:0;clip-path:url(#SVGID_96_);}
	.st43{clip-path:url(#SVGID_98_);}
	.st44{clip-path:url(#SVGID_102_);}
	.st45{clip-path:url(#SVGID_104_);}
	.st46{clip-path:url(#SVGID_106_);}
	.st47{clip-path:url(#SVGID_108_);}
	.st48{clip-path:url(#SVGID_112_);}
	.st49{clip-path:url(#SVGID_114_);}
	.st50{clip-path:url(#SVGID_116_);}
	.st51{opacity:0;clip-path:url(#SVGID_118_);}
	.st52{clip-path:url(#SVGID_120_);}
	.st53{clip-path:url(#SVGID_124_);}
	.st54{clip-path:url(#SVGID_126_);}
	.st55{clip-path:url(#SVGID_128_);}
	.st56{clip-path:url(#SVGID_130_);}
	.st57{display:inline;}
	.st58{fill:#666666;stroke:#FFFFFF;stroke-width:2;stroke-linecap:round;stroke-linejoin:round;stroke-miterlimit:10;}
	.st59{fill:none;stroke:#FFFFFF;stroke-width:1.8;stroke-miterlimit:10;}
	.st60{display:inline;opacity:0.3;}
	.st61{fill:none;stroke:#F2F2F2;stroke-width:0.5;stroke-miterlimit:10;}
	.st62{fill:#FFFFFF;}
	.st63{fill:#989898;}
	.st64{fill:#CBCBCB;}
	.st65{fill:#E5E5E5;}
	.st66{fill:#666666;stroke:#FFFFFF;stroke-width:3;stroke-linecap:round;stroke-linejoin:round;stroke-miterlimit:10;}
	.st67{fill:#666666;stroke:#FFFFFF;stroke-width:2;stroke-miterlimit:10;}
	.st68{fill:none;stroke:#989898;stroke-width:2;stroke-miterlimit:10;}
	.st69{fill:#CCCCCC;}
	.st70{fill:none;stroke:#CCCCCC;stroke-miterlimit:10;}
	.st71{fill:none;stroke:#989898;stroke-width:3;stroke-linejoin:round;stroke-miterlimit:10;}
	.st72{fill:none;}
	.st73{fill:#B2B2B2;}
	.st74{fill:#4D4D4D;}
	.st75{fill:#666666;}
	.st76{fill:#F1F1F1;}
	.st77{fill:none;stroke:#CBCBCB;stroke-width:3;stroke-linecap:round;stroke-linejoin:round;stroke-miterlimit:10;}
	.st78{fill:#808080;}
	.st79{fill:url(#SVGID_133_);}
	.st80{fill:#999999;}
	.st81{fill:none;stroke:#B2B2B2;stroke-miterlimit:10;}
	.st82{fill:none;stroke:#F1F1F1;stroke-width:1.6;stroke-miterlimit:10;}
	.st83{fill:none;stroke:#CBCBCB;stroke-linecap:round;stroke-linejoin:round;stroke-miterlimit:10;}
	.st84{fill:none;stroke:#FFFFFF;stroke-miterlimit:10;}
	.st85{fill:none;stroke:#989898;stroke-width:3;stroke-linecap:round;stroke-linejoin:round;stroke-miterlimit:10;}
	.st86{opacity:0.5;fill:#666666;}
	.st87{fill:none;stroke:#E5E5E5;stroke-width:2;stroke-linecap:round;stroke-linejoin:round;stroke-miterlimit:10;}
	.st88{fill:none;stroke:#CCCCCC;stroke-width:3;stroke-miterlimit:10;}
	.st89{fill:#FFFFFF;stroke:#FFFFFF;stroke-miterlimit:10;}
	.st90{fill:none;stroke:#FFFFFF;stroke-width:3;stroke-miterlimit:10;}
	.st91{fill:none;stroke:#FFFFFF;stroke-width:2;stroke-miterlimit:10;}
	.st92{fill:none;stroke:#FFFFFF;stroke-width:3;stroke-linecap:round;stroke-linejoin:round;stroke-miterlimit:10;}
</style>
<g id="Layer_2" class="st0">
	<g class="st1">
		<g>
			<defs>
				<rect id="SVGID_23_" x="-20.5" y="-402.2" width="399.3" height="601.2"/>
			</defs>
			<clipPath id="SVGID_2_">
				<use xlink:href="#SVGID_23_"  style="overflow:visible;"/>
			</clipPath>
			<g class="st2">
				<defs>
					<rect id="SVGID_25_" x="-20.5" y="-804.4" width="399.3" height="1034.2"/>
				</defs>
				<clipPath id="SVGID_4_">
					<use xlink:href="#SVGID_25_"  style="overflow:visible;"/>
				</clipPath>
				<g class="st3">
					<defs>
						<rect id="SVGID_27_" x="-20.5" y="-402.2" width="399.3" height="601.2"/>
					</defs>
					<clipPath id="SVGID_6_">
						<use xlink:href="#SVGID_27_"  style="overflow:visible;"/>
					</clipPath>
					<g class="st4">
						<defs>
							<rect id="SVGID_29_" x="-20.5" y="-402.2" width="399.3" height="601.2"/>
						</defs>
						<clipPath id="SVGID_8_">
							<use xlink:href="#SVGID_29_"  style="overflow:visible;"/>
						</clipPath>
						<g class="st5">
							<g class="st6">
								<g>
									<defs>
										<rect id="SVGID_31_" x="-20.5" y="-402.2" width="399.3" height="601.2"/>
									</defs>
									<clipPath id="SVGID_10_">
										<use xlink:href="#SVGID_31_"  style="overflow:visible;"/>
									</clipPath>
									<g class="st7">
										<defs>
											<rect id="SVGID_33_" x="-20.5" y="-402.2" width="399.3" height="601.2"/>
										</defs>
										<clipPath id="SVGID_12_">
											<use xlink:href="#SVGID_33_"  style="overflow:visible;"/>
										</clipPath>
										<g style="clip-path:url(#SVGID_12_);">
											
												<image style="overflow:visible;" width="1664" height="2505" xlink:href="D9FD77D3701ADE4C.jpg"  transform="matrix(0.24 0 0 0.24 -20.4944 -402.171)">
											</image>
										</g>
									</g>
								</g>
							</g>
						</g>
					</g>
				</g>
			</g>
			<g class="st2">
				<defs>
					<rect id="SVGID_35_" x="-20.5" y="-804.4" width="399.3" height="1034.2"/>
				</defs>
				<clipPath id="SVGID_14_">
					<use xlink:href="#SVGID_35_"  style="overflow:visible;"/>
				</clipPath>
				<g class="st8">
					<defs>
						<rect id="SVGID_37_" x="-20.5" y="-402.2" width="399.3" height="601.2"/>
					</defs>
					<clipPath id="SVGID_16_">
						<use xlink:href="#SVGID_37_"  style="overflow:visible;"/>
					</clipPath>
					<g class="st9">
						<defs>
							<rect id="SVGID_39_" x="-20.5" y="-402.2" width="399.3" height="601.2"/>
						</defs>
						<clipPath id="SVGID_18_">
							<use xlink:href="#SVGID_39_"  style="overflow:visible;"/>
						</clipPath>
						<g class="st10">
							<g>
								<defs>
									<rect id="SVGID_41_" x="-20.5" y="-402.8" width="399.3" height="601.2"/>
								</defs>
								<clipPath id="SVGID_20_">
									<use xlink:href="#SVGID_41_"  style="overflow:visible;"/>
								</clipPath>
								<g class="st11">
									<defs>
										<rect id="SVGID_43_" x="-20.5" y="-402.8" width="399.3" height="601.2"/>
									</defs>
									<clipPath id="SVGID_22_">
										<use xlink:href="#SVGID_43_"  style="overflow:visible;"/>
									</clipPath>
									<g style="clip-path:url(#SVGID_22_);">
										
											<image style="overflow:visible;" width="1664" height="2505" xlink:href="D9FD77D3701ADE4D.jpg"  transform="matrix(0.24 0 0 0.24 -20.4944 -402.8419)">
										</image>
									</g>
								</g>
							</g>
						</g>
					</g>
				</g>
			</g>
		</g>
	</g>
</g>
<g id="GRIDS" class="st0">
	<g class="st60">
		<rect x="0" class="st61" width="170" height="170"/>
		<line class="st61" x1="0" y1="0" x2="170" y2="170"/>
		<line class="st61" x1="170" y1="0" x2="0" y2="170"/>
		<line class="st61" x1="0" y1="85" x2="170" y2="85"/>
		<line class="st61" x1="0" y1="54" x2="170" y2="54"/>
		<line class="st61" x1="0" y1="116" x2="170" y2="116"/>
		<line class="st61" x1="0" y1="11" x2="170" y2="11"/>
		<line class="st61" x1="0" y1="159" x2="170" y2="159"/>
		<line class="st61" x1="85" y1="0" x2="85" y2="170"/>
		<line class="st61" x1="159" y1="0" x2="159" y2="170"/>
		<circle class="st61" cx="85" cy="85" r="31"/>
		<circle class="st61" cx="85" cy="85" r="44"/>
		<circle class="st61" cx="85" cy="85" r="74"/>
		<line class="st61" x1="54" y1="0" x2="54" y2="170"/>
		<line class="st61" x1="11" y1="0" x2="11" y2="170"/>
		<line class="st61" x1="116" y1="0" x2="116" y2="170"/>
	</g>
</g>
<g id="MOTION_PROTECT">
	<line class="st71" x1="45.6" y1="107.6" x2="124.1" y2="107.6"/>
	<g>
		<path class="st62" d="M82.1,89.4H65v-3.6l6.1-6.2c1.8-1.9,3-3.1,3.6-3.9s1-1.4,1.2-2s0.4-1.2,0.4-1.9c0-1-0.3-1.7-0.8-2.2
			c-0.5-0.5-1.3-0.7-2.2-0.7c-0.9,0-1.9,0.2-2.8,0.7c-0.9,0.4-1.8,1.1-2.8,1.9l-2.8-3.3c1.2-1,2.2-1.7,3-2.2c0.8-0.4,1.7-0.7,2.6-1
			c0.9-0.2,2-0.3,3.1-0.3c1.5,0,2.9,0.3,4,0.8c1.2,0.6,2.1,1.3,2.7,2.3c0.6,1,1,2.1,1,3.4c0,1.1-0.2,2.2-0.6,3.2s-1,2-1.8,3
			c-0.8,1-2.3,2.5-4.4,4.4l-3.1,3v0.2h10.6V89.4z"/>
		<path class="st73" d="M94,89.7c-1.9,0-3.3-0.6-4.4-1.8C88.6,86.7,88,85.1,88,83c0-2.2,0.6-3.9,1.7-5.1c1.1-1.2,2.6-1.8,4.5-1.8
			c1.1,0,2.2,0.2,3.3,0.6l-0.3,1.1c-1.1-0.4-2.1-0.6-3-0.6c-1.6,0-2.8,0.5-3.7,1.5s-1.2,2.4-1.2,4.3c0,1.8,0.4,3.2,1.2,4.2
			c0.8,1,2,1.5,3.5,1.5c1.2,0,2.3-0.2,3.3-0.6v1.1C96.5,89.5,95.4,89.7,94,89.7z"/>
		<path class="st73" d="M106.6,88.1l0.7-2.1l3.8-9.7h1.7v13.1h-1.1V77.8c-0.2,0.5-0.4,1-0.6,1.6c-0.2,0.5-1.5,3.9-3.9,10.1h-1.1
			l-3.6-9.2c-0.2-0.4-0.3-0.8-0.4-1.2s-0.3-0.9-0.4-1.3v11.7h-1.1V76.3h1.6l3.8,9.7C106.2,86.7,106.5,87.5,106.6,88.1z"/>
	</g>
	<g>
		<path class="st76" d="M39.3,53.6h-5.6c-3.5,0-6.4,2.9-6.4,6.4V126c0,3.5,2.9,6.4,6.4,6.4h5.6c3.5,0,6.4-2.9,6.4-6.4V60
			C45.7,56.5,42.8,53.6,39.3,53.6z M43.7,126c0,2.4-2,4.4-4.4,4.4h-5.6c-2.4,0-4.4-2-4.4-4.4V60c0-2.4,2-4.4,4.4-4.4h5.6
			c2.4,0,4.4,2,4.4,4.4V126z"/>
		<path class="st76" d="M30.6,63.7l-1.3,2l7.6,2.8l6.7-2.7l-1.3-2H30.6z M36.9,67.4l-6-2.2l0.3-0.5h10.6l0.4,0.6L36.9,67.4z"/>
		<polygon class="st76" points="39.1,122.1 39.7,122.1 40.5,121.4 39.8,121.4 		"/>
		<polygon class="st76" points="41.6,119.9 40.8,120.6 41.5,120.6 42.2,119.9 		"/>
		<polygon class="st76" points="35.5,122.1 36,122.1 37,120.7 36.5,120.7 		"/>
		<polygon class="st76" points="36.8,120.3 38.1,122.1 38.6,122.1 37.1,119.9 		"/>
		<polygon class="st76" points="39.1,119.9 41.6,122.1 41.6,122.1 42.2,122.1 39.7,119.9 		"/>
		<polygon class="st76" points="30.8,122.1 31.3,122.1 32.2,120.7 31.7,120.7 		"/>
		<polygon class="st76" points="32.1,120.3 33.4,122.1 33.9,122.1 32.3,119.9 		"/>
		<path class="st76" d="M34.9,121.3c0,0.2-0.1,0.5-0.5,0.5h-0.1v0.4c0,0,0.5,0,0.8-0.2c0.2-0.2,0.2-0.5,0.2-0.7v-1.3h-0.4
			L34.9,121.3z"/>
	</g>
	<g>
		<path class="st76" d="M136.1,53.6h-5.6c-3.5,0-6.4,2.9-6.4,6.4V126c0,3.5,2.9,6.4,6.4,6.4h5.6c3.5,0,6.4-2.9,6.4-6.4V60
			C142.5,56.5,139.7,53.6,136.1,53.6z M140.5,126c0,2.4-2,4.4-4.4,4.4h-5.6c-2.4,0-4.4-2-4.4-4.4V60c0-2.4,2-4.4,4.4-4.4h5.6
			c2.4,0,4.4,2,4.4,4.4V126z"/>
	</g>
</g>
<g id="Archive">
</g>
<g id="Archive_2">
</g>
<g id="Layer_6">
</g>
</svg>
