<?xml version="1.0" encoding="utf-8"?>
<!-- Generator: Adobe Illustrator 18.0.0, SVG Export Plug-In . SVG Version: 6.00 Build 0)  -->
<!DOCTYPE svg PUBLIC "-//W3C//DTD SVG 1.1//EN" "http://www.w3.org/Graphics/SVG/1.1/DTD/svg11.dtd">
<svg version="1.1" xmlns="http://www.w3.org/2000/svg" xmlns:xlink="http://www.w3.org/1999/xlink" x="0px" y="0px"
	 viewBox="0 0 170 170" style="enable-background:new 0 0 170 170;" xml:space="preserve">
<style type="text/css">
	.st0{display:none;}
	.st1{display:inline;enable-background:new    ;}
	.st2{clip-path:url(#SVGID_2_);}
	.st3{clip-path:url(#SVGID_4_);}
	.st4{clip-path:url(#SVGID_6_);}
	.st5{opacity:0;clip-path:url(#SVGID_8_);}
	.st6{opacity:0;}
	.st7{clip-path:url(#SVGID_10_);}
	.st8{clip-path:url(#SVGID_14_);}
	.st9{clip-path:url(#SVGID_16_);}
	.st10{clip-path:url(#SVGID_18_);}
	.st11{clip-path:url(#SVGID_20_);}
	.st12{clip-path:url(#SVGID_24_);}
	.st13{clip-path:url(#SVGID_26_);}
	.st14{clip-path:url(#SVGID_28_);}
	.st15{opacity:0;clip-path:url(#SVGID_30_);}
	.st16{clip-path:url(#SVGID_32_);}
	.st17{clip-path:url(#SVGID_36_);}
	.st18{clip-path:url(#SVGID_38_);}
	.st19{clip-path:url(#SVGID_40_);}
	.st20{clip-path:url(#SVGID_42_);}
	.st21{clip-path:url(#SVGID_46_);}
	.st22{clip-path:url(#SVGID_48_);}
	.st23{clip-path:url(#SVGID_50_);}
	.st24{opacity:0;clip-path:url(#SVGID_52_);}
	.st25{clip-path:url(#SVGID_54_);}
	.st26{clip-path:url(#SVGID_58_);}
	.st27{clip-path:url(#SVGID_60_);}
	.st28{clip-path:url(#SVGID_62_);}
	.st29{clip-path:url(#SVGID_64_);}
	.st30{clip-path:url(#SVGID_68_);}
	.st31{clip-path:url(#SVGID_70_);}
	.st32{clip-path:url(#SVGID_72_);}
	.st33{opacity:0;clip-path:url(#SVGID_74_);}
	.st34{clip-path:url(#SVGID_76_);}
	.st35{clip-path:url(#SVGID_80_);}
	.st36{clip-path:url(#SVGID_82_);}
	.st37{clip-path:url(#SVGID_84_);}
	.st38{clip-path:url(#SVGID_86_);}
	.st39{clip-path:url(#SVGID_90_);}
	.st40{clip-path:url(#SVGID_92_);}
	.st41{clip-path:url(#SVGID_94_);}
	.st42{opacity:0;clip-path:url(#SVGID_96_);}
	.st43{clip-path:url(#SVGID_98_);}
	.st44{clip-path:url(#SVGID_102_);}
	.st45{clip-path:url(#SVGID_104_);}
	.st46{clip-path:url(#SVGID_106_);}
	.st47{clip-path:url(#SVGID_108_);}
	.st48{clip-path:url(#SVGID_112_);}
	.st49{clip-path:url(#SVGID_114_);}
	.st50{clip-path:url(#SVGID_116_);}
	.st51{opacity:0;clip-path:url(#SVGID_118_);}
	.st52{clip-path:url(#SVGID_120_);}
	.st53{clip-path:url(#SVGID_124_);}
	.st54{clip-path:url(#SVGID_126_);}
	.st55{clip-path:url(#SVGID_128_);}
	.st56{clip-path:url(#SVGID_130_);}
	.st57{display:inline;}
	.st58{fill:#666666;stroke:#FFFFFF;stroke-width:2;stroke-linecap:round;stroke-linejoin:round;stroke-miterlimit:10;}
	.st59{fill:none;stroke:#FFFFFF;stroke-width:1.8;stroke-miterlimit:10;}
	.st60{display:inline;opacity:0.3;}
	.st61{fill:none;stroke:#F2F2F2;stroke-width:0.5;stroke-miterlimit:10;}
	.st62{fill:#FFFFFF;}
	.st63{fill:#989898;}
	.st64{fill:#CBCBCB;}
	.st65{fill:#E5E5E5;}
	.st66{fill:#666666;stroke:#FFFFFF;stroke-width:3;stroke-linecap:round;stroke-linejoin:round;stroke-miterlimit:10;}
	.st67{fill:#666666;stroke:#FFFFFF;stroke-width:2;stroke-miterlimit:10;}
	.st68{fill:none;stroke:#989898;stroke-width:2;stroke-miterlimit:10;}
	.st69{fill:#CCCCCC;}
	.st70{fill:none;stroke:#CCCCCC;stroke-miterlimit:10;}
	.st71{fill:none;stroke:#989898;stroke-width:3;stroke-linejoin:round;stroke-miterlimit:10;}
	.st72{fill:none;}
	.st73{fill:#B2B2B2;}
	.st74{fill:#4D4D4D;}
	.st75{fill:#666666;}
	.st76{fill:#F1F1F1;}
	.st77{fill:none;stroke:#CBCBCB;stroke-width:3;stroke-linecap:round;stroke-linejoin:round;stroke-miterlimit:10;}
	.st78{fill:#808080;}
	.st79{fill:url(#SVGID_133_);}
	.st80{fill:#999999;}
	.st81{fill:none;stroke:#B2B2B2;stroke-miterlimit:10;}
	.st82{fill:none;stroke:#F1F1F1;stroke-width:1.6;stroke-miterlimit:10;}
	.st83{fill:none;stroke:#CBCBCB;stroke-linecap:round;stroke-linejoin:round;stroke-miterlimit:10;}
	.st84{fill:none;stroke:#FFFFFF;stroke-miterlimit:10;}
	.st85{fill:none;stroke:#989898;stroke-width:3;stroke-linecap:round;stroke-linejoin:round;stroke-miterlimit:10;}
	.st86{opacity:0.5;fill:#666666;}
	.st87{fill:none;stroke:#E5E5E5;stroke-width:2;stroke-linecap:round;stroke-linejoin:round;stroke-miterlimit:10;}
	.st88{fill:none;stroke:#CCCCCC;stroke-width:3;stroke-miterlimit:10;}
	.st89{fill:#FFFFFF;stroke:#FFFFFF;stroke-miterlimit:10;}
	.st90{fill:none;stroke:#FFFFFF;stroke-width:3;stroke-miterlimit:10;}
	.st91{fill:none;stroke:#FFFFFF;stroke-width:2;stroke-miterlimit:10;}
	.st92{fill:none;stroke:#FFFFFF;stroke-width:3;stroke-linecap:round;stroke-linejoin:round;stroke-miterlimit:10;}
</style>
<g id="Layer_2" class="st0">
	<g class="st1">
		<g>
			<defs>
				<rect id="SVGID_23_" x="-209.2" y="-212.2" width="399.3" height="601.2"/>
			</defs>
			<clipPath id="SVGID_2_">
				<use xlink:href="#SVGID_23_"  style="overflow:visible;"/>
			</clipPath>
			<g class="st2">
				<defs>
					<rect id="SVGID_25_" x="-209.2" y="-614.4" width="399.3" height="1034.2"/>
				</defs>
				<clipPath id="SVGID_4_">
					<use xlink:href="#SVGID_25_"  style="overflow:visible;"/>
				</clipPath>
				<g class="st3">
					<defs>
						<rect id="SVGID_27_" x="-209.2" y="-212.2" width="399.3" height="601.2"/>
					</defs>
					<clipPath id="SVGID_6_">
						<use xlink:href="#SVGID_27_"  style="overflow:visible;"/>
					</clipPath>
					<g class="st4">
						<defs>
							<rect id="SVGID_29_" x="-209.2" y="-212.2" width="399.3" height="601.2"/>
						</defs>
						<clipPath id="SVGID_8_">
							<use xlink:href="#SVGID_29_"  style="overflow:visible;"/>
						</clipPath>
						<g class="st5">
							<g class="st6">
								<g>
									<defs>
										<rect id="SVGID_31_" x="-209.2" y="-212.2" width="399.3" height="601.2"/>
									</defs>
									<clipPath id="SVGID_10_">
										<use xlink:href="#SVGID_31_"  style="overflow:visible;"/>
									</clipPath>
									<g class="st7">
										<defs>
											<rect id="SVGID_33_" x="-209.2" y="-212.2" width="399.3" height="601.2"/>
										</defs>
										<clipPath id="SVGID_12_">
											<use xlink:href="#SVGID_33_"  style="overflow:visible;"/>
										</clipPath>
										<g style="clip-path:url(#SVGID_12_);">
											
												<image style="overflow:visible;" width="1664" height="2505" xlink:href="68C35D883DC2ECF7.jpg"  transform="matrix(0.24 0 0 0.24 -209.1666 -212.171)">
											</image>
										</g>
									</g>
								</g>
							</g>
						</g>
					</g>
				</g>
			</g>
			<g class="st2">
				<defs>
					<rect id="SVGID_35_" x="-209.2" y="-614.4" width="399.3" height="1034.2"/>
				</defs>
				<clipPath id="SVGID_14_">
					<use xlink:href="#SVGID_35_"  style="overflow:visible;"/>
				</clipPath>
				<g class="st8">
					<defs>
						<rect id="SVGID_37_" x="-209.2" y="-212.2" width="399.3" height="601.2"/>
					</defs>
					<clipPath id="SVGID_16_">
						<use xlink:href="#SVGID_37_"  style="overflow:visible;"/>
					</clipPath>
					<g class="st9">
						<defs>
							<rect id="SVGID_39_" x="-209.2" y="-212.2" width="399.3" height="601.2"/>
						</defs>
						<clipPath id="SVGID_18_">
							<use xlink:href="#SVGID_39_"  style="overflow:visible;"/>
						</clipPath>
						<g class="st10">
							<g>
								<defs>
									<rect id="SVGID_41_" x="-209.2" y="-212.8" width="399.3" height="601.2"/>
								</defs>
								<clipPath id="SVGID_20_">
									<use xlink:href="#SVGID_41_"  style="overflow:visible;"/>
								</clipPath>
								<g class="st11">
									<defs>
										<rect id="SVGID_43_" x="-209.2" y="-212.8" width="399.3" height="601.2"/>
									</defs>
									<clipPath id="SVGID_22_">
										<use xlink:href="#SVGID_43_"  style="overflow:visible;"/>
									</clipPath>
									<g style="clip-path:url(#SVGID_22_);">
										
											<image style="overflow:visible;" width="1664" height="2505" xlink:href="68C35D883DC2ECF5.jpg"  transform="matrix(0.24 0 0 0.24 -209.1666 -212.8419)">
										</image>
									</g>
								</g>
							</g>
						</g>
					</g>
				</g>
			</g>
		</g>
	</g>
</g>
<g id="GRIDS" class="st0">
	<g class="st60">
		<rect x="0" class="st61" width="170" height="170"/>
		<line class="st61" x1="0" y1="0" x2="170" y2="170"/>
		<line class="st61" x1="170" y1="0" x2="0" y2="170"/>
		<line class="st61" x1="0" y1="85" x2="170" y2="85"/>
		<line class="st61" x1="0" y1="54" x2="170" y2="54"/>
		<line class="st61" x1="0" y1="116" x2="170" y2="116"/>
		<line class="st61" x1="0" y1="11" x2="170" y2="11"/>
		<line class="st61" x1="0" y1="159" x2="170" y2="159"/>
		<line class="st61" x1="85" y1="0" x2="85" y2="170"/>
		<line class="st61" x1="159" y1="0" x2="159" y2="170"/>
		<circle class="st61" cx="85" cy="85" r="31"/>
		<circle class="st61" cx="85" cy="85" r="44"/>
		<circle class="st61" cx="85" cy="85" r="74"/>
		<line class="st61" x1="54" y1="0" x2="54" y2="170"/>
		<line class="st61" x1="11" y1="0" x2="11" y2="170"/>
		<line class="st61" x1="116" y1="0" x2="116" y2="170"/>
	</g>
</g>
<g id="MOTION_PROTECT">
	<g>
		<path class="st78" d="M75.8,66.3H63.3l2.1,2.1c0.4,0.4,0.4,1,0,1.4c-0.2,0.2-0.5,0.3-0.7,0.3s-0.5-0.1-0.7-0.3l-3.8-3.8
			c-0.4-0.4-0.4-1,0-1.4l3.8-3.8c0.4-0.4,1-0.4,1.4,0s0.4,1,0,1.4l-2.1,2.1h12.5c0.6,0,1,0.4,1,1S76.4,66.3,75.8,66.3z"/>
		<path class="st78" d="M63.9,80.7c0.4-0.4,1-0.4,1.4,0s0.4,1,0,1.4l-2.1,2.1h12.5c0.6,0,1,0.4,1,1s-0.4,1-1,1H63.3l2.1,2.1
			c0.4,0.4,0.4,1,0,1.4c-0.2,0.2-0.5,0.3-0.7,0.3s-0.5-0.1-0.7-0.3l-3.8-3.8c-0.4-0.4-0.4-1,0-1.4L63.9,80.7z"/>
		<path class="st78" d="M63.9,100.2c0.4-0.4,1-0.4,1.4,0s0.4,1,0,1.4l-2.1,2.1h12.5c0.6,0,1,0.4,1,1s-0.4,1-1,1H63.3l2.1,2.1
			c0.4,0.4,0.4,1,0,1.4c-0.2,0.2-0.5,0.3-0.7,0.3s-0.5-0.1-0.7-0.3l-3.8-3.8c-0.4-0.4-0.4-1,0-1.4L63.9,100.2z"/>
	</g>
	<g>
		<path class="st78" d="M94.2,66.3h12.5l-2.1,2.1c-0.4,0.4-0.4,1,0,1.4c0.2,0.2,0.5,0.3,0.7,0.3s0.5-0.1,0.7-0.3l3.8-3.8
			c0.4-0.4,0.4-1,0-1.4l-3.8-3.8c-0.4-0.4-1-0.4-1.4,0s-0.4,1,0,1.4l2.1,2.1H94.2c-0.6,0-1,0.4-1,1S93.6,66.3,94.2,66.3z"/>
		<path class="st78" d="M106.1,80.7c-0.4-0.4-1-0.4-1.4,0s-0.4,1,0,1.4l2.1,2.1H94.2c-0.6,0-1,0.4-1,1s0.4,1,1,1h12.5l-2.1,2.1
			c-0.4,0.4-0.4,1,0,1.4c0.2,0.2,0.5,0.3,0.7,0.3s0.5-0.1,0.7-0.3l3.8-3.8c0.4-0.4,0.4-1,0-1.4L106.1,80.7z"/>
		<path class="st78" d="M106.1,100.2c-0.4-0.4-1-0.4-1.4,0s-0.4,1,0,1.4l2.1,2.1H94.2c-0.6,0-1,0.4-1,1s0.4,1,1,1h12.5l-2.1,2.1
			c-0.4,0.4-0.4,1,0,1.4c0.2,0.2,0.5,0.3,0.7,0.3s0.5-0.1,0.7-0.3l3.8-3.8c0.4-0.4,0.4-1,0-1.4L106.1,100.2z"/>
	</g>
	<g>
		<path class="st76" d="M87.8,45.8h-5.6c-3.5,0-6.4,2.9-6.4,6.4v65.9c0,3.5,2.9,6.4,6.4,6.4h5.6c3.5,0,6.4-2.9,6.4-6.4V52.2
			C94.2,48.7,91.3,45.8,87.8,45.8z M92.2,118.1c0,2.4-2,4.4-4.4,4.4h-5.6c-2.4,0-4.4-2-4.4-4.4V52.2c0-2.4,2-4.4,4.4-4.4h5.6
			c2.4,0,4.4,2,4.4,4.4V118.1z"/>
		<path class="st76" d="M79.1,55.8l-1.3,2l7.6,2.8l6.7-2.7l-1.3-2H79.1z M85.4,59.6l-6-2.2l0.3-0.5h10.6l0.4,0.6L85.4,59.6z"/>
		<polygon class="st76" points="87.6,114.3 88.2,114.3 89,113.6 88.3,113.6 		"/>
		<polygon class="st76" points="90.1,112.1 89.3,112.7 90,112.7 90.7,112.1 		"/>
		<polygon class="st76" points="84,114.3 84.5,114.3 85.5,112.9 85,112.9 		"/>
		<polygon class="st76" points="85.3,112.4 86.6,114.3 87.2,114.3 85.6,112.1 		"/>
		<polygon class="st76" points="87.6,112.1 90.1,114.3 90.1,114.3 90.7,114.3 88.2,112.1 		"/>
		<polygon class="st76" points="79.3,114.3 79.8,114.3 80.8,112.9 80.2,112.9 		"/>
		<polygon class="st76" points="80.6,112.4 81.9,114.3 82.4,114.3 80.8,112.1 		"/>
		<path class="st76" d="M83.4,113.5c0,0.2-0.1,0.5-0.5,0.5h-0.1v0.4c0,0,0.5,0,0.8-0.2c0.2-0.2,0.2-0.5,0.2-0.7v-1.3h-0.4
			L83.4,113.5z"/>
	</g>
	<path class="st67" d="M134.6,66.1v38.4c0,0-4.2-0.5-4.4-3.7c-0.2-3.1,0-31.1,0-31.1S129.9,67.3,134.6,66.1z"/>
	<g>
		<path class="st75" d="M29.1,56.4l0,0.1c0,0.5,0,49.4,0,56.7c0,6.5,4,6.7,4.2,6.7l0.2,0l5.7,1V49l-5.5,0.8
			C28.5,50.5,29,56.2,29.1,56.4z"/>
		<path class="st75" d="M27.1,56.6c-0.2-1.7,0.2-4.5,1.8-6.5l-1.1,0.3c-0.2,0-4,1-4,5.9l0,56.4c0,0.3-0.3,5.5,4.4,7
			c0.3,0.1,0.7,0.2,1,0.3c-1.4-1.5-2.2-3.8-2.2-6.8C27.1,106.1,27.1,58.4,27.1,56.6z"/>
		<path class="st62" d="M31,48.5l-3.5,1c0,0-4.7,1.2-4.7,6.8l0,56.4c0,0.1-0.4,6.3,5.1,8c1.2,0.4,2.5,0.7,3.7,0.9
			c0.7,0.3,1.3,0.3,1.6,0.3l8,1.5V46.6l-7.8,1.1C32.5,47.9,31.7,48.1,31,48.5z M28.2,119.7c-4.8-1.4-4.4-6.7-4.4-7l0-56.4
			c0-4.9,3.8-5.8,4-5.9l1.1-0.3c-1.7,2-2,4.7-1.8,6.5c0,1.8,0,49.5,0,56.7c0,3,0.7,5.2,2.2,6.8C28.9,119.9,28.5,119.8,28.2,119.7z
			 M39.1,49v72l-5.7-1l-0.2,0c-0.2,0-4.2-0.2-4.2-6.7c0-7.3,0-56.2,0-56.7l0-0.1c0-0.2-0.5-5.9,4.6-6.6L39.1,49z"/>
	</g>
</g>
<g id="Archive">
</g>
<g id="Archive_2">
</g>
<g id="Layer_6">
</g>
</svg>
