<?xml version="1.0" encoding="utf-8"?>
<!-- Generator: Adobe Illustrator 18.0.0, SVG Export Plug-In . SVG Version: 6.00 Build 0)  -->
<!DOCTYPE svg PUBLIC "-//W3C//DTD SVG 1.1//EN" "http://www.w3.org/Graphics/SVG/1.1/DTD/svg11.dtd">
<svg version="1.1" xmlns="http://www.w3.org/2000/svg" xmlns:xlink="http://www.w3.org/1999/xlink" x="0px" y="0px"
	 viewBox="0 0 170 170" style="enable-background:new 0 0 170 170;" xml:space="preserve">
<style type="text/css">
	.st0{display:none;}
	.st1{display:inline;enable-background:new    ;}
	.st2{clip-path:url(#SVGID_2_);}
	.st3{clip-path:url(#SVGID_4_);}
	.st4{clip-path:url(#SVGID_6_);}
	.st5{opacity:0;clip-path:url(#SVGID_8_);}
	.st6{opacity:0;}
	.st7{clip-path:url(#SVGID_10_);}
	.st8{clip-path:url(#SVGID_14_);}
	.st9{clip-path:url(#SVGID_16_);}
	.st10{clip-path:url(#SVGID_18_);}
	.st11{clip-path:url(#SVGID_20_);}
	.st12{clip-path:url(#SVGID_24_);}
	.st13{clip-path:url(#SVGID_26_);}
	.st14{clip-path:url(#SVGID_28_);}
	.st15{opacity:0;clip-path:url(#SVGID_30_);}
	.st16{clip-path:url(#SVGID_32_);}
	.st17{clip-path:url(#SVGID_36_);}
	.st18{clip-path:url(#SVGID_38_);}
	.st19{clip-path:url(#SVGID_40_);}
	.st20{clip-path:url(#SVGID_42_);}
	.st21{clip-path:url(#SVGID_46_);}
	.st22{clip-path:url(#SVGID_48_);}
	.st23{clip-path:url(#SVGID_50_);}
	.st24{opacity:0;clip-path:url(#SVGID_52_);}
	.st25{clip-path:url(#SVGID_54_);}
	.st26{clip-path:url(#SVGID_58_);}
	.st27{clip-path:url(#SVGID_60_);}
	.st28{clip-path:url(#SVGID_62_);}
	.st29{clip-path:url(#SVGID_64_);}
	.st30{clip-path:url(#SVGID_68_);}
	.st31{clip-path:url(#SVGID_70_);}
	.st32{clip-path:url(#SVGID_72_);}
	.st33{opacity:0;clip-path:url(#SVGID_74_);}
	.st34{clip-path:url(#SVGID_76_);}
	.st35{clip-path:url(#SVGID_80_);}
	.st36{clip-path:url(#SVGID_82_);}
	.st37{clip-path:url(#SVGID_84_);}
	.st38{clip-path:url(#SVGID_86_);}
	.st39{clip-path:url(#SVGID_90_);}
	.st40{clip-path:url(#SVGID_92_);}
	.st41{clip-path:url(#SVGID_94_);}
	.st42{opacity:0;clip-path:url(#SVGID_96_);}
	.st43{clip-path:url(#SVGID_98_);}
	.st44{clip-path:url(#SVGID_102_);}
	.st45{clip-path:url(#SVGID_104_);}
	.st46{clip-path:url(#SVGID_106_);}
	.st47{clip-path:url(#SVGID_108_);}
	.st48{clip-path:url(#SVGID_112_);}
	.st49{clip-path:url(#SVGID_114_);}
	.st50{clip-path:url(#SVGID_116_);}
	.st51{opacity:0;clip-path:url(#SVGID_118_);}
	.st52{clip-path:url(#SVGID_120_);}
	.st53{clip-path:url(#SVGID_124_);}
	.st54{clip-path:url(#SVGID_126_);}
	.st55{clip-path:url(#SVGID_128_);}
	.st56{clip-path:url(#SVGID_130_);}
	.st57{display:inline;}
	.st58{fill:#666666;stroke:#FFFFFF;stroke-width:2;stroke-linecap:round;stroke-linejoin:round;stroke-miterlimit:10;}
	.st59{fill:none;stroke:#FFFFFF;stroke-width:1.8;stroke-miterlimit:10;}
	.st60{display:inline;opacity:0.3;}
	.st61{fill:none;stroke:#F2F2F2;stroke-width:0.5;stroke-miterlimit:10;}
	.st62{fill:#FFFFFF;}
	.st63{fill:#989898;}
	.st64{fill:#CBCBCB;}
	.st65{fill:#E5E5E5;}
	.st66{fill:#666666;stroke:#FFFFFF;stroke-width:3;stroke-linecap:round;stroke-linejoin:round;stroke-miterlimit:10;}
	.st67{fill:#666666;stroke:#FFFFFF;stroke-width:2;stroke-miterlimit:10;}
	.st68{fill:none;stroke:#989898;stroke-width:2;stroke-miterlimit:10;}
	.st69{fill:#CCCCCC;}
	.st70{fill:none;stroke:#CCCCCC;stroke-miterlimit:10;}
	.st71{fill:none;stroke:#989898;stroke-width:3;stroke-linejoin:round;stroke-miterlimit:10;}
	.st72{fill:none;}
	.st73{fill:#B2B2B2;}
	.st74{fill:#4D4D4D;}
	.st75{fill:#666666;}
	.st76{fill:#F1F1F1;}
	.st77{fill:none;stroke:#CBCBCB;stroke-width:3;stroke-linecap:round;stroke-linejoin:round;stroke-miterlimit:10;}
	.st78{fill:#808080;}
	.st79{fill:url(#SVGID_133_);}
	.st80{fill:#999999;}
	.st81{fill:none;stroke:#B2B2B2;stroke-miterlimit:10;}
	.st82{fill:none;stroke:#F1F1F1;stroke-width:1.6;stroke-miterlimit:10;}
	.st83{fill:none;stroke:#CBCBCB;stroke-linecap:round;stroke-linejoin:round;stroke-miterlimit:10;}
	.st84{fill:none;stroke:#FFFFFF;stroke-miterlimit:10;}
	.st85{fill:none;stroke:#989898;stroke-width:3;stroke-linecap:round;stroke-linejoin:round;stroke-miterlimit:10;}
	.st86{opacity:0.5;fill:#666666;}
	.st87{fill:none;stroke:#E5E5E5;stroke-width:2;stroke-linecap:round;stroke-linejoin:round;stroke-miterlimit:10;}
	.st88{fill:none;stroke:#CCCCCC;stroke-width:3;stroke-miterlimit:10;}
	.st89{fill:#FFFFFF;stroke:#FFFFFF;stroke-miterlimit:10;}
	.st90{fill:none;stroke:#FFFFFF;stroke-width:3;stroke-miterlimit:10;}
	.st91{fill:none;stroke:#FFFFFF;stroke-width:2;stroke-miterlimit:10;}
	.st92{fill:none;stroke:#FFFFFF;stroke-width:3;stroke-linecap:round;stroke-linejoin:round;stroke-miterlimit:10;}
</style>
<g id="Layer_2" class="st0">
	<g class="st1">
		<g>
			<defs>
				<rect id="SVGID_1_" x="-213.5" y="-22.2" width="399.3" height="2688.7"/>
			</defs>
			<clipPath id="SVGID_2_">
				<use xlink:href="#SVGID_1_"  style="overflow:visible;"/>
			</clipPath>
			<g class="st2">
				<defs>
					<rect id="SVGID_3_" x="-213.5" y="-1821.2" width="399.3" height="4625.6"/>
				</defs>
				<clipPath id="SVGID_4_">
					<use xlink:href="#SVGID_3_"  style="overflow:visible;"/>
				</clipPath>
				<g class="st3">
					<defs>
						<rect id="SVGID_5_" x="-213.5" y="-22.2" width="399.3" height="2688.7"/>
					</defs>
					<clipPath id="SVGID_6_">
						<use xlink:href="#SVGID_5_"  style="overflow:visible;"/>
					</clipPath>
					<g class="st4">
						<defs>
							<rect id="SVGID_7_" x="-213.5" y="-22.2" width="399.3" height="2688.7"/>
						</defs>
						<clipPath id="SVGID_8_">
							<use xlink:href="#SVGID_7_"  style="overflow:visible;"/>
						</clipPath>
						<g class="st5">
							<g class="st6">
								<g>
									<defs>
										<rect id="SVGID_9_" x="-213.5" y="-22.2" width="399.3" height="2688.7"/>
									</defs>
									<clipPath id="SVGID_10_">
										<use xlink:href="#SVGID_9_"  style="overflow:visible;"/>
									</clipPath>
									<g class="st7">
										<defs>
											<rect id="SVGID_11_" x="-213.5" y="-22.2" width="399.3" height="2688.7"/>
										</defs>
										<clipPath id="SVGID_12_">
											<use xlink:href="#SVGID_11_"  style="overflow:visible;"/>
										</clipPath>
										<g style="clip-path:url(#SVGID_12_);">
											
												<image style="overflow:visible;" width="1664" height="11204" xlink:href="6C17324A2B683E00.jpg"  transform="matrix(0.24 0 0 0.24 -213.5083 -22.1707)">
											</image>
										</g>
									</g>
								</g>
							</g>
						</g>
					</g>
				</g>
			</g>
			<g class="st2">
				<defs>
					<rect id="SVGID_13_" x="-213.5" y="-1821.2" width="399.3" height="4625.6"/>
				</defs>
				<clipPath id="SVGID_14_">
					<use xlink:href="#SVGID_13_"  style="overflow:visible;"/>
				</clipPath>
				<g class="st8">
					<defs>
						<rect id="SVGID_15_" x="-213.5" y="-22.2" width="399.3" height="2688.7"/>
					</defs>
					<clipPath id="SVGID_16_">
						<use xlink:href="#SVGID_15_"  style="overflow:visible;"/>
					</clipPath>
					<g class="st9">
						<defs>
							<rect id="SVGID_17_" x="-213.5" y="-22.2" width="399.3" height="2688.7"/>
						</defs>
						<clipPath id="SVGID_18_">
							<use xlink:href="#SVGID_17_"  style="overflow:visible;"/>
						</clipPath>
						<g class="st10">
							<g>
								<defs>
									<rect id="SVGID_19_" x="-213.5" y="-22.2" width="399.3" height="2688.7"/>
								</defs>
								<clipPath id="SVGID_20_">
									<use xlink:href="#SVGID_19_"  style="overflow:visible;"/>
								</clipPath>
								<g class="st11">
									<defs>
										<rect id="SVGID_21_" x="-213.5" y="-22.2" width="399.3" height="2688.7"/>
									</defs>
									<clipPath id="SVGID_22_">
										<use xlink:href="#SVGID_21_"  style="overflow:visible;"/>
									</clipPath>
									<g style="clip-path:url(#SVGID_22_);">
										
											<image style="overflow:visible;" width="1664" height="11204" xlink:href="6C17324A2B683E01.jpg"  transform="matrix(0.24 0 0 0.24 -213.5083 -22.1707)">
										</image>
									</g>
								</g>
							</g>
						</g>
					</g>
				</g>
			</g>
		</g>
	</g>
</g>
<g id="GRIDS" class="st0">
	<g class="st60">
		<rect y="0" class="st61" width="170" height="170"/>
		<line class="st61" x1="0" y1="0" x2="170" y2="170"/>
		<line class="st61" x1="170" y1="0" x2="0" y2="170"/>
		<line class="st61" x1="0" y1="85" x2="170" y2="85"/>
		<line class="st61" x1="0" y1="54" x2="170" y2="54"/>
		<line class="st61" x1="0" y1="116" x2="170" y2="116"/>
		<line class="st61" x1="0" y1="11" x2="170" y2="11"/>
		<line class="st61" x1="0" y1="159" x2="170" y2="159"/>
		<line class="st61" x1="85" y1="0" x2="85" y2="170"/>
		<line class="st61" x1="159" y1="0" x2="159" y2="170"/>
		<circle class="st61" cx="85" cy="85" r="31"/>
		<circle class="st61" cx="85" cy="85" r="44"/>
		<circle class="st61" cx="85" cy="85" r="74"/>
		<line class="st61" x1="54" y1="0" x2="54" y2="170"/>
		<line class="st61" x1="11" y1="0" x2="11" y2="170"/>
		<line class="st61" x1="116" y1="0" x2="116" y2="170"/>
	</g>
</g>
<g id="MOTION_PROTECT">
	<g>
		<path class="st73" d="M22.9,70.5c-0.4-0.4-1-0.4-1.4,0c-3.9,3.9-6,9-6,14.5s2.1,10.6,6,14.5c0.2,0.2,0.5,0.3,0.7,0.3
			s0.5-0.1,0.7-0.3c0.4-0.4,0.4-1,0-1.4c-3.5-3.5-5.4-8.1-5.4-13.1s1.9-9.6,5.4-13.1C23.3,71.5,23.3,70.9,22.9,70.5z"/>
		<path class="st73" d="M6.8,85c0-8.1,3.1-15.6,8.8-21.3c0.4-0.4,0.4-1,0-1.4s-1-0.4-1.4,0C8.2,68.3,4.8,76.4,4.8,85
			c0,8.6,3.3,16.7,9.4,22.7c0.2,0.2,0.5,0.3,0.7,0.3s0.5-0.1,0.7-0.3c0.4-0.4,0.4-1,0-1.4C10,100.6,6.8,93.1,6.8,85z"/>
		<path class="st73" d="M26.7,85c0-2.5,1-4.8,2.7-6.6c0.4-0.4,0.4-1,0-1.4s-1-0.4-1.4,0c-2.1,2.1-3.3,5-3.3,8c0,3,1.2,5.9,3.3,8
			c0.2,0.2,0.5,0.3,0.7,0.3s0.5-0.1,0.7-0.3c0.4-0.4,0.4-1,0-1.4C27.7,89.8,26.7,87.5,26.7,85z"/>
	</g>
	<g>
		<path class="st73" d="M121.1,72.4c-0.4-0.4-1-0.4-1.4,0c-3.4,3.4-5.2,7.8-5.2,12.6s1.8,9.2,5.2,12.6c0.2,0.2,0.5,0.3,0.7,0.3
			s0.5-0.1,0.7-0.3c0.4-0.4,0.4-1,0-1.4c-3-3-4.6-6.9-4.6-11.1s1.6-8.2,4.6-11.1C121.5,73.5,121.5,72.8,121.1,72.4z"/>
		<path class="st73" d="M106.9,84.6c0-6.7,2.6-13,7.3-17.7c0.4-0.4,0.4-1,0-1.4s-1-0.4-1.4,0c-5.1,5.1-7.9,11.9-7.9,19.1
			c0,7.5,3.2,14.8,8.7,19.9c0.2,0.2,0.4,0.3,0.7,0.3c0.3,0,0.5-0.1,0.7-0.3c0.4-0.4,0.3-1-0.1-1.4C109.9,98.3,106.9,91.6,106.9,84.6
			z"/>
		<path class="st73" d="M86.5,84.5c0-12,4.7-23.4,13.1-31.9c0.4-0.4,0.4-1,0-1.4c-0.4-0.4-1-0.4-1.4,0c-8.8,8.9-13.7,20.8-13.7,33.3
			c0,13.1,5.2,25.3,14.8,34.4c0.2,0.2,0.4,0.3,0.7,0.3c0.3,0,0.5-0.1,0.7-0.3c0.4-0.4,0.4-1,0-1.4C91.5,108.7,86.5,97,86.5,84.5z"/>
		<path class="st73" d="M124.3,85.1c0-2.1,0.8-4.1,2.3-5.6c0.4-0.4,0.4-1,0-1.4s-1-0.4-1.4,0c-1.9,1.9-2.9,4.3-2.9,7s1,5.1,2.9,7
			c0.2,0.2,0.5,0.3,0.7,0.3s0.5-0.1,0.7-0.3c0.4-0.4,0.4-1,0-1.4C125.2,89.1,124.3,87.2,124.3,85.1z"/>
		<path class="st73" d="M97.6,84.5c0-9.1,3.5-17.6,9.9-24.1c0.4-0.4,0.4-1,0-1.4c-0.4-0.4-1-0.4-1.4,0c-6.7,6.9-10.5,15.9-10.5,25.5
			c0,10.1,4,19.5,11.4,26.4c0.2,0.2,0.4,0.3,0.7,0.3c0.3,0,0.5-0.1,0.7-0.3c0.4-0.4,0.4-1,0-1.4C101.4,102.9,97.6,94,97.6,84.5z"/>
	</g>
	<g>
		<path class="st76" d="M158.2,76h-19.4c-0.7,0-1.4,0.6-1.4,1.4v15c0,0.8,0.6,1.4,1.4,1.4h19.4c0.7,0,1.4-0.6,1.4-1.4v-15
			C159.6,76.6,159,76,158.2,76z M158.2,92.3h-19.3V77.4h19.3V92.3z"/>
		<path class="st76" d="M142.6,67.5l5.8,1.1c0,0,0,0,0.1,0c0,0,0,0,0.1,0l5.8-1.1c0.2,0,0.3-0.2,0.3-0.4c0-0.2-0.2-0.3-0.4-0.3
			h-11.6c-0.2,0-0.3,0.1-0.4,0.3C142.3,67.3,142.4,67.4,142.6,67.5z M150.5,67.5l-2.1,0.4l-2-0.4H150.5z"/>
		<path class="st76" d="M159.4,74.4c-1.6,0.3-10.8,0.4-10.9,0.4c0,0,0,0-0.1,0c-0.1,0-9.2-0.1-10.9-0.4c-0.8-0.2-1.3-0.1-1.6,0.2
			c-0.5,0.3-0.5,0.9-0.5,1.6l0,0.1c-0.1,1.2,0.6,16.2,0.6,16.8c0,0,0,1.9,2.4,2.3c2,0.4,7.6,0.8,10,0.8c2.4,0,8-0.4,10-0.8
			c2.4-0.4,2.4-2.3,2.4-2.3c0-0.6,0.7-15.7,0.6-16.9l0-0.1c0-0.7-0.1-1.3-0.5-1.6C160.6,74.3,160.1,74.3,159.4,74.4z M160.8,76.3
			l0,0.1c0.1,0.9-0.4,11.4-0.6,16.8c0,0.1,0,1.3-1.8,1.6c-1.9,0.3-7.3,0.8-9.9,0.8c-2.6,0-8-0.4-9.9-0.8c-1.8-0.3-1.8-1.6-1.8-1.7
			c-0.2-5.4-0.7-15.9-0.6-16.8l0-0.1c0-0.5,0.1-1,0.3-1.1c0.1-0.1,0.2-0.1,0.4-0.1c0.2,0,0.4,0,0.6,0.1c1.7,0.3,10.6,0.4,11,0.4
			c0,0,0,0,0,0c0,0,0,0,0,0c0.4,0,9.3-0.1,11-0.4c0.5-0.1,0.9-0.1,1,0C160.8,75.3,160.8,75.8,160.8,76.3z"/>
		<polygon class="st76" points="151.3,103.1 152,103.1 152.9,102.3 152.1,102.3 		"/>
		<polygon class="st76" points="154.1,100.7 153.2,101.4 153.9,101.4 154.8,100.7 		"/>
		<polygon class="st76" points="147.4,103.1 148,103.1 149.1,101.6 148.5,101.6 		"/>
		<polygon class="st76" points="148.8,101.1 150.3,103.1 150.8,103.1 149.1,100.7 		"/>
		<polygon class="st76" points="151.3,100.7 154,103.1 154,103.1 154.8,103.1 152,100.7 		"/>
		<polygon class="st76" points="142.2,103.1 142.8,103.1 143.8,101.6 143.3,101.6 		"/>
		<polygon class="st76" points="143.6,101.1 145.1,103.1 145.6,103.1 143.9,100.7 		"/>
		<path class="st76" d="M146.7,102.2c0,0.2-0.1,0.5-0.5,0.6h-0.1v0.4c0,0,0.6,0,0.8-0.3c0.2-0.3,0.3-0.6,0.3-0.7v-1.5h-0.4
			L146.7,102.2z"/>
		<path class="st76" d="M157.8,60.7c-2.1-0.9-5.6-1.4-9.3-1.4c-3.7,0-7.2,0.5-9.2,1.4c-6.3,2.1-5.9,8.8-5.8,9.4
			c0,0.9,0.3,22.3,0.8,29.4c0.5,6.7,5.9,9.4,6.2,9.5c2.6,1.2,5.3,1.8,8.1,1.8c0,0,0.1,0,0.1,0c2.8,0,5.5-0.6,8-1.8
			c0.2-0.1,5.7-2.8,6.2-9.5c0.5-7.1,0.8-28.5,0.8-29.4C163.6,69.4,164.1,62.8,157.8,60.7z M162.1,69.9
			C162.1,69.9,162.1,70,162.1,69.9c0,0.3-0.3,22.2-0.8,29.4c-0.4,5.8-5.2,8.2-5.4,8.3c-2.4,1.1-4.9,1.7-7.5,1.7c0,0-0.1,0-0.1,0
			c-2.6,0-5.1-0.6-7.4-1.7c0,0-4.9-2.4-5.4-8.3c-0.5-7.2-0.8-29.1-0.8-29.4c0,0,0-0.1,0-0.1c0-0.2-0.7-6.1,4.9-7.9
			c1.9-0.8,5.2-1.3,8.7-1.3c3.5,0,6.8,0.5,8.8,1.3C162.8,63.9,162.1,69.7,162.1,69.9z"/>
	</g>
	<g>
		<path class="st76" d="M70.9,71.7H41.4c-0.9,0-1.7,0.8-1.7,1.7v22.8c0,0.9,0.8,1.7,1.7,1.7h29.5c0.9,0,1.7-0.8,1.7-1.7V73.4
			C72.6,72.5,71.8,71.7,70.9,71.7z M70.8,96.1H41.5V73.5h29.3V96.1z"/>
		<path class="st76" d="M47.3,58.6l8.7,1.7c0,0,0.1,0,0.1,0c0,0,0.1,0,0.1,0l8.8-1.7c0.2,0,0.4-0.3,0.4-0.5c0-0.2-0.2-0.4-0.4-0.4
			H47.4c-0.2,0-0.4,0.2-0.4,0.4C47,58.4,47.1,58.6,47.3,58.6z M60.1,58.6l-4,0.8l-4-0.8H60.1z"/>
		<path class="st76" d="M72.5,69.2c-2.4,0.5-16.2,0.6-16.3,0.6c0,0,0,0,0,0c0,0,0,0,0,0c-0.1,0-13.9-0.1-16.3-0.6
			c-1.1-0.2-1.9-0.2-2.4,0.2c-0.6,0.5-0.7,1.4-0.8,2.4l0,0.2c-0.1,1.7,0.9,24.3,1,25.3c0,0-0.1,2.8,3.5,3.4c3,0.6,11.4,1.2,15,1.2
			c3.6,0,12-0.6,15-1.2c3.6-0.7,3.5-3.4,3.5-3.4c0-1,1.1-23.6,1-25.3l0-0.2c-0.1-1-0.1-1.9-0.8-2.4C74.3,69.1,73.6,69,72.5,69.2z
			 M74.7,71.9l0,0.2c0.1,1.7-1,25-1,25.2c0,0.1,0,2-2.8,2.5c-2.8,0.5-11,1.1-14.9,1.1c-3.9,0-12.1-0.6-14.9-1.1
			c-2.8-0.5-2.8-2.4-2.8-2.6c0-0.2-1.1-23.5-1-25.2l0-0.2c0.1-0.8,0.1-1.5,0.4-1.7c0.1-0.1,0.4-0.2,0.7-0.2c0.3,0,0.6,0,0.9,0.1
			c2.5,0.5,15.9,0.6,16.5,0.6c0,0,0,0,0.1,0c0,0,0,0,0.1,0c0.6,0,14-0.1,16.5-0.6c0.8-0.2,1.4-0.1,1.6,0.1
			C74.6,70.4,74.7,71.1,74.7,71.9z"/>
		<polygon class="st76" points="60.4,112.2 61.4,112.2 62.7,111 61.6,111 		"/>
		<polygon class="st76" points="64.5,108.5 63.3,109.6 64.3,109.6 65.5,108.5 		"/>
		<polygon class="st76" points="54.5,112.2 55.4,112.2 57,109.9 56.2,109.9 		"/>
		<polygon class="st76" points="56.7,109.1 58.8,112.2 59.7,112.2 57.1,108.5 		"/>
		<polygon class="st76" points="60.4,108.5 64.5,112.2 64.5,112.2 65.5,112.2 61.4,108.5 		"/>
		<polygon class="st76" points="46.7,112.2 47.6,112.2 49.2,109.9 48.3,109.9 		"/>
		<polygon class="st76" points="48.9,109.1 51,112.2 51.9,112.2 49.3,108.5 		"/>
		<path class="st76" d="M53.5,110.8c0,0.3-0.2,0.8-0.8,0.8h-0.2v0.6c0,0,0.8,0,1.2-0.4c0.4-0.4,0.4-0.9,0.4-1.1v-2.2h-0.7
			L53.5,110.8z"/>
		<path class="st76" d="M70,48.7c-3.1-1.3-8.3-2.1-13.9-2.1c-5.5,0-10.7,0.8-13.8,2.1c-9.4,3.2-8.7,13.1-8.6,13.9
			c0,1.3,0.4,33.4,1.2,44.1c0.7,9.9,8.8,13.9,9.2,14.1c3.8,1.8,7.9,2.7,12.1,2.7c0,0,0.1,0,0.1,0c4.2,0,8.2-0.9,11.9-2.7
			c0.3-0.2,8.4-4.2,9.1-14.1c0.8-10.7,1.2-42.8,1.2-44.1C78.6,61.7,79.4,51.8,70,48.7z M76.8,62.4c0,0,0,0.1,0,0.1
			c0,0.3-0.4,33.2-1.2,44.1c-0.6,8.8-7.8,12.4-8.1,12.6c-3.6,1.7-7.4,2.5-11.4,2.5c0,0-0.1,0-0.1,0c-3.9,0-7.7-0.9-11.2-2.5
			c-0.3-0.1-7.5-3.7-8.1-12.6c-0.8-10.9-1.2-43.7-1.2-44.1c0,0,0-0.1,0-0.1c0-0.4-1-9.2,7.4-12.1c2.9-1.2,7.9-2,13.2-2
			c5.3,0,10.2,0.7,13.2,2C77.8,53.2,76.8,62,76.8,62.4z"/>
	</g>
</g>
<g id="Archive">
</g>
<g id="Archive_2">
</g>
<g id="Layer_6">
</g>
</svg>
