<?xml version="1.0" encoding="utf-8"?>
<!-- Generator: Adobe Illustrator 18.0.0, SVG Export Plug-In . SVG Version: 6.00 Build 0)  -->
<!DOCTYPE svg PUBLIC "-//W3C//DTD SVG 1.1//EN" "http://www.w3.org/Graphics/SVG/1.1/DTD/svg11.dtd">
<svg version="1.1" xmlns="http://www.w3.org/2000/svg" xmlns:xlink="http://www.w3.org/1999/xlink" x="0px" y="0px"
	 viewBox="0 0 170 170" style="enable-background:new 0 0 170 170;" xml:space="preserve">
<style type="text/css">
	.st0{display:none;}
	.st1{display:inline;enable-background:new    ;}
	.st2{clip-path:url(#SVGID_2_);}
	.st3{clip-path:url(#SVGID_4_);}
	.st4{clip-path:url(#SVGID_6_);}
	.st5{opacity:0;clip-path:url(#SVGID_8_);}
	.st6{opacity:0;}
	.st7{clip-path:url(#SVGID_10_);}
	.st8{clip-path:url(#SVGID_14_);}
	.st9{clip-path:url(#SVGID_16_);}
	.st10{clip-path:url(#SVGID_18_);}
	.st11{clip-path:url(#SVGID_20_);}
	.st12{clip-path:url(#SVGID_24_);}
	.st13{clip-path:url(#SVGID_26_);}
	.st14{clip-path:url(#SVGID_28_);}
	.st15{opacity:0;clip-path:url(#SVGID_30_);}
	.st16{clip-path:url(#SVGID_32_);}
	.st17{clip-path:url(#SVGID_36_);}
	.st18{clip-path:url(#SVGID_38_);}
	.st19{clip-path:url(#SVGID_40_);}
	.st20{clip-path:url(#SVGID_42_);}
	.st21{clip-path:url(#SVGID_46_);}
	.st22{clip-path:url(#SVGID_48_);}
	.st23{clip-path:url(#SVGID_50_);}
	.st24{opacity:0;clip-path:url(#SVGID_52_);}
	.st25{clip-path:url(#SVGID_54_);}
	.st26{clip-path:url(#SVGID_58_);}
	.st27{clip-path:url(#SVGID_60_);}
	.st28{clip-path:url(#SVGID_62_);}
	.st29{clip-path:url(#SVGID_64_);}
	.st30{clip-path:url(#SVGID_68_);}
	.st31{clip-path:url(#SVGID_70_);}
	.st32{clip-path:url(#SVGID_72_);}
	.st33{opacity:0;clip-path:url(#SVGID_74_);}
	.st34{clip-path:url(#SVGID_76_);}
	.st35{clip-path:url(#SVGID_80_);}
	.st36{clip-path:url(#SVGID_82_);}
	.st37{clip-path:url(#SVGID_84_);}
	.st38{clip-path:url(#SVGID_86_);}
	.st39{clip-path:url(#SVGID_90_);}
	.st40{clip-path:url(#SVGID_92_);}
	.st41{clip-path:url(#SVGID_94_);}
	.st42{opacity:0;clip-path:url(#SVGID_96_);}
	.st43{clip-path:url(#SVGID_98_);}
	.st44{clip-path:url(#SVGID_102_);}
	.st45{clip-path:url(#SVGID_104_);}
	.st46{clip-path:url(#SVGID_106_);}
	.st47{clip-path:url(#SVGID_108_);}
	.st48{clip-path:url(#SVGID_112_);}
	.st49{clip-path:url(#SVGID_114_);}
	.st50{clip-path:url(#SVGID_116_);}
	.st51{opacity:0;clip-path:url(#SVGID_118_);}
	.st52{clip-path:url(#SVGID_120_);}
	.st53{clip-path:url(#SVGID_124_);}
	.st54{clip-path:url(#SVGID_126_);}
	.st55{clip-path:url(#SVGID_128_);}
	.st56{clip-path:url(#SVGID_130_);}
	.st57{display:inline;}
	.st58{fill:#666666;stroke:#FFFFFF;stroke-width:2;stroke-linecap:round;stroke-linejoin:round;stroke-miterlimit:10;}
	.st59{fill:none;stroke:#FFFFFF;stroke-width:1.8;stroke-miterlimit:10;}
	.st60{display:inline;opacity:0.3;}
	.st61{fill:none;stroke:#F2F2F2;stroke-width:0.5;stroke-miterlimit:10;}
	.st62{fill:#FFFFFF;}
	.st63{fill:#989898;}
	.st64{fill:#CBCBCB;}
	.st65{fill:#E5E5E5;}
	.st66{fill:#666666;stroke:#FFFFFF;stroke-width:3;stroke-linecap:round;stroke-linejoin:round;stroke-miterlimit:10;}
	.st67{fill:#666666;stroke:#FFFFFF;stroke-width:2;stroke-miterlimit:10;}
	.st68{fill:none;stroke:#989898;stroke-width:2;stroke-miterlimit:10;}
	.st69{fill:#CCCCCC;}
	.st70{fill:none;stroke:#CCCCCC;stroke-miterlimit:10;}
	.st71{fill:none;stroke:#989898;stroke-width:3;stroke-linejoin:round;stroke-miterlimit:10;}
	.st72{fill:none;}
	.st73{fill:#B2B2B2;}
	.st74{fill:#4D4D4D;}
	.st75{fill:#666666;}
	.st76{fill:#F1F1F1;}
	.st77{fill:none;stroke:#CBCBCB;stroke-width:3;stroke-linecap:round;stroke-linejoin:round;stroke-miterlimit:10;}
	.st78{fill:#808080;}
	.st79{fill:url(#SVGID_133_);}
	.st80{fill:#999999;}
	.st81{fill:none;stroke:#B2B2B2;stroke-miterlimit:10;}
	.st82{fill:none;stroke:#F1F1F1;stroke-width:1.6;stroke-miterlimit:10;}
	.st83{fill:none;stroke:#CBCBCB;stroke-linecap:round;stroke-linejoin:round;stroke-miterlimit:10;}
	.st84{fill:none;stroke:#FFFFFF;stroke-miterlimit:10;}
	.st85{fill:none;stroke:#989898;stroke-width:3;stroke-linecap:round;stroke-linejoin:round;stroke-miterlimit:10;}
	.st86{opacity:0.5;fill:#666666;}
	.st87{fill:none;stroke:#E5E5E5;stroke-width:2;stroke-linecap:round;stroke-linejoin:round;stroke-miterlimit:10;}
	.st88{fill:none;stroke:#CCCCCC;stroke-width:3;stroke-miterlimit:10;}
	.st89{fill:#FFFFFF;stroke:#FFFFFF;stroke-miterlimit:10;}
	.st90{fill:none;stroke:#FFFFFF;stroke-width:3;stroke-miterlimit:10;}
	.st91{fill:none;stroke:#FFFFFF;stroke-width:2;stroke-miterlimit:10;}
	.st92{fill:none;stroke:#FFFFFF;stroke-width:3;stroke-linecap:round;stroke-linejoin:round;stroke-miterlimit:10;}
</style>
<g id="Layer_2" class="st0">
	<g class="st1">
		<g>
			<defs>
				<rect id="SVGID_111_" x="-23.3" y="-22.2" width="399.3" height="776.5"/>
			</defs>
			<clipPath id="SVGID_2_">
				<use xlink:href="#SVGID_111_"  style="overflow:visible;"/>
			</clipPath>
			<g class="st2">
				<defs>
					<rect id="SVGID_113_" x="-23.3" y="-541.7" width="399.3" height="1335.9"/>
				</defs>
				<clipPath id="SVGID_4_">
					<use xlink:href="#SVGID_113_"  style="overflow:visible;"/>
				</clipPath>
				<g class="st3">
					<defs>
						<rect id="SVGID_115_" x="-23.3" y="-22.2" width="399.3" height="776.5"/>
					</defs>
					<clipPath id="SVGID_6_">
						<use xlink:href="#SVGID_115_"  style="overflow:visible;"/>
					</clipPath>
					<g class="st4">
						<defs>
							<rect id="SVGID_117_" x="-23.3" y="-22.2" width="399.3" height="776.5"/>
						</defs>
						<clipPath id="SVGID_8_">
							<use xlink:href="#SVGID_117_"  style="overflow:visible;"/>
						</clipPath>
						<g class="st5">
							<g class="st6">
								<g>
									<defs>
										<rect id="SVGID_119_" x="-23.3" y="-22.2" width="399.3" height="776.5"/>
									</defs>
									<clipPath id="SVGID_10_">
										<use xlink:href="#SVGID_119_"  style="overflow:visible;"/>
									</clipPath>
									<g class="st7">
										<defs>
											<rect id="SVGID_121_" x="-23.3" y="-22.2" width="399.3" height="776.5"/>
										</defs>
										<clipPath id="SVGID_12_">
											<use xlink:href="#SVGID_121_"  style="overflow:visible;"/>
										</clipPath>
										<g style="clip-path:url(#SVGID_12_);">
											
												<image style="overflow:visible;" width="1664" height="3236" xlink:href="13CAD300F26AA553.jpg"  transform="matrix(0.24 0 0 0.24 -23.2841 -22.1709)">
											</image>
										</g>
									</g>
								</g>
							</g>
						</g>
					</g>
				</g>
			</g>
			<g class="st2">
				<defs>
					<rect id="SVGID_123_" x="-23.3" y="-541.7" width="399.3" height="1335.9"/>
				</defs>
				<clipPath id="SVGID_14_">
					<use xlink:href="#SVGID_123_"  style="overflow:visible;"/>
				</clipPath>
				<g class="st8">
					<defs>
						<rect id="SVGID_125_" x="-23.3" y="-22.2" width="399.3" height="776.5"/>
					</defs>
					<clipPath id="SVGID_16_">
						<use xlink:href="#SVGID_125_"  style="overflow:visible;"/>
					</clipPath>
					<g class="st9">
						<defs>
							<rect id="SVGID_127_" x="-23.3" y="-22.2" width="399.3" height="776.5"/>
						</defs>
						<clipPath id="SVGID_18_">
							<use xlink:href="#SVGID_127_"  style="overflow:visible;"/>
						</clipPath>
						<g class="st10">
							<g>
								<defs>
									<rect id="SVGID_129_" x="-23.3" y="-23" width="399.3" height="776.5"/>
								</defs>
								<clipPath id="SVGID_20_">
									<use xlink:href="#SVGID_129_"  style="overflow:visible;"/>
								</clipPath>
								<g class="st11">
									<defs>
										<rect id="SVGID_131_" x="-23.3" y="-23" width="399.3" height="776.5"/>
									</defs>
									<clipPath id="SVGID_22_">
										<use xlink:href="#SVGID_131_"  style="overflow:visible;"/>
									</clipPath>
									<g style="clip-path:url(#SVGID_22_);">
										
											<image style="overflow:visible;" width="1664" height="3236" xlink:href="13CAD300F26AA551.jpg"  transform="matrix(0.24 0 0 0.24 -23.2841 -23.0376)">
										</image>
									</g>
								</g>
							</g>
						</g>
					</g>
				</g>
			</g>
		</g>
	</g>
</g>
<g id="GRIDS" class="st0">
	<g class="st60">
		<rect x="0" class="st61" width="170" height="170"/>
		<line class="st61" x1="0" y1="0" x2="170" y2="170"/>
		<line class="st61" x1="170" y1="0" x2="0" y2="170"/>
		<line class="st61" x1="0" y1="85" x2="170" y2="85"/>
		<line class="st61" x1="0" y1="54" x2="170" y2="54"/>
		<line class="st61" x1="0" y1="116" x2="170" y2="116"/>
		<line class="st61" x1="0" y1="11" x2="170" y2="11"/>
		<line class="st61" x1="0" y1="159" x2="170" y2="159"/>
		<line class="st61" x1="85" y1="0" x2="85" y2="170"/>
		<line class="st61" x1="159" y1="0" x2="159" y2="170"/>
		<circle class="st61" cx="85" cy="85" r="31"/>
		<circle class="st61" cx="85" cy="85" r="44"/>
		<circle class="st61" cx="85" cy="85" r="74"/>
		<line class="st61" x1="54" y1="0" x2="54" y2="170"/>
		<line class="st61" x1="11" y1="0" x2="11" y2="170"/>
		<line class="st61" x1="116" y1="0" x2="116" y2="170"/>
	</g>
</g>
<g id="MOTION_PROTECT">
	<g>
		<path class="st72" d="M54.8,76.9l-17.2,0v13.9h16.6c2,0,3.7-0.2,4.6-0.9c1-0.7,1.7-2.1,1.7-4.9v-2c0-2.8-0.6-4.2-1.4-4.9
			C58.3,77.2,56.9,76.9,54.8,76.9z"/>
		<g>
			<path class="st65" d="M53.9,73.3H32.7V74v20.4h21.1c4.4,0,7.3-0.6,9.2-2.4c1.9-1.8,2.5-4.5,2.5-8.2c0-3.9-0.6-6.6-2.4-8.4
				C61.1,73.8,58.2,73.3,53.9,73.3z M60.5,84.9c0,2.9-0.7,4.2-1.7,4.9c-1,0.7-2.6,1-4.6,0.9H37.6V76.9l17.2,0c2.1,0,3.5,0.3,4.3,1
				c0.9,0.8,1.4,2.2,1.4,4.9V84.9z"/>
		</g>
		<path class="st65" d="M98.5,83c-1.8-0.9-4.4-1.2-8-1.2H79.7c-2.8,0-4.4-0.2-5.1-0.6c-0.4-0.2-0.5-0.3-0.6-0.6
			c-0.1-0.2-0.2-0.6-0.2-1.1c0-0.7,0.1-1.1,0.3-1.4c0.3-0.4,1-0.8,2.4-1c1.4-0.2,3.4-0.2,6-0.2h3.9c4.8,0,7.3,0,8.3,0.4
			c0.5,0.2,0.6,0.3,0.7,0.5c0.1,0.2,0.2,0.7,0.2,1.5l0,0.8h5v-1c0-0.9-0.2-1.8-0.6-2.6c-0.7-1.2-1.9-2-3.7-2.5
			c-1.8-0.5-4.3-0.7-7.7-0.7h-7.8c-3.8,0-6.6,0.2-8.7,1.1c-1,0.4-1.9,1.1-2.4,1.9c-0.6,0.9-0.8,1.9-0.8,3.1c0,1.4,0.2,2.5,0.9,3.5
			c1,1.4,2.6,2.1,5,2.5c2.4,0.4,5.5,0.4,9.7,0.4h6.9c2.2,0,3.6,0.2,4.3,0.5c0.3,0.2,0.5,0.3,0.6,0.6c0.1,0.2,0.2,0.6,0.2,1.2
			c0,0.6-0.1,1.1-0.2,1.4c-0.2,0.5-0.6,0.8-1.5,1c-0.9,0.3-2.3,0.4-4.3,0.4H79c-2.2,0-3.6-0.2-4.3-0.6c-0.7-0.4-0.8-0.7-0.8-1.4
			v-1.7h-5l0,0.8l0,0.9c0,1.2,0.3,2.2,1,3c1,1.2,2.4,1.8,4.1,2.2c1.7,0.4,3.6,0.4,5.6,0.4h10.1c2.7,0,5.5-0.1,7.7-0.8
			c1.1-0.4,2.1-0.9,2.8-1.8c0.7-0.8,1.1-2,1.1-3.3v-1.2C101.3,85.5,100.3,83.9,98.5,83z"/>
		<path class="st65" d="M132.6,86.3v1.9c0,0.6-0.1,1-0.2,1.3c-0.2,0.4-0.5,0.7-1.3,1c-0.8,0.2-2,0.3-3.8,0.3h-12.2
			c-1.6,0-3-0.2-3.9-0.7c-0.9-0.5-1.4-1.2-1.4-2.7v-7.2c0-1.5,0.5-2.2,1.4-2.7c0.9-0.5,2.3-0.7,3.9-0.7h12.1c1.6,0,3,0.1,3.9,0.4
			c0.9,0.4,1.3,0.8,1.3,2.3v1.6h4.4v-2.3c0-1.4-0.5-2.9-2-3.9c-1.4-1-3.6-1.6-6.8-1.6h-13.3c-3.5,0-6,0.6-7.6,1.9
			c-1.6,1.4-2.2,3.4-2.2,6v5.3c0,2.5,0.6,4.6,2.2,6c1.6,1.4,4.1,1.9,7.6,1.9h13.1c3.7,0,6-0.5,7.5-1.5c1.5-1.1,2-2.7,1.9-4.6v-2
			H132.6z"/>
	</g>
	<g>
		<path class="st65" d="M127.6,117.7c-0.6-2.2-1.9-4.2-3.9-5.8c-0.6-0.4-1.1-0.8-1.6-1.2c0.4,0.8,0.8,1.6,1,2.4
			c1.4,4.7-1,9.7-4,12.7l1.4-0.2c2.3-0.4,4.4-1.5,5.8-3.1C127.4,121.2,128.2,119.6,127.6,117.7z"/>
		<path class="st65" d="M101.3,126.7c-1,0-1.8-0.1-2.3-0.1c-0.9-0.2-1.7-0.5-2.4-1c-1.6-1.2-2.4-2.7-2.5-4.7c0-1.8,0.7-3.2,2-4.4
			c1.2-1,2.9-1.5,4.9-1.5h1.7l0-5h-3.3c-1.9,0-3.5,0.4-5,1.1c-1.9,0.9-3.4,2.3-4.5,4.2c-1,1.7-1.5,3.5-1.5,5.5c0,1.8,0.4,3.5,1.3,5
			c1.1,2.1,2.7,3.6,4.8,4.7c1.5,0.7,3.3,1.1,5.3,1.1h3l0-4.8H101.3z"/>
		<path class="st65" d="M84.4,121.1l-5.3-3.5c-0.7-0.5-1.3-0.9-1.5-1c-0.3-0.3-0.5-0.6-0.5-0.9c0-0.4,0.4-0.7,1.2-0.9
			c0.3-0.1,1.2-0.1,2.4-0.1h4.8v-4.9h-6.4c-2.8,0-4.9,0.6-6.2,1.9c-1,1-1.5,2.2-1.5,3.7c0,2,0.9,3.6,2.7,4.8l4.8,3.3
			c0.5,0.4,1,0.7,1.5,1.1c0.4,0.4,0.6,0.7,0.6,1c0.1,0.2-0.1,0.4-0.3,0.6c-0.3,0.2-0.6,0.4-1.2,0.4c-0.4,0.1-1.2,0.1-2.3,0.1h-5.6
			l0,4.8h6.9c0.9,0,1.6,0,2.4-0.1c1.8-0.2,3.2-0.9,4.2-1.9c1.1-1.2,1.7-2.6,1.7-4.3C86.6,123.5,85.9,122.1,84.4,121.1z"/>
		<polygon class="st65" points="62.2,131.7 68.3,131.7 68.3,109.9 62.1,109.9 		"/>
		<path class="st65" d="M57.4,121c0.8-1,1.2-2.4,1.2-4c0-1.1-0.3-2.1-0.7-3c-0.5-0.9-1-1.7-1.9-2.2c-0.7-0.5-1.6-0.9-2.5-1.1
			c-0.9-0.2-2.7-0.7-5.1-0.7H48h-5.9v21.8h5.7l0-8.4l5.1,8.4h0.8h6l-6-8.6C55.4,122.7,56.6,122,57.4,121z M49,120.4h-1.1l0-5.6H49
			h0.2c1.2,0,2.1,0.2,2.6,0.6c0.6,0.4,0.8,1.2,0.8,2.3c0,0.9-0.3,1.6-0.9,2c-0.3,0.2-0.7,0.4-1.1,0.5
			C50.2,120.3,49.6,120.4,49,120.4z"/>
		<path class="st65" d="M113.3,114.8c-4.3-0.4-9.2,1.7-9.1,6c0.1,4.4,2.9,8.8,7.8,10.7c0,0-2.4-3.4-2.3-8.8
			C109.7,117.1,113.3,114.8,113.3,114.8z"/>
		<path class="st65" d="M125.7,127.7h-13.3C116.7,135,123,131.3,125.7,127.7z"/>
		<path class="st65" d="M115.3,113.6c1.3,0.3,4.4,1.9,5.7,4c0.3,0.4,0.5,0.9,0.7,1.4c0.1-0.9,0.2-1.6,0.2-2.4c0.1-2.3-0.7-5.5-3.4-7
			l-0.3-0.1l-0.2-0.1c-4.3-0.6-8.2,0.9-10.7,3.4c-0.8,0.8-1.4,1.7-2.1,2.6l1.6-0.9C109.2,113.3,112.3,112.8,115.3,113.6z"/>
		<path class="st69" d="M116.1,116.6c-1.2,0-2.1,0.4-2.9,1.2c-0.8,0.9-1.2,1.8-1.2,2.9c0,1.2,0.4,2.2,1.3,3c0.8,0.8,1.8,1.2,2.9,1.2
			c1.2,0,2.1-0.4,2.9-1.2c0.7-0.9,1.1-1.9,1.1-3c0.1-1.2-0.4-2.2-1.2-2.9C118.2,117,117.2,116.6,116.1,116.6z"/>
	</g>
	<g>
		<path class="st65" d="M138.3,36c-1.7-1-3.3-1.9-4.9-2.8c0,1.9,0,3.7,0,5.6C135,37.8,136.6,36.9,138.3,36z M138.3,43.2
			c-1.7-0.9-3.3-1.9-4.9-2.8c0,1.9,0,3.7,0,5.6C135,45.1,136.6,44.2,138.3,43.2z M131.8,39.6c-1.7-1-3.3-1.9-4.9-2.8
			c0,1.9,0,3.7,0,5.5C128.6,41.5,130.2,40.6,131.8,39.6z M127.4,36c1.7,0.9,3.3,1.8,4.9,2.8c0-1.9,0-3.7,0-5.5
			C130.7,34.1,129.1,35,127.4,36z M132.3,40.5c-1.7,0.9-3.2,1.8-4.9,2.8c1.7,0.9,3.2,1.8,4.9,2.8C132.3,44.1,132.3,42.4,132.3,40.5z
			 M133.9,39.6c1.7,0.9,3.2,1.8,4.9,2.8c0-1.9,0-3.7,0-5.5C137.1,37.8,135.5,38.7,133.9,39.6z"/>
		<path class="st65" d="M44.8,59.1c-1.6,0-3.2,0-4.7,0c-0.8,0-1.5-0.6-1.5-1.3c0-0.8,0.6-1.4,1.4-1.4c0.8,0,1.6,0,2.3,0
			c1.1,0,1.8-1,1.4-2.1c-0.5-1.1-1-2.3-1.5-3.4c-1.1-2.5-2.2-5-3.3-7.6c-1.4-3.3,1.1-7,4.7-7c3.1,0,6.2,0,9.3,0
			c0.8,0,1.4,0.5,1.5,1.2c0.1,0.8-0.4,1.4-1.3,1.5c-0.8,0.1-1.6,0-2.4,0.1c-1.2,0-1.9,1-1.4,2.2c1,2.3,2,4.6,3,6.9
			c0.6,1.3,1.2,2.6,1.7,3.9c1.2,3-0.7,6.4-3.9,6.9c-0.8,0.1-1.7,0.1-2.6,0.1C46.6,59.2,45.7,59.1,44.8,59.1z"/>
		<path class="st65" d="M66.7,58.3c-0.7,0.2-1.3,0.4-2,0.6c-0.6,0.1-1.2,0.2-1.8,0.3c-0.8,0-1.7,0-2.5-0.1c-1.9-0.4-3.1-1.7-3.6-3.6
			c-0.4-1.6-0.4-3.2,0.2-4.7c0.6-1.7,1.9-2.6,3.6-2.8c0.5-0.1,1.1-0.1,1.6-0.1c1.3,0,2.7,0,4,0c0.3,0,0.4-0.1,0.4-0.4
			c0-0.4,0-0.9-0.1-1.3c-0.2-1.1-1.1-1.5-2.1-1.7c-1.2-0.2-2.5-0.4-3.7-0.6c-0.5-0.1-0.8-0.4-0.8-0.8c0-0.5,0.3-0.8,0.8-1
			c0.1,0,0.3,0,0.4,0c2.9,0,5.9,0,8.8,0c1.5,0,2.7,0.5,3.8,1.6c1,1,1.5,2.2,1.5,3.5c0,3.8,0,7.7,0,11.5c0,0.4-0.1,0.5-0.5,0.5
			c-2.5,0-5,0-7.6,0c-0.4,0-0.6-0.1-0.5-0.5C66.7,58.5,66.7,58.4,66.7,58.3z M66.7,56.1c0-1.9,0-3.8,0-5.7c-0.1,0-0.2,0-0.2,0
			c-1.2,0.4-2.3,1.1-3.1,2.1c-0.4,0.5-0.4,1,0,1.6c0.8,1,1.9,1.6,3.1,2.1C66.5,56.1,66.6,56.1,66.7,56.1z"/>
		<path class="st65" d="M79.2,51.7c0-2.3,0-4.6,0-6.8c0-1.1-0.6-1.7-1.7-1.7c-0.4,0-0.8,0-1.2-0.3c-0.4-0.4-0.5-0.8-0.4-1.3
			c0.2-0.5,0.5-0.8,1.1-0.8c2.6-0.2,5.1-1,7.4-2.3c1-0.5,1.9-1.2,2.9-1.8c0.6-0.4,1.5-0.3,1.9,0.2c0.2,0.3,0.3,0.6,0.3,1
			c0,0.5,0,1.1,0,1.6c0,0.9,0.3,1.2,1.2,1.2c0.3,0,0.6,0.1,0.8,0.2c0.8,0.5,0.9,1.6,0.1,2.1c-0.4,0.3-0.8,0.6-1.3,0.8
			c-0.7,0.3-0.9,0.9-0.9,1.6c0,3.3,0,6.7,0,10c0,1.1,0,2.2,0,3.2c0,0.3-0.1,0.4-0.4,0.4c-3.2,0-6.3,0-9.5,0c-0.3,0-0.4-0.1-0.4-0.4
			C79.2,56.4,79.2,54,79.2,51.7z"/>
		<path class="st65" d="M105.7,52.6c-1.4,0-2.9,0-4.3,0c-0.5,0-0.8,0.2-0.7,0.7c0.3,1.5,0.8,2.9,2.3,3.6c0.7,0.4,1.5,0.4,2.3,0.3
			c1.1-0.1,2.1-0.2,3.2-0.3c0.6,0,1,0.2,1,0.7c0.1,0.5-0.2,0.8-0.7,1c-1.7,0.5-3.5,1-5.3,1.1c-1.7,0.1-3.3-0.2-4.9-0.6
			c-1.5-0.4-2.7-1.1-3.8-2.2c-1.6-1.7-2.4-3.6-2.5-6c0-1.8,0.3-3.5,1.2-5.1c1.4-2.3,3.6-3.7,6.2-4.2c1.9-0.4,3.7-0.2,5.5,0.4
			c3.2,1.1,5.1,3.4,5.7,6.8c0.2,0.9,0.1,1.8,0.1,2.7c0,0.6-0.5,1-1.2,1C108.5,52.6,107.1,52.6,105.7,52.6z M102.5,49.9
			c0.5,0,1,0,1.6,0c0.6,0,0.9-0.4,0.7-0.9c-0.4-1.3-0.9-2.6-1.3-3.8c-0.1-0.4-0.4-0.9-0.9-0.9c-0.5,0-0.7,0.4-0.9,0.8
			c-0.5,1.3-0.9,2.6-1.3,4c-0.2,0.5,0.1,0.8,0.7,0.8C101.5,49.9,102,49.9,102.5,49.9z"/>
		<path class="st65" d="M123.5,48.3c0,3.4,0,6.9,0,10.3c0,0.4-0.1,0.5-0.5,0.5c-3.1,0-6.3,0-9.4,0c-0.4,0-0.5-0.1-0.5-0.5
			c0-5.7,0-11.4,0-17.1c0-0.8,0.3-1.2,1.1-1.5c1.2-0.5,2.5-0.9,3.7-1.4c0.9-0.4,1.7-1.1,2.5-1.7c0.6-0.4,1.2-0.7,1.9-0.6
			c0.7,0.1,1.2,0.7,1.2,1.5C123.5,41.4,123.5,44.9,123.5,48.3z"/>
		<path class="st65" d="M138.3,36c-1.7,0.9-3.3,1.8-4.9,2.8c0-1.9,0-3.7,0-5.6C135,34.1,136.6,35,138.3,36z"/>
		<path class="st65" d="M138.3,43.2c-1.7,0.9-3.3,1.9-4.9,2.8c0-1.9,0-3.7,0-5.6C135,41.4,136.6,42.3,138.3,43.2z"/>
		<path class="st65" d="M131.8,39.6c-1.7,1-3.3,1.8-4.9,2.8c0-1.9,0-3.7,0-5.5C128.6,37.8,130.2,38.7,131.8,39.6z"/>
		<path class="st65" d="M127.4,36c1.7-0.9,3.3-1.8,4.9-2.8c0,1.8,0,3.6,0,5.5C130.7,37.8,129.1,36.9,127.4,36z"/>
		<path class="st65" d="M132.3,40.5c0,1.9,0,3.7,0,5.5c-1.6-0.9-3.2-1.8-4.9-2.8C129.1,42.3,130.7,41.4,132.3,40.5z"/>
		<path class="st65" d="M133.9,39.6c1.7-0.9,3.3-1.8,4.9-2.8c0,1.9,0,3.7,0,5.5C137.1,41.4,135.5,40.5,133.9,39.6z"/>
		<path class="st65" d="M129.5,59.1c-1.3,0-2.6-1-2.6-2.5c0-1.5,1.1-2.5,2.6-2.6c1.4,0,2.5,1.2,2.5,2.5
			C132,57.9,130.8,59.1,129.5,59.1z M127.3,56.6c0,1.2,0.9,2.2,2.1,2.2c1.2,0,2.2-1,2.2-2.2c0-1.2-0.9-2.1-2.2-2.1
			C128.2,54.4,127.3,55.3,127.3,56.6z"/>
		<path class="st65" d="M129.9,56.8c0.2,0.4,0.4,0.7,0.7,1.1c-0.3,0.1-0.5,0.1-0.6-0.2c-0.1-0.3-0.3-0.5-0.5-0.7
			c-0.1-0.1-0.3-0.1-0.5-0.1c-0.1,0-0.1,0.2-0.1,0.3c0,0.2,0,0.3,0,0.5c0,0.1-0.1,0.2-0.2,0.2c-0.1-0.1-0.2-0.2-0.2-0.2
			c0-0.7,0-1.4,0-2.1c0-0.1,0.2-0.3,0.3-0.3c0.4,0,0.9,0,1.3,0.1c0.2,0,0.4,0.3,0.5,0.5c0.1,0.2-0.1,0.5-0.2,0.7
			C130.2,56.6,130,56.7,129.9,56.8z M129.2,55.6c-0.3-0.1-0.4,0.1-0.4,0.4c0,0.3,0.1,0.5,0.4,0.5c0.5,0,0.7-0.1,0.7-0.5
			C130,55.7,129.8,55.6,129.2,55.6z"/>
	</g>
</g>
<g id="Archive">
</g>
<g id="Archive_2">
</g>
<g id="Layer_6">
</g>
</svg>
