<?xml version="1.0" encoding="utf-8"?>
<!-- Generator: Adobe Illustrator 18.0.0, SVG Export Plug-In . SVG Version: 6.00 Build 0)  -->
<!DOCTYPE svg PUBLIC "-//W3C//DTD SVG 1.1//EN" "http://www.w3.org/Graphics/SVG/1.1/DTD/svg11.dtd">
<svg version="1.1" xmlns="http://www.w3.org/2000/svg" xmlns:xlink="http://www.w3.org/1999/xlink" x="0px" y="0px"
	 viewBox="0 0 170 170" style="enable-background:new 0 0 170 170;" xml:space="preserve">
<style type="text/css">
	.st0{display:none;}
	.st1{display:inline;enable-background:new    ;}
	.st2{clip-path:url(#SVGID_2_);}
	.st3{clip-path:url(#SVGID_4_);}
	.st4{clip-path:url(#SVGID_6_);}
	.st5{opacity:0;clip-path:url(#SVGID_8_);}
	.st6{opacity:0;}
	.st7{clip-path:url(#SVGID_10_);}
	.st8{clip-path:url(#SVGID_14_);}
	.st9{clip-path:url(#SVGID_16_);}
	.st10{clip-path:url(#SVGID_18_);}
	.st11{clip-path:url(#SVGID_20_);}
	.st12{clip-path:url(#SVGID_24_);}
	.st13{clip-path:url(#SVGID_26_);}
	.st14{clip-path:url(#SVGID_28_);}
	.st15{opacity:0;clip-path:url(#SVGID_30_);}
	.st16{clip-path:url(#SVGID_32_);}
	.st17{clip-path:url(#SVGID_36_);}
	.st18{clip-path:url(#SVGID_38_);}
	.st19{clip-path:url(#SVGID_40_);}
	.st20{clip-path:url(#SVGID_42_);}
	.st21{clip-path:url(#SVGID_46_);}
	.st22{clip-path:url(#SVGID_48_);}
	.st23{clip-path:url(#SVGID_50_);}
	.st24{opacity:0;clip-path:url(#SVGID_52_);}
	.st25{clip-path:url(#SVGID_54_);}
	.st26{clip-path:url(#SVGID_58_);}
	.st27{clip-path:url(#SVGID_60_);}
	.st28{clip-path:url(#SVGID_62_);}
	.st29{clip-path:url(#SVGID_64_);}
	.st30{clip-path:url(#SVGID_68_);}
	.st31{clip-path:url(#SVGID_70_);}
	.st32{clip-path:url(#SVGID_72_);}
	.st33{opacity:0;clip-path:url(#SVGID_74_);}
	.st34{clip-path:url(#SVGID_76_);}
	.st35{clip-path:url(#SVGID_80_);}
	.st36{clip-path:url(#SVGID_82_);}
	.st37{clip-path:url(#SVGID_84_);}
	.st38{clip-path:url(#SVGID_86_);}
	.st39{clip-path:url(#SVGID_90_);}
	.st40{clip-path:url(#SVGID_92_);}
	.st41{clip-path:url(#SVGID_94_);}
	.st42{opacity:0;clip-path:url(#SVGID_96_);}
	.st43{clip-path:url(#SVGID_98_);}
	.st44{clip-path:url(#SVGID_102_);}
	.st45{clip-path:url(#SVGID_104_);}
	.st46{clip-path:url(#SVGID_106_);}
	.st47{clip-path:url(#SVGID_108_);}
	.st48{clip-path:url(#SVGID_112_);}
	.st49{clip-path:url(#SVGID_114_);}
	.st50{clip-path:url(#SVGID_116_);}
	.st51{opacity:0;clip-path:url(#SVGID_118_);}
	.st52{clip-path:url(#SVGID_120_);}
	.st53{clip-path:url(#SVGID_124_);}
	.st54{clip-path:url(#SVGID_126_);}
	.st55{clip-path:url(#SVGID_128_);}
	.st56{clip-path:url(#SVGID_130_);}
	.st57{clip-path:url(#SVGID_134_);}
	.st58{clip-path:url(#SVGID_136_);}
	.st59{clip-path:url(#SVGID_138_);}
	.st60{opacity:0;clip-path:url(#SVGID_140_);}
	.st61{clip-path:url(#SVGID_142_);}
	.st62{clip-path:url(#SVGID_146_);}
	.st63{clip-path:url(#SVGID_148_);}
	.st64{clip-path:url(#SVGID_150_);}
	.st65{clip-path:url(#SVGID_152_);}
	.st66{display:inline;opacity:0.3;}
	.st67{fill:none;stroke:#F2F2F2;stroke-width:0.5;stroke-miterlimit:10;}
	.st68{fill:#FFFFFF;}
	.st69{fill:#B2B2B2;}
	.st70{fill:#989898;}
	.st71{fill:#CBCBCB;}
	.st72{fill:#E5E5E5;}
	.st73{fill:#666666;stroke:#FFFFFF;stroke-width:3;stroke-linecap:round;stroke-linejoin:round;stroke-miterlimit:10;}
	.st74{fill:#666666;stroke:#FFFFFF;stroke-width:2;stroke-miterlimit:10;}
	.st75{fill:none;stroke:#989898;stroke-width:2;stroke-miterlimit:10;}
	.st76{fill:#CCCCCC;}
	.st77{fill:none;stroke:#989898;stroke-width:3;stroke-linejoin:round;stroke-miterlimit:10;}
	.st78{fill:none;}
	.st79{fill:#4D4D4D;}
	.st80{fill:#666666;}
	.st81{fill:#F1F1F1;}
	.st82{fill:none;stroke:#CBCBCB;stroke-width:3;stroke-linecap:round;stroke-linejoin:round;stroke-miterlimit:10;}
	.st83{fill:#808080;}
	.st84{fill:url(#SVGID_155_);}
	.st85{fill:#999999;}
	.st86{fill:none;stroke:#B2B2B2;stroke-miterlimit:10;}
	.st87{fill:none;stroke:#F1F1F1;stroke-width:1.6;stroke-miterlimit:10;}
	.st88{fill:none;stroke:#CBCBCB;stroke-linecap:round;stroke-linejoin:round;stroke-miterlimit:10;}
	.st89{fill:none;stroke:#FFFFFF;stroke-miterlimit:10;}
	.st90{opacity:0.5;fill:#D1D1D1;}
	.st91{fill:none;stroke:#E5E5E5;stroke-width:2;stroke-linecap:round;stroke-linejoin:round;stroke-miterlimit:10;}
	.st92{fill:none;stroke:#CCCCCC;stroke-width:3;stroke-miterlimit:10;}
	.st93{fill:#FFFFFF;stroke:#FFFFFF;stroke-miterlimit:10;}
	.st94{fill:none;stroke:#FFFFFF;stroke-width:3;stroke-miterlimit:10;}
	.st95{fill:none;stroke:#CCCCCC;stroke-miterlimit:10;}
	.st96{fill:none;stroke:#989898;stroke-width:3;stroke-linecap:round;stroke-linejoin:round;stroke-miterlimit:10;}
	.st97{fill:none;stroke:#FFFFFF;stroke-width:2;stroke-miterlimit:10;}
	.st98{fill:#139EEB;}
	.st99{fill:none;stroke:#FFFFFF;stroke-width:3;stroke-linecap:round;stroke-linejoin:round;stroke-miterlimit:10;}
</style>
<g id="Layer_2" class="st0">
	<g class="st1">
		<g>
			<defs>
				<rect id="SVGID_67_" x="-20.6" y="-21" width="399.3" height="866.7"/>
			</defs>
			<clipPath id="SVGID_2_">
				<use xlink:href="#SVGID_67_"  style="overflow:visible;"/>
			</clipPath>
			<g class="st2">
				<defs>
					<rect id="SVGID_69_" x="-20.6" y="-600.9" width="399.3" height="1491"/>
				</defs>
				<clipPath id="SVGID_4_">
					<use xlink:href="#SVGID_69_"  style="overflow:visible;"/>
				</clipPath>
				<g class="st3">
					<defs>
						<rect id="SVGID_71_" x="-20.6" y="-21" width="399.3" height="866.7"/>
					</defs>
					<clipPath id="SVGID_6_">
						<use xlink:href="#SVGID_71_"  style="overflow:visible;"/>
					</clipPath>
					<g class="st4">
						<defs>
							<rect id="SVGID_73_" x="-20.6" y="-21" width="399.3" height="866.7"/>
						</defs>
						<clipPath id="SVGID_8_">
							<use xlink:href="#SVGID_73_"  style="overflow:visible;"/>
						</clipPath>
						<g class="st5">
							<g class="st6">
								<g>
									<defs>
										<rect id="SVGID_75_" x="-20.6" y="-21" width="399.3" height="866.7"/>
									</defs>
									<clipPath id="SVGID_10_">
										<use xlink:href="#SVGID_75_"  style="overflow:visible;"/>
									</clipPath>
									<g class="st7">
										<defs>
											<rect id="SVGID_77_" x="-20.6" y="-21" width="399.3" height="866.7"/>
										</defs>
										<clipPath id="SVGID_12_">
											<use xlink:href="#SVGID_77_"  style="overflow:visible;"/>
										</clipPath>
										<g style="clip-path:url(#SVGID_12_);">
											
												<image style="overflow:visible;" width="1664" height="3612" xlink:href="6156518461D19A9E.jpg"  transform="matrix(0.24 0 0 0.24 -20.5818 -21)">
											</image>
										</g>
									</g>
								</g>
							</g>
						</g>
					</g>
				</g>
			</g>
			<g class="st2">
				<defs>
					<rect id="SVGID_79_" x="-20.6" y="-600.9" width="399.3" height="1491"/>
				</defs>
				<clipPath id="SVGID_14_">
					<use xlink:href="#SVGID_79_"  style="overflow:visible;"/>
				</clipPath>
				<g class="st8">
					<defs>
						<rect id="SVGID_81_" x="-20.6" y="-21" width="399.3" height="866.7"/>
					</defs>
					<clipPath id="SVGID_16_">
						<use xlink:href="#SVGID_81_"  style="overflow:visible;"/>
					</clipPath>
					<g class="st9">
						<defs>
							<rect id="SVGID_83_" x="-20.6" y="-21" width="399.3" height="866.7"/>
						</defs>
						<clipPath id="SVGID_18_">
							<use xlink:href="#SVGID_83_"  style="overflow:visible;"/>
						</clipPath>
						<g class="st10">
							<g>
								<defs>
									<rect id="SVGID_85_" x="-20.6" y="-22" width="399.3" height="866.7"/>
								</defs>
								<clipPath id="SVGID_20_">
									<use xlink:href="#SVGID_85_"  style="overflow:visible;"/>
								</clipPath>
								<g class="st11">
									<defs>
										<rect id="SVGID_87_" x="-20.6" y="-22" width="399.3" height="866.7"/>
									</defs>
									<clipPath id="SVGID_22_">
										<use xlink:href="#SVGID_87_"  style="overflow:visible;"/>
									</clipPath>
									<g style="clip-path:url(#SVGID_22_);">
										
											<image style="overflow:visible;" width="1664" height="3612" xlink:href="6156518461D19AA2.jpg"  transform="matrix(0.24 0 0 0.24 -20.5818 -21.9668)">
										</image>
									</g>
								</g>
							</g>
						</g>
					</g>
				</g>
			</g>
		</g>
	</g>
</g>
<g id="GRIDS" class="st0">
	<g class="st66">
		<rect x="0" y="0" class="st67" width="170" height="170"/>
		<line class="st67" x1="0" y1="0" x2="170" y2="170"/>
		<line class="st67" x1="170" y1="0" x2="0" y2="170"/>
		<line class="st67" x1="0" y1="85" x2="170" y2="85"/>
		<line class="st67" x1="0" y1="54" x2="170" y2="54"/>
		<line class="st67" x1="0" y1="116" x2="170" y2="116"/>
		<line class="st67" x1="0" y1="11" x2="170" y2="11"/>
		<line class="st67" x1="0" y1="159" x2="170" y2="159"/>
		<line class="st67" x1="85" y1="0" x2="85" y2="170"/>
		<line class="st67" x1="159" y1="0" x2="159" y2="170"/>
		<circle class="st67" cx="85" cy="85" r="31"/>
		<circle class="st67" cx="85" cy="85" r="44"/>
		<circle class="st67" cx="85" cy="85" r="74"/>
		<line class="st67" x1="54" y1="0" x2="54" y2="170"/>
		<line class="st67" x1="11" y1="0" x2="11" y2="170"/>
		<line class="st67" x1="116" y1="0" x2="116" y2="170"/>
	</g>
</g>
<g id="MOTION_PROTECT">
	<line class="st77" x1="22.3" y1="99.3" x2="137.6" y2="99.3"/>
	<g>
		<path class="st68" d="M99.2,70.1c0,4.8-1,8.4-3,10.8c-2,2.4-5.1,3.6-9.2,3.6c-1.4,0-2.5-0.1-3.3-0.2v-4.1c0.9,0.2,1.9,0.4,2.9,0.4
			c1.7,0,3.1-0.3,4.3-0.8c1.1-0.5,2-1.3,2.6-2.4c0.6-1.1,0.9-2.6,1-4.5h-0.2c-0.6,1-1.4,1.8-2.2,2.2c-0.8,0.4-1.9,0.6-3.2,0.6
			c-2.1,0-3.8-0.7-5-2c-1.2-1.4-1.8-3.3-1.8-5.7c0-2.6,0.7-4.7,2.2-6.2c1.5-1.5,3.5-2.3,6.1-2.3c1.8,0,3.4,0.4,4.7,1.3
			c1.4,0.8,2.4,2.1,3.1,3.7C98.8,66,99.2,67.9,99.2,70.1z M90.4,63.6c-1.1,0-1.9,0.4-2.5,1.1s-0.9,1.8-0.9,3.2
			c0,1.2,0.3,2.1,0.8,2.8c0.5,0.7,1.4,1,2.5,1c1,0,1.9-0.3,2.7-1s1.1-1.5,1.1-2.4c0-1.3-0.3-2.4-1-3.4C92.3,64,91.4,63.6,90.4,63.6z
			"/>
		<path class="st69" d="M112.1,82.9l0.7-2.1l3.8-9.7h1.7v13.1h-1.1V72.5c-0.2,0.5-0.4,1-0.6,1.6c-0.2,0.5-1.5,3.9-3.9,10.1h-1.1
			l-3.6-9.2c-0.2-0.4-0.3-0.8-0.4-1.2s-0.3-0.9-0.4-1.3v11.7H106V71h1.6l3.8,9.7C111.7,81.5,111.9,82.2,112.1,82.9z"/>
	</g>
	<g>
		<g>
			<path class="st69" d="M56.1,71H50c0,2.3-0.3,4.5-0.9,6.4s-1.4,3.7-2.5,5.2h-0.8v5.4h1.1v-4.3h9.8v4.3h1.1v-5.4h-1.7V71z M55,82.7
				h-7c1.9-2.8,2.9-6.3,3.1-10.6h4V82.7z"/>
			<path class="st69" d="M69.6,72.5c-1-1.2-2.4-1.8-4.1-1.8c-1.8,0-3.1,0.6-4.1,1.7s-1.5,2.8-1.5,4.9c0,1.3,0.2,2.5,0.7,3.5
				s1.1,1.8,2,2.3s1.8,0.8,3,0.8c1.8,0,3.2-0.6,4.2-1.8s1.5-2.8,1.5-4.9C71.1,75.3,70.6,73.7,69.6,72.5z M68.7,81.5
				c-0.8,1-1.9,1.5-3.3,1.5s-2.5-0.5-3.3-1.5S61,79.1,61,77.4c0-1.8,0.4-3.1,1.1-4.1s1.8-1.4,3.3-1.4s2.5,0.5,3.3,1.5
				s1.2,2.3,1.2,4.1C69.9,79.1,69.5,80.5,68.7,81.5z"/>
		</g>
	</g>
	<path class="st68" d="M29.7,54.8"/>
	<path class="st68" d="M137.6,46.4v76.7l8-1.5c0.2,0,0.8-0.1,1.6-0.3c1.2-0.2,2.5-0.5,3.7-0.9c5.5-1.7,5.1-7.9,5.1-8l0-56.4
		c0-5.7-4.7-6.8-4.7-6.8l-3.5-1c-0.7-0.3-1.4-0.6-2.3-0.7L137.6,46.4z M139.6,57l2.2-0.2l0.3,0.3l-2.5,1.3V57z M149.7,56.2l0,0.1
		c0,0.5,0,49.4,0,56.7c0,6.5-4,6.7-4.2,6.7l-0.2,0l-5.7,1V59.5l4.2-2.2l-1.6-1.5l-2.6,0.3v-7.3l5.5,0.8
		C150.2,50.3,149.7,56,149.7,56.2z M150.6,119.5c-0.3,0.1-0.7,0.2-1,0.3c1.4-1.5,2.2-3.8,2.2-6.8c0-7.2,0-54.8,0-56.7
		c0.2-1.7-0.2-4.5-1.8-6.5l1.1,0.3c0.2,0,4,1,4,5.9l0,56.4C155,112.8,155.3,118.1,150.6,119.5z"/>
	<polyline class="st74" points="17.6,54.8 15,54.8 15,41 25,41 25,54.8 22.3,54.8 	"/>
	<polyline class="st74" points="22.3,116.3 25,116.3 25,130 15,130 15,116.3 17.3,116.3 	"/>
	<rect x="17.7" y="51.1" class="st89" width="4.6" height="70"/>
</g>
<g id="Archive">
</g>
<g id="Archive_2">
</g>
<g id="Layer_6">
</g>
</svg>
