<?xml version="1.0" encoding="utf-8"?>
<!-- Generator: Adobe Illustrator 18.0.0, SVG Export Plug-In . SVG Version: 6.00 Build 0)  -->
<!DOCTYPE svg PUBLIC "-//W3C//DTD SVG 1.1//EN" "http://www.w3.org/Graphics/SVG/1.1/DTD/svg11.dtd">
<svg version="1.1" xmlns="http://www.w3.org/2000/svg" xmlns:xlink="http://www.w3.org/1999/xlink" x="0px" y="0px"
	 viewBox="0 0 170 170" style="enable-background:new 0 0 170 170;" xml:space="preserve">
<style type="text/css">
	.st0{display:none;}
	.st1{display:inline;enable-background:new    ;}
	.st2{clip-path:url(#SVGID_2_);}
	.st3{clip-path:url(#SVGID_4_);}
	.st4{clip-path:url(#SVGID_6_);}
	.st5{opacity:0;clip-path:url(#SVGID_8_);}
	.st6{opacity:0;}
	.st7{clip-path:url(#SVGID_10_);}
	.st8{clip-path:url(#SVGID_14_);}
	.st9{clip-path:url(#SVGID_16_);}
	.st10{clip-path:url(#SVGID_18_);}
	.st11{clip-path:url(#SVGID_20_);}
	.st12{clip-path:url(#SVGID_24_);}
	.st13{clip-path:url(#SVGID_26_);}
	.st14{clip-path:url(#SVGID_28_);}
	.st15{opacity:0;clip-path:url(#SVGID_30_);}
	.st16{clip-path:url(#SVGID_32_);}
	.st17{clip-path:url(#SVGID_36_);}
	.st18{clip-path:url(#SVGID_38_);}
	.st19{clip-path:url(#SVGID_40_);}
	.st20{clip-path:url(#SVGID_42_);}
	.st21{clip-path:url(#SVGID_46_);}
	.st22{clip-path:url(#SVGID_48_);}
	.st23{clip-path:url(#SVGID_50_);}
	.st24{opacity:0;clip-path:url(#SVGID_52_);}
	.st25{clip-path:url(#SVGID_54_);}
	.st26{clip-path:url(#SVGID_58_);}
	.st27{clip-path:url(#SVGID_60_);}
	.st28{clip-path:url(#SVGID_62_);}
	.st29{clip-path:url(#SVGID_64_);}
	.st30{clip-path:url(#SVGID_68_);}
	.st31{clip-path:url(#SVGID_70_);}
	.st32{clip-path:url(#SVGID_72_);}
	.st33{opacity:0;clip-path:url(#SVGID_74_);}
	.st34{clip-path:url(#SVGID_76_);}
	.st35{clip-path:url(#SVGID_80_);}
	.st36{clip-path:url(#SVGID_82_);}
	.st37{clip-path:url(#SVGID_84_);}
	.st38{clip-path:url(#SVGID_86_);}
	.st39{clip-path:url(#SVGID_90_);}
	.st40{clip-path:url(#SVGID_92_);}
	.st41{clip-path:url(#SVGID_94_);}
	.st42{opacity:0;clip-path:url(#SVGID_96_);}
	.st43{clip-path:url(#SVGID_98_);}
	.st44{clip-path:url(#SVGID_102_);}
	.st45{clip-path:url(#SVGID_104_);}
	.st46{clip-path:url(#SVGID_106_);}
	.st47{clip-path:url(#SVGID_108_);}
	.st48{clip-path:url(#SVGID_112_);}
	.st49{clip-path:url(#SVGID_114_);}
	.st50{clip-path:url(#SVGID_116_);}
	.st51{opacity:0;clip-path:url(#SVGID_118_);}
	.st52{clip-path:url(#SVGID_120_);}
	.st53{clip-path:url(#SVGID_124_);}
	.st54{clip-path:url(#SVGID_126_);}
	.st55{clip-path:url(#SVGID_128_);}
	.st56{clip-path:url(#SVGID_130_);}
	.st57{display:inline;}
	.st58{fill:#666666;stroke:#FFFFFF;stroke-width:2;stroke-linecap:round;stroke-linejoin:round;stroke-miterlimit:10;}
	.st59{fill:none;stroke:#FFFFFF;stroke-width:1.8;stroke-miterlimit:10;}
	.st60{display:inline;opacity:0.3;}
	.st61{fill:none;stroke:#F2F2F2;stroke-width:0.5;stroke-miterlimit:10;}
	.st62{fill:#FFFFFF;}
	.st63{fill:#989898;}
	.st64{fill:#CBCBCB;}
	.st65{fill:#E5E5E5;}
	.st66{fill:#666666;stroke:#FFFFFF;stroke-width:3;stroke-linecap:round;stroke-linejoin:round;stroke-miterlimit:10;}
	.st67{fill:#666666;stroke:#FFFFFF;stroke-width:2;stroke-miterlimit:10;}
	.st68{fill:none;stroke:#989898;stroke-width:2;stroke-miterlimit:10;}
	.st69{fill:#CCCCCC;}
	.st70{fill:none;stroke:#CCCCCC;stroke-miterlimit:10;}
	.st71{fill:none;stroke:#989898;stroke-width:3;stroke-linejoin:round;stroke-miterlimit:10;}
	.st72{fill:none;}
	.st73{fill:#B2B2B2;}
	.st74{fill:#4D4D4D;}
	.st75{fill:#666666;}
	.st76{fill:#F1F1F1;}
	.st77{fill:none;stroke:#CBCBCB;stroke-width:3;stroke-linecap:round;stroke-linejoin:round;stroke-miterlimit:10;}
	.st78{fill:#808080;}
	.st79{fill:url(#SVGID_133_);}
	.st80{fill:#999999;}
	.st81{fill:none;stroke:#B2B2B2;stroke-miterlimit:10;}
	.st82{fill:none;stroke:#F1F1F1;stroke-width:1.6;stroke-miterlimit:10;}
	.st83{fill:none;stroke:#CBCBCB;stroke-linecap:round;stroke-linejoin:round;stroke-miterlimit:10;}
	.st84{fill:none;stroke:#FFFFFF;stroke-miterlimit:10;}
	.st85{fill:none;stroke:#989898;stroke-width:3;stroke-linecap:round;stroke-linejoin:round;stroke-miterlimit:10;}
	.st86{opacity:0.5;fill:#666666;}
	.st87{fill:none;stroke:#E5E5E5;stroke-width:2;stroke-linecap:round;stroke-linejoin:round;stroke-miterlimit:10;}
	.st88{fill:none;stroke:#CCCCCC;stroke-width:3;stroke-miterlimit:10;}
	.st89{fill:#FFFFFF;stroke:#FFFFFF;stroke-miterlimit:10;}
	.st90{fill:none;stroke:#FFFFFF;stroke-width:3;stroke-miterlimit:10;}
	.st91{fill:none;stroke:#FFFFFF;stroke-width:2;stroke-miterlimit:10;}
	.st92{fill:none;stroke:#FFFFFF;stroke-width:3;stroke-linecap:round;stroke-linejoin:round;stroke-miterlimit:10;}
</style>
<g id="Layer_2" class="st0">
	<g class="st1">
		<g>
			<defs>
				<rect id="SVGID_1_" x="-213.5" y="-1922.2" width="399.3" height="2688.7"/>
			</defs>
			<clipPath id="SVGID_2_">
				<use xlink:href="#SVGID_1_"  style="overflow:visible;"/>
			</clipPath>
			<g class="st2">
				<defs>
					<rect id="SVGID_3_" x="-213.5" y="-3721.2" width="399.3" height="4625.6"/>
				</defs>
				<clipPath id="SVGID_4_">
					<use xlink:href="#SVGID_3_"  style="overflow:visible;"/>
				</clipPath>
				<g class="st3">
					<defs>
						<rect id="SVGID_5_" x="-213.5" y="-1922.2" width="399.3" height="2688.7"/>
					</defs>
					<clipPath id="SVGID_6_">
						<use xlink:href="#SVGID_5_"  style="overflow:visible;"/>
					</clipPath>
					<g class="st4">
						<defs>
							<rect id="SVGID_7_" x="-213.5" y="-1922.2" width="399.3" height="2688.7"/>
						</defs>
						<clipPath id="SVGID_8_">
							<use xlink:href="#SVGID_7_"  style="overflow:visible;"/>
						</clipPath>
						<g class="st5">
							<g class="st6">
								<g>
									<defs>
										<rect id="SVGID_9_" x="-213.5" y="-1922.2" width="399.3" height="2688.7"/>
									</defs>
									<clipPath id="SVGID_10_">
										<use xlink:href="#SVGID_9_"  style="overflow:visible;"/>
									</clipPath>
									<g class="st7">
										<defs>
											<rect id="SVGID_11_" x="-213.5" y="-1922.2" width="399.3" height="2688.7"/>
										</defs>
										<clipPath id="SVGID_12_">
											<use xlink:href="#SVGID_11_"  style="overflow:visible;"/>
										</clipPath>
										<g style="clip-path:url(#SVGID_12_);">
											
												<image style="overflow:visible;" width="1664" height="11204" xlink:href="16DE00D9ADB6CD8C.jpg"  transform="matrix(0.24 0 0 0.24 -213.5083 -1922.1707)">
											</image>
										</g>
									</g>
								</g>
							</g>
						</g>
					</g>
				</g>
			</g>
			<g class="st2">
				<defs>
					<rect id="SVGID_13_" x="-213.5" y="-3721.2" width="399.3" height="4625.6"/>
				</defs>
				<clipPath id="SVGID_14_">
					<use xlink:href="#SVGID_13_"  style="overflow:visible;"/>
				</clipPath>
				<g class="st8">
					<defs>
						<rect id="SVGID_15_" x="-213.5" y="-1922.2" width="399.3" height="2688.7"/>
					</defs>
					<clipPath id="SVGID_16_">
						<use xlink:href="#SVGID_15_"  style="overflow:visible;"/>
					</clipPath>
					<g class="st9">
						<defs>
							<rect id="SVGID_17_" x="-213.5" y="-1922.2" width="399.3" height="2688.7"/>
						</defs>
						<clipPath id="SVGID_18_">
							<use xlink:href="#SVGID_17_"  style="overflow:visible;"/>
						</clipPath>
						<g class="st10">
							<g>
								<defs>
									<rect id="SVGID_19_" x="-213.5" y="-1922.2" width="399.3" height="2688.7"/>
								</defs>
								<clipPath id="SVGID_20_">
									<use xlink:href="#SVGID_19_"  style="overflow:visible;"/>
								</clipPath>
								<g class="st11">
									<defs>
										<rect id="SVGID_21_" x="-213.5" y="-1922.2" width="399.3" height="2688.7"/>
									</defs>
									<clipPath id="SVGID_22_">
										<use xlink:href="#SVGID_21_"  style="overflow:visible;"/>
									</clipPath>
									<g style="clip-path:url(#SVGID_22_);">
										
											<image style="overflow:visible;" width="1664" height="11204" xlink:href="16DE00D9ADB6CD8D.jpg"  transform="matrix(0.24 0 0 0.24 -213.5083 -1922.1707)">
										</image>
									</g>
								</g>
							</g>
						</g>
					</g>
				</g>
			</g>
		</g>
	</g>
</g>
<g id="GRIDS" class="st0">
	<g class="st60">
		<rect y="0" class="st61" width="170" height="170"/>
		<line class="st61" x1="0" y1="0" x2="170" y2="170"/>
		<line class="st61" x1="170" y1="0" x2="0" y2="170"/>
		<line class="st61" x1="0" y1="85" x2="170" y2="85"/>
		<line class="st61" x1="0" y1="54" x2="170" y2="54"/>
		<line class="st61" x1="0" y1="116" x2="170" y2="116"/>
		<line class="st61" x1="0" y1="11" x2="170" y2="11"/>
		<line class="st61" x1="0" y1="159" x2="170" y2="159"/>
		<line class="st61" x1="85" y1="0" x2="85" y2="170"/>
		<line class="st61" x1="159" y1="0" x2="159" y2="170"/>
		<circle class="st61" cx="85" cy="85" r="31"/>
		<circle class="st61" cx="85" cy="85" r="44"/>
		<circle class="st61" cx="85" cy="85" r="74"/>
		<line class="st61" x1="54" y1="0" x2="54" y2="170"/>
		<line class="st61" x1="11" y1="0" x2="11" y2="170"/>
		<line class="st61" x1="116" y1="0" x2="116" y2="170"/>
	</g>
</g>
<g id="MOTION_PROTECT">
	<g>
		<g>
			<path class="st62" d="M36.9,80.7c-1.1,0-1.9,0.1-2.7,0.2l-0.6,0.1l0.5-5h9.2v-4.6H29.4l-1,13.1l2.2,1.2c0.5-0.1,1.1-0.3,1.8-0.4
				s1.4-0.2,2.1-0.2c3.4,0,5.2,1.3,5.2,3.9c0,2.7-1.7,4.1-5,4.1c-1.1,0-2.3-0.2-3.5-0.5s-2.3-0.7-3.2-1.2v4.7
				c1.8,0.9,4.1,1.4,6.9,1.4c3.3,0,5.8-0.8,7.6-2.3s2.7-3.8,2.7-6.6c0-2.4-0.7-4.3-2.2-5.7S39.4,80.7,36.9,80.7z"/>
			<rect x="57.1" y="85.3" class="st62" width="9.4" height="4.4"/>
			<polygon class="st62" points="78,71.5 78,76.1 90.6,76.1 81,97.2 86.7,97.2 96.4,74.9 96.4,71.5 			"/>
		</g>
		<g>
			<path class="st73" d="M109.9,93.4c-0.5,1.9-1.3,2.8-2.1,2.8c-0.3,0-0.5,0-0.6-0.1v1.1c0.2,0.1,0.5,0.1,0.8,0.1
				c0.9,0,1.5-0.4,2.1-1.1s1-2,1.3-3.6s0.6-4,0.9-7.1h4.5v11.7h1.1V84.4h-6.7C110.9,88.5,110.4,91.5,109.9,93.4z"/>
			<path class="st73" d="M126.9,84.2c-1.7,0-3,0.6-4,1.8s-1.5,2.8-1.5,4.9c0,2.1,0.5,3.7,1.6,4.8s2.5,1.7,4.3,1.7
				c0.7,0,1.4-0.1,2-0.2s1.3-0.3,2-0.6v-1.1c-0.8,0.3-1.5,0.6-2.1,0.7s-1.2,0.2-1.9,0.2c-1.5,0-2.6-0.5-3.4-1.4s-1.2-2.3-1.2-4h9.2
				V90c0-1.8-0.4-3.2-1.3-4.3S128.4,84.2,126.9,84.2z M122.7,89.9c0.1-1.5,0.6-2.7,1.3-3.5s1.7-1.2,3-1.2c1.1,0,2,0.4,2.7,1.2
				s1,2,1,3.5H122.7z"/>
			<polygon class="st73" points="133.6,84.4 133.6,85.4 138,85.4 138,97.2 139.1,97.2 139.1,85.4 143.4,85.4 143.4,84.4 			"/>
		</g>
	</g>
</g>
<g id="Archive">
</g>
<g id="Archive_2">
</g>
<g id="Layer_6">
</g>
</svg>
