<?xml version="1.0" encoding="utf-8"?>
<!-- Generator: Adobe Illustrator 18.0.0, SVG Export Plug-In . SVG Version: 6.00 Build 0)  -->
<!DOCTYPE svg PUBLIC "-//W3C//DTD SVG 1.1//EN" "http://www.w3.org/Graphics/SVG/1.1/DTD/svg11.dtd">
<svg version="1.1" xmlns="http://www.w3.org/2000/svg" xmlns:xlink="http://www.w3.org/1999/xlink" x="0px" y="0px"
	 viewBox="0 0 170 170" style="enable-background:new 0 0 170 170;" xml:space="preserve">
<style type="text/css">
	.st0{display:none;}
	.st1{display:inline;enable-background:new    ;}
	.st2{clip-path:url(#SVGID_2_);}
	.st3{clip-path:url(#SVGID_4_);}
	.st4{clip-path:url(#SVGID_6_);}
	.st5{opacity:0;clip-path:url(#SVGID_8_);}
	.st6{opacity:0;}
	.st7{clip-path:url(#SVGID_10_);}
	.st8{clip-path:url(#SVGID_14_);}
	.st9{clip-path:url(#SVGID_16_);}
	.st10{clip-path:url(#SVGID_18_);}
	.st11{clip-path:url(#SVGID_20_);}
	.st12{clip-path:url(#SVGID_24_);}
	.st13{clip-path:url(#SVGID_26_);}
	.st14{clip-path:url(#SVGID_28_);}
	.st15{opacity:0;clip-path:url(#SVGID_30_);}
	.st16{clip-path:url(#SVGID_32_);}
	.st17{clip-path:url(#SVGID_36_);}
	.st18{clip-path:url(#SVGID_38_);}
	.st19{clip-path:url(#SVGID_40_);}
	.st20{clip-path:url(#SVGID_42_);}
	.st21{clip-path:url(#SVGID_46_);}
	.st22{clip-path:url(#SVGID_48_);}
	.st23{clip-path:url(#SVGID_50_);}
	.st24{opacity:0;clip-path:url(#SVGID_52_);}
	.st25{clip-path:url(#SVGID_54_);}
	.st26{clip-path:url(#SVGID_58_);}
	.st27{clip-path:url(#SVGID_60_);}
	.st28{clip-path:url(#SVGID_62_);}
	.st29{clip-path:url(#SVGID_64_);}
	.st30{clip-path:url(#SVGID_68_);}
	.st31{clip-path:url(#SVGID_70_);}
	.st32{clip-path:url(#SVGID_72_);}
	.st33{opacity:0;clip-path:url(#SVGID_74_);}
	.st34{clip-path:url(#SVGID_76_);}
	.st35{clip-path:url(#SVGID_80_);}
	.st36{clip-path:url(#SVGID_82_);}
	.st37{clip-path:url(#SVGID_84_);}
	.st38{clip-path:url(#SVGID_86_);}
	.st39{clip-path:url(#SVGID_90_);}
	.st40{clip-path:url(#SVGID_92_);}
	.st41{clip-path:url(#SVGID_94_);}
	.st42{opacity:0;clip-path:url(#SVGID_96_);}
	.st43{clip-path:url(#SVGID_98_);}
	.st44{clip-path:url(#SVGID_102_);}
	.st45{clip-path:url(#SVGID_104_);}
	.st46{clip-path:url(#SVGID_106_);}
	.st47{clip-path:url(#SVGID_108_);}
	.st48{clip-path:url(#SVGID_112_);}
	.st49{clip-path:url(#SVGID_114_);}
	.st50{clip-path:url(#SVGID_116_);}
	.st51{opacity:0;clip-path:url(#SVGID_118_);}
	.st52{clip-path:url(#SVGID_120_);}
	.st53{clip-path:url(#SVGID_124_);}
	.st54{clip-path:url(#SVGID_126_);}
	.st55{clip-path:url(#SVGID_128_);}
	.st56{clip-path:url(#SVGID_130_);}
	.st57{display:inline;}
	.st58{fill:#666666;stroke:#FFFFFF;stroke-width:2;stroke-linecap:round;stroke-linejoin:round;stroke-miterlimit:10;}
	.st59{fill:none;stroke:#FFFFFF;stroke-width:1.8;stroke-miterlimit:10;}
	.st60{display:inline;opacity:0.3;}
	.st61{fill:none;stroke:#F2F2F2;stroke-width:0.5;stroke-miterlimit:10;}
	.st62{fill:#FFFFFF;}
	.st63{fill:#989898;}
	.st64{fill:#CBCBCB;}
	.st65{fill:#E5E5E5;}
	.st66{fill:#666666;stroke:#FFFFFF;stroke-width:3;stroke-linecap:round;stroke-linejoin:round;stroke-miterlimit:10;}
	.st67{fill:#666666;stroke:#FFFFFF;stroke-width:2;stroke-miterlimit:10;}
	.st68{fill:none;stroke:#989898;stroke-width:2;stroke-miterlimit:10;}
	.st69{fill:#CCCCCC;}
	.st70{fill:none;stroke:#CCCCCC;stroke-miterlimit:10;}
	.st71{fill:none;stroke:#989898;stroke-width:3;stroke-linejoin:round;stroke-miterlimit:10;}
	.st72{fill:none;}
	.st73{fill:#B2B2B2;}
	.st74{fill:#4D4D4D;}
	.st75{fill:#666666;}
	.st76{fill:#F1F1F1;}
	.st77{fill:none;stroke:#CBCBCB;stroke-width:3;stroke-linecap:round;stroke-linejoin:round;stroke-miterlimit:10;}
	.st78{fill:#808080;}
	.st79{fill:url(#SVGID_133_);}
	.st80{fill:#999999;}
	.st81{fill:none;stroke:#B2B2B2;stroke-miterlimit:10;}
	.st82{fill:none;stroke:#F1F1F1;stroke-width:1.6;stroke-miterlimit:10;}
	.st83{fill:none;stroke:#CBCBCB;stroke-linecap:round;stroke-linejoin:round;stroke-miterlimit:10;}
	.st84{fill:none;stroke:#FFFFFF;stroke-miterlimit:10;}
	.st85{fill:none;stroke:#989898;stroke-width:3;stroke-linecap:round;stroke-linejoin:round;stroke-miterlimit:10;}
	.st86{opacity:0.5;fill:#666666;}
	.st87{fill:none;stroke:#E5E5E5;stroke-width:2;stroke-linecap:round;stroke-linejoin:round;stroke-miterlimit:10;}
	.st88{fill:none;stroke:#CCCCCC;stroke-width:3;stroke-miterlimit:10;}
	.st89{fill:#FFFFFF;stroke:#FFFFFF;stroke-miterlimit:10;}
	.st90{fill:none;stroke:#FFFFFF;stroke-width:3;stroke-miterlimit:10;}
	.st91{fill:none;stroke:#FFFFFF;stroke-width:2;stroke-miterlimit:10;}
	.st92{fill:none;stroke:#FFFFFF;stroke-width:3;stroke-linecap:round;stroke-linejoin:round;stroke-miterlimit:10;}
</style>
<g id="Layer_2" class="st0">
	<g class="st1">
		<g>
			<defs>
				<rect id="SVGID_1_" x="-23.5" y="-212.2" width="399.3" height="2688.7"/>
			</defs>
			<clipPath id="SVGID_2_">
				<use xlink:href="#SVGID_1_"  style="overflow:visible;"/>
			</clipPath>
			<g class="st2">
				<defs>
					<rect id="SVGID_3_" x="-23.5" y="-2011.2" width="399.3" height="4625.6"/>
				</defs>
				<clipPath id="SVGID_4_">
					<use xlink:href="#SVGID_3_"  style="overflow:visible;"/>
				</clipPath>
				<g class="st3">
					<defs>
						<rect id="SVGID_5_" x="-23.5" y="-212.2" width="399.3" height="2688.7"/>
					</defs>
					<clipPath id="SVGID_6_">
						<use xlink:href="#SVGID_5_"  style="overflow:visible;"/>
					</clipPath>
					<g class="st4">
						<defs>
							<rect id="SVGID_7_" x="-23.5" y="-212.2" width="399.3" height="2688.7"/>
						</defs>
						<clipPath id="SVGID_8_">
							<use xlink:href="#SVGID_7_"  style="overflow:visible;"/>
						</clipPath>
						<g class="st5">
							<g class="st6">
								<g>
									<defs>
										<rect id="SVGID_9_" x="-23.5" y="-212.2" width="399.3" height="2688.7"/>
									</defs>
									<clipPath id="SVGID_10_">
										<use xlink:href="#SVGID_9_"  style="overflow:visible;"/>
									</clipPath>
									<g class="st7">
										<defs>
											<rect id="SVGID_11_" x="-23.5" y="-212.2" width="399.3" height="2688.7"/>
										</defs>
										<clipPath id="SVGID_12_">
											<use xlink:href="#SVGID_11_"  style="overflow:visible;"/>
										</clipPath>
										<g style="clip-path:url(#SVGID_12_);">
											
												<image style="overflow:visible;" width="1664" height="11204" xlink:href="6C1F9D56E576924B.jpg"  transform="matrix(0.24 0 0 0.24 -23.5083 -212.1707)">
											</image>
										</g>
									</g>
								</g>
							</g>
						</g>
					</g>
				</g>
			</g>
			<g class="st2">
				<defs>
					<rect id="SVGID_13_" x="-23.5" y="-2011.2" width="399.3" height="4625.6"/>
				</defs>
				<clipPath id="SVGID_14_">
					<use xlink:href="#SVGID_13_"  style="overflow:visible;"/>
				</clipPath>
				<g class="st8">
					<defs>
						<rect id="SVGID_15_" x="-23.5" y="-212.2" width="399.3" height="2688.7"/>
					</defs>
					<clipPath id="SVGID_16_">
						<use xlink:href="#SVGID_15_"  style="overflow:visible;"/>
					</clipPath>
					<g class="st9">
						<defs>
							<rect id="SVGID_17_" x="-23.5" y="-212.2" width="399.3" height="2688.7"/>
						</defs>
						<clipPath id="SVGID_18_">
							<use xlink:href="#SVGID_17_"  style="overflow:visible;"/>
						</clipPath>
						<g class="st10">
							<g>
								<defs>
									<rect id="SVGID_19_" x="-23.5" y="-212.2" width="399.3" height="2688.7"/>
								</defs>
								<clipPath id="SVGID_20_">
									<use xlink:href="#SVGID_19_"  style="overflow:visible;"/>
								</clipPath>
								<g class="st11">
									<defs>
										<rect id="SVGID_21_" x="-23.5" y="-212.2" width="399.3" height="2688.7"/>
									</defs>
									<clipPath id="SVGID_22_">
										<use xlink:href="#SVGID_21_"  style="overflow:visible;"/>
									</clipPath>
									<g style="clip-path:url(#SVGID_22_);">
										
											<image style="overflow:visible;" width="1664" height="11204" xlink:href="6C1F9D56E5769249.jpg"  transform="matrix(0.24 0 0 0.24 -23.5083 -212.1707)">
										</image>
									</g>
								</g>
							</g>
						</g>
					</g>
				</g>
			</g>
		</g>
	</g>
</g>
<g id="GRIDS" class="st0">
	<g class="st60">
		<rect class="st61" width="170" height="170"/>
		<line class="st61" x1="0" y1="0" x2="170" y2="170"/>
		<line class="st61" x1="170" y1="0" x2="0" y2="170"/>
		<line class="st61" x1="0" y1="85" x2="170" y2="85"/>
		<line class="st61" x1="0" y1="54" x2="170" y2="54"/>
		<line class="st61" x1="0" y1="116" x2="170" y2="116"/>
		<line class="st61" x1="0" y1="11" x2="170" y2="11"/>
		<line class="st61" x1="0" y1="159" x2="170" y2="159"/>
		<line class="st61" x1="85" y1="0" x2="85" y2="170"/>
		<line class="st61" x1="159" y1="0" x2="159" y2="170"/>
		<circle class="st61" cx="85" cy="85" r="31"/>
		<circle class="st61" cx="85" cy="85" r="44"/>
		<circle class="st61" cx="85" cy="85" r="74"/>
		<line class="st61" x1="54" y1="0" x2="54" y2="170"/>
		<line class="st61" x1="11" y1="0" x2="11" y2="170"/>
		<line class="st61" x1="116" y1="0" x2="116" y2="170"/>
	</g>
</g>
<g id="MOTION_PROTECT">
	<g>
		<path class="st65" d="M69.7,59.4c0-3-0.9-5.2-2.7-6.7c-1.8-1.5-4.4-2.2-7.9-2.2H50v28.6H56V68.9h2.6c3.5,0,6.3-0.8,8.2-2.4
			C68.7,64.8,69.7,62.5,69.7,59.4z M62.2,62.9C61.3,63.6,59.9,64,58,64h-2v-8.5h2.8c1.7,0,2.9,0.3,3.6,1c0.8,0.7,1.2,1.7,1.2,3.1
			C63.6,61,63.1,62.1,62.2,62.9z"/>
		<path class="st65" d="M84.5,79.5c1.7,0,3.2-0.1,4.3-0.4c1.2-0.3,2.3-0.6,3.3-1.2v-4.6c-1.3,0.6-2.5,1-3.7,1.3S86.1,75,84.8,75
			c-1.7,0-3-0.5-3.9-1.4c-0.9-1-1.4-2.3-1.5-4h14.1v-2.9c0-3.1-0.9-5.5-2.6-7.3s-4.1-2.6-7.2-2.6c-3.2,0-5.8,1-7.6,3
			c-1.8,2-2.7,4.8-2.7,8.5c0,3.6,1,6.3,3,8.2C78.2,78.5,81,79.5,84.5,79.5z M80.7,62.3c0.7-0.8,1.7-1.2,3-1.2c1.3,0,2.3,0.4,3,1.2
			s1.1,1.9,1.2,3.4h-8.4C79.6,64.2,80,63.1,80.7,62.3z"/>
		<path class="st65" d="M111.2,78.5V74c-1.5,0.5-2.7,0.7-3.8,0.7c-0.8,0-1.4-0.2-1.9-0.6c-0.5-0.4-0.7-1-0.7-1.9V61.7h6.1v-4.5h-6.1
			v-4.6H101l-1.7,4.6l-3.3,2v2.5h2.9v10.5c0,2.4,0.5,4.2,1.6,5.4c1.1,1.2,2.8,1.8,5.2,1.8C107.9,79.5,109.7,79.1,111.2,78.5z"/>
		<polygon class="st65" points="15.5,111.1 20.7,111.1 20.7,101.2 29.2,101.2 29.2,96.9 20.7,96.9 20.7,90.4 29.8,90.4 29.8,86.1 
			15.5,86.1 		"/>
		<path class="st65" d="M41.6,92.6c-1,0.7-1.8,1.5-2.4,2.6H39L38.2,92h-3.9v19.1h5.2v-9.7c0-1.5,0.5-2.7,1.4-3.6
			c0.9-0.9,2.2-1.3,3.9-1.3c0.6,0,1.1,0.1,1.5,0.2l0.4-4.9c-0.5-0.1-1.1-0.2-1.8-0.2C43.7,91.6,42.7,91.9,41.6,92.6z"/>
		<rect x="50.2" y="92" class="st65" width="5.2" height="19.1"/>
		<path class="st65" d="M52.8,84.5c-1.9,0-2.8,0.8-2.8,2.5c0,1.7,0.9,2.6,2.8,2.6c0.9,0,1.7-0.2,2.1-0.7c0.5-0.4,0.7-1.1,0.7-1.9
			C55.6,85.3,54.7,84.5,52.8,84.5z"/>
		<path class="st65" d="M68.7,91.6c-2.8,0-5,0.9-6.6,2.6c-1.6,1.7-2.4,4.2-2.4,7.4c0,3.1,0.9,5.5,2.6,7.2c1.7,1.7,4.1,2.5,7.2,2.5
			c1.5,0,2.8-0.1,3.8-0.3c1-0.2,2-0.6,2.9-1v-4c-1.1,0.5-2.2,0.9-3.2,1.1c-1,0.2-2.1,0.4-3.3,0.4c-1.5,0-2.6-0.4-3.5-1.2
			c-0.8-0.8-1.3-2-1.3-3.5h12.3v-2.5c0-2.7-0.8-4.8-2.3-6.4S71.4,91.6,68.7,91.6z M65.1,99.3c0.1-1.3,0.4-2.3,1.1-3
			c0.6-0.7,1.5-1.1,2.6-1.1c1.1,0,2,0.4,2.6,1.1c0.6,0.7,1,1.7,1,3H65.1z"/>
		<path class="st65" d="M92.4,91.6c-1.3,0-2.5,0.2-3.5,0.7s-1.8,1.2-2.4,2.1h-0.3L85.5,92h-4v19.1h5.2v-9c0-2.3,0.3-3.9,1-4.8
			c0.6-1,1.7-1.5,3.2-1.5c1.1,0,1.9,0.3,2.3,1c0.5,0.7,0.7,1.7,0.7,3.1v11.2h5.2V98.6c0-2.3-0.6-4-1.7-5.2
			C96.3,92.2,94.6,91.6,92.4,91.6z"/>
		<path class="st65" d="M116,90.6c0,1.1,0.1,2.4,0.4,3.8h-0.2c-1.3-1.9-3.1-2.8-5.5-2.8c-2.3,0-4.1,0.9-5.4,2.6
			c-1.3,1.7-2,4.2-2,7.3c0,3.1,0.6,5.5,1.9,7.2c1.3,1.7,3,2.6,5.3,2.6c2.4,0,4.2-0.9,5.4-2.8h0.2l1,2.5h4V84.5H116V90.6z
			 M116.4,102.2c-0.1,1.9-0.4,3.2-1,3.9c-0.6,0.8-1.6,1.2-2.9,1.2c-1.2,0-2.1-0.5-2.8-1.4c-0.6-0.9-1-2.4-1-4.2s0.3-3.3,1-4.3
			c0.6-1,1.5-1.5,2.7-1.5c1.4,0,2.5,0.4,3.1,1.3c0.6,0.9,0.9,2.4,0.9,4.4V102.2z"/>
		<rect x="126.7" y="84.5" class="st65" width="5.2" height="26.6"/>
		<path class="st65" d="M148.9,92l-3.5,10.7c-0.4,1-0.6,2.1-0.7,3.3h-0.1c-0.1-1.3-0.3-2.4-0.6-3.3L140.3,92h-5.7l7.6,19l-0.3,0.9
			c-0.4,1.1-0.9,2-1.6,2.6c-0.7,0.6-1.5,0.8-2.4,0.8c-0.7,0-1.4-0.1-2.1-0.2v4.1c0.9,0.2,1.7,0.3,2.6,0.3c1.8,0,3.4-0.5,4.8-1.5
			c1.4-1,2.4-2.5,3.2-4.5l8.1-21.6H148.9z"/>
	</g>
</g>
<g id="Archive">
</g>
<g id="Archive_2">
</g>
<g id="Layer_6">
</g>
</svg>
