<?xml version="1.0" encoding="utf-8"?>
<!-- Generator: Adobe Illustrator 18.0.0, SVG Export Plug-In . SVG Version: 6.00 Build 0)  -->
<!DOCTYPE svg PUBLIC "-//W3C//DTD SVG 1.1//EN" "http://www.w3.org/Graphics/SVG/1.1/DTD/svg11.dtd">
<svg version="1.1" xmlns="http://www.w3.org/2000/svg" xmlns:xlink="http://www.w3.org/1999/xlink" x="0px" y="0px"
	 viewBox="0 0 170 170" style="enable-background:new 0 0 170 170;" xml:space="preserve">
<style type="text/css">
	.st0{display:none;}
	.st1{display:inline;enable-background:new    ;}
	.st2{clip-path:url(#SVGID_2_);}
	.st3{clip-path:url(#SVGID_4_);}
	.st4{clip-path:url(#SVGID_6_);}
	.st5{opacity:0;clip-path:url(#SVGID_8_);}
	.st6{opacity:0;}
	.st7{clip-path:url(#SVGID_10_);}
	.st8{clip-path:url(#SVGID_14_);}
	.st9{clip-path:url(#SVGID_16_);}
	.st10{clip-path:url(#SVGID_18_);}
	.st11{clip-path:url(#SVGID_20_);}
	.st12{clip-path:url(#SVGID_24_);}
	.st13{clip-path:url(#SVGID_26_);}
	.st14{clip-path:url(#SVGID_28_);}
	.st15{opacity:0;clip-path:url(#SVGID_30_);}
	.st16{clip-path:url(#SVGID_32_);}
	.st17{clip-path:url(#SVGID_36_);}
	.st18{clip-path:url(#SVGID_38_);}
	.st19{clip-path:url(#SVGID_40_);}
	.st20{clip-path:url(#SVGID_42_);}
	.st21{clip-path:url(#SVGID_46_);}
	.st22{clip-path:url(#SVGID_48_);}
	.st23{clip-path:url(#SVGID_50_);}
	.st24{opacity:0;clip-path:url(#SVGID_52_);}
	.st25{clip-path:url(#SVGID_54_);}
	.st26{clip-path:url(#SVGID_58_);}
	.st27{clip-path:url(#SVGID_60_);}
	.st28{clip-path:url(#SVGID_62_);}
	.st29{clip-path:url(#SVGID_64_);}
	.st30{clip-path:url(#SVGID_68_);}
	.st31{clip-path:url(#SVGID_70_);}
	.st32{clip-path:url(#SVGID_72_);}
	.st33{opacity:0;clip-path:url(#SVGID_74_);}
	.st34{clip-path:url(#SVGID_76_);}
	.st35{clip-path:url(#SVGID_80_);}
	.st36{clip-path:url(#SVGID_82_);}
	.st37{clip-path:url(#SVGID_84_);}
	.st38{clip-path:url(#SVGID_86_);}
	.st39{clip-path:url(#SVGID_90_);}
	.st40{clip-path:url(#SVGID_92_);}
	.st41{clip-path:url(#SVGID_94_);}
	.st42{opacity:0;clip-path:url(#SVGID_96_);}
	.st43{clip-path:url(#SVGID_98_);}
	.st44{clip-path:url(#SVGID_102_);}
	.st45{clip-path:url(#SVGID_104_);}
	.st46{clip-path:url(#SVGID_106_);}
	.st47{clip-path:url(#SVGID_108_);}
	.st48{clip-path:url(#SVGID_112_);}
	.st49{clip-path:url(#SVGID_114_);}
	.st50{clip-path:url(#SVGID_116_);}
	.st51{opacity:0;clip-path:url(#SVGID_118_);}
	.st52{clip-path:url(#SVGID_120_);}
	.st53{clip-path:url(#SVGID_124_);}
	.st54{clip-path:url(#SVGID_126_);}
	.st55{clip-path:url(#SVGID_128_);}
	.st56{clip-path:url(#SVGID_130_);}
	.st57{display:inline;}
	.st58{fill:#666666;stroke:#FFFFFF;stroke-width:2;stroke-linecap:round;stroke-linejoin:round;stroke-miterlimit:10;}
	.st59{fill:none;stroke:#FFFFFF;stroke-width:1.8;stroke-miterlimit:10;}
	.st60{display:inline;opacity:0.3;}
	.st61{fill:none;stroke:#F2F2F2;stroke-width:0.5;stroke-miterlimit:10;}
	.st62{fill:#FFFFFF;}
	.st63{fill:#989898;}
	.st64{fill:#CBCBCB;}
	.st65{fill:#E5E5E5;}
	.st66{fill:#666666;stroke:#FFFFFF;stroke-width:3;stroke-linecap:round;stroke-linejoin:round;stroke-miterlimit:10;}
	.st67{fill:#666666;stroke:#FFFFFF;stroke-width:2;stroke-miterlimit:10;}
	.st68{fill:none;stroke:#989898;stroke-width:2;stroke-miterlimit:10;}
	.st69{fill:#CCCCCC;}
	.st70{fill:none;stroke:#CCCCCC;stroke-miterlimit:10;}
	.st71{fill:none;stroke:#989898;stroke-width:3;stroke-linejoin:round;stroke-miterlimit:10;}
	.st72{fill:none;}
	.st73{fill:#B2B2B2;}
	.st74{fill:#4D4D4D;}
	.st75{fill:#666666;}
	.st76{fill:#F1F1F1;}
	.st77{fill:none;stroke:#CBCBCB;stroke-width:3;stroke-linecap:round;stroke-linejoin:round;stroke-miterlimit:10;}
	.st78{fill:#808080;}
	.st79{fill:url(#SVGID_133_);}
	.st80{fill:#999999;}
	.st81{fill:none;stroke:#B2B2B2;stroke-miterlimit:10;}
	.st82{fill:none;stroke:#F1F1F1;stroke-width:1.6;stroke-miterlimit:10;}
	.st83{fill:none;stroke:#CBCBCB;stroke-linecap:round;stroke-linejoin:round;stroke-miterlimit:10;}
	.st84{fill:none;stroke:#FFFFFF;stroke-miterlimit:10;}
	.st85{fill:none;stroke:#989898;stroke-width:3;stroke-linecap:round;stroke-linejoin:round;stroke-miterlimit:10;}
	.st86{opacity:0.5;fill:#666666;}
	.st87{fill:none;stroke:#E5E5E5;stroke-width:2;stroke-linecap:round;stroke-linejoin:round;stroke-miterlimit:10;}
	.st88{fill:none;stroke:#CCCCCC;stroke-width:3;stroke-miterlimit:10;}
	.st89{fill:#FFFFFF;stroke:#FFFFFF;stroke-miterlimit:10;}
	.st90{fill:none;stroke:#FFFFFF;stroke-width:3;stroke-miterlimit:10;}
	.st91{fill:none;stroke:#FFFFFF;stroke-width:2;stroke-miterlimit:10;}
	.st92{fill:none;stroke:#FFFFFF;stroke-width:3;stroke-linecap:round;stroke-linejoin:round;stroke-miterlimit:10;}
</style>
<g id="Layer_2" class="st0">
	<g class="st1">
		<g>
			<defs>
				<rect id="SVGID_89_" x="-210" y="-22.2" width="399.3" height="404.9"/>
			</defs>
			<clipPath id="SVGID_2_">
				<use xlink:href="#SVGID_89_"  style="overflow:visible;"/>
			</clipPath>
			<g class="st2">
				<defs>
					<rect id="SVGID_91_" x="-210" y="-293.1" width="399.3" height="696.5"/>
				</defs>
				<clipPath id="SVGID_4_">
					<use xlink:href="#SVGID_91_"  style="overflow:visible;"/>
				</clipPath>
				<g class="st3">
					<defs>
						<rect id="SVGID_93_" x="-210" y="-22.2" width="399.3" height="404.9"/>
					</defs>
					<clipPath id="SVGID_6_">
						<use xlink:href="#SVGID_93_"  style="overflow:visible;"/>
					</clipPath>
					<g class="st4">
						<defs>
							<rect id="SVGID_95_" x="-210" y="-22.2" width="399.3" height="404.9"/>
						</defs>
						<clipPath id="SVGID_8_">
							<use xlink:href="#SVGID_95_"  style="overflow:visible;"/>
						</clipPath>
						<g class="st5">
							<g class="st6">
								<g>
									<defs>
										<rect id="SVGID_97_" x="-210" y="-22.2" width="399.3" height="404.9"/>
									</defs>
									<clipPath id="SVGID_10_">
										<use xlink:href="#SVGID_97_"  style="overflow:visible;"/>
									</clipPath>
									<g class="st7">
										<defs>
											<rect id="SVGID_99_" x="-210" y="-22.2" width="399.3" height="404.9"/>
										</defs>
										<clipPath id="SVGID_12_">
											<use xlink:href="#SVGID_99_"  style="overflow:visible;"/>
										</clipPath>
										<g style="clip-path:url(#SVGID_12_);">
											
												<image style="overflow:visible;" width="1664" height="1687" xlink:href="13B191DAC43FA876.jpg"  transform="matrix(0.24 0 0 0.24 -209.969 -22.1709)">
											</image>
										</g>
									</g>
								</g>
							</g>
						</g>
					</g>
				</g>
			</g>
			<g class="st2">
				<defs>
					<rect id="SVGID_101_" x="-210" y="-293.1" width="399.3" height="696.5"/>
				</defs>
				<clipPath id="SVGID_14_">
					<use xlink:href="#SVGID_101_"  style="overflow:visible;"/>
				</clipPath>
				<g class="st8">
					<defs>
						<rect id="SVGID_103_" x="-210" y="-22.2" width="399.3" height="404.9"/>
					</defs>
					<clipPath id="SVGID_16_">
						<use xlink:href="#SVGID_103_"  style="overflow:visible;"/>
					</clipPath>
					<g class="st9">
						<defs>
							<rect id="SVGID_105_" x="-210" y="-22.2" width="399.3" height="404.9"/>
						</defs>
						<clipPath id="SVGID_18_">
							<use xlink:href="#SVGID_105_"  style="overflow:visible;"/>
						</clipPath>
						<g class="st10">
							<g>
								<defs>
									<rect id="SVGID_107_" x="-210" y="-22.6" width="399.3" height="404.9"/>
								</defs>
								<clipPath id="SVGID_20_">
									<use xlink:href="#SVGID_107_"  style="overflow:visible;"/>
								</clipPath>
								<g class="st11">
									<defs>
										<rect id="SVGID_109_" x="-210" y="-22.6" width="399.3" height="404.9"/>
									</defs>
									<clipPath id="SVGID_22_">
										<use xlink:href="#SVGID_109_"  style="overflow:visible;"/>
									</clipPath>
									<g style="clip-path:url(#SVGID_22_);">
										
											<image style="overflow:visible;" width="1664" height="1687" xlink:href="13B191DAC43FA87A.jpg"  transform="matrix(0.24 0 0 0.24 -209.969 -22.6226)">
										</image>
									</g>
								</g>
							</g>
						</g>
					</g>
				</g>
			</g>
		</g>
	</g>
</g>
<g id="GRIDS" class="st0">
	<g class="st60">
		<rect x="0.2" class="st61" width="170" height="170"/>
		<line class="st61" x1="0.2" y1="0" x2="170.2" y2="170"/>
		<line class="st61" x1="170.2" y1="0" x2="0.2" y2="170"/>
		<line class="st61" x1="0.2" y1="85" x2="170.2" y2="85"/>
		<line class="st61" x1="0.2" y1="54" x2="170.2" y2="54"/>
		<line class="st61" x1="0.2" y1="116" x2="170.2" y2="116"/>
		<line class="st61" x1="0.2" y1="11" x2="170.2" y2="11"/>
		<line class="st61" x1="0.2" y1="159" x2="170.2" y2="159"/>
		<line class="st61" x1="85.2" y1="0" x2="85.2" y2="170"/>
		<line class="st61" x1="159.2" y1="0" x2="159.2" y2="170"/>
		<circle class="st61" cx="85.2" cy="85" r="31"/>
		<circle class="st61" cx="85.2" cy="85" r="44"/>
		<circle class="st61" cx="85.2" cy="85" r="74"/>
		<line class="st61" x1="54.2" y1="0" x2="54.2" y2="170"/>
		<line class="st61" x1="11.2" y1="0" x2="11.2" y2="170"/>
		<line class="st61" x1="116.2" y1="0" x2="116.2" y2="170"/>
	</g>
</g>
<g id="MOTION_PROTECT">
	<g>
		<g>
			<path class="st65" d="M79.1,98.2l-1.5-5.9H67.4l-1.6,5.9h-9.3l10.2-31.5h11.3l10.4,31.5H79.1z M75.8,85.3l-1.4-5.2
				c-0.3-1.1-0.7-2.6-1.1-4.4c-0.5-1.8-0.7-3.1-0.9-3.9c-0.1,0.7-0.4,1.9-0.8,3.6c-0.4,1.7-1.2,5-2.5,9.9H75.8z"/>
			<path class="st65" d="M105.7,98.2h-8.5V73.7h-7.7v-6.9h23.8v6.9h-7.6V98.2z"/>
		</g>
		<g>
			<path class="st65" d="M22.2,113.9c-1.1,0-1.9,0.4-2.5,1.3c-0.6,0.9-0.9,2.1-0.9,3.6c0,3.2,1.2,4.7,3.6,4.7c0.7,0,1.4-0.1,2.1-0.3
				c0.7-0.2,1.4-0.4,2.1-0.7v3.8c-1.4,0.6-2.9,0.9-4.6,0.9c-2.5,0-4.4-0.7-5.7-2.2s-2-3.5-2-6.2c0-1.7,0.3-3.2,1-4.5
				c0.6-1.3,1.6-2.3,2.8-3c1.2-0.7,2.6-1,4.2-1c1.8,0,3.5,0.4,5.1,1.2l-1.4,3.5c-0.6-0.3-1.2-0.5-1.8-0.7
				C23.6,114,22.9,113.9,22.2,113.9z"/>
			<path class="st65" d="M45.2,118.7c0,2.8-0.7,4.9-2,6.3c-1.4,1.4-3.3,2.2-6,2.2c-2.6,0-4.5-0.7-5.9-2.2s-2.1-3.5-2.1-6.3
				c0-2.7,0.7-4.8,2-6.3c1.4-1.4,3.4-2.2,6-2.2c2.6,0,4.6,0.7,5.9,2.1S45.2,115.9,45.2,118.7z M33.9,118.7c0,3.2,1.1,4.8,3.3,4.8
				c1.1,0,2-0.4,2.5-1.2s0.8-2,0.8-3.6c0-1.6-0.3-2.9-0.8-3.6c-0.6-0.8-1.4-1.2-2.5-1.2C35,113.9,33.9,115.5,33.9,118.7z"/>
			<path class="st65" d="M55.3,126.9l-3.4-11.8h-0.1c0.2,2,0.2,3.6,0.2,4.7v7.1h-3.9v-16.4h5.9l3.4,11.7h0.1l3.4-11.7h5.9v16.4h-4.1
				v-7.2c0-0.4,0-0.8,0-1.2c0-0.5,0.1-1.6,0.2-3.4h-0.1l-3.3,11.8H55.3z"/>
			<path class="st65" d="M77.5,126.9l-3.4-11.8h-0.1c0.2,2,0.2,3.6,0.2,4.7v7.1h-3.9v-16.4h5.9l3.4,11.7h0.1l3.4-11.7h5.9v16.4H85
				v-7.2c0-0.4,0-0.8,0-1.2c0-0.5,0.1-1.6,0.2-3.4h-0.1l-3.3,11.8H77.5z"/>
			<path class="st65" d="M102.7,126.9l-0.8-3.1h-5.3l-0.8,3.1h-4.9l5.4-16.5h5.9l5.4,16.5H102.7z M101,120.2l-0.7-2.7
				c-0.2-0.6-0.4-1.4-0.6-2.3c-0.2-1-0.4-1.6-0.5-2c-0.1,0.4-0.2,1-0.4,1.9s-0.6,2.6-1.3,5.2H101z"/>
			<path class="st65" d="M125,126.9h-5.8l-6-11.6H113c0.1,1.8,0.2,3.2,0.2,4.2v7.4h-3.9v-16.4h5.8l6,11.4h0.1c-0.1-1.7-0.2-3-0.2-4
				v-7.4h4V126.9z"/>
			<path class="st65" d="M142.4,118.4c0,2.7-0.8,4.9-2.3,6.3s-3.6,2.2-6.4,2.2h-5.3v-16.4h5.7c2.6,0,4.7,0.7,6.1,2
				S142.4,115.8,142.4,118.4z M137.8,118.5c0-1.5-0.3-2.6-0.9-3.3c-0.6-0.7-1.5-1.1-2.7-1.1h-1.3v9.2h1c1.3,0,2.3-0.4,3-1.2
				C137.5,121.3,137.8,120.1,137.8,118.5z"/>
			<path class="st65" d="M156.1,122c0,1-0.3,1.9-0.8,2.7c-0.5,0.8-1.3,1.4-2.2,1.8c-1,0.4-2.1,0.7-3.4,0.7c-1.1,0-2-0.1-2.8-0.2
				c-0.7-0.2-1.5-0.4-2.3-0.8v-4c0.8,0.4,1.7,0.8,2.6,1c0.9,0.2,1.8,0.4,2.5,0.4c0.7,0,1.1-0.1,1.4-0.3c0.3-0.2,0.5-0.5,0.5-0.9
				c0-0.2-0.1-0.4-0.2-0.6c-0.1-0.2-0.3-0.3-0.6-0.5s-1-0.5-2.2-1.1c-1.1-0.5-1.9-1-2.4-1.4s-0.9-1-1.2-1.6
				c-0.3-0.6-0.4-1.3-0.4-2.1c0-1.5,0.6-2.7,1.7-3.5c1.1-0.8,2.6-1.3,4.5-1.3c1.7,0,3.4,0.4,5.2,1.2l-1.4,3.4
				c-1.5-0.7-2.9-1.1-4-1.1c-0.6,0-1,0.1-1.3,0.3c-0.3,0.2-0.4,0.5-0.4,0.8c0,0.3,0.2,0.6,0.5,0.9s1.2,0.7,2.7,1.4
				c1.4,0.6,2.4,1.3,2.9,2C155.8,119.9,156.1,120.8,156.1,122z"/>
		</g>
		<circle class="st82" cx="41.1" cy="86.7" r="11.5"/>
		<path class="st64" d="M41.1,93.1L41.1,93.1c-0.5,0-1-0.4-1-1V81.2c0-0.5,0.4-1,1-1h0c0.5,0,1,0.4,1,1v10.9
			C42.1,92.7,41.7,93.1,41.1,93.1z"/>
		<path class="st64" d="M34.7,86.7L34.7,86.7c0-0.5,0.4-1,1-1h10.9c0.5,0,1,0.4,1,1l0,0c0,0.5-0.4,1-1,1H35.7
			C35.1,87.6,34.7,87.2,34.7,86.7z"/>
		<circle class="st82" cx="60.3" cy="48.1" r="11.5"/>
		<circle class="st82" cx="109.6" cy="48.1" r="11.5"/>
		<circle class="st82" cx="129.6" cy="86.7" r="11.5"/>
		<path class="st64" d="M134.2,91.2L134.2,91.2c-0.4,0.4-1,0.4-1.4,0l-7.7-7.7c-0.4-0.4-0.4-1,0-1.4l0,0c0.4-0.4,1-0.4,1.4,0
			l7.7,7.7C134.6,90.2,134.6,90.8,134.2,91.2z"/>
		<path class="st64" d="M125.1,91.2L125.1,91.2c-0.4-0.4-0.4-1,0-1.4l7.7-7.7c0.4-0.4,1-0.4,1.4,0l0,0c0.4,0.4,0.4,1,0,1.4l-7.7,7.7
			C126.1,91.6,125.5,91.6,125.1,91.2z"/>
		<g>
			<g>
				<path class="st64" d="M109.7,45c-1.3,0-2.6,0.8-3,2.1c-0.1,0.2,0,0.5,0.2,0.5c0.2,0.1,0.5,0,0.5-0.2c0.3-0.9,1.2-1.6,2.2-1.6
					c1.3,0,2.4,1.1,2.4,2.4c0,0.8-0.4,1.6-1.1,2c-0.2,0.1-0.3,0.4-0.1,0.6c0.1,0.1,0.2,0.2,0.4,0.2c0.1,0,0.2,0,0.2-0.1
					c0.9-0.6,1.5-1.6,1.5-2.7C112.9,46.5,111.5,45,109.7,45z"/>
				<path class="st64" d="M115.4,48.2c0-3.1-2.5-5.7-5.7-5.7c-2.3,0-4.4,1.4-5.2,3.5c-0.1,0.2,0,0.5,0.2,0.5c0.2,0.1,0.5,0,0.5-0.2
					c0.7-1.8,2.5-3,4.5-3c2.7,0,4.8,2.2,4.8,4.8c0,1.6-0.8,3.1-2.1,4c-0.2,0.1-0.2,0.4-0.1,0.6c0.1,0.1,0.2,0.2,0.3,0.2
					c0.1,0,0.2,0,0.2-0.1C114.4,51.9,115.4,50.1,115.4,48.2z"/>
				<path class="st64" d="M109.7,40.1c-3.3,0-6.2,2-7.5,5c-0.1,0.2,0,0.5,0.2,0.6c0.2,0.1,0.5,0,0.6-0.2c1.1-2.7,3.8-4.5,6.7-4.5
					c4,0,7.3,3.3,7.3,7.3c0,2.5-1.3,4.8-3.4,6.1c-0.2,0.1-0.3,0.4-0.1,0.6c0.1,0.1,0.2,0.2,0.4,0.2c0.1,0,0.2,0,0.2-0.1
					c2.4-1.5,3.8-4.1,3.8-6.9C117.8,43.8,114.2,40.1,109.7,40.1z"/>
				<circle class="st64" cx="109.7" cy="48.2" r="0.7"/>
			</g>
		</g>
		<g>
			<path class="st64" d="M60,41.7c-2.6,0-4.8,1.5-5.8,3.7h1.6c0.9-1.4,2.5-2.3,4.3-2.3c2.8,0,5.1,2.3,5.1,5.1s-2.3,5.1-5.1,5.1
				c-1.8,0-3.3-0.9-4.3-2.3h-1.6c1.1,2.2,3.3,3.7,5.8,3.7c3.6,0,6.5-2.9,6.5-6.5S63.6,41.7,60,41.7z"/>
		</g>
	</g>
	<path class="st83" d="M120.7,58.5c2.7,3.6,4.8,7.6,6.3,12"/>
	<path class="st83" d="M74.3,41.8c3.4-0.8,7-1.3,10.7-1.3c3.5,0,7,0.4,10.3,1.2"/>
	<path class="st83" d="M43,70.3c1.5-4.2,3.5-8,6.1-11.5"/>
</g>
<g id="Archive">
</g>
<g id="Archive_2">
</g>
<g id="Layer_6">
</g>
</svg>
