<?xml version="1.0" encoding="utf-8"?>
<!-- Generator: Adobe Illustrator 18.0.0, SVG Export Plug-In . SVG Version: 6.00 Build 0)  -->
<!DOCTYPE svg PUBLIC "-//W3C//DTD SVG 1.1//EN" "http://www.w3.org/Graphics/SVG/1.1/DTD/svg11.dtd">
<svg version="1.1" xmlns="http://www.w3.org/2000/svg" xmlns:xlink="http://www.w3.org/1999/xlink" x="0px" y="0px"
	 viewBox="0 0 170 170" style="enable-background:new 0 0 170 170;" xml:space="preserve">
<style type="text/css">
	.st0{display:none;}
	.st1{display:inline;enable-background:new    ;}
	.st2{clip-path:url(#SVGID_2_);}
	.st3{clip-path:url(#SVGID_4_);}
	.st4{clip-path:url(#SVGID_6_);}
	.st5{opacity:0;clip-path:url(#SVGID_8_);}
	.st6{opacity:0;}
	.st7{clip-path:url(#SVGID_10_);}
	.st8{clip-path:url(#SVGID_14_);}
	.st9{clip-path:url(#SVGID_16_);}
	.st10{clip-path:url(#SVGID_18_);}
	.st11{clip-path:url(#SVGID_20_);}
	.st12{clip-path:url(#SVGID_24_);}
	.st13{clip-path:url(#SVGID_26_);}
	.st14{clip-path:url(#SVGID_28_);}
	.st15{opacity:0;clip-path:url(#SVGID_30_);}
	.st16{clip-path:url(#SVGID_32_);}
	.st17{clip-path:url(#SVGID_36_);}
	.st18{clip-path:url(#SVGID_38_);}
	.st19{clip-path:url(#SVGID_40_);}
	.st20{clip-path:url(#SVGID_42_);}
	.st21{clip-path:url(#SVGID_46_);}
	.st22{clip-path:url(#SVGID_48_);}
	.st23{clip-path:url(#SVGID_50_);}
	.st24{opacity:0;clip-path:url(#SVGID_52_);}
	.st25{clip-path:url(#SVGID_54_);}
	.st26{clip-path:url(#SVGID_58_);}
	.st27{clip-path:url(#SVGID_60_);}
	.st28{clip-path:url(#SVGID_62_);}
	.st29{clip-path:url(#SVGID_64_);}
	.st30{clip-path:url(#SVGID_68_);}
	.st31{clip-path:url(#SVGID_70_);}
	.st32{clip-path:url(#SVGID_72_);}
	.st33{opacity:0;clip-path:url(#SVGID_74_);}
	.st34{clip-path:url(#SVGID_76_);}
	.st35{clip-path:url(#SVGID_80_);}
	.st36{clip-path:url(#SVGID_82_);}
	.st37{clip-path:url(#SVGID_84_);}
	.st38{clip-path:url(#SVGID_86_);}
	.st39{clip-path:url(#SVGID_90_);}
	.st40{clip-path:url(#SVGID_92_);}
	.st41{clip-path:url(#SVGID_94_);}
	.st42{opacity:0;clip-path:url(#SVGID_96_);}
	.st43{clip-path:url(#SVGID_98_);}
	.st44{clip-path:url(#SVGID_102_);}
	.st45{clip-path:url(#SVGID_104_);}
	.st46{clip-path:url(#SVGID_106_);}
	.st47{clip-path:url(#SVGID_108_);}
	.st48{clip-path:url(#SVGID_112_);}
	.st49{clip-path:url(#SVGID_114_);}
	.st50{clip-path:url(#SVGID_116_);}
	.st51{opacity:0;clip-path:url(#SVGID_118_);}
	.st52{clip-path:url(#SVGID_120_);}
	.st53{clip-path:url(#SVGID_124_);}
	.st54{clip-path:url(#SVGID_126_);}
	.st55{clip-path:url(#SVGID_128_);}
	.st56{clip-path:url(#SVGID_130_);}
	.st57{display:inline;}
	.st58{fill:#666666;stroke:#FFFFFF;stroke-width:2;stroke-linecap:round;stroke-linejoin:round;stroke-miterlimit:10;}
	.st59{fill:none;stroke:#FFFFFF;stroke-width:1.8;stroke-miterlimit:10;}
	.st60{display:inline;opacity:0.3;}
	.st61{fill:none;stroke:#F2F2F2;stroke-width:0.5;stroke-miterlimit:10;}
	.st62{fill:#FFFFFF;}
	.st63{fill:#989898;}
	.st64{fill:#CBCBCB;}
	.st65{fill:#E5E5E5;}
	.st66{fill:#666666;stroke:#FFFFFF;stroke-width:3;stroke-linecap:round;stroke-linejoin:round;stroke-miterlimit:10;}
	.st67{fill:#666666;stroke:#FFFFFF;stroke-width:2;stroke-miterlimit:10;}
	.st68{fill:none;stroke:#989898;stroke-width:2;stroke-miterlimit:10;}
	.st69{fill:#CCCCCC;}
	.st70{fill:none;stroke:#CCCCCC;stroke-miterlimit:10;}
	.st71{fill:none;stroke:#989898;stroke-width:3;stroke-linejoin:round;stroke-miterlimit:10;}
	.st72{fill:none;}
	.st73{fill:#B2B2B2;}
	.st74{fill:#4D4D4D;}
	.st75{fill:#666666;}
	.st76{fill:#F1F1F1;}
	.st77{fill:none;stroke:#CBCBCB;stroke-width:3;stroke-linecap:round;stroke-linejoin:round;stroke-miterlimit:10;}
	.st78{fill:#808080;}
	.st79{fill:url(#SVGID_133_);}
	.st80{fill:#999999;}
	.st81{fill:none;stroke:#B2B2B2;stroke-miterlimit:10;}
	.st82{fill:none;stroke:#F1F1F1;stroke-width:1.6;stroke-miterlimit:10;}
	.st83{fill:none;stroke:#CBCBCB;stroke-linecap:round;stroke-linejoin:round;stroke-miterlimit:10;}
	.st84{fill:none;stroke:#FFFFFF;stroke-miterlimit:10;}
	.st85{fill:none;stroke:#989898;stroke-width:3;stroke-linecap:round;stroke-linejoin:round;stroke-miterlimit:10;}
	.st86{opacity:0.5;fill:#666666;}
	.st87{fill:none;stroke:#E5E5E5;stroke-width:2;stroke-linecap:round;stroke-linejoin:round;stroke-miterlimit:10;}
	.st88{fill:none;stroke:#CCCCCC;stroke-width:3;stroke-miterlimit:10;}
	.st89{fill:#FFFFFF;stroke:#FFFFFF;stroke-miterlimit:10;}
	.st90{fill:none;stroke:#FFFFFF;stroke-width:3;stroke-miterlimit:10;}
	.st91{fill:none;stroke:#FFFFFF;stroke-width:2;stroke-miterlimit:10;}
	.st92{fill:none;stroke:#FFFFFF;stroke-width:3;stroke-linecap:round;stroke-linejoin:round;stroke-miterlimit:10;}
</style>
<g id="Layer_2" class="st0">
	<g class="st1">
		<g>
			<defs>
				<rect id="SVGID_45_" x="-209.2" y="-22.2" width="399.3" height="601.2"/>
			</defs>
			<clipPath id="SVGID_2_">
				<use xlink:href="#SVGID_45_"  style="overflow:visible;"/>
			</clipPath>
			<g class="st2">
				<defs>
					<rect id="SVGID_47_" x="-209.2" y="-424.4" width="399.3" height="1034.2"/>
				</defs>
				<clipPath id="SVGID_4_">
					<use xlink:href="#SVGID_47_"  style="overflow:visible;"/>
				</clipPath>
				<g class="st3">
					<defs>
						<rect id="SVGID_49_" x="-209.2" y="-22.2" width="399.3" height="601.2"/>
					</defs>
					<clipPath id="SVGID_6_">
						<use xlink:href="#SVGID_49_"  style="overflow:visible;"/>
					</clipPath>
					<g class="st4">
						<defs>
							<rect id="SVGID_51_" x="-209.2" y="-22.2" width="399.3" height="601.2"/>
						</defs>
						<clipPath id="SVGID_8_">
							<use xlink:href="#SVGID_51_"  style="overflow:visible;"/>
						</clipPath>
						<g class="st5">
							<g class="st6">
								<g>
									<defs>
										<rect id="SVGID_53_" x="-209.2" y="-22.2" width="399.3" height="601.2"/>
									</defs>
									<clipPath id="SVGID_10_">
										<use xlink:href="#SVGID_53_"  style="overflow:visible;"/>
									</clipPath>
									<g class="st7">
										<defs>
											<rect id="SVGID_55_" x="-209.2" y="-22.2" width="399.3" height="601.2"/>
										</defs>
										<clipPath id="SVGID_12_">
											<use xlink:href="#SVGID_55_"  style="overflow:visible;"/>
										</clipPath>
										<g style="clip-path:url(#SVGID_12_);">
											
												<image style="overflow:visible;" width="1664" height="2505" xlink:href="1EAC99EFD8274EEB.jpg"  transform="matrix(0.24 0 0 0.24 -209.166 -22.171)">
											</image>
										</g>
									</g>
								</g>
							</g>
						</g>
					</g>
				</g>
			</g>
			<g class="st2">
				<defs>
					<rect id="SVGID_57_" x="-209.2" y="-424.4" width="399.3" height="1034.2"/>
				</defs>
				<clipPath id="SVGID_14_">
					<use xlink:href="#SVGID_57_"  style="overflow:visible;"/>
				</clipPath>
				<g class="st8">
					<defs>
						<rect id="SVGID_59_" x="-209.2" y="-22.2" width="399.3" height="601.2"/>
					</defs>
					<clipPath id="SVGID_16_">
						<use xlink:href="#SVGID_59_"  style="overflow:visible;"/>
					</clipPath>
					<g class="st9">
						<defs>
							<rect id="SVGID_61_" x="-209.2" y="-22.2" width="399.3" height="601.2"/>
						</defs>
						<clipPath id="SVGID_18_">
							<use xlink:href="#SVGID_61_"  style="overflow:visible;"/>
						</clipPath>
						<g class="st10">
							<g>
								<defs>
									<rect id="SVGID_63_" x="-209.2" y="-22.8" width="399.3" height="601.2"/>
								</defs>
								<clipPath id="SVGID_20_">
									<use xlink:href="#SVGID_63_"  style="overflow:visible;"/>
								</clipPath>
								<g class="st11">
									<defs>
										<rect id="SVGID_65_" x="-209.2" y="-22.8" width="399.3" height="601.2"/>
									</defs>
									<clipPath id="SVGID_22_">
										<use xlink:href="#SVGID_65_"  style="overflow:visible;"/>
									</clipPath>
									<g style="clip-path:url(#SVGID_22_);">
										
											<image style="overflow:visible;" width="1664" height="2505" xlink:href="1EAC99EFD8274EE9.jpg"  transform="matrix(0.24 0 0 0.24 -209.166 -22.8419)">
										</image>
									</g>
								</g>
							</g>
						</g>
					</g>
				</g>
			</g>
		</g>
	</g>
</g>
<g id="GRIDS" class="st0">
	<g class="st60">
		<rect x="0" class="st61" width="170" height="170"/>
		<line class="st61" x1="0" y1="0" x2="170" y2="170"/>
		<line class="st61" x1="170" y1="0" x2="0" y2="170"/>
		<line class="st61" x1="0" y1="85" x2="170" y2="85"/>
		<line class="st61" x1="0" y1="54" x2="170" y2="54"/>
		<line class="st61" x1="0" y1="116" x2="170" y2="116"/>
		<line class="st61" x1="0" y1="11" x2="170" y2="11"/>
		<line class="st61" x1="0" y1="159" x2="170" y2="159"/>
		<line class="st61" x1="85" y1="0" x2="85" y2="170"/>
		<line class="st61" x1="159" y1="0" x2="159" y2="170"/>
		<circle class="st61" cx="85" cy="85" r="31"/>
		<circle class="st61" cx="85" cy="85" r="44"/>
		<circle class="st61" cx="85" cy="85" r="74"/>
		<line class="st61" x1="54" y1="0" x2="54" y2="170"/>
		<line class="st61" x1="11" y1="0" x2="11" y2="170"/>
		<line class="st61" x1="116" y1="0" x2="116" y2="170"/>
	</g>
</g>
<g id="MOTION_PROTECT">
	<g>
		<path class="st62" d="M26.5,58.5h-2.1v-4.3h-4v4.3h-2.1v-10h2.1v3.9h4v-3.9h2.1V58.5z"/>
		<path class="st62" d="M36.7,58.5h-2.1v-3.9c-0.7,0.2-1.3,0.4-1.8,0.5c-0.5,0.1-0.9,0.1-1.3,0.1c-1,0-1.7-0.2-2.2-0.7
			c-0.5-0.5-0.8-1.1-0.8-1.9v-4.1h2.1V52c0,0.5,0.1,0.8,0.3,1.1s0.6,0.4,1.1,0.4c0.4,0,0.7,0,1.1-0.1c0.4-0.1,0.8-0.2,1.4-0.4v-4.5
			h2.1V58.5z"/>
	</g>
	<g>
		<path class="st80" d="M131.6,48.5h3.1c1.4,0,2.4,0.2,3.1,0.6c0.6,0.4,1,1,1,1.9c0,0.6-0.1,1.1-0.4,1.5c-0.3,0.4-0.7,0.6-1.1,0.7
			v0.1c0.6,0.1,1.1,0.4,1.4,0.8c0.3,0.4,0.4,0.9,0.4,1.5c0,0.9-0.3,1.6-1,2.1c-0.7,0.5-1.6,0.8-2.7,0.8h-3.7V48.5z M133.7,52.5h1.2
			c0.6,0,1-0.1,1.2-0.3c0.3-0.2,0.4-0.5,0.4-0.9c0-0.4-0.1-0.7-0.4-0.8c-0.3-0.2-0.7-0.2-1.3-0.2h-1.1V52.5z M133.7,54.1v2.6h1.4
			c0.6,0,1-0.1,1.3-0.3s0.4-0.6,0.4-1c0-0.8-0.6-1.2-1.8-1.2H133.7z"/>
		<path class="st80" d="M148.6,58.5h-2.1v-3.9c-0.7,0.2-1.3,0.4-1.8,0.5c-0.5,0.1-0.9,0.1-1.3,0.1c-1,0-1.7-0.2-2.2-0.7
			c-0.5-0.5-0.8-1.1-0.8-1.9v-4.1h2.1V52c0,0.5,0.1,0.8,0.3,1.1s0.6,0.4,1.1,0.4c0.4,0,0.7,0,1.1-0.1c0.4-0.1,0.8-0.2,1.4-0.4v-4.5
			h2.1V58.5z"/>
	</g>
	<g>
		<path class="st64" d="M148.8,83.5h-23.6c-0.5-1-1.6-1.7-2.8-1.7s-2.3,0.7-2.8,1.7H105c-0.5-1-1.6-1.7-2.8-1.7
			c-1.2,0-2.3,0.7-2.8,1.7h-13v-13c1-0.5,1.7-1.6,1.7-2.8c0-1.2-0.7-2.3-1.7-2.8V50.4c1-0.5,1.7-1.6,1.7-2.8s-0.7-2.3-1.7-2.8v-8
			c0-0.8-0.7-1.5-1.5-1.5s-1.5,0.7-1.5,1.5v8c-1,0.5-1.7,1.6-1.7,2.8s0.7,2.3,1.7,2.8v14.6c-1,0.5-1.7,1.6-1.7,2.8
			c0,1.2,0.7,2.3,1.7,2.8v13H70.2c-0.5-1-1.6-1.7-2.8-1.7c-1.2,0-2.3,0.7-2.8,1.7H50.4c-0.5-1-1.6-1.7-2.8-1.7s-2.3,0.7-2.8,1.7
			H19.9c-0.8,0-1.5,0.7-1.5,1.5s0.7,1.5,1.5,1.5h24.8c0.5,1,1.6,1.7,2.8,1.7s2.3-0.7,2.8-1.7h14.2c0.5,1,1.6,1.7,2.8,1.7
			c1.2,0,2.3-0.7,2.8-1.7h13.1v13c-1,0.5-1.7,1.6-1.7,2.8c0,1.2,0.7,2.3,1.7,2.8v14.6c-1,0.5-1.7,1.6-1.7,2.8s0.7,2.3,1.7,2.8v8
			c0,0.8,0.7,1.5,1.5,1.5s1.5-0.7,1.5-1.5v-8c1-0.5,1.7-1.6,1.7-2.8s-0.7-2.3-1.7-2.8v-14.6c1-0.5,1.7-1.6,1.7-2.8
			c0-1.2-0.7-2.3-1.7-2.8v-13h13c0.5,1,1.6,1.7,2.8,1.7c1.2,0,2.3-0.7,2.8-1.7h14.6c0.5,1,1.6,1.7,2.8,1.7s2.3-0.7,2.8-1.7h23.6
			c0.8,0,1.5-0.7,1.5-1.5S149.6,83.5,148.8,83.5z"/>
	</g>
	<path class="st85" d="M115.9,85.1c0,0-6.8,41.3-14.4,0s-16.9,0.2-16.9,0.2"/>
	<path class="st85" d="M144.7,85.1c0,0-6.8,41.3-14.4,0c-7.6-41.3-14.4,0-14.4,0"/>
</g>
<g id="Archive">
</g>
<g id="Archive_2">
	<path class="st92" d="M84.6,85c0,0-14.3,39.4-30.1,0s-30.1,0-30.1,0"/>
</g>
<g id="Layer_6">
</g>
</svg>
