<?xml version="1.0" encoding="UTF-8" standalone="no"?>
<svg width="263px" height="99px" viewBox="0 0 263 99" version="1.1" xmlns="http://www.w3.org/2000/svg" xmlns:xlink="http://www.w3.org/1999/xlink" xmlns:sketch="http://www.bohemiancoding.com/sketch/ns">
    <!-- Generator: Sketch 3.2.2 (9983) - http://www.bohemiancoding.com/sketch -->
    <title>404</title>
    <desc>Created with Sketch.</desc>
    <defs>
        <linearGradient x1="50%" y1="0%" x2="50%" y2="205.532983%" id="linearGradient-1">
            <stop stop-color="#B2B2B2" offset="0%"></stop>
            <stop stop-color="#000000" offset="100%"></stop>
        </linearGradient>
    </defs>
    <g id="Welcome" stroke="none" stroke-width="1" fill="none" fill-rule="evenodd" sketch:type="MSPage">
        <g id="Main-Hover-Device" sketch:type="MSArtboardGroup" transform="translate(-586.000000, -342.000000)" fill="url(#linearGradient-1)">
            <path d="M640.255602,438.422895 L647.026873,438.422895 L647.026873,415.265149 L662.46537,415.265149 L662.46537,409.171006 L647.026873,409.171006 L647.026873,342.947978 L640.661878,342.947978 L586.491713,409.983558 L588.92937,415.265149 L640.255602,415.265149 L640.255602,438.422895 Z M595.023514,409.171006 L640.255602,353.104884 L640.255602,409.171006 L595.023514,409.171006 Z M717.854365,440.048 C741.960088,440.048 757.26316,417.161105 757.26316,391.024 C757.26316,364.616044 742.230939,342 718.125215,342 C694.019492,342 678.71642,364.886895 678.71642,391.024 C678.71642,417.431956 693.748641,440.048 717.854365,440.048 L717.854365,440.048 Z M718.125215,433.683006 C698.48853,433.683006 686.029392,412.962917 686.029392,391.024 C686.029392,368.678807 698.21768,348.364994 717.854365,348.364994 C737.49105,348.364994 749.950188,368.949657 749.950188,391.024 C749.950188,413.233768 737.761901,433.683006 718.125215,433.683006 L718.125215,433.683006 Z M826.330122,438.422895 L833.101392,438.422895 L833.101392,415.265149 L848.53989,415.265149 L848.53989,409.171006 L833.101392,409.171006 L833.101392,342.947978 L826.736398,342.947978 L772.566232,409.983558 L775.00389,415.265149 L826.330122,415.265149 L826.330122,438.422895 Z M781.098033,409.171006 L826.330122,353.104884 L826.330122,409.171006 L781.098033,409.171006 Z" id="404" sketch:type="MSShapeGroup"></path>
        </g>
    </g>
</svg>