<?xml version="1.0" encoding="UTF-8" standalone="no"?>
<svg width="25px" height="25px" viewBox="0 0 25 25" version="1.1" xmlns="http://www.w3.org/2000/svg" xmlns:xlink="http://www.w3.org/1999/xlink" xmlns:sketch="http://www.bohemiancoding.com/sketch/ns">
    <!-- Generator: Sketch 3.2.2 (9983) - http://www.bohemiancoding.com/sketch -->
    <title>Facebook</title>
    <desc>Created with Sketch.</desc>
    <defs></defs>
    <g id="Welcome" stroke="none" stroke-width="1" fill="none" fill-rule="evenodd" sketch:type="MSPage">
        <g id="Facebook" sketch:type="MSArtboardGroup" fill="#000000">
            <path d="M20.3125,0 C21.6037391,0 22.7077862,0.458437256 23.6246745,1.37532552 C24.5415627,2.29221379 25,3.3962609 25,4.6875 L25,20.3125 C25,21.6037391 24.5415627,22.7077862 23.6246745,23.6246745 C22.7077862,24.5415627 21.6037391,25 20.3125,25 L17.2526042,25 L17.2526042,15.3157552 L20.4915365,15.3157552 L20.9798177,11.5397135 L17.2526042,11.5397135 L17.2526042,9.13085938 C17.2526042,8.52321745 17.3800986,8.06749284 17.6350911,7.76367188 C17.8900837,7.45985091 18.386498,7.30794271 19.124349,7.30794271 L21.110026,7.29166667 L21.110026,3.92252604 C20.4264289,3.8248693 19.4607267,3.77604167 18.2128906,3.77604167 C16.7371888,3.77604167 15.5571876,4.2100651 14.6728516,5.078125 C13.7885155,5.9461849 13.3463542,7.17230111 13.3463542,8.75651042 L13.3463542,11.5397135 L10.0911458,11.5397135 L10.0911458,15.3157552 L13.3463542,15.3157552 L13.3463542,25 L4.6875,25 C3.3962609,25 2.29221379,24.5415627 1.37532552,23.6246745 C0.458437256,22.7077862 0,21.6037391 0,20.3125 L0,4.6875 C0,3.3962609 0.458437256,2.29221379 1.37532552,1.37532552 C2.29221379,0.458437256 3.3962609,0 4.6875,0 L20.3125,0 Z" id="" sketch:type="MSShapeGroup"></path>
        </g>
    </g>
</svg>