<?xml version="1.0" encoding="UTF-8" standalone="no"?>
<svg width="25px" height="25px" viewBox="0 0 25 25" version="1.1" xmlns="http://www.w3.org/2000/svg" xmlns:xlink="http://www.w3.org/1999/xlink" xmlns:sketch="http://www.bohemiancoding.com/sketch/ns">
    <!-- Generator: Sketch 3.2.2 (9983) - http://www.bohemiancoding.com/sketch -->
    <title>Google</title>
    <desc>Created with Sketch.</desc>
    <defs></defs>
    <g id="Welcome" stroke="none" stroke-width="1" fill="none" fill-rule="evenodd" sketch:type="MSPage">
        <g id="Google" sketch:type="MSArtboardGroup" fill="#000000">
            <path d="M13.4928385,17.7408854 C13.4928385,18.5655423 13.1754589,19.1758878 12.5406901,19.5719401 C11.9059213,19.9679924 11.1490929,20.1660156 10.2701823,20.1660156 C9.8253016,20.1660156 9.38856551,20.1144753 8.95996094,20.0113932 C8.53135636,19.9083111 8.12174674,19.7536903 7.73111979,19.547526 C7.34049284,19.3413618 7.02582585,19.0538213 6.78710937,18.6848958 C6.5483929,18.3159704 6.42903646,17.8927975 6.42903646,17.4153646 C6.42903646,16.9162301 6.56466878,16.4822067 6.8359375,16.1132812 C7.10720622,15.7443558 7.46256291,15.4649532 7.90201823,15.2750651 C8.34147355,15.085177 8.78634757,14.9495447 9.23665365,14.8681641 C9.68695972,14.7867834 10.145397,14.7460937 10.6119792,14.7460937 C10.8289941,14.7460937 10.9971782,14.7569443 11.1165365,14.7786458 C11.138238,14.7894966 11.2630197,14.8790139 11.4908854,15.0472005 C11.7187511,15.2153871 11.8598088,15.3184677 11.9140625,15.3564453 C11.9683162,15.3944229 12.093098,15.4920782 12.2884115,15.6494141 C12.4837249,15.8067499 12.6166446,15.9261064 12.6871745,16.007487 C12.7577043,16.0888676 12.8607849,16.2109367 12.9964193,16.3736979 C13.1320536,16.5364591 13.2242836,16.6775168 13.273112,16.796875 C13.3219403,16.9162332 13.370768,17.0600035 13.4195964,17.2281901 C13.4684247,17.3963767 13.4928385,17.5672734 13.4928385,17.7408854 L13.4928385,17.7408854 Z M12.2884115,8.87044271 C12.2884115,9.52148763 12.1093768,10.0613043 11.7513021,10.4899089 C11.3932274,10.9185134 10.8941004,11.1328125 10.2539062,11.1328125 C9.67881657,11.1328125 9.17426432,10.9022375 8.74023438,10.4410807 C8.30620443,9.97992391 7.99425008,9.45638314 7.80436198,8.87044271 C7.61447388,8.28450228 7.51953125,7.70942122 7.51953125,7.14518229 C7.51953125,6.48328662 7.69314062,5.91905615 8.04036458,5.45247396 C8.38758854,4.98589176 8.88671549,4.75260417 9.53776042,4.75260417 C10.1128501,4.75260417 10.620115,4.99674235 11.0595703,5.48502604 C11.4990256,5.97330973 11.8136926,6.52126432 12.0035807,7.12890625 C12.1934688,7.73654818 12.2884115,8.31705452 12.2884115,8.87044271 L12.2884115,8.87044271 Z M14.0136719,4.6875 L15.4459635,3.64583333 L11.1328125,3.64583333 C10.2104989,3.64583333 9.33702669,3.81944271 8.51236979,4.16666667 C7.68771289,4.51389063 6.99598804,5.04556934 6.43717448,5.76171875 C5.87836092,6.47786816 5.59895833,7.30793799 5.59895833,8.25195313 C5.59895833,9.26107275 5.94888973,10.0992805 6.64876302,10.7666016 C7.34863631,11.4339226 8.20854525,11.7675781 9.22851562,11.7675781 C9.4672321,11.7675781 9.70051969,11.7513022 9.92838542,11.71875 C9.78732568,12.0334217 9.71679687,12.3263875 9.71679687,12.5976563 C9.71679687,13.0750892 9.93380859,13.5850667 10.3678385,14.1276042 C8.46895752,14.2578132 7.07465723,14.5996066 6.18489583,15.1529948 C5.67491064,15.4676665 5.26530103,15.8637129 4.95605469,16.3411458 C4.64680835,16.8185788 4.4921875,17.3339816 4.4921875,17.8873698 C4.4921875,18.353952 4.59255542,18.7744122 4.79329427,19.148763 C4.99403312,19.5231139 5.25715983,19.8296429 5.58268229,20.0683594 C5.90820475,20.3070758 6.28254997,20.5078117 6.70572917,20.6705729 C7.12890837,20.8333341 7.54936857,20.9472653 7.9671224,21.0123698 C8.38487622,21.0774743 8.79991113,21.110026 9.21223958,21.110026 C9.86328451,21.110026 10.5170323,21.025934 11.1735026,20.8577474 C11.8299729,20.6895608 12.4457437,20.4399973 13.0208333,20.1090495 C13.595923,19.7781016 14.0624982,19.330515 14.4205729,18.766276 C14.7786476,18.2020371 14.9576823,17.5672778 14.9576823,16.8619792 C14.9576823,16.3302925 14.8491764,15.8447288 14.6321615,15.4052734 C14.4151465,14.9658181 14.1493071,14.6050361 13.8346354,14.3229167 C13.5199637,14.0407972 13.2052967,13.7830958 12.890625,13.5498047 C12.5759533,13.3165136 12.3101139,13.0778007 12.093099,12.8336589 C11.876084,12.589517 11.7675781,12.3480915 11.7675781,12.109375 C11.7675781,11.8706585 11.8516702,11.6400836 12.0198568,11.4176432 C12.1880434,11.1952029 12.3914919,10.9809038 12.6302083,10.7747396 C12.8689248,10.5685754 13.1076377,10.3407131 13.3463542,10.0911458 C13.5850706,9.84157861 13.7885191,9.51877368 13.9567057,9.12272135 C14.1248923,8.72666903 14.2089844,8.27908236 14.2089844,7.77994792 C14.2089844,7.12890299 14.0869153,6.58908634 13.8427734,6.16048177 C13.5986316,5.7318772 13.2052979,5.24088818 12.6627604,4.6875 L14.0136719,4.6875 Z M18.75,11.9791667 L20.8333333,11.9791667 L20.8333333,10.9375 L18.75,10.9375 L18.75,8.85416667 L17.7083333,8.85416667 L17.7083333,10.9375 L15.625,10.9375 L15.625,11.9791667 L17.7083333,11.9791667 L17.7083333,14.5833333 L18.75,14.5833333 L18.75,11.9791667 Z M25,4.6875 L25,20.3125 C25,21.6037391 24.5415627,22.7077862 23.6246745,23.6246745 C22.7077862,24.5415627 21.6037391,25 20.3125,25 L4.6875,25 C3.3962609,25 2.29221379,24.5415627 1.37532552,23.6246745 C0.458437256,22.7077862 0,21.6037391 0,20.3125 L0,4.6875 C0,3.3962609 0.458437256,2.29221379 1.37532552,1.37532552 C2.29221379,0.458437256 3.3962609,0 4.6875,0 L20.3125,0 C21.6037391,0 22.7077862,0.458437256 23.6246745,1.37532552 C24.5415627,2.29221379 25,3.3962609 25,4.6875 L25,4.6875 Z" id="" sketch:type="MSShapeGroup"></path>
        </g>
    </g>
</svg>