<?xml version="1.0" encoding="UTF-8" standalone="no"?>
<svg width="60px" height="60px" viewBox="0 0 60 60" version="1.1" xmlns="http://www.w3.org/2000/svg" xmlns:xlink="http://www.w3.org/1999/xlink" xmlns:sketch="http://www.bohemiancoding.com/sketch/ns">
    <!-- Generator: Sketch 3.2.2 (9983) - http://www.bohemiancoding.com/sketch -->
    <title>Artboard 37</title>
    <desc>Created with Sketch.</desc>
    <defs></defs>
    <g id="Welcome" stroke="none" stroke-width="1" fill="none" fill-rule="evenodd" sketch:type="MSPage">
        <g id="Artboard-37" sketch:type="MSArtboardGroup">
            <g id="Oval-52-+-Imported-Layers-+-360" sketch:type="MSLayerGroup">
                <circle id="Oval-52" opacity="0.401322282" fill="#000000" sketch:type="MSShapeGroup" cx="30" cy="30" r="30"></circle>
                <path d="M21.3069014,42.9444965 L23.3192408,48.2801284 L17.9579278,50.2734444 M39.6822038,46.8471492 C45.9416826,43.4707605 50.1706968,37.0509173 50.1706968,29.6865539 C50.1706968,18.8119042 40.9546059,10 29.5853484,10 C18.2177717,10 9,18.8119042 9,29.6865539 C9,38.3247532 14.8174158,45.6601658 22.9090192,48.3127842" id="Imported-Layers" stroke="#E5E5E5" stroke-width="2" stroke-linecap="round" stroke-linejoin="round" opacity="0.623542444" sketch:type="MSShapeGroup"></path>
                <path d="M25.2026457,27.4125358 C25.2026457,28.0352733 25.0244864,28.5538401 24.6681624,28.9682518 C24.3118384,29.3826634 23.810353,29.6615471 23.1636909,29.8049111 L23.1636909,29.8586724 C23.9379257,29.9572351 24.5185932,30.2025183 24.9057106,30.5945294 C25.292828,30.9865404 25.4863838,31.5073472 25.4863838,32.1569655 C25.4863838,33.1022721 25.1586586,33.8314017 24.5031985,34.3443761 C23.8477383,34.8573505 22.9151512,35.1138339 21.7054093,35.1138339 C20.6364374,35.1138339 19.7346433,34.9368715 19,34.5829416 L19,33.1784291 C19.4091127,33.3845149 19.8424138,33.543557 20.2999162,33.6555601 C20.7574186,33.7675633 21.1973181,33.823564 21.619628,33.823564 C22.3674685,33.823564 22.9261409,33.6824422 23.2956621,33.4001942 C23.6651833,33.1179463 23.8499411,32.6811406 23.8499411,32.0897639 C23.8499411,31.5655892 23.6453878,31.1803041 23.2362751,30.9338972 C22.8271623,30.6874903 22.184909,30.5642887 21.3094958,30.5642887 L20.4714787,30.5642887 L20.4714787,29.280739 L21.3226929,29.280739 C22.8623644,29.280739 23.6321886,28.7386519 23.6321886,27.6544614 C23.6321886,27.2333295 23.4980193,26.9085253 23.2296765,26.6800388 C22.9613338,26.4515524 22.5654242,26.3373109 22.0419358,26.3373109 C21.6768137,26.3373109 21.3248941,26.3899516 20.9861663,26.4952346 C20.6474386,26.6005175 20.24713,26.8054802 19.7852286,27.1101288 L19.0263942,26.0080233 C19.9106056,25.3449647 20.9377711,25.0134403 22.1079214,25.0134403 C23.080114,25.0134403 23.8389408,25.2262431 24.3844244,25.6518551 C24.929908,26.077467 25.2026457,26.6643547 25.2026457,27.4125358 L25.2026457,27.4125358 Z M26.7665043,30.792774 C26.7665043,26.9488258 28.3039532,25.0268806 31.3788972,25.0268806 C31.862794,25.0268806 32.2719006,25.0649611 32.6062293,25.1411233 L32.6062293,26.4582737 C32.2719006,26.3597109 31.884789,26.3104303 31.4448828,26.3104303 C30.4111034,26.3104303 29.6346807,26.592674 29.1155914,27.1571699 C28.5965021,27.7216658 28.3149664,28.6266376 28.2709758,29.8721127 L28.3501585,29.8721127 C28.5569144,29.5092225 28.8472481,29.2280988 29.2211683,29.0287332 C29.5950886,28.8293676 30.0349881,28.7296862 30.5408802,28.7296862 C31.4162934,28.7296862 32.0981378,29.0029698 32.5864336,29.5495452 C33.0747294,30.0961206 33.3188737,30.8375703 33.3188737,31.7739166 C33.3188737,32.8043456 33.0362382,33.6185963 32.4709588,34.2166931 C31.9056794,34.8147899 31.1347554,35.1138339 30.1581638,35.1138339 C29.4675111,35.1138339 28.8670482,34.9447117 28.3567571,34.6064621 C27.8464659,34.2682126 27.4538556,33.7754062 27.1789142,33.128028 C26.9039729,32.4806497 26.7665043,31.7022395 26.7665043,30.792774 L26.7665043,30.792774 Z M30.1317695,33.8101237 C30.664056,33.8101237 31.0742623,33.6354014 31.3624008,33.2859516 C31.6505394,32.9365018 31.7946065,32.4369752 31.7946065,31.7873569 C31.7946065,31.2228611 31.6593374,30.7793353 31.3887951,30.4567662 C31.1182528,30.1341971 30.7124455,29.972915 30.1713609,29.972915 C29.8370322,29.972915 29.5291025,30.0457159 29.2475626,30.19132 C28.9660226,30.3369241 28.7438734,30.5362868 28.5811081,30.7894139 C28.4183428,31.042541 28.3369614,31.3012644 28.3369614,31.5655918 C28.3369614,32.1972896 28.505223,32.7292966 28.8417512,33.1616287 C29.1782794,33.5939609 29.6082812,33.8101237 30.1317695,33.8101237 L30.1317695,33.8101237 Z M40.9929981,30.0669972 C40.9929981,31.7739252 40.7235596,33.0417818 40.1846746,33.8706051 C39.6457896,34.6994284 38.8220777,35.1138339 37.7135142,35.1138339 C36.6401431,35.1138339 35.826329,34.6859883 35.2720472,33.8302842 C34.7177655,32.9745801 34.4406287,31.7201637 34.4406287,30.0669972 C34.4406287,28.3331884 34.7100672,27.0552516 35.2489523,26.2331485 C35.7878373,25.4110454 36.6093497,25 37.7135142,25 C38.7912842,25 39.6072979,25.4300856 40.1615797,26.2902698 C40.7158614,27.150454 40.9929981,28.4093505 40.9929981,30.0669972 L40.9929981,30.0669972 Z M36.0110859,30.0669972 C36.0110859,31.4065548 36.146355,32.3630474 36.4168973,32.9365035 C36.6874395,33.5099596 37.1196408,33.7966834 37.7135142,33.7966834 C38.3073875,33.7966834 38.7417883,33.5054796 39.0167296,32.9230632 C39.291671,32.3406468 39.4291396,31.3886343 39.4291396,30.0669972 C39.4291396,28.7498401 39.291671,27.7967076 39.0167296,27.207571 C38.7417883,26.6184345 38.3073875,26.3238706 37.7135142,26.3238706 C37.1196408,26.3238706 36.6874395,26.6128344 36.4168973,27.1907707 C36.146355,27.7687069 36.0110859,28.7274395 36.0110859,30.0669972 L36.0110859,30.0669972 Z" id="360" opacity="0.907649254" fill="#FFFFFF" sketch:type="MSShapeGroup"></path>
            </g>
        </g>
    </g>
</svg>