<?xml version="1.0" encoding="utf-8"?>
<!-- Generator: Adobe Illustrator 18.0.0, SVG Export Plug-In . SVG Version: 6.00 Build 0)  -->
<!DOCTYPE svg PUBLIC "-//W3C//DTD SVG 1.1//EN" "http://www.w3.org/Graphics/SVG/1.1/DTD/svg11.dtd">
<svg version="1.1" id="Слой_1" xmlns="http://www.w3.org/2000/svg" xmlns:xlink="http://www.w3.org/1999/xlink" x="0px" y="0px"
	 viewBox="0 0 220.3 40.1" style="enable-background:new 0 0 220.3 40.1;" xml:space="preserve">
<style type="text/css">
	.st0{fill:#0093EE;}
	.st1{fill:#666666;}
	.st2{fill:none;stroke:#000000;stroke-width:12;stroke-linecap:round;stroke-linejoin:round;stroke-miterlimit:10;}
	.st3{fill:#FFFFFF;}
	.st4{fill:none;stroke:#666666;stroke-width:1.3199;stroke-miterlimit:10;}
	.st5{fill:none;stroke:#666666;stroke-width:1.5061;stroke-miterlimit:10;}
	.st6{fill:none;stroke:#666666;stroke-miterlimit:10;}
	.st7{fill:#878787;}
	.st8{fill:none;stroke:#C6C6C6;stroke-miterlimit:10;}
</style>
<g>
	<path class="st0" d="M21.5,13.5L43,5.8V0.6c0-0.4-0.4-0.7-0.7-0.6L21.7,5c-0.1,0-0.2,0-0.3,0L0.7,0C0.4-0.1,0,0.2,0,0.6v1.6v3v9.3
		h0v0.2c0,0.5,0.3,0.9,0.7,1.1l20.9,10.4l15.4-7.7v4l-15.4,8.7L0,19.1v5.9c0,0.4,0.2,0.8,0.5,1l20.3,14c0.4,0.3,0.9,0.3,1.4,0
		l20.3-14c0.3-0.2,0.5-0.6,0.5-1h0v0v-5.9v-3.6v-2.8v-2.3c0-0.4-0.4-0.7-0.8-0.6L21.5,18L6.1,11.9V8L21.5,13.5z"/>
	<path class="st1" d="M88.9,10.8V8.4c0-1.5-1.2-2.7-2.7-2.7H66.7c-1.5,0-2.7,1.2-2.7,2.7v2.2v0.1v5.1V16v2.2c0,1.5,1.2,2.7,2.7,2.7
		h17.1V26H64v2.3c0,1.5,1.2,2.7,2.7,2.7h19.5c1.5,0,2.7-1.2,2.7-2.7v-2.2V26v-5.1v-0.1v-2.3c0-1.5-1.2-2.7-2.7-2.7H69.1v-5.1H88.9z"
		/>
	<path class="st1" d="M121.8,10.8V8.4c0-1.5-1.2-2.7-2.7-2.7H99.6c-1.5,0-2.7,1.2-2.7,2.7v2.2v0.1v5.1v5.1V26v0.1v2.3
		c0,1.5,1.2,2.7,2.7,2.7h19.5c1.5,0,2.7-1.2,2.7-2.7V26H102v-5.1h14.6v-5.1H102v-5.1H121.8z"/>
	<path class="st1" d="M154.5,10.8V8.4c0-1.5-1.2-2.7-2.7-2.7h-19.5c-1.5,0-2.7,1.2-2.7,2.7v2.2v0.1V26v0.1v2.3
		c0,1.5,1.2,2.7,2.7,2.7h19.5c1.5,0,2.7-1.2,2.7-2.7V26h-19.9V10.8H154.5z"/>
	<path class="st1" d="M182.3,5.7V26h-14.8V5.7h-5.1V26v0.2v2.2c0,1.5,1.2,2.7,2.7,2.7h19.5c1.5,0,2.7-1.2,2.7-2.7v-2.2V26V5.7H182.3
		z"/>
	<path class="st1" d="M217.6,5.7h-22.2v0.2v4.9v5.1v5.1v10.2h5.1V20.9h14.8v10.2h5.1v-8.5c0-1.1-0.4-2.1-1.2-2.8
		c0.7-0.7,1.2-1.7,1.2-2.8V16v-0.1v-5.1v-0.1V8.4C220.3,6.9,219.1,5.7,217.6,5.7z M215.2,15.9h-14.8v-5.1h14.8V15.9z"/>
</g>
</svg>
