<?xml version="1.0" encoding="UTF-8" standalone="no"?>
<svg width="25px" height="25px" viewBox="0 0 25 25" version="1.1" xmlns="http://www.w3.org/2000/svg" xmlns:xlink="http://www.w3.org/1999/xlink" xmlns:sketch="http://www.bohemiancoding.com/sketch/ns">
    <!-- Generator: Sketch 3.2.2 (9983) - http://www.bohemiancoding.com/sketch -->
    <title>Youtube</title>
    <desc>Created with Sketch.</desc>
    <defs></defs>
    <g id="Welcome" stroke="none" stroke-width="1" fill="none" fill-rule="evenodd" sketch:type="MSPage">
        <g id="Youtube" sketch:type="MSArtboardGroup" fill="#000000">
            <path d="M14.9576823,19.124349 L14.9576823,16.5690104 C14.9576823,16.026473 14.8003488,15.7552083 14.4856771,15.7552083 C14.3012144,15.7552083 14.1221797,15.842013 13.9485677,16.015625 L13.9485677,19.6614583 C14.1221797,19.8350703 14.3012144,19.921875 14.4856771,19.921875 C14.8003488,19.921875 14.9576823,19.6560356 14.9576823,19.124349 L14.9576823,19.124349 Z M17.952474,17.1386719 L19.0266927,17.1386719 L19.0266927,16.5852865 C19.0266927,16.0318983 18.847658,15.7552083 18.4895833,15.7552083 C18.1315086,15.7552083 17.952474,16.0318983 17.952474,16.5852865 L17.952474,17.1386719 Z M8.65885417,12.8092448 L8.65885417,13.9485677 L7.35677083,13.9485677 L7.35677083,20.8333333 L6.15234375,20.8333333 L6.15234375,13.9485677 L4.8828125,13.9485677 L4.8828125,12.8092448 L8.65885417,12.8092448 Z M11.9303385,14.860026 L11.9303385,20.8333333 L10.8398437,20.8333333 L10.8398437,20.1822917 C10.4166646,20.6705754 10.0043423,20.9147135 9.60286458,20.9147135 C9.24478988,20.9147135 9.01692757,20.7628053 8.91927083,20.4589844 C8.85416634,20.2853724 8.82161458,19.9924066 8.82161458,19.5800781 L8.82161458,14.860026 L9.89583333,14.860026 L9.89583333,19.2545573 C9.89583333,19.5149753 9.90125863,19.6560329 9.91210938,19.6777344 C9.92296012,19.8404956 10.0043395,19.921875 10.15625,19.921875 C10.373265,19.921875 10.6011273,19.7536909 10.8398437,19.4173177 L10.8398437,14.860026 L11.9303385,14.860026 Z M16.031901,16.6666667 L16.031901,19.0429688 C16.031901,19.6072077 15.993924,20.0032541 15.9179688,20.2311198 C15.7877598,20.6868512 15.5002192,20.9147135 15.0553385,20.9147135 C14.6755623,20.9147135 14.3066424,20.6922765 13.9485677,20.2473958 L13.9485677,20.8333333 L12.8580729,20.8333333 L12.8580729,12.8092448 L13.9485677,12.8092448 L13.9485677,15.4296875 C14.2957917,14.9956576 14.6647116,14.7786458 15.0553385,14.7786458 C15.5002192,14.7786458 15.7877598,15.0065081 15.9179688,15.4622396 C15.993924,15.6901053 16.031901,16.091577 16.031901,16.6666667 L16.031901,16.6666667 Z M20.1171875,18.766276 L20.1171875,18.9127604 C20.1171875,19.2274321 20.1063369,19.4607197 20.0846354,19.6126302 C20.0520832,19.8513467 19.9707038,20.0683584 19.8404948,20.2636719 C19.5475246,20.6977018 19.1135011,20.9147135 18.5384115,20.9147135 C17.9741725,20.9147135 17.5347238,20.7085524 17.2200521,20.296224 C16.9921864,20.0032537 16.8782552,19.5366785 16.8782552,18.8964844 L16.8782552,16.796875 C16.8782552,16.1566808 16.9867611,15.6901056 17.203776,15.3971354 C17.5184478,14.984807 17.9524712,14.7786458 18.5058594,14.7786458 C19.0592476,14.7786458 19.4824204,14.984807 19.7753906,15.3971354 C20.0032563,15.7009564 20.1171875,16.1675316 20.1171875,16.796875 L20.1171875,18.0338542 L17.952474,18.0338542 L17.952474,19.0917969 C17.952474,19.6451851 18.1369339,19.921875 18.5058594,19.921875 C18.7662773,19.921875 18.9290361,19.7808174 18.9941406,19.4986979 C18.9941406,19.4878472 18.9968533,19.4498701 19.0022786,19.3847656 C19.007704,19.3196611 19.0104167,19.2301438 19.0104167,19.1162109 L19.0104167,18.766276 L20.1171875,18.766276 Z M12.7766927,5.35481771 L12.7766927,7.89388021 C12.7766927,8.44726839 12.6030833,8.72395833 12.2558594,8.72395833 C11.9086354,8.72395833 11.735026,8.44726839 11.735026,7.89388021 L11.735026,5.35481771 C11.735026,4.79057878 11.9086354,4.50846354 12.2558594,4.50846354 C12.6030833,4.50846354 12.7766927,4.79057878 12.7766927,5.35481771 L12.7766927,5.35481771 Z M21.4518229,16.9596354 C21.4518229,15.0390529 21.3487424,13.6284767 21.1425781,12.7278646 C21.0340706,12.2504316 20.800783,11.8516726 20.4427083,11.5315755 C20.0846336,11.2114784 19.6723114,11.0243058 19.2057292,10.9700521 C17.7300273,10.8072909 15.4948066,10.7259115 12.5,10.7259115 C9.51604411,10.7259115 7.2862487,10.8072909 5.81054688,10.9700521 C5.33311393,11.0243058 4.91807902,11.2114784 4.56542969,11.5315755 C4.21278035,11.8516726 3.9822054,12.2504316 3.87369792,12.7278646 C3.65668294,13.6718797 3.54817708,15.0824559 3.54817708,16.9596354 C3.54817708,18.8693672 3.65668294,20.2799434 3.87369792,21.1914063 C3.9822054,21.6579884 4.21278035,22.0540348 4.56542969,22.3795573 C4.91807902,22.7050798 5.32768864,22.894965 5.79427083,22.9492188 C7.2808234,23.11198 9.51604411,23.1933594 12.5,23.1933594 C15.4839559,23.1933594 17.7191766,23.11198 19.2057292,22.9492188 C19.6723114,22.894965 20.081921,22.7050798 20.4345703,22.3795573 C20.7872196,22.0540348 21.0177946,21.6579884 21.1263021,21.1914063 C21.3433171,20.2799434 21.4518229,18.8693672 21.4518229,16.9596354 L21.4518229,16.9596354 Z M9.16341146,6.36393229 L10.6282552,1.54622396 L9.40755208,1.54622396 L8.57747396,4.72005208 L7.71484375,1.54622396 L6.4453125,1.54622396 C6.53211849,1.79579118 6.66232552,2.17013639 6.8359375,2.66927083 C7.00954948,3.16840527 7.13433122,3.54275049 7.21028646,3.79231771 C7.59006266,4.90994482 7.83962614,5.76714111 7.95898438,6.36393229 L7.95898438,9.63541667 L9.16341146,9.63541667 L9.16341146,6.36393229 Z M13.8671875,7.68229167 L13.8671875,5.56640625 C13.8671875,4.93706283 13.7532563,4.46506234 13.5253906,4.15039062 C13.2107189,3.73806217 12.7875461,3.53190104 12.2558594,3.53190104 C11.7024712,3.53190104 11.2792983,3.73806217 10.9863281,4.15039062 C10.7584624,4.46506234 10.6445312,4.93706283 10.6445312,5.56640625 L10.6445312,7.68229167 C10.6445312,8.31163509 10.7584624,8.78363558 10.9863281,9.09830729 C11.2792983,9.51063574 11.7024712,9.71679687 12.2558594,9.71679687 C12.7875461,9.71679687 13.2107189,9.51063574 13.5253906,9.09830729 C13.7532563,8.80533708 13.8671875,8.33333659 13.8671875,7.68229167 L13.8671875,7.68229167 Z M16.813151,9.63541667 L17.9036458,9.63541667 L17.9036458,3.61328125 L16.813151,3.61328125 L16.813151,8.21940104 C16.5744346,8.55577425 16.3465723,8.72395833 16.1295573,8.72395833 C15.9667961,8.72395833 15.8799914,8.63715365 15.8691406,8.46354167 C15.8582899,8.44184017 15.8528646,8.30078255 15.8528646,8.04036458 L15.8528646,3.61328125 L14.7623698,3.61328125 L14.7623698,8.38216146 C14.7623698,8.78363916 14.7949215,9.08203027 14.860026,9.27734375 C14.9793843,9.57031396 15.2126719,9.71679687 15.5598958,9.71679687 C15.9505228,9.71679687 16.3682703,9.47265869 16.813151,8.984375 L16.813151,9.63541667 Z M25,4.6875 L25,20.3125 C25,21.6037391 24.5415627,22.7077862 23.6246745,23.6246745 C22.7077862,24.5415627 21.6037391,25 20.3125,25 L4.6875,25 C3.3962609,25 2.29221379,24.5415627 1.37532552,23.6246745 C0.458437256,22.7077862 0,21.6037391 0,20.3125 L0,4.6875 C0,3.3962609 0.458437256,2.29221379 1.37532552,1.37532552 C2.29221379,0.458437256 3.3962609,0 4.6875,0 L20.3125,0 C21.6037391,0 22.7077862,0.458437256 23.6246745,1.37532552 C24.5415627,2.29221379 25,3.3962609 25,4.6875 L25,4.6875 Z" id="" sketch:type="MSShapeGroup"></path>
        </g>
    </g>
</svg>